<svg width="24" height="24" viewBox="0 0 24 24" fill="none" xmlns="http://www.w3.org/2000/svg"><path d="M12 3c-4.956 0-9 4.045-9 9 0 4.956 4.045 9 9 9 4.956 0 9-4.045 9-9 0-4.956-4.045-9-9-9zm-1.75 1.25a10.438 10.438 0 00-2.201 3.004H5.632a7.963 7.963 0 014.618-3.005zM4.966 8.301h2.637a10.94 10.94 0 00-.633 3.17H4.073a7.92 7.92 0 01.893-3.17zm-.893 4.225H6.97a10.87 10.87 0 00.633 3.164H4.966a7.887 7.887 0 01-.893-3.164zm1.559 4.22h2.417l.095.19a10.438 10.438 0 002.106 2.814 7.963 7.963 0 01-4.618-3.005zm5.84 2.675a9.58 9.58 0 01-2.225-2.676h2.226v2.676zm0-3.73H8.738a9.7 9.7 0 01-.71-3.165h3.446v3.164zm0-4.22H8.027a9.7 9.7 0 01.711-3.163h2.736v3.164zm0-4.218H9.248a9.58 9.58 0 012.226-2.676v2.676zm8.455 4.219H17.03a10.896 10.896 0 00-.633-3.164h2.637c.504.956.819 2.028.893 3.164zm-1.559-4.22h-2.417a10.44 10.44 0 00-2.201-3.005 7.963 7.963 0 014.618 3.006zm-5.84-2.675a9.58 9.58 0 012.225 2.676h-2.226V4.578zm0 3.73h2.735a9.7 9.7 0 01.71 3.165h-3.446V8.309zm0 4.212h3.446a9.741 9.741 0 01-.711 3.171h-2.736v-3.17zm0 6.902v-2.683h2.225a9.609 9.609 0 01-2.226 2.683zm1.222.329a10.475 10.475 0 002.201-3.012h2.417a7.973 7.973 0 01-4.618 3.012zm5.284-4.06h-2.636c.365-1.01.58-2.088.632-3.17h2.897a7.919 7.919 0 01-.893 3.17z" fill="#238C6C"/></svg>