<svg width="24" height="24" viewBox="0 0 24 24" fill="none" xmlns="http://www.w3.org/2000/svg"><path d="M18.556 11.522l-1.328-1.328a.676.676 0 00-.955.955l1.328 1.328c1.403 1.403 1.401 3.703 0 5.123-1.403 1.403-3.702 1.401-5.123 0l-1.328-1.328a.675.675 0 10-.955.955l1.331 1.331A5 5 0 0015.046 20a4.951 4.951 0 003.513-1.448c1.924-1.95 1.923-5.104-.003-7.03zm-4.75-4.749l-1.331-1.331c-1.95-1.924-5.104-1.923-7.033.006-1.924 1.95-1.922 5.103.003 7.03l1.329 1.327a.672.672 0 00.954 0 .675.675 0 000-.955L6.4 11.522C4.998 10.12 5 7.82 6.4 6.4c1.403-1.403 3.703-1.401 5.123 0l1.328 1.328a.675.675 0 10.955-.955z" fill="#238C6C" stroke="#238C6C" stroke-width=".3"/><path d="M14.189 13.233l-3.421-3.421a.675.675 0 10-.955.955l3.421 3.421a.673.673 0 00.955 0 .675.675 0 000-.955z" fill="#238C6C" stroke="#238C6C" stroke-width=".3"/></svg>