<svg width="24" height="24" viewBox="0 0 24 24" fill="none" xmlns="http://www.w3.org/2000/svg"><path d="M21.013 7.278l-5.171-5.171A.394.394 0 0015.585 2H8.128A1.86 1.86 0 006.27 3.859v7.2h-2.2A1.06 1.06 0 003 12.13v6.26c0 .598.47 1.068 1.068 1.068H6.27v.684A1.86 1.86 0 008.13 22h11.153a1.86 1.86 0 001.859-1.859V7.534a.582.582 0 00-.128-.256zm-1.175-.107h-2.8a1.117 1.117 0 01-1.11-1.111v-2.8l3.91 3.91zM3.748 18.368v-6.261c0-.171.15-.32.32-.32H14.88c.171 0 .32.149.32.32v6.26a.329.329 0 01-.32.321H4.068c-.17 0-.32-.15-.32-.32zm15.534 2.841H8.128a1.117 1.117 0 01-1.11-1.11v-.684h7.841c.598 0 1.068-.47 1.068-1.069v-6.24c0-.598-.47-1.067-1.068-1.067H7.017V3.838c0-.599.492-1.111 1.111-1.111h7.073V6.06a1.86 1.86 0 001.859 1.859h3.333v12.2a1.127 1.127 0 01-1.11 1.09z" fill="#238C6C" stroke="#238C6C" stroke-width=".5" stroke-linejoin="round"/><path d="M7.423 14.735c0-.62-.491-1.047-1.154-1.047H4.88v3.077h.663v-1.004h.726c.663.021 1.154-.406 1.154-1.026zm-1.24.428h-.662v-.877h.663c.32 0 .555.171.555.428 0 .256-.235.448-.555.448zm4.766.064c0-.898-.727-1.539-1.774-1.539H8.064v3.077h1.111c1.047.021 1.774-.62 1.774-1.538zm-2.201-.94h.534c.513-.043.961.363 1.004.875a.932.932 0 01-1.004 1.005h-.534v-1.88zm3.612 1.282h1.538v-.599h-1.539v-.684h1.71v-.598h-2.372v3.098h.662v-1.218z" fill="#238C6C" stroke="#238C6C" stroke-width=".2" stroke-linejoin="round"/></svg>