<svg width="111" height="40" viewBox="0 0 111 40" fill="none" xmlns="http://www.w3.org/2000/svg"><g id="Icon/Special/Logo" clip-path="url(#clip0_3927_38004)"><path id="Vector" d="M43.637 29.689v1.163h-3.4v3.41h3.165v1.164h-3.166v4.393h-1.915V29.69h5.316z" fill="#00573D"/><path id="Vector_2" d="M45.574 28.405l1.173 1.203-1.173 1.204-1.172-1.204 1.172-1.203zm.88 3.831v7.583h-1.759v-7.583h1.759z" fill="#00573D"/><path id="Vector_3" d="M49.948 32.237l.04 1.886c.39-1.284 1.152-2.006 1.856-2.006.176 0 .371.02.684.12l-.293 1.585c-.215-.06-.43-.1-.587-.1-.508 0-1.035.38-1.29 1.063-.253.642-.253 1.805-.253 2.327v2.728h-1.76v-7.583h1.603v-.02z" fill="#00573D"/><path id="Vector_4" d="M56.673 33.42c-.43-.2-.84-.32-1.31-.32-.683 0-1.015.36-1.015.782 0 .32.254.662.86 1.063l.644.441c.782.521 1.564 1.163 1.564 2.287 0 1.304-1.036 2.327-2.619 2.327a4.02 4.02 0 01-2.071-.562l.43-.923c.37.201.938.482 1.602.482.567 0 1.075-.321 1.075-.943 0-.662-.704-1.023-1.212-1.384l-.586-.421c-.82-.582-1.29-1.184-1.29-2.007 0-1.123 1.016-2.106 2.56-2.106.274 0 .938.02 1.74.381l-.372.903z" fill="#00573D"/><path id="Vector_5" d="M60.306 30.231v2.006h1.387v.983h-1.329v4.493c0 .642 0 1.144.645 1.144.235 0 .43-.06.567-.12l.254.982c-.488.16-.997.221-1.524.221-.704 0-1.251-.24-1.505-.762-.215-.401-.195-.903-.195-1.324V33.24H57.57v-.983h1.114l.039-2.006h1.583v-.02z" fill="#00573D"/><path id="Vector_6" d="M69.397 29.689c.899 0 1.68.06 2.364.441.645.361 1.036 1.023 1.036 1.866 0 1.083-.664 2.086-2.071 2.487.37.06.898.14 1.446.502.606.421.977 1.063.977 1.946 0 .963-.489 1.925-1.446 2.387-.606.36-1.29.501-2.853.501h-2.443V29.69h2.99zm-.489 4.353c.391 0 .958 0 1.349-.22.469-.282.683-.883.683-1.545 0-.422-.097-.943-.488-1.244-.332-.26-.762-.26-1.407-.26h-.743v3.269h.606zm.137 4.674c.41 0 1.055 0 1.466-.28.508-.342.664-1.004.664-1.626 0-.541-.137-1.123-.606-1.444-.39-.28-.899-.3-1.66-.3h-.626v3.65h.762z" fill="#00573D"/><path id="Vector_7" d="M78.034 39.84l-.118-1.264c-.508.963-1.29 1.424-2.169 1.424-1.31 0-2.013-1.023-2.013-2.046 0-1.645 1.622-2.287 4.085-3.15v-.2c0-.983-.547-1.384-1.446-1.384-.763 0-1.388.321-1.818.562l-.41-.943c.645-.341 1.544-.722 2.618-.722.684 0 2.013.18 2.54 1.183.196.361.235.702.235 1.525v2.267c0 .922.04 1.865.215 2.788h-1.72v-.04zm-2.6-2.086c0 .762.528 1.123.997 1.123.508 0 .9-.341 1.095-.843.234-.541.273-1.143.273-1.945v-.402c-1.68.683-2.364 1.104-2.364 2.067z" fill="#00573D"/><path id="Vector_8" d="M82.916 32.237l.059 1.324c.528-1.104 1.388-1.465 2.189-1.465.996 0 1.622.562 1.915 1.144.215.44.234 1.083.234 1.845v4.774h-1.758v-4.633c0-.482.097-1.886-1.056-1.886-1.426 0-1.387 2.146-1.387 2.868v3.651h-1.759v-7.582h1.563v-.04z" fill="#00573D"/><path id="Vector_9" d="M90.89 28.686v6.981l2.795-3.43h1.407l-2.677 3.089 2.931 4.493h-2.09l-2.365-3.79v3.79h-1.76V28.686h1.76z" fill="#00573D"/><path id="Vector_10" d="M101.013 7.884l-2.424-.702s-.644 2.307-3.576 5.195l.84.682s3.303-2.106 5.16-5.175zm-2.052 3.25s-1.25 3.19-4.182 6.078l.84.682s.743-.562 1.74-1.485v7.383h2.07v-9.429a16.62 16.62 0 001.936-2.527l-2.404-.703zm3.068-2.709V9.63h8.97V8.425h-8.97zm-.821 5.657h6.254v8.506h-2.521v1.223h3.4c.801 0 1.192-.14 1.192-1.845v-7.884h1.466V12.86h-9.791v1.223z" fill="#00573D"/><path id="Vector_11" d="M80.574 16.088h1.934v-1.223h-1.934V13.32h1.368v-1.224h-4.436c.625-.642 1.387-1.504 2.012-2.467 1.29 1.785 2.912 2.708 2.912 2.708l.508-.822c-1.934-2.127-2.15-4.053-2.15-4.053h-2.481s-.489 2.608-2.795 5.136l.567.802s.43-.34 1.016-.923v.843h1.368v1.545H76.06v1.223h2.404v3.752c-.371-.602-1.348-2.348-1.778-2.809l-.84.462s.84 2.206 1.016 3.63l1.582-1.003v1.445l-2.872.642.547 1.825 6.234-2.186.098-1.184-1.935.441v-5.015h.059zm.02 3.792l.957.3c.41-.641 1.504-2.708 1.504-2.708l-1.602-.581c-.273 1.905-.86 2.989-.86 2.989zm8.617-.883c2.013-.682 2.658-1.264 2.658-1.264l-1.036-1.504c-.527.702-1.309 1.284-1.895 1.665a11.287 11.287 0 01-.176-2.227h1.133c.802 0 1.192-.14 1.192-1.845V8.024H83.27v13.942c0 1.705.391 2.006 1.173 1.825.176-.04.313-.06.43-.1l3.068-.682v-1.224l-2.58.582v-6.72h1.466c0 1.184.254 6.138 4.534 8.164l.606-.742c-.02 0-1.876-1.243-2.756-4.072zm-3.869-9.75h3.654v2.007h-3.654V9.248zm0 5.176v-1.966h3.654v1.966h-3.654z" fill="#00573D"/><path id="Vector_12" d="M47.235 17.713v-1.625h4.495c.8 0 1.192-.14 1.192-1.845v-2.227H39.379v1.224h5.784v1.625h-6.78v1.986c0 1.705.39 2.086 1.191 2.086h3.733c-.293.622-1.544 2.307-5.296 4.072l.488.943s3.987-.963 6.664-4.072v4.152h2.072v-5.095h4.416v2.828h-2.657v1.224h3.556c.802 0 1.192-.14 1.192-1.846v-3.41h-6.507v-.02zm0-4.473h3.615v1.625h-3.615V13.24zm-2.072 4.473h-4.71v-1.625h4.71v1.625zm-4.28-7.883h.84c.216.3.802.882 1.134 1.825l1.68-.562s-.488-.601-1.21-1.263h2.657V8.606H41.92c.235-.301.47-.622.704-.963l-2.267-.702s-.41 2.086-2.502 4.293l.84.562c-.019 0 .822-.442 2.19-1.966zm5.746 1.966s.84-.442 2.208-1.966h.84c.215.3.821.882 1.134 1.825l1.68-.562c-.547-.682-.547-.662-1.211-1.263h2.54V8.606h-3.947c.235-.301.469-.622.704-.963l-2.267-.702s-.41 2.086-2.502 4.293l.821.562z" fill="#00573D"/><path id="Vector_13" d="M72.286 14.824v1.625h-15.79v-1.645h15.79v.02z" fill="#00573D"/><path id="Vector_14" d="M15.677 10.53l-5.015 5.15 5.017 5.147 5.015-5.15-5.017-5.148z" fill="#B3863B"/><path id="Vector_15" d="M15.694 10.532l5.023 5.155h-.508l-4.515-4.634v-.521z" fill="#C89E4E"/><path id="Vector_16" d="M15.692 11.053l-4.534 4.634h-.489l5.023-5.155v.521z" fill="#DDC39C"/><path id="Vector_17" d="M15.692 20.843l-5.023-5.156h.489l4.534 4.634v.521z" fill="#C89E4E"/><path id="Vector_18" d="M15.694 20.32l4.515-4.633h.508l-5.023 5.156v-.522z" fill="#804C2E"/><path id="Vector_19" d="M2.99 15.406c0-7.863 6.293-14.243 14.05-14.243 3.48 0 6.684 1.284 9.127 3.41l.117-.12A15.338 15.338 0 0015.478 0C6.938 0 0 7.021 0 15.687c0 7.162 5.706 12.718 12.761 12.718 3.81 0 7.23-1.484 9.556-4.172l-.078-.08c-2.052 1.785-4.73 2.768-7.68 2.768-6.37.04-11.569-5.015-11.569-11.515z" fill="url(#paint0_linear_3927_38004)"/><path id="Vector_20" d="M28.376 15.968c0 7.864-6.292 14.243-14.05 14.243a13.876 13.876 0 01-9.127-3.41l-.117.12a15.288 15.288 0 0010.807 4.454c8.56 0 15.477-7.022 15.477-15.688 0-7.161-5.706-12.718-12.76-12.718-3.812 0-7.231 1.485-9.557 4.173l.078.08c2.033-1.825 4.73-2.808 7.66-2.808 6.41 0 11.59 5.055 11.59 11.554z" fill="url(#paint1_linear_3927_38004)"/><path id="Vector_21" d="M15.535 26.44c-5.765 0-10.65-4.795-10.65-10.713 0-8.626 6.136-13.6 13.444-13.6 2.893 0 5.57.942 7.74 2.567l.097-.08a13.914 13.914 0 00-9.126-3.41c-7.759 0-14.051 6.379-14.051 14.242 0 6.5 5.178 11.555 11.569 11.555 2.95 0 5.628-.983 7.68-2.768l-.137-.14a10.405 10.405 0 01-6.566 2.346z" fill="url(#paint2_linear_3927_38004)"/><path id="Vector_22" d="M17.06 1.164c-7.798 0-14.11 6.379-14.11 14.262 0 6.5 5.217 11.555 11.627 11.555 2.951 0 5.648-.983 7.7-2.768l-.04-.04c-2.031 1.725-4.67 2.648-7.562 2.648-6.39 0-11.569-5.016-11.569-11.435.02-7.783 6.312-14.082 14.05-14.082 3.44 0 6.567 1.244 9.01 3.29l.02-.02a13.876 13.876 0 00-9.127-3.41z" fill="url(#paint3_linear_3927_38004)"/><path id="Vector_23" d="M15.83 4.935c5.765 0 10.65 4.794 10.65 10.712 0 8.626-6.136 13.62-13.444 13.62-2.893 0-5.57-.962-7.74-2.567l-.077.1a13.914 13.914 0 009.126 3.41c7.758 0 14.05-6.379 14.05-14.242 0-6.5-5.178-11.555-11.588-11.555-2.95 0-5.628.983-7.68 2.768l.137.14a10.213 10.213 0 016.566-2.386z" fill="url(#paint4_linear_3927_38004)"/><path id="Vector_24" d="M14.303 30.21c7.798 0 14.11-6.379 14.11-14.262 0-6.5-5.218-11.555-11.628-11.555-2.95 0-5.647.983-7.719 2.768l.04.04c2.032-1.725 4.67-2.668 7.562-2.668 6.39 0 11.57 5.016 11.57 11.435 0 7.783-6.274 14.102-14.032 14.102-3.44 0-6.566-1.244-9.01-3.29l-.019.02a13.914 13.914 0 009.127 3.41z" fill="url(#paint5_linear_3927_38004)"/></g><defs><linearGradient id="paint0_linear_3927_38004" x1="3.189" y1="25.174" x2="25.209" y2="3.224" gradientUnits="userSpaceOnUse"><stop stop-color="#B3863B"/><stop offset=".12" stop-color="#B4883E"/><stop offset=".22" stop-color="#B98E48"/><stop offset=".31" stop-color="#C09959"/><stop offset=".39" stop-color="#CAA871"/><stop offset=".47" stop-color="#D7BB8F"/><stop offset=".5" stop-color="#DDC39C"/><stop offset=".53" stop-color="#D7BB8F"/><stop offset=".61" stop-color="#CAA871"/><stop offset=".69" stop-color="#C09959"/><stop offset=".78" stop-color="#B98E48"/><stop offset=".88" stop-color="#B4883E"/><stop offset="1" stop-color="#B3863B"/></linearGradient><linearGradient id="paint1_linear_3927_38004" x1="27.917" y1="6.263" x2="6.397" y2="28.17" gradientUnits="userSpaceOnUse"><stop stop-color="#00573D"/><stop offset=".12" stop-color="#03593F"/><stop offset=".21" stop-color="#0D6046"/><stop offset=".3" stop-color="#1E6C53"/><stop offset=".38" stop-color="#367C64"/><stop offset=".46" stop-color="#549279"/><stop offset=".5" stop-color="#69A088"/><stop offset=".54" stop-color="#549279"/><stop offset=".62" stop-color="#367C64"/><stop offset=".7" stop-color="#1E6C53"/><stop offset=".79" stop-color="#0D6046"/><stop offset=".88" stop-color="#03593F"/><stop offset="1" stop-color="#00573D"/></linearGradient><linearGradient id="paint2_linear_3927_38004" x1="16.025" y1="2.353" x2="11.799" y2="22.046" gradientUnits="userSpaceOnUse"><stop stop-color="#804C2E"/><stop offset=".3" stop-color="#B3863B"/><stop offset="1" stop-color="#804C2E"/></linearGradient><linearGradient id="paint3_linear_3927_38004" x1="15.787" y1="2.688" x2="11.98" y2="22.389" gradientUnits="userSpaceOnUse"><stop stop-color="#C89E4E"/><stop offset=".3" stop-color="#F4E8D0"/><stop offset="1" stop-color="#C89E4E"/></linearGradient><linearGradient id="paint4_linear_3927_38004" x1="19.393" y1="9.348" x2="15.025" y2="28.97" gradientUnits="userSpaceOnUse"><stop stop-color="#004730"/><stop offset=".7" stop-color="#00573D"/><stop offset="1" stop-color="#004730"/></linearGradient><linearGradient id="paint5_linear_3927_38004" x1="15.437" y1="28.967" x2="19.522" y2="9.341" gradientUnits="userSpaceOnUse"><stop stop-color="#007559"/><stop offset=".3" stop-color="#EAF5F5"/><stop offset="1" stop-color="#007559"/></linearGradient><clipPath id="clip0_3927_38004"><path fill="#fff" d="M0 0h111v40H0z"/></clipPath></defs></svg>