<svg width="16" height="16" viewBox="0 0 16 16" fill="none" xmlns="http://www.w3.org/2000/svg"><path d="M12.001 13.334h-8c-.733 0-1.333-.6-1.333-1.334V4c0-.733.6-1.333 1.333-1.333h2.667c.4 0 .667.267.667.667S7.068 4 6.668 4H4.001v8h8V9.334c0-.4.267-.667.667-.667s.667.267.667.667V12c0 .734-.6 1.334-1.334 1.334zm1.331-6.667c-.4 0-.667-.267-.667-.667V3.333H10c-.4 0-.667-.266-.667-.666S9.599 2 9.999 2h3.333c.4 0 .667.267.667.667V6c0 .4-.267.667-.667.667z" fill="#fff"/><path d="M8.667 8a.605.605 0 01-.467-.2.644.644 0 010-.933L12.867 2.2a.644.644 0 01.933 0 .644.644 0 010 .933L9.133 7.8a.605.605 0 01-.466.2z" fill="#fff"/></svg>