<svg width="24" height="24" viewBox="0 0 24 24" fill="none" xmlns="http://www.w3.org/2000/svg"><g id="Icon/24/LINE"><path id="Subtract" fill-rule="evenodd" clip-rule="evenodd" d="M22 10.591C22 6.13 17.512 2.5 12 2.5c-5.514 0-10 3.63-10 8.091 0 4 3.558 7.35 8.363 7.983.325.07.769.214.881.491.101.253.066.647.033.902l-.143.854-.003.02c-.048.27-.17.954.87.517 1.067-.449 5.758-3.381 7.856-5.789C21.305 13.984 22 12.377 22 10.591zm-3.328 2.577h-2.81a.19.19 0 01-.19-.19V8.625a.19.19 0 01.19-.19h2.81c.104 0 .19.086.19.19v.708a.19.19 0 01-.19.19h-1.91v.735h1.91c.104 0 .19.086.19.19v.708a.19.19 0 01-.19.19h-1.91v.735h1.91c.104 0 .19.086.19.19v.708a.19.19 0 01-.19.19v-.002zm-10.2-.19c0 .105-.087.19-.192.19H5.47a.19.19 0 01-.191-.19V8.624a.19.19 0 01.191-.19h.71a.19.19 0 01.19.19v3.454h1.91c.105 0 .191.086.191.19v.708zm1.5-4.542h-.71a.19.19 0 00-.19.19v4.351a.19.19 0 00.19.191h.709a.19.19 0 00.191-.19V8.625a.19.19 0 00-.191-.19zm4.117 0h.71c.107 0 .192.087.192.191v4.351a.191.191 0 01-.191.191h-.705a.216.216 0 01-.05-.007h-.002a.071.071 0 01-.013-.003l-.006-.002h-.002l-.008-.004a.023.023 0 00-.004-.002l-.005-.002-.006-.003-.004-.003-.008-.005-.002-.002a.182.182 0 01-.05-.047l-1.998-2.693v2.584a.19.19 0 01-.192.19h-.71a.191.191 0 01-.19-.19V8.63c0-.106.086-.192.19-.192h.728l.005.001.008.001.004.002.008.001.006.002.006.002.005.002h.004l.003.002c.004 0 .008.002.011.004l.006.003.01.006c.001 0 .002 0 .003.002l.003.001.01.007c.002 0 .004.003.006.004l.005.004.005.004.002.002.002.001a.256.256 0 01.005.006l.006.006.001.001.007.01a.208.208 0 01.008.01l1.996 2.688V8.626a.19.19 0 01.191-.19z" fill="#1C795D"/></g></svg>