<svg width="28" height="28" viewBox="0 0 28 28" fill="none" xmlns="http://www.w3.org/2000/svg"><path d="M14.812 1.015a.81.81 0 00-.812.812l.003 11.365a.81.81 0 00.812.812L26.174 14a.812.812 0 00.811-.812c0-6.713-5.46-12.173-12.173-12.173z" fill="#238C6C"/><path d="M25.032 15.902a.814.814 0 00-.612-.279H12.376V3.58a.809.809 0 00-.28-.612.795.795 0 00-.645-.191C5.5 3.616 1.014 8.79 1.014 14.812c0 6.713 5.46 12.173 12.174 12.173 6.022 0 11.196-4.488 12.036-10.438a.799.799 0 00-.192-.645z" fill="#238C6C"/></svg>