<svg width="63" height="41" viewBox="0 0 63 41" fill="none" xmlns="http://www.w3.org/2000/svg"><g id="Group 1946"><path id="Vector" d="M24.026 33.453S15.765 19.508 9.402 16.277c.397-2.912.516-4.328-1.942-5.584-2.457-1.256-5.086 2.55-4.168 4.008.852 2.447 3.368 3.163 3.368 3.163s-1.787 19.339 8.015 23.205c9.803 3.867 9.351-7.616 9.351-7.616z" fill="#FBE9C9"/><g id="Group 1945"><path id="Vector_2" d="M11.099 21.104c-.268.052-2.297-.471-2.48-.703 2.318-1.165 3.185-4.073 4.825-5.623 6.972-6.59 13.915-10.77 23.613-9.273 3.707.572 7.311 1.95 10.416 4.06 2.257 1.534 4.217 3.802 5.865 5.964 1.73 2.27 2.226 3.304 3.259 5.972 1.307 3.377 3.221 4.88 3.221 4.88s-2.896.59-3.91-.09c.553.342.923 4.42.908 5.077-.034 1.68-.236 3.353-.545 5.004-1.299 6.939-4.52 7.696-5.026 11.045-.807.085-2.1-1.515-2.024-2.536-.162 2.185-2.03 4.06-3.271 4.975-4.554 3.359-14.665 3.822-17.354 3.886a2.889 2.889 0 01-1.281-.265c-2.824-1.3-14.509-7.068-16.435-14.388-.22-.833-.478-1.966-.395-2.266-.272.972-.919 2.184-1.372 2.131-.144-2.474-1.522-3.312-1.366-7.51.132-3.582 1.549-6.71 3.352-10.34z" fill="#F5B64C"/><path id="Vector_3" d="M16.77 7.843a4.744 4.744 0 015.816-3.347c1.864.502 3.2 2.25 3.485 4.042l-5.954 5.12a4.744 4.744 0 01-3.347-5.815zm3.922 3.546l3.197-2.873a2.562 2.562 0 10-3.198 2.873h.001z" fill="#F5B64C"/><path id="Vector_4" d="M49.277 7.374a4.757 4.757 0 01.542 9.496l-4.717-6.438a4.757 4.757 0 014.176-3.058h-.001zm.4 7.177a2.749 2.749 0 10-.314-5.49 2.75 2.75 0 00-2.414 1.769l2.727 3.722h.002z" fill="#F5B64C"/><path id="Vector_5" d="M46.845 11.768a2.961 2.961 0 115.922.092 2.961 2.961 0 01-5.922-.092z" fill="#FBE9C9"/><path id="Vector_6" d="M19.319 11.158a2.961 2.961 0 113.788-4.553 2.961 2.961 0 01-3.788 4.553z" fill="#FBE9C9"/><g id="Group"><path id="Vector_7" d="M46.531 22.496c-1.633-5.73-7.64-8.858-12.005-10.164 0 0-4.471-1.526-4.166.76 0 0 1.025 2.714-3.11 1.087-5.265-2.072-10.939 7.464-10.912 13.781.027 6.134 5.922 11.677 17.291 12.16 1.157.05 5.7-.177 7.811-1.12 8.801-3.93 6.452-11.735 5.093-16.506l-.002.002z" fill="#FBE9C9"/><path id="Vector_8" d="M28.613 17.577c-.186.348.09.86.62 1.146.53.285 1.111.233 1.298-.115.187-.349-.09-.861-.62-1.146-.53-.285-1.11-.234-1.298.115z" fill="#4A1D0E"/><path id="Vector_9" d="M36.339 19.425c.054.392.579.642 1.176.56.595-.08 1.035-.464.98-.856-.053-.392-.579-.642-1.176-.56-.595.081-1.035.464-.98.856z" fill="#4A1D0E"/><path id="Vector_10" d="M32.164 36.105c-.386.747-1.533.744-1.982.712a2.947 2.947 0 01-.169-.017c-1.128-.164-1.998-.827-2.233-1.225a.485.485 0 01-.054-.43.415.415 0 01.79.036c.139.176.726.667 1.61.796.44.055 1.17-.003 1.298-.254a.415.415 0 01.74.38v.002z" fill="#F0C9AE"/><path id="Vector_11" d="M33.545 29.653s-1.115 3.81-3.65 2.857c-2.533-.953-1.366-4.157-1.194-5.034.171-.877 3.01-1.584 3.01-1.584l1.834 3.76z" fill="#EE8482"/><path id="Vector_12" d="M25.708 25.225c.585-.497 1.409-.644 2.153-.64 1.235.006 2.468.544 3.287 1.454.241.27.359.595.359.93.097-.159.22-.303.354-.433 1.03-.991 2.656-1.245 4.032-1 1.044.186 2.244.546 2.977 1.345.009.009.016.02.025.03.606.68.78 1.787.105 2.482-.47.484-1.261.672-1.911.777-1.506.242-3.378.2-4.683-.672a2.64 2.64 0 01-.97-1.139 1.744 1.744 0 01-.142-.629c-.245.388-.686.552-1.148.631-1.077.188-2.274.154-3.306-.231-1.131-.423-2.357-1.864-1.133-2.905h.001z" fill="#F0C9AE"/><path id="Vector_13" d="M32.742 27.487c.643-.049 1.616-.36 1.816-1.31.324-1.538-1.689-2.422-2.797-2.551-1.277-.148-2.634.815-2.684 2.025-.043 1.03 1.269 1.492 2.258 1.741 0 0 .762.143 1.405.096l.002-.001z" fill="#4A1D0E"/><g id="Group_2" fill="#F0C9AE"><path id="Vector_14" d="M22.961 22.74a.46.46 0 01.61.23l.543 1.202a.462.462 0 01-.841.38l-.543-1.203a.462.462 0 01.231-.61z"/><path id="Vector_15" d="M21.586 22.878a.462.462 0 01.61.231l.543 1.202a.462.462 0 01-.841.38l-.543-1.202a.462.462 0 01.231-.61z"/></g><g id="Group_3" fill="#F0C9AE"><path id="Vector_16" d="M42.798 25.562a.46.46 0 01.61.23l.543 1.203a.462.462 0 01-.841.38l-.543-1.203a.462.462 0 01.23-.61z"/><path id="Vector_17" d="M41.424 25.702a.462.462 0 01.61.23l.543 1.203a.462.462 0 01-.841.38l-.543-1.203a.462.462 0 01.23-.61z"/></g><path id="Vector_18" d="M37.145 24.048a1.637 1.637 0 001.738-1.518 1.637 1.637 0 00-1.518-1.739 1.637 1.637 0 00-1.738 1.518 1.637 1.637 0 001.518 1.739z" fill="#4B1E0E"/><path id="Vector_19" d="M28.137 22.65a1.637 1.637 0 001.738-1.517 1.637 1.637 0 00-1.517-1.738 1.637 1.637 0 00-1.739 1.517 1.637 1.637 0 001.518 1.739z" fill="#4B1E0E"/></g></g></g></svg>