<svg width="32" height="32" viewBox="0 0 32 32" fill="none" xmlns="http://www.w3.org/2000/svg"><g clip-path="url(#clip0_4091_24077)" id="Frame 3930"><circle id="Ellipse 236" cx="16" cy="16" r="16" fill="#1C795D"/><g id="Group 1954"><path id="Vector" d="M25.22 32.633s-2.485 5.151-11.14 5.695l-1.823-.397s-5.74-.77-8.6-8.15l21.564 2.851v.001z" fill="#13AE67"/><g id="Group 1946"><g id="Group 1945"><path id="Vector_2" d="M1.942 15.751c-.168.033-1.447-.296-1.562-.442 1.46-.735 2.006-2.567 3.04-3.544 4.393-4.152 8.768-6.786 14.88-5.843 2.336.36 4.607 1.229 6.563 2.559 1.422.966 2.658 2.395 3.696 3.757 1.09 1.43 1.402 2.082 2.053 3.763.824 2.128 2.03 3.075 2.03 3.075s-1.825.372-2.463-.056c.347.215.58 2.785.572 3.199a19.328 19.328 0 01-.345 3.153c-.818 4.372-2.847 4.85-3.166 6.96-.508.053-1.323-.955-1.276-1.599-.102 1.377-1.279 2.559-2.06 3.135-2.87 2.117-9.241 2.408-10.935 2.449a1.816 1.816 0 01-.808-.167c-1.78-.819-9.142-4.454-10.356-9.066-.138-.525-.3-1.239-.249-1.428-.17.612-.578 1.376-.864 1.343-.09-1.559-.959-2.087-.86-4.732.082-2.257.975-4.229 2.111-6.516z" fill="#F5B64C"/><path id="Vector_3" d="M5.515 7.395a2.99 2.99 0 013.664-2.109c1.175.316 2.016 1.418 2.196 2.547L7.623 11.06a2.99 2.99 0 01-2.108-3.664zm2.47 2.235L10 7.819a1.614 1.614 0 10-2.015 1.81z" fill="#F5B64C"/><path id="Vector_4" d="M25.998 7.1a2.997 2.997 0 01.342 5.983l-2.973-4.057A2.997 2.997 0 0126 7.1h-.001zm.253 4.522a1.732 1.732 0 10-1.72-2.345l1.719 2.346v-.001z" fill="#F5B64C"/><path id="Vector_5" d="M24.466 9.868a1.866 1.866 0 113.73.058 1.866 1.866 0 01-3.73-.058z" fill="#FBE9C9"/><path id="Vector_6" d="M7.12 9.484a1.866 1.866 0 112.387-2.869 1.866 1.866 0 01-2.386 2.869z" fill="#FBE9C9"/><g id="Group"><path id="Vector_7" d="M24.452 17.607c-.63-3.702-4.18-6.071-6.825-7.188 0 0-2.696-1.262-2.661.191 0 0 .457 1.77-2.023.468-3.156-1.657-7.362 3.928-7.777 7.887-.402 3.843 2.91 7.719 10 8.799.72.11 3.582.278 4.969-.168 5.781-1.86 4.844-6.909 4.318-9.99z" fill="#FBE9C9"/><path id="Vector_8" d="M12.978 13.529c-.118.22.057.542.39.722.334.18.7.147.818-.073.118-.22-.057-.542-.39-.722-.334-.18-.7-.147-.818.073z" fill="#4A1D0E"/><path id="Vector_9" d="M17.845 14.693c.034.247.365.405.741.354.375-.052.652-.293.618-.54-.034-.247-.365-.405-.741-.353-.375.051-.652.293-.618.54z" fill="#4A1D0E"/><path id="Vector_10" d="M15.213 25.203c-.242.472-.965.47-1.248.45a1.918 1.918 0 01-.107-.011c-.71-.104-1.259-.522-1.407-.772a.305.305 0 01-.034-.271.261.261 0 01.498.023c.088.11.458.42 1.014.501.278.034.737-.002.819-.16a.262.262 0 01.466.24z" fill="#F0C9AE"/><path id="Vector_11" d="M16.084 21.138s-.703 2.4-2.3 1.8c-1.596-.6-.861-2.62-.752-3.172.108-.553 1.896-.998 1.896-.998l1.156 2.37z" fill="#EE8482"/><path id="Vector_12" d="M11.146 18.348c.368-.314.887-.406 1.356-.404a2.845 2.845 0 012.072.917.87.87 0 01.226.585c.061-.1.139-.19.223-.272.65-.625 1.673-.785 2.54-.63.658.117 1.414.344 1.876.847l.016.019c.382.428.492 1.126.066 1.564-.296.305-.794.424-1.204.49-.949.152-2.128.126-2.95-.424a1.663 1.663 0 01-.612-.717 1.099 1.099 0 01-.09-.397c-.154.244-.431.348-.722.398-.68.118-1.434.097-2.084-.146-.713-.266-1.485-1.174-.714-1.83h.001z" fill="#F0C9AE"/><path id="Vector_13" d="M15.578 19.773c.405-.03 1.018-.227 1.144-.825.204-.97-1.064-1.526-1.763-1.608-.804-.093-1.659.514-1.69 1.276-.027.65.799.94 1.422 1.098 0 0 .48.09.886.06z" fill="#4A1D0E"/><g id="Group_2" fill="#F0C9AE"><path id="Vector_14" d="M9.416 16.782a.29.29 0 01.384.145l.342.758a.29.29 0 01-.53.239l-.341-.758a.29.29 0 01.145-.384z"/><path id="Vector_15" d="M8.549 16.87a.29.29 0 01.384.145l.342.757a.29.29 0 01-.53.24l-.342-.758a.29.29 0 01.146-.385z"/></g><g id="Group_3" fill="#F0C9AE"><path id="Vector_16" d="M21.916 18.56a.29.29 0 01.384.145l.342.758a.29.29 0 01-.53.239l-.341-.758a.29.29 0 01.145-.384z"/><path id="Vector_17" d="M21.05 18.648a.29.29 0 01.385.145l.342.758a.29.29 0 01-.53.24l-.342-.759a.29.29 0 01.146-.384z"/></g><path id="Vector_18" d="M18.354 17.606a1.031 1.031 0 001.095-.957 1.032 1.032 0 00-.956-1.095 1.032 1.032 0 00-1.095.956 1.032 1.032 0 00.956 1.096z" fill="#4B1E0E"/><path id="Vector_19" d="M12.676 16.726a1.032 1.032 0 001.096-.956 1.032 1.032 0 00-.957-1.096 1.032 1.032 0 00-1.095.957 1.031 1.031 0 00.956 1.095z" fill="#4B1E0E"/></g></g></g></g></g><defs><clipPath id="clip0_4091_24077"><rect width="32" height="32" rx="16" fill="#fff"/></clipPath></defs></svg>