<svg width="268" height="136" viewBox="0 0 268 136" fill="none" xmlns="http://www.w3.org/2000/svg"><path d="M207.86 79.78l32.75-23.79c-16.24-22.31-39.28-39.34-66.08-48.04l-12.51 38.51c18.59 6.04 34.58 17.85 45.84 33.33v-.01z" fill="#FFA031"/><path d="M133.67 41.98c9.89 0 19.41 1.57 28.34 4.47l12.51-38.51c-12.87-4.18-26.59-6.44-40.85-6.44-14.26 0-27.99 2.27-40.85 6.44l12.51 38.51a91.58 91.58 0 0128.34-4.47z" fill="#FDCE5E"/><path d="M240.6 55.98l-32.75 23.79c11.01 15.13 17.51 33.75 17.51 53.9h40.48c0-29.04-9.37-55.88-25.24-77.69z" fill="#F58220"/><path d="M105.33 46.45L92.82 7.94c-26.8 8.7-49.84 25.73-66.08 48.04l32.75 23.79c11.26-15.48 27.25-27.29 45.84-33.33v.01z" fill="#B6DDBE"/><path d="M26.74 55.98C10.87 77.79 1.5 104.64 1.5 133.67h40.48c0-20.14 6.5-38.77 17.51-53.9L26.74 55.98z" fill="#EAF7EC"/><path d="M127.879 88h-2.744l-2.461-4.121c-.482-.807-.921-1.358-1.319-1.65a2.182 2.182 0 00-1.347-.44h-1.27V88h-2.343V72.873h4.814c1.569 0 2.78.355 3.633 1.064.859.704 1.289 1.703 1.289 2.999 0 1.015-.296 1.884-.889 2.607-.592.723-1.419 1.227-2.48 1.514v.039c.677.234 1.435 1.028 2.275 2.382L127.879 88zm-9.141-13.193v5.039h2.08c.866 0 1.556-.25 2.071-.752.521-.502.781-1.14.781-1.914 0-1.582-.938-2.373-2.813-2.373h-2.119zM141.219 88h-2.744l-2.461-4.121c-.482-.807-.922-1.358-1.319-1.65-.39-.293-.84-.44-1.347-.44h-1.27V88h-2.344V72.873h4.815c1.569 0 2.78.355 3.633 1.064.859.704 1.289 1.703 1.289 2.999 0 1.015-.297 1.884-.889 2.607-.592.723-1.419 1.227-2.48 1.514v.039c.677.234 1.435 1.028 2.275 2.382L141.219 88zm-9.141-13.193v5.039h2.08c.866 0 1.556-.25 2.071-.752.52-.502.781-1.14.781-1.914 0-1.582-.938-2.373-2.813-2.373h-2.119zM151.648 88h-9.404v-1.914l4.385-4.317c.976-.957 1.696-1.783 2.158-2.48a3.992 3.992 0 00.703-2.275c0-1.673-.885-2.51-2.656-2.51-1.328 0-2.604.556-3.828 1.67v-2.207c1.23-.899 2.643-1.348 4.238-1.348 1.387 0 2.49.371 3.311 1.113.827.736 1.24 1.745 1.24 3.028 0 .924-.26 1.846-.781 2.763-.521.912-1.429 1.993-2.725 3.243l-3.359 3.203v.049h6.718V88zm-55.57 14.141a77.293 77.293 0 01-1.328 3.843l-.656 1.657v21.953h-2.906v-16.156a37.179 37.179 0 01-2.047 2.843l-1.485-2.937c2.469-3.469 4.38-7.406 5.735-11.813l2.687.61zm19.813 16.453h-8.703v11h-2.891v-11h-8.766v-2.75h8.766v-3.016h-7.031v-10.297h16.796v10.297h-6.874v3.016h8.703v2.75zm-4.735-8.516v-4.828h-10.953v4.828h10.953zm4.985 17.438l-2.594 1.437c-1.083-2.281-2.682-4.828-4.797-7.641l2.469-1.374a46.51 46.51 0 014.922 7.578zm-13.344-6.297c-1.5 2.937-3.281 5.463-5.344 7.578l-2.39-1.75c1.895-1.896 3.63-4.266 5.203-7.109l2.531 1.281zm44.031-9.672h-2.875v-4h-19.781v4.031h-2.906v-6.75h11.172c-.167-.698-.563-1.625-1.188-2.781l3.234-.735c.386.844.802 2.016 1.25 3.516h11.094v6.719zm1.219 4.812h-6.656v10.203c0 .928-.23 1.646-.688 2.157-.458.521-1.146.791-2.062.812h-5.766l-.766-2.75c2.719.063 4.521.094 5.407.094.645 0 .968-.307.968-.922v-9.594h-18.281v-2.765h18.281v-4.61h2.907v4.61h6.656v2.765zm-14.438 6.875l-2.359 1.86c-1.542-1.886-3.526-3.808-5.953-5.766l2.141-1.859c2.374 1.76 4.432 3.682 6.171 5.765zm45.485-7.015c0 .791-.282 1.432-.844 1.922-.562.489-1.318.734-2.266.734h-4.093l-.829-2.625c.73.052 1.485.078 2.266.078 1.563 0 2.458-.068 2.688-.203.239-.146.359-.401.359-.766v-13.5h2.719v14.36zm-9.828-4.766h-3.782v6.438h-2.75v-6.438h-3.515c-.292 2.896-1.667 5.448-4.125 7.656l-1.953-1.984c1.979-1.75 3.109-3.641 3.39-5.672h-4v-2.5h4.219v-4.156h-3.734v-2.594h15.828v2.594h-3.36v4.156h3.782v2.5zm-6.532-2.5v-4.156h-3.265v4.156h3.265zm10.625 5.094h-2.781v-10.813h2.781v10.813zm6.75 14.906h-27.843v-2.515h12.453v-3.016h-10.5v-2.563h10.5v-2.203h2.906v2.203h10.594v2.563h-10.594v3.016h12.484v2.515z" fill="#222"/><path d="M75.053 54.034l3.212 18.924 13.594-9.988-16.806-8.936z" fill="#238C6C"/></svg>