<svg width="268" height="136" viewBox="0 0 268 136" fill="none" xmlns="http://www.w3.org/2000/svg"><path d="M207.86 79.78l32.75-23.79c-16.24-22.31-39.28-39.34-66.08-48.04l-12.51 38.51c18.59 6.04 34.58 17.85 45.84 33.33v-.01z" fill="#FFA031"/><path d="M133.67 41.98c9.89 0 19.41 1.57 28.34 4.47l12.51-38.51c-12.87-4.18-26.59-6.44-40.85-6.44-14.26 0-27.99 2.27-40.85 6.44l12.51 38.51a91.58 91.58 0 0128.34-4.47z" fill="#FDCE5E"/><path d="M240.6 55.98l-32.75 23.79c11.01 15.13 17.51 33.75 17.51 53.9h40.48c0-29.04-9.37-55.88-25.24-77.69z" fill="#F58220"/><path d="M105.33 46.45L92.82 7.94c-26.8 8.7-49.84 25.73-66.08 48.04l32.75 23.79c11.26-15.48 27.25-27.29 45.84-33.33v.01z" fill="#B6DDBE"/><path d="M26.74 55.98C10.87 77.79 1.5 104.64 1.5 133.67h40.48c0-20.14 6.5-38.77 17.51-53.9L26.74 55.98z" fill="#EAF7EC"/><path d="M127.879 88h-2.744l-2.461-4.121c-.482-.807-.921-1.358-1.319-1.65a2.182 2.182 0 00-1.347-.44h-1.27V88h-2.343V72.873h4.814c1.569 0 2.78.355 3.633 1.064.859.704 1.289 1.703 1.289 2.999 0 1.015-.296 1.884-.889 2.607-.592.723-1.419 1.227-2.48 1.514v.039c.677.234 1.435 1.028 2.275 2.382L127.879 88zm-9.141-13.193v5.039h2.08c.866 0 1.556-.25 2.071-.752.521-.502.781-1.14.781-1.914 0-1.582-.938-2.373-2.813-2.373h-2.119zM141.219 88h-2.744l-2.461-4.121c-.482-.807-.922-1.358-1.319-1.65-.39-.293-.84-.44-1.347-.44h-1.27V88h-2.344V72.873h4.815c1.569 0 2.78.355 3.633 1.064.859.704 1.289 1.703 1.289 2.999 0 1.015-.297 1.884-.889 2.607-.592.723-1.419 1.227-2.48 1.514v.039c.677.234 1.435 1.028 2.275 2.382L141.219 88zm-9.141-13.193v5.039h2.08c.866 0 1.556-.25 2.071-.752.52-.502.781-1.14.781-1.914 0-1.582-.938-2.373-2.813-2.373h-2.119zm10.547 10.429a5.655 5.655 0 003.516 1.182c.97 0 1.744-.234 2.324-.703.579-.475.869-1.117.869-1.924 0-1.777-1.296-2.666-3.887-2.666h-1.289v-1.846h1.211c2.311 0 3.467-.83 3.467-2.49 0-1.55-.882-2.324-2.647-2.324-1.041 0-2.037.351-2.988 1.054v-2.05c.996-.567 2.175-.85 3.535-.85 1.302 0 2.367.332 3.194.996.833.658 1.25 1.547 1.25 2.666 0 1.986-1.009 3.252-3.028 3.8v.038c1.068.104 1.924.488 2.569 1.153.644.657.967 1.468.967 2.431 0 1.406-.512 2.516-1.534 3.33-1.015.814-2.34 1.22-3.974 1.22-1.478 0-2.663-.263-3.555-.79v-2.227zM97.75 115.75l-1.547 2.516a10.985 10.985 0 00-1.437-2.141v13.5h-2.657v-12.063c-.76 2.146-1.666 3.974-2.718 5.485l-1.563-2.735c1.709-2.343 3.094-5.104 4.156-8.281H88.11v-2.687h4v-3.641c-1.229.292-2.072.458-2.53.5l-1.141-2.625c2.302-.239 4.828-.932 7.578-2.078l1.437 2.281c-1.031.49-1.927.839-2.687 1.047v4.516h2.593v2.687h-2.593v.25a19.69 19.69 0 012.984 3.469zm17.656-12.203c-5.562.844-11.047 1.219-16.453 1.125l-.922-2.234c.917.02 1.818.031 2.703.031 4.709 0 9.011-.313 12.907-.938l1.765 2.016zm-.703 1.828c-.406.698-1.036 1.401-1.891 2.109l-2.531-.984a14.458 14.458 0 001.985-2.078l2.437.953zm-6.047 1.469l-2.656.578a9.95 9.95 0 00-1.344-1.891l2.625-.609c.615.667 1.073 1.307 1.375 1.922zm-5 .031l-2.75.578a7.31 7.31 0 00-1.344-1.828l2.719-.563a9.887 9.887 0 011.375 1.813zm12.047 5.437H98.391v-1.718h6.968V109.5h-6.171v-1.656h15.765v1.656h-6.75v1.094h7.5v1.718zm.344 6.094h-1.922v3.125H99.25v-1.719h12.062v-1.406H97.641v-1.859h13.671v-1.281H99.156v-1.735h14.969v3.016h1.922v1.859zm-7.109 6.016l-2.516.953c-.354-.792-.901-1.646-1.641-2.563l2.469-.953c.5.594 1.062 1.448 1.688 2.563zm7.406 2.937l-2.438 1.375c-.729-1.968-1.51-3.557-2.344-4.765l2.5-1.125c1.053 1.666 1.813 3.172 2.282 4.515zm-15.813-3.234c-.719 2.104-1.562 3.781-2.531 5.031l-2.234-1.609c.958-1.281 1.734-2.818 2.328-4.609l2.437 1.187zm11.297 1.672c-.167.969-.474 1.781-.922 2.437-.437.657-1.198.985-2.281.985h-5.281c-.542 0-1-.198-1.375-.594a2.025 2.025 0 01-.547-1.422v-3.969h2.656v2.938c0 .302.099.495.297.578.208.073.802.109 1.781.109 1.042 0 1.719-.031 2.032-.093.322-.063.562-.271.718-.625.156-.365.235-.823.235-1.375l2.687 1.031zm15-23.781a105.368 105.368 0 01-.969 4.015l-.531 1.907v21.624h-2.719v-14.718a39.075 39.075 0 01-1.218 2.109l-1.594-2.875c1.864-3.187 3.333-7.443 4.406-12.766l2.625.704zm21.188 8.672h-1.922v4.281h-4.703v2.093h5.859v2.36h-5.859v1.828h6.625v2.297h-6.625v2.375h-2.657v-2.375h-5.125v-2.297h5.125v-1.828h-4.484v-2.36h4.484v-2.093h-3.812v-2.235h3.812v-2.046h-4.984v-2.329h4.984v-1.734h-3.703v-2.266h3.703v-2.562h2.657v2.562h4.703v4h1.922v2.329zm-4.578-2.329v-1.734h-2.047v1.734h2.047zm-.032 4.375v-2.046h-2.015v2.046h2.015zm4.828 13.954l-.828 2.874c-5.979 0-9.953-.265-11.922-.796-1.958-.532-3.541-1.469-4.75-2.813-.885 1.469-1.791 2.729-2.718 3.781l-2.375-1.796c1.416-1.438 2.484-2.855 3.203-4.25a25.503 25.503 0 01-2.453-5.157l2.297-1.437c.406 1.458.864 2.63 1.374 3.515.407-1.354.662-3.114.766-5.281h-3.516v-2.234c.959-1.834 1.974-4.063 3.047-6.688h-3.265v-2.5h6.234v2.5c-.677 1.75-1.604 3.86-2.781 6.328h2.937c.042 4.136-.468 7.719-1.531 10.75a8.838 8.838 0 002.891 2.266c1.104.521 2.422.823 3.953.906 1.531.073 3.302.11 5.312.11 1.49 0 2.865-.026 4.125-.078zm30.86-10.469c0 .791-.282 1.432-.844 1.922-.562.489-1.318.734-2.266.734h-4.093l-.829-2.625c.73.052 1.485.078 2.266.078 1.563 0 2.458-.068 2.688-.203.239-.146.359-.401.359-.766v-13.5h2.719v14.36zm-9.828-4.766h-3.782v6.438h-2.75v-6.438h-3.515c-.292 2.896-1.667 5.448-4.125 7.656l-1.953-1.984c1.979-1.75 3.109-3.641 3.39-5.672h-4v-2.5h4.219v-4.156h-3.734v-2.594h15.828v2.594h-3.36v4.156h3.782v2.5zm-6.532-2.5v-4.156h-3.265v4.156h3.265zm10.625 5.094h-2.781v-10.813h2.781v10.813zm6.75 14.906h-27.843v-2.515h12.453v-3.016h-10.5v-2.563h10.5v-2.203h2.906v2.203h10.594v2.563h-10.594v3.016h12.484v2.515z" fill="#222"/><path d="M133.823 34.733L125.42 51.94h16.806l-8.403-17.208z" fill="#238C6C"/></svg>