<svg width="268" height="136" viewBox="0 0 268 136" fill="none" xmlns="http://www.w3.org/2000/svg"><path d="M207.86 79.78l32.75-23.79c-16.24-22.31-39.28-39.34-66.08-48.04l-12.51 38.51c18.59 6.04 34.58 17.85 45.84 33.33v-.01z" fill="#FFA031"/><path d="M133.67 41.98c9.89 0 19.41 1.57 28.34 4.47l12.51-38.51c-12.87-4.18-26.59-6.44-40.85-6.44-14.26 0-27.99 2.27-40.85 6.44l12.51 38.51a91.58 91.58 0 0128.34-4.47z" fill="#FDCE5E"/><path d="M240.6 55.98l-32.75 23.79c11.01 15.13 17.51 33.75 17.51 53.9h40.48c0-29.04-9.37-55.88-25.24-77.69z" fill="#F58220"/><path d="M105.33 46.45L92.82 7.94c-26.8 8.7-49.84 25.73-66.08 48.04l32.75 23.79c11.26-15.48 27.25-27.29 45.84-33.33v.01z" fill="#B6DDBE"/><path d="M26.74 55.98C10.87 77.79 1.5 104.64 1.5 133.67h40.48c0-20.14 6.5-38.77 17.51-53.9L26.74 55.98z" fill="#EAF7EC"/><path d="M127.879 88h-2.744l-2.461-4.121c-.482-.807-.921-1.358-1.319-1.65a2.182 2.182 0 00-1.347-.44h-1.27V88h-2.343V72.873h4.814c1.569 0 2.78.355 3.633 1.064.859.704 1.289 1.703 1.289 2.999 0 1.015-.296 1.884-.889 2.607-.592.723-1.419 1.227-2.48 1.514v.039c.677.234 1.435 1.028 2.275 2.382L127.879 88zm-9.141-13.193v5.039h2.08c.866 0 1.556-.25 2.071-.752.521-.502.781-1.14.781-1.914 0-1.582-.938-2.373-2.813-2.373h-2.119zM141.219 88h-2.744l-2.461-4.121c-.482-.807-.922-1.358-1.319-1.65-.39-.293-.84-.44-1.347-.44h-1.27V88h-2.344V72.873h4.815c1.569 0 2.78.355 3.633 1.064.859.704 1.289 1.703 1.289 2.999 0 1.015-.297 1.884-.889 2.607-.592.723-1.419 1.227-2.48 1.514v.039c.677.234 1.435 1.028 2.275 2.382L141.219 88zm-9.141-13.193v5.039h2.08c.866 0 1.556-.25 2.071-.752.52-.502.781-1.14.781-1.914 0-1.582-.938-2.373-2.813-2.373h-2.119zm10.83 10.625c1.042.657 2.11.986 3.203.986.977 0 1.771-.267 2.383-.8.612-.535.918-1.257.918-2.169 0-1.888-1.211-2.832-3.633-2.832-.573 0-1.377.049-2.412.147v-7.891h7.686v1.973h-5.625v3.935c.566-.032.993-.049 1.279-.049 1.55 0 2.777.4 3.682 1.202.905.8 1.357 1.914 1.357 3.34 0 1.516-.501 2.727-1.504 3.632-1.002.899-2.34 1.348-4.013 1.348-1.433 0-2.54-.212-3.321-.635v-2.187zm-44.111 32.271l-1.953 1.875a16.103 16.103 0 00-1.813-3.094v13.141h-2.797v-11.766c-.76 2.25-1.677 4.021-2.75 5.313l-1.53-2.86c1.728-2.156 3.093-4.916 4.093-8.281h-3.844v-2.719h4.031v-3.781c-.99.209-1.958.36-2.906.453l-1.094-2.562c3.22-.271 6.24-.943 9.063-2.016l1.344 2.313c-1.334.562-2.537.953-3.61 1.172v4.421h2.453v2.719h-2.453v.735c1.542 1.656 2.797 3.302 3.766 4.937zm17.406-5.641h-17.75v-2.171h7.485v-1.219h-6.047v-2.016h6.047v-1.218h-6.72v-2.079h6.72v-1.562h2.75v1.562h6.812v2.079h-6.812v1.218h6.015v2.016h-6.015v1.219h7.515v2.171zm-1.687 13.126h-10.11l1.594 1.468c-2.417 1.375-4.839 2.433-7.266 3.172l-1.765-2.187c2.354-.532 4.437-1.349 6.25-2.453h-3.266v-11.75h14.563v11.75zm-2.782-8.297v-1.313h-9v1.313h9zm0 3.078v-1.25h-9v1.25h9zm0 3.172v-1.313h-9v1.313h9zm4.5 4.578l-1.14 2.265a34.132 34.132 0 00-6.563-1.953l1.047-2.328a32.896 32.896 0 016.656 2.016zm13.282-12.844l-1.891 2.156a22.286 22.286 0 00-1.266-2.656v15.25h-2.703V116.25c-.479 1.812-1.234 3.573-2.265 5.281l-1.469-3.156c1.396-2.396 2.536-5.245 3.422-8.547h-3.235v-2.75h3.547v-5.453h2.703v5.453h2.969v2.75h-2.969v.578a40.994 40.994 0 013.157 4.469zm18.187-10.016h-8.781l-1.953 3.11h2.312v14.656c0 .76-.224 1.385-.672 1.875-.448.49-.916.792-1.406.906-.479.104-1.463.156-2.953.156l-.891-2.624 2.407-.032c.677 0 1.015-.37 1.015-1.109v-11.172h-2.969v-2.656l2.11-3.11h-6.719v-2.625h18.5v2.625zm.672 18.11l-2.313 1.453c-.322-1.156-.854-2.578-1.593-4.266-.927 1.75-1.88 3.235-2.86 4.453l-1.687-2.171c1.5-2.073 2.536-3.855 3.109-5.344a48.044 48.044 0 00-2.984-5.188l1.672-1.5h-1.516v-2.531h6.891c.083 2.625-.375 5.641-1.375 9.047.854 1.635 1.739 3.651 2.656 6.047zm-3.813-12.563h-2.468c.406.636 1.057 1.735 1.953 3.297.302-1.437.474-2.536.515-3.297zm-9.343 11.453h-5.469v-10.343h5.469v10.343zm-2.141-2.656v-5.031h-1.187v5.031h1.187zm15.063 9.828h-19.485v-2.687h19.485v2.687zm30.953-12.812c0 .791-.282 1.432-.844 1.922-.562.489-1.318.734-2.266.734h-4.093l-.829-2.625c.73.052 1.485.078 2.266.078 1.563 0 2.458-.068 2.688-.203.239-.146.359-.401.359-.766v-13.5h2.719v14.36zm-9.828-4.766h-3.782v6.438h-2.75v-6.438h-3.515c-.292 2.896-1.667 5.448-4.125 7.656l-1.953-1.984c1.979-1.75 3.109-3.641 3.39-5.672h-4v-2.5h4.219v-4.156h-3.734v-2.594h15.828v2.594h-3.36v4.156h3.782v2.5zm-6.532-2.5v-4.156h-3.265v4.156h3.265zm10.625 5.094h-2.781v-10.813h2.781v10.813zm6.75 14.906h-27.843v-2.515h12.453v-3.016h-10.5v-2.563h10.5v-2.203h2.906v2.203h10.594v2.563h-10.594v3.016h12.484v2.515z" fill="#222"/><path d="M228.915 104.586l-18.786-2.757 5.191 16.156 13.595-13.399z" fill="#238C6C"/></svg>