<svg width="24" height="24" viewBox="0 0 24 24" fill="none" xmlns="http://www.w3.org/2000/svg"><path d="M12 24c6.627 0 12-5.373 12-12S18.627 0 12 0 0 5.373 0 12s5.373 12 12 12z" fill="#9C9C9C"/><path d="M17.734 11.582l-1.161-1.162a.591.591 0 00-.836.836l1.162 1.162c1.227 1.227 1.226 3.239 0 4.482-1.227 1.227-3.24 1.226-4.482 0l-1.162-1.162a.59.59 0 00-.836.835l1.165 1.165A4.375 4.375 0 0014.664 19a4.332 4.332 0 003.073-1.268c1.684-1.706 1.683-4.465-.003-6.15zM13.58 7.427l-1.165-1.165C10.709 4.58 7.95 4.58 6.262 6.268c-1.684 1.706-1.682 4.465.003 6.15l1.162 1.162a.588.588 0 00.835 0 .59.59 0 000-.836L7.1 11.582c-1.227-1.227-1.226-3.239 0-4.481 1.228-1.228 3.24-1.226 4.482 0l1.162 1.162a.59.59 0 10.836-.836z" fill="#fff" stroke="#fff" stroke-width=".262"/><path d="M13.914 13.08l-2.993-2.994a.59.59 0 10-.836.836l2.994 2.993a.589.589 0 00.835 0 .59.59 0 000-.835z" fill="#fff" stroke="#fff" stroke-width=".262"/></svg>