<svg width="33" height="32" viewBox="0 0 33 32" fill="none" xmlns="http://www.w3.org/2000/svg"><g clip-path="url(#clip0_3900_149546)"><path d="M32.5 16c0 7.986-5.851 14.606-13.5 15.806V20.625h3.728l.71-4.625H19v-3.001c0-1.266.62-2.499 2.608-2.499h2.017V6.562s-1.831-.312-3.582-.312C16.39 6.25 14 8.465 14 12.475V16H9.937v4.625H14v11.18C6.351 30.606.5 23.987.5 16c0-8.836 7.164-16 16-16s16 7.164 16 16z" fill="#0766FF"/><path d="M22.728 20.625l.71-4.625H19v-3.001c0-1.266.62-2.499 2.607-2.499h2.018V6.562s-1.831-.312-3.582-.312C16.39 6.25 14 8.465 14 12.475V16H9.937v4.625H14v11.18a16.121 16.121 0 005 0v-11.18h3.728z" fill="#fff"/></g><defs><clipPath id="clip0_3900_149546"><path fill="#fff" transform="translate(.5)" d="M0 0h32v32H0z"/></clipPath></defs></svg>