<svg width="33" height="32" viewBox="0 0 33 32" fill="none" xmlns="http://www.w3.org/2000/svg"><g id="Icon/32/Google-color" clip-path="url(#clip0_3900_149545)"><path id="Vector" d="M7.592 19.338l-1.114 4.158-4.071.086A15.928 15.928 0 01.5 16c0-2.653.645-5.155 1.789-7.358l3.625.664 1.588 3.603a9.51 9.51 0 00-.513 3.09c0 1.175.213 2.3.603 3.339z" fill="#FBBB00"/><path id="Vector_2" d="M32.22 13.01c.184.969.28 1.968.28 2.99 0 1.145-.12 2.263-.35 3.34a15.996 15.996 0 01-5.633 9.137h-.001l-4.566-.234-.646-4.033a9.536 9.536 0 004.103-4.87h-8.555v-6.33H32.22z" fill="#518EF8"/><path id="Vector_3" d="M26.516 28.476l.001.001A15.933 15.933 0 0116.5 32c-6.093 0-11.39-3.406-14.093-8.418l5.185-4.244A9.514 9.514 0 0016.5 25.51a9.46 9.46 0 004.805-1.301l5.211 4.266z" fill="#28B446"/><path id="Vector_4" d="M26.713 3.683l-5.184 4.244a9.516 9.516 0 00-14.027 4.982L2.29 8.642C4.951 3.508 10.315 0 16.5 0c3.882 0 7.442 1.383 10.213 3.683z" fill="#F14336"/></g><defs><clipPath id="clip0_3900_149545"><path fill="#fff" transform="translate(.5)" d="M0 0h32v32H0z"/></clipPath></defs></svg>