<svg width="33" height="32" viewBox="0 0 33 32" fill="none" xmlns="http://www.w3.org/2000/svg"><g clip-path="url(#clip0_3900_149547)"><path d="M16.5 32c8.837 0 16-7.163 16-16s-7.163-16-16-16S.5 7.163.5 16s7.163 16 16 16z" fill="#04C755"/><path d="M26.5 15.637c-.014.203-.04.405-.078.605a6.685 6.685 0 01-.766 2.182c-.181.324-1.056 1.553-1.323 1.877-1.478 1.78-3.955 3.834-8.093 5.832a.545.545 0 01-.78-.545l.21-1.878a.545.545 0 00-.483-.602 11.625 11.625 0 01-3.96-1.13c-2.836-1.4-4.727-3.905-4.727-6.757 0-4.393 4.476-7.948 10-7.948 2.774 0 5.284.91 7.09 2.351 1.694 1.355 2.777 3.193 2.894 5.233.019.26.024.52.016.78z" fill="#fff"/><path d="M13.743 16.98a.5.5 0 01.151.364.51.51 0 01-.51.513h-2.046a.515.515 0 01-.513-.513v-3.863a.507.507 0 01.151-.364.51.51 0 01.873.364v3.35h1.534a.5.5 0 01.36.15zm1.666-3.61v4.085a.402.402 0 01-.4.4h-.23a.4.4 0 01-.4-.4V13.37a.4.4 0 01.4-.4h.225a.403.403 0 01.405.4zm4.749.11v3.843a.533.533 0 01-.515.532.515.515 0 01-.347-.142c-.018-.014-.705-.909-1.289-1.661-.436-.562-.814-1.053-.814-1.053v2.344a.511.511 0 11-1.024 0v-3.84a.527.527 0 01.493-.533.517.517 0 01.402.182c.021.025 1.078 1.4 1.672 2.181.237.306.4.52.4.52V13.49a.514.514 0 01.511-.511.511.511 0 01.511.502zm1.797 2.442v.91h1.533a.513.513 0 110 1.023h-2.051a.513.513 0 01-.511-.513v-3.861a.513.513 0 01.51-.511h2.046a.511.511 0 01.501.715.514.514 0 01-.5.308h-1.528v.91h1.533a.511.511 0 110 1.021l-1.533-.002z" fill="#04C755"/></g><defs><clipPath id="clip0_3900_149547"><path fill="#fff" transform="translate(.5)" d="M0 0h32v32H0z"/></clipPath></defs></svg>