<svg width="16" height="16" viewBox="0 0 16 16" fill="none" xmlns="http://www.w3.org/2000/svg"><path d="M14 5.429V4.143a1.286 1.286 0 00-1.286-1.286H11V2.43a.429.429 0 00-.857 0v.428H5.857V2.43a.429.429 0 10-.857 0v.428H3.286A1.286 1.286 0 002 4.143v1.286h12zM2 6.285v6.429a1.286 1.286 0 001.286 1.285h9.428A1.286 1.286 0 0014 12.714V6.285H2zm8.421 2.468l-3 2.572a.429.429 0 01-.581-.023l-1.286-1.286a.429.429 0 01.606-.606l1.006 1.006 2.7-2.315a.429.429 0 11.557.651l-.002.001z" fill="#6E6E6E"/></svg>