<svg width="16" height="16" viewBox="0 0 16 16" fill="none" xmlns="http://www.w3.org/2000/svg"><g id="Icon/16/Bar-chart"><path id="Vector" d="M5.273 8.546v4.91a.546.546 0 01-.546.545H2.545A.545.545 0 012 13.455v-4.91A.546.546 0 012.545 8h2.182a.545.545 0 01.546.546zM9.09 2H6.909a.545.545 0 00-.545.545v10.91a.546.546 0 00.545.546h2.182a.545.545 0 00.545-.546V2.545A.545.545 0 009.091 2zm4.364 2.727h-2.182a.546.546 0 00-.546.546v8.182a.546.546 0 00.546.546h2.181a.545.545 0 00.546-.546V5.273a.545.545 0 00-.546-.546z" fill="#6E6E6E"/></g></svg>