<svg width="600" height="240" viewBox="0 0 600 240" fill="none" xmlns="http://www.w3.org/2000/svg"><g clip-path="url(#clip0_6329_6009)"><path d="M571.669 257.972l-125.416 17.217a6.131 6.131 0 01-6.907-5.241l-22.261-162.149a6.122 6.122 0 015.237-6.902L547.738 83.68a6.13 6.13 0 016.907 5.241l22.261 162.149a6.13 6.13 0 01-5.241 6.907l.004-.005z" fill="#7DD3A4"/><path d="M553.116 193.136l-106.473 14.62a.86.86 0 01-.976-.74L435.6 133.717a.862.862 0 01.741-.976l106.473-14.62a.86.86 0 01.976.74l10.067 73.299a.862.862 0 01-.741.976zm-105.846 12.78l104.752-14.379-9.825-71.578-104.752 14.379 9.825 71.578z" fill="#fff"/><path d="M551.438 180.925l-106.473 14.62a.868.868 0 01-.236-1.717l106.473-14.62a.86.86 0 01.976.74.862.862 0 01-.74.977zm-1.675-12.219l-106.473 14.62a.862.862 0 01-.976-.741.86.86 0 01.74-.976l106.473-14.62a.86.86 0 01.976.74.862.862 0 01-.74.977zm-1.68-12.213l-106.473 14.62a.862.862 0 01-.976-.741.86.86 0 01.741-.976l106.472-14.62a.862.862 0 01.977.74.863.863 0 01-.741.977zm-1.674-12.219l-106.472 14.62a.861.861 0 01-.977-.74.861.861 0 01.741-.977l106.473-14.62a.86.86 0 01.976.74.861.861 0 01-.741.977zm-1.675-12.219l-106.473 14.62a.862.862 0 01-.977-.74.863.863 0 01.741-.977l106.473-14.62a.862.862 0 01.976.741.86.86 0 01-.74.976z" fill="#fff"/><path d="M535.372 195.575a.86.86 0 01-.976-.741l-10.067-73.298a.862.862 0 01.74-.977.863.863 0 01.977.741l10.066 73.298a.861.861 0 01-.74.977zm-17.744 2.439a.862.862 0 01-.977-.74l-10.066-73.299a.86.86 0 01.74-.976.862.862 0 01.977.74l10.066 73.299a.86.86 0 01-.74.976zm-17.749 2.436a.862.862 0 01-.977-.741l-10.066-73.298a.862.862 0 01.74-.977.863.863 0 01.977.741l10.066 73.298a.861.861 0 01-.74.977zm-17.741 2.433a.861.861 0 01-.977-.74l-10.066-73.299a.86.86 0 01.74-.976.862.862 0 01.977.74l10.066 73.299a.86.86 0 01-.74.976zm-17.75 2.436a.861.861 0 01-.977-.741l-10.066-73.298a.862.862 0 01.74-.977.863.863 0 01.977.741l10.066 73.299a.86.86 0 01-.74.976zm21.955-90.556l-48.598 6.672a3.8 3.8 0 01-1.03-7.528l48.599-6.672a3.799 3.799 0 011.029 7.528zm11.229 106.531l-46.227 6.347a2.83 2.83 0 01-3.184-2.412 2.829 2.829 0 012.411-3.183l46.228-6.347a2.83 2.83 0 013.184 2.411 2.831 2.831 0 01-2.412 3.184zm58.207 5.6l-102.597 14.089a2.83 2.83 0 01-3.184-2.412 2.83 2.83 0 012.411-3.184l102.598-14.089a2.83 2.83 0 013.184 2.412 2.83 2.83 0 01-2.412 3.184zm1.829 13.339l-102.597 14.09a2.831 2.831 0 01-3.184-2.412 2.83 2.83 0 012.411-3.184l102.598-14.089a2.83 2.83 0 013.184 2.412 2.829 2.829 0 01-2.412 3.183z" fill="#fff"/><path d="M397.998 66.688L216.22 33.93c-4.856-.873-9.513 2.357-10.386 7.213L163.48 276.155c-.873 4.856 2.356 9.513 7.213 10.386l181.778 32.757c4.856.873 9.513-2.356 10.386-7.213l42.354-235.012c.873-4.856-2.356-9.512-7.213-10.385z" fill="#9C9C9C" opacity=".2"/><path d="M346.499 311l-181.778-32.757c-4.856-.873-8.095-5.526-7.213-10.386l42.355-235.012c.873-4.856 5.526-8.095 10.386-7.213L392.027 58.39c4.856.873 8.095 5.526 7.213 10.385l-42.355 235.012c-.873 4.856-5.526 8.095-10.386 7.213z" fill="#fff"/><path d="M350.045 212.679l-154.314-27.811a1.263 1.263 0 01-1.02-1.47l19.145-106.234c.122-.69.78-1.142 1.47-1.02l154.314 27.812a1.265 1.265 0 011.019 1.47L351.515 211.66a1.262 1.262 0 01-1.47 1.019zm-152.616-30.082l151.824 27.362 18.694-103.745-151.824-27.361-18.694 103.744z" fill="#F6F6F6"/><path d="M353.239 194.97l-154.314-27.811a1.263 1.263 0 01-1.02-1.47 1.263 1.263 0 011.47-1.02l154.314 27.812c.69.122 1.142.78 1.02 1.47a1.262 1.262 0 01-1.47 1.019zm3.186-17.705l-154.314-27.811a1.263 1.263 0 01-1.02-1.47 1.263 1.263 0 011.47-1.02l154.314 27.812c.69.121 1.142.78 1.02 1.47a1.263 1.263 0 01-1.47 1.019zm3.195-17.709l-154.314-27.811a1.263 1.263 0 01-1.02-1.47c.122-.69.78-1.142 1.47-1.02l154.314 27.812a1.265 1.265 0 11-.45 2.489zm3.185-17.705L208.491 114.04a1.263 1.263 0 01-1.019-1.47c.122-.69.78-1.142 1.47-1.02l154.314 27.812c.689.121 1.141.78 1.019 1.47a1.262 1.262 0 01-1.47 1.019zm3.196-17.709L211.687 96.331a1.263 1.263 0 01-1.02-1.47c.122-.69.78-1.142 1.47-1.02l154.314 27.812a1.265 1.265 0 11-.45 2.489z" fill="#F6F6F6"/><path d="M324.331 208.04a1.263 1.263 0 01-1.02-1.47l19.145-106.234a1.264 1.264 0 112.489.45L325.801 207.02a1.263 1.263 0 01-1.47 1.02zm-25.72-4.629a1.265 1.265 0 01-1.02-1.47l19.145-106.234c.121-.69.78-1.141 1.47-1.02.689.122 1.141.78 1.019 1.47l-19.144 106.234a1.263 1.263 0 01-1.47 1.02zm-25.724-4.637a1.265 1.265 0 01-1.019-1.47L291.013 91.07c.121-.69.78-1.141 1.47-1.02.689.122 1.141.78 1.019 1.47l-19.145 106.235a1.262 1.262 0 01-1.47 1.019zm-25.723-4.637a1.262 1.262 0 01-1.019-1.47l19.144-106.234a1.263 1.263 0 011.47-1.02c.69.123 1.142.781 1.02 1.47l-19.145 106.235a1.261 1.261 0 01-1.47 1.019zm-25.711-4.632a1.263 1.263 0 01-1.019-1.47l19.144-106.234a1.263 1.263 0 011.47-1.02c.69.122 1.142.78 1.02 1.47l-19.145 106.234a1.263 1.263 0 01-1.47 1.02z" fill="#F6F6F6"/><path d="M292.812 73.79l-70.433-12.687c-3.014-.539-5.015-3.43-4.476-6.444.539-3.014 3.431-5.016 6.445-4.476l70.433 12.687c3.014.54 5.015 3.431 4.476 6.445-.539 3.014-3.431 5.015-6.445 4.476zm-32.538 152.861l-67.002-12.072a4.13 4.13 0 01-3.327-4.785 4.13 4.13 0 014.785-3.327l67.003 12.072a4.131 4.131 0 013.327 4.785 4.131 4.131 0 01-4.786 3.327zm78.214 34.058l-148.701-26.8a4.13 4.13 0 01-3.326-4.785 4.13 4.13 0 014.785-3.327l148.7 26.8a4.13 4.13 0 013.327 4.785 4.13 4.13 0 01-4.785 3.327z" fill="#7DD3A4"/><path d="M335.006 280.049l-148.7-26.8a4.13 4.13 0 01-3.327-4.785 4.131 4.131 0 014.786-3.327l148.7 26.8a4.13 4.13 0 013.327 4.785 4.132 4.132 0 01-4.786 3.327z" fill="#EDF5D7"/><path d="M334.877 155.768a2.22 2.22 0 01-2.316-.512l-21.445-21.268-27.171 12.281-31.828 30.514a2.213 2.213 0 01-3.097-.027l-21.441-21.26-27.252 12.485c-1.121.504-2.433.021-2.935-1.091a2.212 2.212 0 011.091-2.935l28.645-13.117a2.217 2.217 0 012.486.441l20.995 20.815 30.537-29.282c.182-.179.39-.315.62-.418l28.909-13.068a2.222 2.222 0 012.477.445l20.982 20.808 30.332-29.311a2.225 2.225 0 013.137.054c.851.885.822 2.29-.054 3.137l-31.895 30.815a2.183 2.183 0 01-.789.489l.012.005z" fill="#F58220"/><path d="M394.011 115.573c9.994-.967 17.311-9.854 16.344-19.848-.968-9.994-9.854-17.312-19.849-16.344-9.994.967-17.311 9.854-16.344 19.848.968 9.994 9.854 17.312 19.849 16.344z" fill="#9C9C9C" opacity=".2"/><path d="M404.51 106.609c5.977-8.068 4.282-19.454-3.787-25.431-8.068-5.977-19.454-4.281-25.431 3.787s-4.282 19.454 3.787 25.431c8.068 5.977 19.454 4.282 25.431-3.787z" fill="#FDCE5E"/><path d="M388.736 101.802a.49.49 0 00-.446-.076l-5.98 1.958a.483.483 0 01-.607-.619l2.086-5.938a.488.488 0 00-.068-.446l-3.709-5.083a.485.485 0 01.402-.77l6.29.148a.49.49 0 00.404-.199l3.689-5.098a.484.484 0 01.855.145l1.803 6.028a.489.489 0 00.316.322l5.987 1.931a.485.485 0 01.127.86l-1.771 1.222-3.312 2.289-.094.066a.484.484 0 00-.21.397l.013 6.292a.482.482 0 01-.776.385l-5.001-3.817.002.003z" fill="#fff"/><path d="M483.747 179.735a46.757 46.757 0 00-18.679-26.119 65.044 65.044 0 00-37.747-11.613 67.896 67.896 0 00-24.838 4.646l-27.903-4.646 7.861 17.706a46.572 46.572 0 00-8.815 12.432h-11.603a5.041 5.041 0 00-5.023 5.023v25.114a5.041 5.041 0 005.023 5.023h11.603a47.333 47.333 0 0011 14.516v18.133h22.603v-5.5a69.329 69.329 0 0040.184.025v5.475h20.091v-15.973a44.062 44.062 0 0017.581-34.256 39.187 39.187 0 00-.333-4.803 12.555 12.555 0 0110.378 12.337h5.023c-.012-9.245-7.179-16.902-16.406-17.52z" fill="#FF82A7"/><path d="M392.161 179.675a5.022 5.022 0 01-5.023-5.023 5.022 5.022 0 015.023-5.023 5.022 5.022 0 015.023 5.023 5.022 5.022 0 01-5.023 5.023z" fill="#fff"/><path d="M357 182.186h5.023v5.022H357v-5.022zm50.229-25.114h40.184v5.023h-40.184v-5.023z" fill="#F7337A"/><path d="M180.072 88.613c-.529-3-3.396-4.997-6.396-4.467l-141.28 25.032c-3 .529-4.996 3.395-4.466 6.396l32.423 182.977c.53 3 3.396 4.997 6.396 4.467l141.287-25.032c3-.529 4.996-3.396 4.467-6.396L180.08 88.613h-.008z" fill="#C3C3C3" opacity=".2"/><path d="M200.494 272.391L59.207 297.423a5.521 5.521 0 01-6.396-4.468L20.395 109.978a5.52 5.52 0 014.468-6.396L166.149 78.55a5.521 5.521 0 016.397 4.467l32.423 182.977a5.522 5.522 0 01-4.467 6.397h-.008z" fill="#FDE696"/><path d="M138.237 116.923l-73.983 13.106a4.742 4.742 0 01-1.653-9.336l73.983-13.107a4.743 4.743 0 015.495 3.842 4.743 4.743 0 01-3.842 5.495zm25.382 16.097L45.945 153.868c-.55.098-.919.622-.821 1.179l12.227 69.021c.098.55.622.919 1.179.822l117.674-20.848c.55-.098.919-.622.821-1.179l-12.227-69.021a1.017 1.017 0 00-1.179-.822zm-34.111 41.638l-17.612 3.118-1.685-9.505 17.612-3.118 1.685 9.505zm.315-9.863l17.612-3.118 1.685 9.505-17.612 3.118-1.685-9.505zm-19.963 1.476l-1.685-9.505 17.612-3.117 1.686 9.504-17.613 3.118zm-2 .35l-17.612 3.118-1.685-9.504 17.612-3.118 1.685 9.504zm.35 2.001l1.685 9.504-17.612 3.118-1.685-9.504 17.612-3.118zm-17.927 12.98l-17.612 3.118-1.685-9.505 17.612-3.117 1.685 9.504zm-19.612 3.476l-17.613 3.118-1.684-9.505 17.612-3.118 1.685 9.505zm.35 2l1.685 9.505-17.612 3.118-1.685-9.505 17.612-3.118zm2-.35l17.612-3.118 1.685 9.505-17.612 3.118-1.685-9.505zm19.613-3.476l17.612-3.118 1.685 9.505-17.612 3.118-1.685-9.505zm19.655 8.379l1.685 9.505-17.613 3.118-1.685-9.505 17.613-3.118zm2-.35l17.612-3.118 1.685 9.505-17.612 3.117-1.685-9.504zm-.35-2l-1.685-9.505 17.612-3.118 1.685 9.505-17.612 3.118zm17.927-12.981l17.612-3.118 1.685 9.505-17.612 3.118-1.685-9.505zm19.612-3.476l17.612-3.118 1.685 9.505-17.612 3.118-1.685-9.505zm-.35-2l-1.685-9.505 17.612-3.118 1.685 9.505-17.612 3.118zm-2.035-11.505l-1.685-9.504 17.612-3.118 1.685 9.504-17.612 3.118zm-2.001.35l-17.612 3.118-1.685-9.504 17.612-3.118 1.685 9.504zm-19.655-8.379l-1.685-9.504 17.613-3.118 1.685 9.504-17.613 3.118zm-2 .351l-17.612 3.118-1.685-9.505 17.612-3.118 1.685 9.505zm-19.612 3.476l-17.612 3.118-1.685-9.505 17.612-3.118 1.685 9.505zm-19.613 3.475L68.6 161.71l-1.685-9.504 17.612-3.118 1.685 9.504zm.35 2.001l1.686 9.504-17.613 3.118-1.684-9.504 17.612-3.118zm-17.927 12.98l-17.612 3.118-1.685-9.504 17.612-3.118 1.685 9.504zm-13.183 28.128l17.612-3.118 1.685 9.505-17.612 3.118-1.685-9.505zm19.612-3.476l17.612-3.118 1.685 9.505-17.612 3.118-1.685-9.505zm19.655 8.379l1.685 9.505-17.612 3.118-1.685-9.505 17.612-3.118zm2-.35l17.613-3.118 1.685 9.505-17.613 3.117-1.685-9.504zm19.613-3.476l17.612-3.118 1.685 9.505-17.612 3.118-1.685-9.505zm19.612-3.476l17.612-3.118 1.685 9.505-17.612 3.118-1.685-9.505zm-.35-2l-1.685-9.505 17.612-3.118 1.685 9.505-17.612 3.118zm17.927-12.981l17.612-3.118 1.685 9.505-17.612 3.118-1.685-9.505zm11.149-39.625l-17.613 3.118-1.685-9.504 17.613-3.118 1.685 9.504zm-99.747 7.868l1.685 9.504-17.613 3.118-1.684-9.504 17.612-3.118zm-7.42 60.634l17.612-3.118 1.684 9.505-17.612 3.118-1.685-9.505zm99.746-7.867l-1.685-9.505 17.612-3.118 1.685 9.505-17.612 3.118z" fill="#fff"/><path d="M80.23 200.153l-10.815 1.915 3.233 18.256 10.815-1.916-3.233-18.255z" fill="#86BDDD"/><path d="M96.471 179.428l-10.814 1.916 6.3 35.569 10.814-1.915-6.3-35.57z" fill="#C16FE8"/><path d="M114.426 166.456l-10.815 1.915 7.979 45.051 10.815-1.915-7.979-45.051z" fill="#ABA1E4"/><path d="M137.042 179.28l-10.815 1.915 5.091 28.746 10.815-1.915-5.091-28.746z" fill="#7DD3A4"/><path d="M155.748 171.042l-10.815 1.915 5.935 33.513 10.815-1.915-5.935-33.513z" fill="#FFAD04"/><path d="M177.037 219.644l-89.252 15.817a2.918 2.918 0 01-3.383-2.366 2.918 2.918 0 012.365-3.383l89.252-15.816a2.917 2.917 0 013.383 2.365 2.917 2.917 0 01-2.365 3.383zm2.125 11.986L65.236 251.818a2.918 2.918 0 01-3.383-2.366 2.918 2.918 0 012.365-3.383l113.926-20.188a2.918 2.918 0 013.383 2.366 2.917 2.917 0 01-2.365 3.383zm2.124 11.978L67.361 263.796a2.917 2.917 0 01-3.384-2.365 2.917 2.917 0 012.366-3.383l113.926-20.188a2.917 2.917 0 111.017 5.748z" fill="#fff"/></g><defs><clipPath id="clip0_6329_6009"><path fill="#fff" d="M0 0h600v240H0z"/></clipPath></defs></svg>