<svg width="600" height="240" viewBox="0 0 600 240" fill="none" xmlns="http://www.w3.org/2000/svg"><g clip-path="url(#clip0_6272_15189)"><path d="M221.199 267.958L93.063 283.955c-3.127.391-6.005-1.847-6.395-4.971L66.885 120.77c-.39-3.124 1.848-6 4.974-6.39l128.136-15.998c3.127-.39 6.004 1.847 6.395 4.971l19.783 158.214c.391 3.123-1.848 5.999-4.974 6.389v.002z" fill="#9C9C9C" opacity=".2"/><path d="M214.358 259.511L86.222 275.509c-3.126.39-6.004-1.847-6.394-4.971L60.044 112.324c-.39-3.124 1.849-5.999 4.975-6.389l128.136-15.998c3.126-.39 6.004 1.847 6.395 4.97l19.783 158.214c.39 3.124-1.848 6-4.975 6.39z" fill="#60A6E2"/><path d="M212.673 252.735L86.189 268.527a1.143 1.143 0 01-1.272-.988l-19.944-159.5a1.141 1.141 0 01.989-1.27l126.485-15.791a1.141 1.141 0 011.271.987l19.944 159.499a1.142 1.142 0 01-.989 1.27v.001z" fill="#fff"/><path d="M87.003 137.148l-8.389 1.047a1.879 1.879 0 01-2.095-1.628l-1.048-8.382a1.879 1.879 0 011.63-2.094l8.389-1.047a1.878 1.878 0 012.094 1.629l1.048 8.382a1.876 1.876 0 01-1.629 2.093zm-9.707-9.494a.3.3 0 00-.26.335l1.047 8.383a.3.3 0 00.335.26l8.39-1.047a.3.3 0 00.26-.335l-1.048-8.383a.3.3 0 00-.335-.26l-8.39 1.047zm12.379 30.85l-8.39 1.047a1.88 1.88 0 01-2.095-1.628l-1.048-8.383a1.879 1.879 0 011.63-2.094l8.39-1.047a1.878 1.878 0 012.094 1.629l1.048 8.383a1.876 1.876 0 01-1.63 2.093zm-9.708-9.494a.3.3 0 00-.26.335l1.048 8.382a.3.3 0 00.335.26l8.389-1.047a.3.3 0 00.26-.335l-1.048-8.382a.3.3 0 00-.335-.26l-8.389 1.047zm12.378 30.849l-8.389 1.047a1.879 1.879 0 01-2.096-1.628l-1.047-8.382a1.879 1.879 0 011.63-2.094l8.389-1.047a1.878 1.878 0 012.094 1.629l1.048 8.382a1.876 1.876 0 01-1.629 2.093zm-9.708-9.494a.3.3 0 00-.26.335l1.048 8.383a.3.3 0 00.335.26l8.39-1.047a.3.3 0 00.26-.335l-1.048-8.383a.3.3 0 00-.336-.26l-8.389 1.047zm12.378 30.849l-8.389 1.047a1.878 1.878 0 01-2.096-1.627l-1.047-8.383a1.879 1.879 0 011.63-2.094l8.389-1.047a1.878 1.878 0 012.094 1.629l1.048 8.383a1.875 1.875 0 01-1.629 2.092zm-9.707-9.493a.3.3 0 00-.26.335l1.047 8.382a.3.3 0 00.335.26l8.39-1.047a.3.3 0 00.26-.335l-1.048-8.382a.3.3 0 00-.335-.26l-8.39 1.047z" fill="#F6F6F6"/><path d="M186.233 117.131l-86.52 10.801a2.63 2.63 0 11-.651-5.218l86.519-10.801a2.63 2.63 0 11.652 5.218z" fill="#ABA1E4"/><path d="M187.251 125.268l-86.52 10.801a2.63 2.63 0 11-.652-5.218l86.519-10.801a2.63 2.63 0 11.653 5.218z" fill="#F6F6F6"/><path d="M188.903 138.486l-86.519 10.801a2.63 2.63 0 11-.652-5.217l86.519-10.801a2.63 2.63 0 11.652 5.217z" fill="#ABA1E4"/><path d="M189.921 146.625l-86.519 10.801a2.63 2.63 0 11-.652-5.218l86.519-10.801a2.63 2.63 0 11.652 5.218z" fill="#F6F6F6"/><path d="M191.573 159.842l-86.519 10.801a2.63 2.63 0 11-.653-5.218l86.52-10.801a2.63 2.63 0 11.652 5.218z" fill="#ABA1E4"/><path d="M192.591 167.979l-86.519 10.801a2.63 2.63 0 11-.652-5.218l86.519-10.801a2.63 2.63 0 11.652 5.218zm1.653 13.218l-86.52 10.801a2.63 2.63 0 11-.652-5.218l86.52-10.8a2.629 2.629 0 11.652 5.217zm1.017 8.139l-86.519 10.801a2.63 2.63 0 11-.652-5.218l86.519-10.801a2.63 2.63 0 11.652 5.218zm-94.821 55.277l-8.389 1.047a1.879 1.879 0 01-2.095-1.628l-1.048-8.382a1.879 1.879 0 011.63-2.094l8.389-1.047a1.877 1.877 0 012.094 1.629l1.048 8.382a1.876 1.876 0 01-1.629 2.093zm-9.707-9.494a.3.3 0 00-.26.335l1.047 8.383a.3.3 0 00.335.26l8.389-1.047a.3.3 0 00.261-.335l-1.048-8.383a.3.3 0 00-.335-.26l-8.39 1.047zm108.937-10.523l-86.519 10.801a2.63 2.63 0 11-.652-5.218l86.519-10.801a2.63 2.63 0 11.652 5.218zm1.018 8.139l-86.52 10.8a2.629 2.629 0 11-.652-5.217l86.519-10.801a2.63 2.63 0 11.653 5.218zm-102.924-9.534l-8.389 1.047a1.879 1.879 0 01-2.095-1.628l-1.048-8.382a1.878 1.878 0 011.63-2.094l8.389-1.047a1.878 1.878 0 012.094 1.629l1.048 8.382a1.877 1.877 0 01-1.629 2.093zm-9.707-9.494a.3.3 0 00-.26.335l1.047 8.382a.3.3 0 00.335.261l8.39-1.047a.3.3 0 00.26-.335l-1.048-8.383a.3.3 0 00-.336-.26l-8.388 1.047zm108.935-10.523l-86.519 10.801a2.63 2.63 0 11-.652-5.218l86.519-10.801a2.63 2.63 0 11.652 5.218zm1.018 8.136l-86.519 10.801a2.628 2.628 0 11-.652-5.217l86.519-10.801a2.628 2.628 0 11.652 5.217z" fill="#F6F6F6"/><path d="M75.785 111.672a2.067 2.067 0 00-.824-2.806 2.07 2.07 0 00-2.808.823 2.07 2.07 0 003.632 1.983z" fill="#333"/><path d="M74.065 111.46a1.388 1.388 0 01-1.546-1.202l-1.22-9.759a1.388 1.388 0 011.202-1.545 1.389 1.389 0 011.547 1.202l1.22 9.759a1.388 1.388 0 01-1.203 1.545z" fill="#474747"/><path d="M84.876 110.836a2.07 2.07 0 10-2.912.294 2.07 2.07 0 002.912-.294z" fill="#333"/><path d="M83.372 110.298a1.389 1.389 0 01-1.546-1.202l-1.22-9.76a1.388 1.388 0 011.202-1.544 1.389 1.389 0 011.546 1.202l1.22 9.759a1.388 1.388 0 01-1.202 1.545z" fill="#474747"/><path d="M93.474 110.225a2.067 2.067 0 10-1.782-3.733 2.067 2.067 0 101.782 3.733z" fill="#333"/><path d="M92.679 109.136a1.389 1.389 0 01-1.546-1.202l-1.22-9.76a1.388 1.388 0 011.203-1.544 1.39 1.39 0 011.546 1.202l1.22 9.759a1.389 1.389 0 01-1.203 1.545z" fill="#474747"/><path d="M103.944 107.424a2.068 2.068 0 00-1.832-2.28 2.068 2.068 0 101.832 2.28z" fill="#333"/><path d="M101.985 107.974a1.39 1.39 0 01-1.546-1.202l-1.22-9.76a1.388 1.388 0 011.203-1.544 1.389 1.389 0 011.546 1.202l1.22 9.759a1.389 1.389 0 01-1.203 1.545z" fill="#474747"/><path d="M112.659 107.499a2.067 2.067 0 000-2.924 2.07 2.07 0 00-2.926 0 2.069 2.069 0 002.926 2.924z" fill="#333"/><path d="M111.292 106.812a1.39 1.39 0 01-1.546-1.202l-1.22-9.76a1.389 1.389 0 011.203-1.544 1.389 1.389 0 011.546 1.202l1.22 9.759a1.389 1.389 0 01-1.203 1.545z" fill="#474747"/><path d="M121.95 106.344a2.067 2.067 0 00.029-2.924 2.07 2.07 0 00-2.926-.029 2.067 2.067 0 00-.029 2.924 2.07 2.07 0 002.926.029z" fill="#333"/><path d="M120.599 105.65a1.39 1.39 0 01-1.546-1.202l-1.22-9.76a1.388 1.388 0 011.202-1.544 1.39 1.39 0 011.547 1.201l1.22 9.76a1.39 1.39 0 01-1.203 1.545z" fill="#474747"/><path d="M130.438 105.691a2.067 2.067 0 10-1.262-3.939 2.069 2.069 0 101.262 3.939z" fill="#333"/><path d="M129.907 104.489a1.388 1.388 0 01-1.546-1.202l-1.22-9.759a1.388 1.388 0 011.203-1.545 1.39 1.39 0 011.546 1.202l1.22 9.76a1.388 1.388 0 01-1.203 1.544z" fill="#474747"/><path d="M140.927 103.543a2.07 2.07 0 00-3.627-1.992 2.068 2.068 0 103.627 1.992z" fill="#333"/><path d="M139.212 103.325a1.388 1.388 0 01-1.546-1.202l-1.22-9.759a1.389 1.389 0 011.203-1.545 1.389 1.389 0 011.546 1.202l1.22 9.76a1.387 1.387 0 01-1.203 1.544z" fill="#474747"/><path d="M150.058 102.663c.701-.901.539-2.2-.363-2.902a2.07 2.07 0 00-2.904.363c-.702.901-.539 2.2.363 2.901a2.07 2.07 0 002.904-.362z" fill="#333"/><path d="M148.52 102.165a1.389 1.389 0 01-1.546-1.202l-1.22-9.759a1.389 1.389 0 011.203-1.545 1.389 1.389 0 011.546 1.202l1.22 9.759a1.388 1.388 0 01-1.203 1.545z" fill="#474747"/><path d="M158.438 102.176a2.067 2.067 0 10-1.418-3.885 2.067 2.067 0 101.418 3.885z" fill="#333"/><path d="M157.827 101.001a1.388 1.388 0 01-1.546-1.202l-1.22-9.759a1.388 1.388 0 011.202-1.545 1.39 1.39 0 011.547 1.202l1.22 9.76a1.388 1.388 0 01-1.203 1.544z" fill="#474747"/><path d="M168.671 100.339c.702-.902.54-2.2-.362-2.902a2.07 2.07 0 00-2.904.363c-.702.901-.539 2.2.363 2.901a2.07 2.07 0 002.903-.362z" fill="#333"/><path d="M167.134 99.841a1.389 1.389 0 01-1.546-1.202l-1.22-9.76a1.388 1.388 0 011.203-1.544 1.39 1.39 0 011.546 1.202l1.22 9.76a1.389 1.389 0 01-1.203 1.544z" fill="#474747"/><path d="M176.608 99.95a2.068 2.068 0 10-.526-4.101 2.068 2.068 0 10.526 4.102z" fill="#333"/><path d="M176.44 98.679a1.39 1.39 0 01-1.546-1.202l-1.22-9.76a1.388 1.388 0 011.203-1.544 1.39 1.39 0 011.546 1.202l1.22 9.759a1.388 1.388 0 01-1.203 1.545z" fill="#474747"/><path d="M186.402 98.668a2.067 2.067 0 10-1.504-3.853 2.067 2.067 0 101.504 3.853z" fill="#333"/><path d="M185.748 97.517a1.39 1.39 0 01-1.547-1.202l-1.22-9.76a1.389 1.389 0 011.203-1.544 1.389 1.389 0 011.546 1.202l1.22 9.759a1.388 1.388 0 01-1.202 1.545z" fill="#474747"/><path d="M84.642 133.932a1.915 1.915 0 01-1.404-.432l-4.461-3.692a1.919 1.919 0 112.447-2.958l2.982 2.469 6.313-7.63a1.92 1.92 0 012.958 2.446l-7.538 9.109c-.337.408-.81.641-1.298.687v.001zm2.873 22.03a1.92 1.92 0 01-1.404-.433l-4.46-3.692a1.919 1.919 0 112.446-2.957l2.983 2.468 6.313-7.63a1.92 1.92 0 012.957 2.447l-7.537 9.108a1.91 1.91 0 01-1.298.687v.002zm2.874 21.072a1.915 1.915 0 01-1.404-.432l-4.461-3.693a1.919 1.919 0 112.447-2.957l2.982 2.468 6.313-7.63a1.92 1.92 0 012.958 2.447l-7.538 9.108a1.91 1.91 0 01-1.298.687l.001.002z" fill="#F58220"/><path d="M453.497 61.27L246.74 39.42a5.187 5.187 0 00-5.701 4.622l-28.08 266.699a5.193 5.193 0 004.614 5.711l206.759 21.852c2.848.3 5.4-1.768 5.7-4.622l28.08-266.699a5.193 5.193 0 00-4.614-5.711l-.001-.002z" fill="#9C9C9C" opacity=".2"/><path d="M415.519 325.951l-206.874-21.805a5.186 5.186 0 01-4.616-5.7l28.097-266.137a5.188 5.188 0 015.704-4.612l206.873 21.806a5.186 5.186 0 014.617 5.699l-28.096 266.135a5.188 5.188 0 01-5.704 4.613l-.001.001z" fill="#fff"/><path d="M279.898 91.359l-31.113-3.279-7.247 68.664 31.114 3.278 7.246-68.663z" fill="#F4B545"/><path d="M315.06 129.775l-31.114-3.279-3.623 34.333 31.113 3.278 3.624-34.332z" fill="#F58220"/><path d="M355.234 120.698l-31.113-3.278-5.013 47.496 31.113 3.279 5.013-47.497z" fill="#60A6E2"/><path d="M373.555 113.253a2.76 2.76 0 10-2.366-4.99 2.76 2.76 0 00-1.313 3.677 2.763 2.763 0 003.679 1.313z" fill="#F4B545"/><path d="M420.483 118.619l-38.784-4.088a2.77 2.77 0 01-2.458-3.034 2.772 2.772 0 013.036-2.457l38.785 4.089a2.771 2.771 0 012.458 3.034 2.771 2.771 0 01-3.037 2.456zm-1.048 9.931l-48.4-5.101a2.77 2.77 0 01-2.458-3.034 2.772 2.772 0 013.036-2.457l48.4 5.102a2.77 2.77 0 012.458 3.034 2.772 2.772 0 01-3.036 2.456z" fill="#F6F6F6"/><path d="M371.658 136.126a2.76 2.76 0 10-3.476-4.292 2.758 2.758 0 00-.409 3.882 2.764 2.764 0 003.885.41z" fill="#F58220"/><path d="M418.032 141.836l-38.784-4.088a2.77 2.77 0 01-2.458-3.035 2.77 2.77 0 013.036-2.456l38.785 4.089a2.77 2.77 0 012.458 3.034 2.772 2.772 0 01-3.037 2.456zm-1.047 9.931l-48.4-5.102a2.769 2.769 0 01-2.458-3.034 2.772 2.772 0 013.036-2.456l48.4 5.102a2.77 2.77 0 012.459 3.034 2.772 2.772 0 01-3.037 2.456z" fill="#F6F6F6"/><path d="M370.2 157.606a2.762 2.762 0 10-5.466-.806 2.762 2.762 0 005.466.806z" fill="#60A6E2"/><path d="M415.582 165.053l-38.785-4.089a2.77 2.77 0 01-2.458-3.034 2.772 2.772 0 013.036-2.456l38.785 4.089a2.77 2.77 0 012.458 3.034 2.772 2.772 0 01-3.036 2.456zm-1.05 9.931l-48.4-5.102a2.77 2.77 0 01-2.458-3.034 2.772 2.772 0 013.037-2.456l48.4 5.101a2.772 2.772 0 012.458 3.035 2.772 2.772 0 01-3.037 2.456z" fill="#F6F6F6"/><path d="M283.244 188.879l-40.729-4.293a3.908 3.908 0 01-3.468-4.284 3.909 3.909 0 014.287-3.466l40.729 4.293a3.907 3.907 0 013.468 4.284 3.909 3.909 0 01-4.287 3.466z" fill="#FFC53B"/><path d="M408.46 221.669l-167.991-17.706a3.908 3.908 0 01-3.468-4.284 3.909 3.909 0 014.287-3.466l167.99 17.707a3.907 3.907 0 013.469 4.283 3.91 3.91 0 01-4.287 3.466zm-2.044 19.377L238.425 223.34a3.909 3.909 0 01-3.469-4.284 3.91 3.91 0 014.287-3.466l167.991 17.707a3.908 3.908 0 013.469 4.283 3.91 3.91 0 01-4.287 3.466zm-2.046 19.377l-167.991-17.706a3.909 3.909 0 01-3.469-4.284 3.91 3.91 0 014.287-3.466l167.991 17.707a3.907 3.907 0 013.469 4.283 3.91 3.91 0 01-4.287 3.466z" fill="#F6F6F6"/><path d="M299.548 63.08l-43.718-4.607a3.907 3.907 0 01-3.468-4.284 3.909 3.909 0 014.287-3.466l43.717 4.608a3.908 3.908 0 013.469 4.284 3.909 3.909 0 01-4.287 3.466z" fill="#FFC53B"/><path d="M422.03 93.133L268.585 76.959a3.908 3.908 0 01-3.469-4.284 3.91 3.91 0 014.288-3.466l153.445 16.174a3.907 3.907 0 013.468 4.284 3.909 3.909 0 01-4.287 3.466z" fill="#F6F6F6"/><path d="M415.66 108.55c-16.557 18.019-15.441 46.149 2.504 62.816 16.418 15.26 41.221 15.64 58.014 1.797l8.061 7.492-2.508 2.728 43.616 40.533a5.224 5.224 0 007.41-.287l6.207-6.752a5.292 5.292 0 00-.296-7.45l-43.615-40.533-2.508 2.727-8.06-7.491c12.411-17.917 10.091-42.756-6.328-58.006-17.945-16.68-45.926-15.594-62.495 2.426h-.002zm57.07 3.479c14.7 13.65 15.609 36.689 2.037 51.45-13.572 14.761-36.477 15.644-51.177 1.995-14.7-13.663-15.622-36.701-2.051-51.462 13.573-14.76 36.49-15.646 51.19-1.983h.001z" fill="#9C9C9C" opacity=".2"/><path d="M450.623 169.574c21.401-2.546 36.689-21.945 34.145-43.329-2.543-21.385-21.954-36.657-43.356-34.112-21.401 2.546-36.688 21.945-34.145 43.329 2.544 21.385 21.955 36.657 43.356 34.112z" fill="#86BDDD" opacity=".2"/><path opacity=".6" d="M475.234 132.367a1.743 1.743 0 01-2.002-1.709 27.484 27.484 0 00-.1-2.135c-1.281-14.939-14.489-26.047-29.439-24.764-2.45.207-4.856.745-7.14 1.592a1.748 1.748 0 01-2.242-1.03 1.742 1.742 0 011.029-2.241 30.689 30.689 0 018.055-1.795c16.868-1.448 31.769 11.087 33.214 27.94.069.806.107 1.606.114 2.402a1.744 1.744 0 01-1.489 1.74z" fill="#fff"/><path d="M480.154 154.035l-8.322 8.996 12.027 11.108 8.322-8.996-12.027-11.108z" fill="#4C4C4C"/><path d="M413.502 100.823c-16.591 17.945-15.495 45.94 2.461 62.516 17.956 16.587 45.961 15.487 62.565-2.459 16.604-17.945 15.507-45.941-2.448-62.517-17.956-16.588-45.973-15.487-62.577 2.46h-.001zm57.139 3.42c14.708 13.575 15.602 36.504 2.002 51.205-13.6 14.7-36.534 15.596-51.243 2.022-14.709-13.587-15.615-36.515-2.016-51.215 13.6-14.7 36.547-15.599 51.256-2.011l.001-.001zm66.241 104.304l-6.221 6.724a5.253 5.253 0 01-7.419.291l-43.641-40.309 13.349-14.43 43.641 40.31a5.244 5.244 0 01.291 7.414z" fill="#5E5E5E"/><path d="M429.862 68.906c9.061-5.17 12.214-16.707 7.044-25.768-5.17-9.061-16.707-12.215-25.768-7.045s-12.215 16.707-7.045 25.768c5.171 9.061 16.708 12.215 25.769 7.045z" fill="#FDCE5E"/><path d="M414.051 44.967c.274-1.002.874-1.929 1.799-2.782.925-.854 2.098-1.45 3.516-1.788 1.418-.338 2.952-.283 4.6.17 1.531.417 2.807 1.07 3.823 1.954 1.016.885 1.714 1.901 2.086 3.046a5.88 5.88 0 01.093 3.429c-.246.898-.644 1.632-1.191 2.211a7.52 7.52 0 01-1.778 1.395c-.635.355-1.763.936-3.376 1.742-.45.229-.817.437-1.1.628a3.45 3.45 0 00-.667.55c-.16.178-.302.362-.412.55-.111.189-.3.527-.558 1.012-.501 1.043-1.278 1.422-2.334 1.13-.548-.15-.963-.456-1.236-.917-.278-.46-.319-1.045-.124-1.755.243-.889.591-1.616 1.043-2.19a6.011 6.011 0 011.561-1.411c.586-.365 1.358-.782 2.313-1.248a32.81 32.81 0 001.832-.936 4.815 4.815 0 001.036-.797c.309-.312.518-.687.637-1.118.232-.844.113-1.642-.358-2.394-.47-.752-1.2-1.263-2.192-1.534-1.162-.316-2.094-.259-2.804.175-.709.435-1.409 1.174-2.101 2.21-.683 1.094-1.53 1.505-2.531 1.231a2.075 2.075 0 01-1.326-1.034c-.292-.527-.374-1.033-.241-1.522l-.01-.007zm2.982 19.466a2.592 2.592 0 01-1.515-1.085c-.368-.546-.448-1.194-.241-1.944.18-.665.566-1.16 1.157-1.487.587-.326 1.219-.4 1.897-.213.664.18 1.164.561 1.493 1.14.329.577.406 1.2.221 1.865-.204.74-.6 1.255-1.187 1.547a2.5 2.5 0 01-1.82.184l-.005-.007z" fill="#fff"/></g><defs><clipPath id="clip0_6272_15189"><path fill="#fff" d="M0 0h600v240H0z"/></clipPath></defs></svg>