<svg width="600" height="240" viewBox="0 0 600 240" fill="none" xmlns="http://www.w3.org/2000/svg"><g clip-path="url(#clip0_6016_214410)"><path d="M232.782 257.565l-123.058 54.968-88.899-199.016 106.243-47.456 16.816-7.513 16.93 37.892 71.968 161.125z" fill="#89BBE6"/><path d="M61.97 119.426l4.9-2.184-1.749-3.919-14.523 6.493 1.745 3.912 4.933-2.2 7.09 15.874 4.695-2.096-7.088-15.88h-.002zm25.497-4.242c-1.192-2.655-2.944-4.699-5.274-6.136-2.324-1.436-4.868-1.537-7.634-.301-2.733 1.217-4.406 3.124-5.02 5.718-.614 2.595-.27 5.334 1.019 8.225 1.268 2.838 3.08 4.934 5.43 6.282 2.35 1.349 4.861 1.433 7.523.244 2.787-1.245 4.462-3.176 5.026-5.794.57-2.618.21-5.366-1.07-8.236v-.002zm-5.515 10.183c-2.43 1.087-4.603-.511-6.513-4.792-1.91-4.268-1.647-6.952.785-8.039 2.35-1.047 4.484.566 6.4 4.847 1.904 4.274 1.687 6.935-.672 7.984zm32.178-22.123c-1.01-2.254-2.319-3.902-3.932-4.95-1.613-1.046-3.178-1.644-4.69-1.785-1.513-.14-3.498.334-5.963 1.438l-6.04 2.701 8.842 19.786 6.81-3.041c2.93-1.311 4.814-3.292 5.635-5.935.822-2.644.6-5.381-.662-8.212v-.002zm-4.069 7.004c-.257 1.625-1.23 2.817-2.917 3.569l-1.909.857-5.549-12.421 1.949-.872c.975-.439 1.899-.602 2.779-.507.879.102 1.782.562 2.706 1.368.922.812 1.647 1.814 2.185 3.014.757 1.705 1.012 3.367.756 4.994v-.002zm23.054-15.455c-1.185-2.654-2.944-4.699-5.268-6.135-1.367-.844-2.812-1.23-4.334-1.148-1.061.051-2.166.335-3.298.84-2.734 1.224-4.408 3.131-5.021 5.725-.614 2.588-.277 5.334 1.012 8.225 1 2.227 2.325 3.992 3.983 5.297.458.365.938.692 1.451.985 2.351 1.348 4.855 1.428 7.524.237 2.779-1.241 4.455-3.172 5.025-5.788.564-2.618.21-5.365-1.076-8.236l.002-.002zm-5.509 10.184c-2.332 1.042-4.427-.382-6.275-4.284-.084-.165-.159-.337-.237-.509-1.91-4.274-1.652-6.952.785-8.038a3.35 3.35 0 01.911-.271c1.991-.31 3.819 1.398 5.482 5.118 1.91 4.274 1.687 6.934-.666 7.984zM73.153 176.15c6.624-.795 11.349-6.809 10.554-13.432-.795-6.623-6.809-11.349-13.432-10.554-6.623.795-11.348 6.809-10.554 13.432.795 6.624 6.809 11.349 13.432 10.554zm82.99-44.205l-61.416 27.433a5.026 5.026 0 11-4.1-9.177l61.416-27.433a5.025 5.025 0 016.638 2.539 5.023 5.023 0 01-2.538 6.638zm-70.157 77.89c6.66.393 12.376-4.687 12.77-11.346.392-6.66-4.688-12.377-11.347-12.77-6.66-.393-12.377 4.687-12.77 11.347-.392 6.659 4.688 12.376 11.347 12.769zm85.17-44.276l-61.416 27.432a5.026 5.026 0 01-4.101-9.177l61.417-27.432a5.025 5.025 0 114.1 9.177zm-70.296 77.876c6.653.48 12.436-4.525 12.916-11.178.481-6.654-4.524-12.437-11.178-12.917-6.653-.48-12.436 4.525-12.916 11.178-.48 6.654 4.524 12.437 11.178 12.917zm85.31-44.265l-61.416 27.433a5.026 5.026 0 11-4.101-9.177l61.417-27.433a5.025 5.025 0 114.1 9.177zm15.016 33.615l-61.416 27.433a5.025 5.025 0 01-6.639-2.538 5.025 5.025 0 012.538-6.639l61.417-27.433a5.025 5.025 0 014.1 9.177z" fill="#fff"/><path d="M175.5 129l-7.5-16.5L138.5 236h7.5l29.5-107z" fill="#60A6E2" opacity=".2"/><path d="M243 368.259l124.317-176.042L254.494 154 243 368.259zm155.321-166.221s49.045-150.236 47.65-150.236c-1.395 0-16.393-2.79-16.393-2.79l-31.257 153.026z" fill="#9C9C9C" opacity=".2"/><path d="M441.785 44.828l-43.031 155.899c-2.031 7.361-9.646 11.681-17.002 9.651a13.747 13.747 0 01-5.939-3.394 13.817 13.817 0 01-3.708-13.611l7.791-28.235-138.201-38.137L272.327 16l169.458 28.828z" fill="#fff"/><path d="M386.631 75.757l-.962 3.486-121.54-33.539 3.473-12.585c20.741 7.348 119.027 42.638 119.027 42.638h.002z" fill="#C3C3C3" opacity=".2"/><path d="M394.651 79.487a18.708 18.708 0 00-12.249.782l-18.043 65.383 19.434 5.362-11.689 42.357c-1.392 5.044-.621 9.98 1.681 13.049 3.585-1.486 6.834-5.44 8.263-10.622l11.608-42.063 13.885-50.317.226-.818c2.761-10.006-3.114-20.354-13.117-23.114l.001.001z" fill="#C3C3C3" opacity=".2"/><path d="M381.752 210.378l-146.268-40.363c-10.265-2.832-16.289-13.45-13.456-23.718l29.735-107.754L367.061 70.36l-4.999 18.116a18.705 18.705 0 017.498-10.505 18.737 18.737 0 0115.618-2.612c10.002 2.76 15.877 13.108 13.116 23.114l-26.188 94.9c-2.031 7.36 2.287 14.973 9.647 17.004l-.001.001z" fill="#C3C3C3"/><path d="M359.169 204.146l-26.971-7.442 29.981-108.645a18.67 18.67 0 017.381-10.084c9.344 3.154 14.745 13.175 12.091 22.792l-25.101 90.959c-1.237 4.485-.113 9.061 2.619 12.42z" fill="#9C9C9C"/><path d="M307.852 284.923l54.212-196.448c2.761-10.004 13.112-15.878 23.116-13.117l-164.993-45.53c-9.924-2.738-20.199 3.092-22.939 13.02L143 239.432l164.852 45.492v-.001z" fill="#fff"/><path d="M221.327 76.635a8.88 8.88 0 10-12.559-12.557 8.88 8.88 0 0012.559 12.557zm114.208 31.576L233.546 80.066a4.358 4.358 0 01-3.032-5.344l.05-.184a4.357 4.357 0 015.344-3.032L337.897 99.65a4.358 4.358 0 013.032 5.344l-.05.184a4.358 4.358 0 01-5.344 3.033zm-128.586.374a8.88 8.88 0 10-.001-17.761 8.88 8.88 0 00.001 17.761zm120.487 28.975l-101.988-28.144a4.358 4.358 0 01-3.033-5.344l.051-.184a4.357 4.357 0 015.343-3.033L329.798 129a4.357 4.357 0 013.033 5.343l-.051.185a4.356 4.356 0 01-5.344 3.032zm-128.587.372a8.88 8.88 0 100-17.76 8.88 8.88 0 000 17.76zm20.852-7.725l101.987 28.149a4.346 4.346 0 013.032 5.344l-.05.184a4.347 4.347 0 01-5.345 3.032l-101.986-28.149a4.345 4.345 0 01-3.032-5.344l.05-.184a4.346 4.346 0 015.344-3.032zM197.03 164.68a8.88 8.88 0 10-12.559-12.559 8.88 8.88 0 0012.559 12.559zm114.209 31.576L209.25 168.111a4.358 4.358 0 01-3.032-5.344l.05-.184a4.358 4.358 0 015.344-3.033l101.989 28.145a4.357 4.357 0 013.032 5.344l-.05.184a4.358 4.358 0 01-5.344 3.033zm-122.309-2.229a8.88 8.88 0 000-12.558 8.88 8.88 0 00-12.558 0 8.88 8.88 0 000 12.558 8.88 8.88 0 0012.558 0zm114.21 31.578l-101.989-28.144a4.357 4.357 0 01-3.032-5.344l.05-.184a4.358 4.358 0 015.344-3.033l101.989 28.145a4.357 4.357 0 013.032 5.343l-.05.185a4.357 4.357 0 01-5.344 3.032zm-122.307-2.228a8.88 8.88 0 10-12.56-12.559 8.88 8.88 0 0012.56 12.559zm114.208 31.576l-101.988-28.145a4.357 4.357 0 01-3.033-5.343l.051-.185a4.356 4.356 0 015.343-3.032l101.989 28.144a4.356 4.356 0 013.032 5.344l-.05.184a4.358 4.358 0 01-5.344 3.033z" fill="#F7DFA1"/><path d="M202.742 105.014a2.38 2.38 0 01-1.437-1.12l-3.541-6.242a2.378 2.378 0 114.137-2.348l2.368 4.173 10.674-6.058a2.378 2.378 0 112.348 4.137l-12.743 7.232a2.37 2.37 0 01-1.806.223v.003zm-15.72 56.964a2.374 2.374 0 01-1.436-1.119l-3.542-6.242a2.379 2.379 0 014.138-2.348l2.367 4.173 10.675-6.058a2.379 2.379 0 012.348 4.137l-12.744 7.231a2.366 2.366 0 01-1.806.224v.002zm-8.338 30.215a2.374 2.374 0 01-1.436-1.119l-3.541-6.242a2.378 2.378 0 114.137-2.348l2.368 4.173 10.674-6.058a2.38 2.38 0 012.348 4.137l-12.743 7.231a2.369 2.369 0 01-1.807.224v.002zm-7.86 28.481a2.377 2.377 0 01-1.437-1.12l-3.541-6.242a2.38 2.38 0 014.137-2.348l2.368 4.173 10.674-6.058a2.378 2.378 0 112.348 4.138l-12.743 7.231a2.365 2.365 0 01-1.806.223v.003z" fill="#F58220"/><path d="M345.84 163.346c9.608-1.218 16.409-9.994 15.191-19.602-1.218-9.608-9.994-16.409-19.602-15.191-9.608 1.217-16.409 9.994-15.191 19.602 1.217 9.608 9.994 16.409 19.602 15.191z" fill="#9C9C9C" opacity=".2"/><path d="M342.618 163.565c9.608-1.218 16.409-9.994 15.191-19.602-1.218-9.608-9.994-16.41-19.602-15.192s-16.41 9.994-15.192 19.602 9.995 16.41 19.603 15.192z" fill="#FDCE5E"/><path d="M336.815 155.126a2.466 2.466 0 01-1.769-.674l-5.424-5.124a2.473 2.473 0 013.397-3.596l3.626 3.426 8.762-9.276a2.474 2.474 0 013.596 3.396l-10.461 11.074a2.472 2.472 0 01-1.727.774z" fill="#fff"/><path d="M530.701 167.855c-5.912 1.962-10.929 5.238-14.706 9.253l-18.444-6.821c1.306-4.382 1.365-8.98-.096-13.383-4.437-13.372-21.153-19.861-37.334-14.491-16.181 5.369-25.703 20.561-21.266 33.935 4.438 13.374 21.153 19.86 37.334 14.491 7.964-2.642 14.31-7.667 18.178-13.681l17.028 6.299c-3.095 5.753-3.984 12.232-1.959 18.334 4.437 13.372 21.153 19.86 37.334 14.491 16.181-5.369 25.703-20.562 21.265-33.935-4.437-13.374-21.153-19.861-37.334-14.492z" fill="#9C9C9C" opacity=".2"/><path d="M550.666 201.427a3.737 3.737 0 01-1.91-4.928c2.158-4.891-5.519-8.908-5.598-8.948l-108.339-47.826a3.737 3.737 0 113.018-6.839l108.539 47.922c5.058 2.593 13.195 9.699 9.218 18.708a3.74 3.74 0 01-4.929 1.91l.001.001z" fill="#D0A66C"/><path d="M442.974 153.88a3.738 3.738 0 004.928-1.911c2.158-4.89 10.302-1.923 10.385-1.891l108.334 47.84a3.738 3.738 0 003.018-6.839L461.1 143.158c-5.324-1.992-16.058-3.218-20.035 5.792a3.739 3.739 0 001.91 4.929l-.001.001z" fill="#D0A66C"/><path opacity=".28" d="M486.742 160.064c6.904-13.76 1.346-30.511-12.414-37.414-13.76-6.903-30.51-1.345-37.414 12.414-6.903 13.76-1.345 30.511 12.415 37.414 13.759 6.904 30.51 1.345 37.413-12.414zm81.278 35.886c6.904-13.759 1.346-30.51-12.414-37.413-13.76-6.904-30.511-1.346-37.414 12.414-6.903 13.76-1.345 30.511 12.415 37.414 13.759 6.903 30.51 1.345 37.413-12.415z" fill="#F2F2F2"/><path d="M556.189 153.821c-13.356-5.897-28.618-1.985-37.651 8.54-5.4-8.185-14.882-12.372-24.57-10.847 1.694-13.768-5.675-27.672-19.055-33.578-16.343-7.215-35.507.229-42.712 16.547-7.215 16.342.206 35.496 16.547 42.712a32.1 32.1 0 0016.687 2.547 31.971 31.971 0 004.105-.722 32.427 32.427 0 004.493-1.477c7.506-3.058 13.896-8.898 17.428-16.897.14-.319.291-.661.409-.991.725-.224 1.44-.425 2.169-.595 3.788-.805 7.54-.484 10.844.976 3.305 1.46 6.072 4.015 8.028 7.356.365.652.721 1.327 1.01 2.027-.164.309-.304.628-.446.948-3.522 7.977-3.532 16.635-.735 24.242a32.457 32.457 0 001.935 4.313 32.363 32.363 0 002.223 3.542 32.117 32.117 0 0013.124 10.616c16.343 7.216 35.496-.206 42.712-16.546 7.206-16.321-.206-35.496-16.546-42.712l.001-.001zm-87.622 17.718a24.707 24.707 0 01-16.8-1.181c-12.581-5.556-18.285-20.275-12.729-32.856 5.545-12.559 20.275-18.285 32.856-12.729 11.374 5.022 17.128 17.586 13.994 29.248l-.01.022a23.521 23.521 0 01-1.256 3.584 21.757 21.757 0 01-.987 1.988 24.358 24.358 0 01-9.372 9.507 25.108 25.108 0 01-5.697 2.415l.001.002zm64.477 34.706a24.72 24.72 0 01-12.192-11.619 24.99 24.99 0 01-2.053-5.837 24.375 24.375 0 01.71-13.331c.224-.691.504-1.385.804-2.069a23.507 23.507 0 011.804-3.343l.009-.022c6.507-10.174 19.669-14.385 31.043-9.363 12.58 5.554 18.274 20.297 12.729 32.855-5.554 12.581-20.275 18.285-32.856 12.729h.002z" fill="#D0A66C"/></g><defs><clipPath id="clip0_6016_214410"><path fill="#fff" d="M0 0h600v240H0z"/></clipPath></defs></svg>