<svg width="94" height="24" viewBox="0 0 94 24" fill="none" xmlns="http://www.w3.org/2000/svg"><g id="Subtract"><mask id="path-1-inside-1_4548_166572" fill="#fff"><path fill-rule="evenodd" clip-rule="evenodd" d="M91.234 0H9.21c-.904 0-1.752.441-2.27 1.183L.5 10.417a2.761 2.761 0 000 3.166l6.441 9.234A2.768 2.768 0 009.21 24h82.024A2.766 2.766 0 0094 21.234V2.765A2.765 2.765 0 0091.234 0zM9 15a3 3 0 100-6 3 3 0 000 6z"/></mask><path fill-rule="evenodd" clip-rule="evenodd" d="M91.234 0H9.21c-.904 0-1.752.441-2.27 1.183L.5 10.417a2.761 2.761 0 000 3.166l6.441 9.234A2.768 2.768 0 009.21 24h82.024A2.766 2.766 0 0094 21.234V2.765A2.765 2.765 0 0091.234 0zM9 15a3 3 0 100-6 3 3 0 000 6z" fill="#fff"/><path d="M6.94 1.183L6.285.725l.655.458zM.5 10.417l.655.46v-.002L.5 10.417zm0 3.166l.656-.458-.656.458zm6.441 9.234l-.656.458.001.001.655-.459zM9.21.8h82.024V-.8H9.21V.8zm-1.614.84C7.964 1.115 8.567.8 9.21.8V-.8A3.568 3.568 0 006.285.725l1.311.916zm-6.441 9.235L7.597 1.64 6.284.725-.157 9.96l1.312.915zm0 2.25a1.961 1.961 0 01-.001-2.249l-1.31-.918a3.56 3.56 0 000 4.083l1.31-.917zm6.442 9.235l-6.442-9.235-1.312.915 6.441 9.235 1.313-.915zm1.613.84a1.968 1.968 0 01-1.614-.842l-1.31.918A3.568 3.568 0 009.21 24.8v-1.6zm82.024 0H9.21v1.6h82.024v-1.6zm1.966-1.966c0 1.086-.88 1.966-1.966 1.966v1.6a3.566 3.566 0 003.566-3.566h-1.6zm0-18.469v18.469h1.6V2.765h-1.6zM91.234.8c1.086 0 1.966.88 1.966 1.965h1.6A3.565 3.565 0 0091.234-.8V.8zM11.2 12A2.2 2.2 0 019 14.2v1.6a3.8 3.8 0 003.8-3.8h-1.6zM9 9.8a2.2 2.2 0 012.2 2.2h1.6A3.8 3.8 0 009 8.2v1.6zM6.8 12A2.2 2.2 0 019 9.8V8.2A3.8 3.8 0 005.2 12h1.6zM9 14.2A2.2 2.2 0 016.8 12H5.2A3.8 3.8 0 009 15.8v-1.6z" fill="#A4844E" mask="url(#path-1-inside-1_4548_166572)"/></g></svg>