<svg width="24" height="24" viewBox="0 0 22 22" fill="none" xmlns="http://www.w3.org/2000/svg"><g fill="#9C9C9C"><path d="M11.015 22a3.441 3.441 0 01-3.438-3.438.688.688 0 011.375 0c0 1.138.925 2.063 2.063 2.063a2.064 2.064 0 002.062-2.063.688.688 0 011.375 0A3.441 3.441 0 0111.015 22z"/><path d="M18.577 19.25H3.452a1.606 1.606 0 01-1.043-2.823 6.143 6.143 0 002.19-4.705V9.167a6.424 6.424 0 016.416-6.417 6.424 6.424 0 016.416 6.417v2.555a6.14 6.14 0 002.18 4.698 1.604 1.604 0 01-1.034 2.83zM11.015 4.125a5.047 5.047 0 00-5.042 5.042v2.555c0 2.22-.972 4.315-2.667 5.748a.228.228 0 00-.083.176c0 .124.105.229.23.229h15.124c.125 0 .23-.105.23-.23a.226.226 0 00-.081-.173 7.515 7.515 0 01-2.67-5.75V9.167a5.047 5.047 0 00-5.041-5.042z"/><path d="M11.015 4.125a.688.688 0 01-.688-.688V.688a.688.688 0 011.375 0v2.75c0 .38-.308.688-.687.688z"/></g></svg>