<svg width="24" height="24" viewBox="0 0 16 16" fill="none" xmlns="http://www.w3.org/2000/svg"><path d="M12.656 5.511a.692.692 0 00-1.161.112 1.446 1.446 0 01-.054.094.22.22 0 01-.404-.081c-.127-.791-.412-1.455-.846-1.974a3.957 3.957 0 00-.542-.52c-.268-.223-.766-.596-.842-1.512-.051-.62-.83-.85-1.222-.38-.872 1.045-1.473 2.33-1.662 4.3-.02.215-.311.277-.411.087a.69.69 0 00-1.17-.128c-1.973 2.552-1.744 6.22.51 8.177 2.019 1.752 5.275 1.752 7.292 0 2.254-1.957 2.483-5.624.512-8.175zm-4.075 7.343c-.769 0-1.512-.334-1.948-.823-.647-.728-.555-1.691-.515-2.103.08-.833.438-1.614 1.064-2.324.416-.472 1.189-.086 1.066.532-.107.535-.04.968.188 1.217.04.044.258.264.535.256.231-.007.467-.167.646-.438a.616.616 0 011.058.041c.86 1.593-.162 3.642-2.094 3.642z" fill="#9C9C9C"/></svg>