<svg width="24" height="24" viewBox="0 0 24 24" fill="none" xmlns="http://www.w3.org/2000/svg"><path d="M20 6.7v2.85a1 1 0 01-1 1h-2.85a1 1 0 110-2h.764A5.962 5.962 0 0012 6a5.967 5.967 0 00-5.59 3.814 1 1 0 01-1.862-.728 7.988 7.988 0 012.89-3.659A7.953 7.953 0 0112 4a7.95 7.95 0 014.561 1.427c.534.371 1.016.8 1.439 1.28V6.7a1 1 0 012 0zm-1.115 6.919a1 1 0 00-1.295.567A5.967 5.967 0 0112 18a5.963 5.963 0 01-4.843-2.45h.693a1 1 0 100-2H5a1 1 0 00-1 1v2.85a1 1 0 102 0v-.106a8.05 8.05 0 001.439 1.279A7.954 7.954 0 0012 20a7.954 7.954 0 004.561-1.427 7.988 7.988 0 002.891-3.659 1 1 0 00-.567-1.295z" fill="#9C9C9C"/></svg>