<svg width="24" height="24" viewBox="0 0 24 24" fill="none" xmlns="http://www.w3.org/2000/svg"><path d="M16.375 14.217c-.864 0-1.626.425-2.105 1.072l-4.137-2.119c.069-.234.117-.476.117-.732 0-.348-.071-.678-.194-.982l4.33-2.605c.481.566 1.19.932 1.989.932A2.628 2.628 0 0019 7.158a2.628 2.628 0 00-2.625-2.625 2.628 2.628 0 00-2.625 2.625c0 .334.069.65.183.944L9.59 10.715a2.609 2.609 0 00-1.965-.902A2.628 2.628 0 005 12.437a2.628 2.628 0 002.625 2.626c.879 0 1.653-.438 2.13-1.103l4.124 2.111c-.076.245-.129.5-.129.77a2.628 2.628 0 002.625 2.626A2.628 2.628 0 0019 16.842a2.628 2.628 0 00-2.625-2.625z" fill="#9C9C9C"/></svg>