<svg width="32" height="32" viewBox="0 0 32 32" fill="none" xmlns="http://www.w3.org/2000/svg"><path d="M9.636 25.079h12.727A3.635 3.635 0 0026 21.445V11.45a3.635 3.635 0 00-3.637-3.634v-.909c0-.5-.41-.908-.909-.908-.5 0-.909.41-.909.908v.909H16.91v-.909c0-.5-.41-.908-.91-.908a.912.912 0 00-.908.908v.909h-3.637v-.909c0-.5-.41-.908-.909-.908-.5 0-.909.41-.909.908v.909A3.635 3.635 0 006 11.45v9.994a3.64 3.64 0 003.636 3.634zm11.709-10.902v1.362a.567.567 0 01-.564.564h-1.373a.567.567 0 01-.564-.564v-1.362c0-.31.255-.564.564-.564h1.363c.319 0 .573.255.573.564zm0 4.088v1.363a.567.567 0 01-.564.563h-1.373a.567.567 0 01-.564-.563v-1.363c0-.309.255-.563.564-.563h1.363c.319 0 .573.254.573.563zm-4.091-4.088v1.362a.567.567 0 01-.564.564h-1.364a.567.567 0 01-.564-.564v-1.362c0-.31.255-.564.564-.564h1.355c.319 0 .573.255.573.564zm0 4.088v1.363a.567.567 0 01-.564.563h-1.364a.567.567 0 01-.564-.563v-1.363c0-.309.255-.563.564-.563h1.355c.319 0 .573.254.573.563zm-4.091-4.088v1.362a.567.567 0 01-.564.564h-1.373a.567.567 0 01-.564-.564v-1.362c0-.31.255-.564.564-.564h1.363c.319 0 .573.255.573.564zm-2.5 4.088c0-.309.255-.563.564-.563h1.363c.31 0 .564.254.564.563v1.363a.567.567 0 01-.564.563h-1.363a.567.567 0 01-.564-.563v-1.363z" fill="#fff"/></svg>