<svg width="32" height="32" viewBox="0 0 32 32" fill="none" xmlns="http://www.w3.org/2000/svg"><path d="M7.501 11.002a1.501 1.501 0 100-3.002 1.501 1.501 0 000 3.002zM24.458 8H13.542C12.691 8 12 8.672 12 9.5s.69 1.5 1.542 1.5h10.916C25.31 11 26 10.328 26 9.5S25.31 8 24.458 8zM7.501 17.002a1.501 1.501 0 100-3.002 1.501 1.501 0 000 3.002zM24.458 14H13.542c-.851 0-1.542.672-1.542 1.5s.69 1.5 1.542 1.5h10.916C25.31 17 26 16.328 26 15.5s-.69-1.5-1.542-1.5zM7.501 23.002a1.501 1.501 0 100-3.002 1.501 1.501 0 000 3.002zM24.458 20H13.542c-.851 0-1.542.672-1.542 1.5s.69 1.5 1.542 1.5h10.916C25.31 23 26 22.328 26 21.5s-.69-1.5-1.542-1.5z" fill="#fff"/></svg>