<svg width="32" height="32" viewBox="0 0 32 32" fill="none" xmlns="http://www.w3.org/2000/svg"><path d="M19.457 13.3a.705.705 0 01-.63-.457l-2.595-7.987c-.082-.252-.214-.252-.296 0l-2.595 7.988a.704.704 0 01-.63.456H4.314c-.265 0-.306.127-.092.283l6.795 4.935a.704.704 0 01.24.74L8.66 27.245c-.082.252.025.33.24.174l6.794-4.936a.703.703 0 01.778 0l6.794 4.936c.215.157.322.078.24-.174l-2.595-7.987a.704.704 0 01.24-.74l6.794-4.935c.215-.156.174-.282-.091-.282h-8.398z" fill="#9C9C9C"/><path d="M16 4.72a.474.474 0 00-.064.136l-2.595 7.988a.704.704 0 01-.63.456H4.314c-.265 0-.306.127-.092.283l6.795 4.935a.704.704 0 01.24.74L8.66 27.245c-.082.252.025.33.24.174l6.794-4.936a.64.64 0 01.305-.112V4.72z" fill="#FFC53B"/></svg>