<svg width="40" height="40" viewBox="0 0 40 40" fill="none" xmlns="http://www.w3.org/2000/svg"><g id="Group 2576"><circle id="Ellipse 318" cx="20" cy="20" r="20" fill="#B6DDBE"/><path id="Vector" d="M25 17.083v5.834a1.25 1.25 0 01-2.5 0v-5.834a1.25 1.25 0 012.5 0zM19.583 10c-.69 0-1.25.56-1.25 1.25v17.5a1.25 1.25 0 002.5 0v-17.5c0-.69-.56-1.25-1.25-1.25zm8.334 3.333c-.69 0-1.25.56-1.25 1.25v10.834a1.25 1.25 0 002.5 0V14.583c0-.69-.56-1.25-1.25-1.25zm-12.5.834c-.69 0-1.25.56-1.25 1.25v9.166a1.25 1.25 0 002.5 0v-9.166c0-.69-.56-1.25-1.25-1.25zM11.25 17.5c-.69 0-1.25.56-1.25 1.25v2.5a1.25 1.25 0 002.5 0v-2.5c0-.69-.56-1.25-1.25-1.25z" fill="#fff"/></g></svg>