<svg width="88" height="88" viewBox="0 0 88 88" fill="none" xmlns="http://www.w3.org/2000/svg"><path d="M64.787 33.333h-3.414v-4.266c0-9.41-7.656-17.067-17.066-17.067S27.24 19.656 27.24 29.067v4.266h-3.413A6.825 6.825 0 0017 40.16v29.013A6.825 6.825 0 0023.827 76h40.96a6.825 6.825 0 006.826-6.827V40.16a6.825 6.825 0 00-6.826-6.827zm-30.72-4.266c0-5.648 4.592-10.24 10.24-10.24 5.647 0 10.24 4.592 10.24 10.24v4.266h-20.48v-4.266zM47.72 54.206v8.14a3.423 3.423 0 01-3.413 3.414 3.423 3.423 0 01-3.414-3.413v-8.141a5.018 5.018 0 01-1.706-3.806 5.113 5.113 0 015.12-5.12 5.113 5.113 0 015.12 5.12 5.018 5.018 0 01-1.707 3.806z" fill="#238C6C"/></svg>