<svg width="29" height="24" viewBox="0 0 29 24" fill="none" xmlns="http://www.w3.org/2000/svg"><path id="“" d="M17.744 23.864v-7.648c0-2.675.432-5.085 1.297-7.23.865-2.174 1.856-4.027 2.972-5.559C23.157 1.895 24.133.752 24.943 0l3.39 1.839a63.115 63.115 0 00-2.344 2.967c-.893 1.226-1.688 2.633-2.386 4.221-.67 1.56-1.004 3.26-1.004 5.099H28.5v9.738H17.744zm-17.244 0v-7.648c0-2.675.432-5.085 1.297-7.23.865-2.174 1.856-4.027 2.972-5.559C5.913 1.895 6.89.752 7.7 0l3.39 1.839a63.171 63.171 0 00-2.344 2.967C7.852 6.032 7.057 7.44 6.36 9.027c-.67 1.56-1.004 3.26-1.004 5.099h5.901v9.738H.5z" fill="#A4844E"/></svg>