<svg width="29" height="24" viewBox="0 0 29 24" fill="none" xmlns="http://www.w3.org/2000/svg"><path id="”" d="M4.058 24l-3.39-1.842a56.43 56.43 0 002.343-2.971c.893-1.228 1.674-2.623 2.344-4.186.698-1.59 1.046-3.306 1.046-5.148H.5V.102h10.756V7.76c0 2.65-.432 5.064-1.297 7.24-.865 2.177-1.87 4.032-3.014 5.567C5.83 22.103 4.867 23.247 4.058 24zM21.3 24l-3.39-1.842c.67-.78 1.451-1.771 2.344-2.971.893-1.228 1.674-2.623 2.344-4.186.697-1.59 1.046-3.306 1.046-5.148h-5.901V.102H28.5V7.76c0 2.65-.433 5.064-1.297 7.24-.865 2.177-1.87 4.032-3.014 5.567-1.116 1.535-2.079 2.679-2.888 3.432z" fill="#A4844E"/></svg>