<svg width="32" height="32" viewBox="0 0 32 32" fill="none" xmlns="http://www.w3.org/2000/svg"><g id="hand"><path id="Vector" d="M6.775 1.327L5.455.006 1.776 3.683 5.454 7.36l1.321-1.32-1.422-1.423h5.457V2.749H5.353l1.422-1.422z" fill="#222"/><g id="Subtract" fill="#fff"><path d="M18.262 1.867a3.4 3.4 0 00-3.396 3.396c0 .849.324 1.652.87 2.264V6.76a2.505 2.505 0 01.738-1.774 2.48 2.48 0 011.766-.733h.01a2.514 2.514 0 011.776.742 2.49 2.49 0 01.739 1.782v.788a3.4 3.4 0 00-2.503-5.698z"/><path d="M26.114 30.131V27.44l2.238-3.97-.012-6.415a.638.638 0 00-1.274-.002h-1.868v-1.245a.638.638 0 00-1.275 0v1.245h-1.868V14.8a.642.642 0 00-.645-.637.642.642 0 00-.645.637v2.252h-1.868V6.772a.66.66 0 00-.654-.651.63.63 0 00-.448.185.647.647 0 00-.19.458V18.06h-1.703a1.28 1.28 0 00-1.285 1.27v3.3l4.111 5.142v2.358h7.386z"/></g><path id="Vector_2" d="M30.209 17.053a2.508 2.508 0 00-3.396-2.342 2.508 2.508 0 00-3.25-1.201 2.516 2.516 0 00-2.798-1.13V9.895a5.259 5.259 0 002.762-4.631A5.27 5.27 0 0018.263 0a5.27 5.27 0 00-5.264 5.264 5.257 5.257 0 002.738 4.619v6.315a3.149 3.149 0 00-2.987 3.134v3.955l4.111 5.141V32h11.122v-4.07l2.238-3.97-.012-6.907zM14.867 5.263a3.4 3.4 0 013.396-3.395 3.4 3.4 0 012.502 5.697v-.787a2.488 2.488 0 00-.739-1.783 2.514 2.514 0 00-1.775-.741h-.01a2.48 2.48 0 00-1.767.733 2.505 2.505 0 00-.737 1.773v.768a3.41 3.41 0 01-.87-2.264zM26.115 27.44v2.692h-7.386v-2.359l-4.111-5.14v-3.3a1.28 1.28 0 011.285-1.271h1.702V6.764c0-.173.068-.335.19-.457a.63.63 0 01.448-.186.66.66 0 01.655.653v10.279h1.867V14.8c0-.352.29-.638.646-.638.356 0 .645.286.645.638v2.252h1.868v-1.246a.638.638 0 011.275 0v1.246h1.867a.638.638 0 111.275.001l.012 6.417-2.238 3.969z" fill="#222"/></g></svg>