<svg width="55" height="72" viewBox="0 0 55 72" fill="none" xmlns="http://www.w3.org/2000/svg"><g id="_圖層_1" clip-path="url(#clip0_5482_223341)"><path id="Vector" d="M47.787 28.64h-3.453s.037-.018.037-.037V17.062c0-9.615-7.995-17.396-17.694-17.052-8.49.307-15.21 7.01-16.261 15.265a3.181 3.181 0 00-.103.792s0 .037-.01.046h.01a3.423 3.423 0 003.416 3.379 3.43 3.43 0 003.426-3.379 10.741 10.741 0 012.978-6.255 9.896 9.896 0 016.218-2.988c6.078-.558 11.197 4.235 11.197 10.192v11.543s.01.037.028.037H6.832A6.823 6.823 0 000 35.463v29.014a6.823 6.823 0 006.832 6.822h40.955a6.82 6.82 0 006.823-6.823V35.463a6.82 6.82 0 00-6.823-6.822zm-17.07 20.87v8.144a3.42 3.42 0 01-3.407 3.406c-1.871 0-3.416-1.535-3.416-3.406v-8.145c-1.061-.921-1.704-2.29-1.704-3.807a5.11 5.11 0 015.12-5.12 5.11 5.11 0 015.12 5.12 5.018 5.018 0 01-1.714 3.807z" fill="#238C6C"/></g><defs><clipPath id="clip0_5482_223341"><path fill="#fff" d="M0 0h54.61v71.299H0z"/></clipPath></defs></svg>