<svg width="40" height="40" viewBox="0 0 40 40" fill="none" xmlns="http://www.w3.org/2000/svg"><g id="Group 2576"><circle id="Ellipse 318" cx="20" cy="20" r="20" fill="#B6DDBE"/><g id="Layer 2" fill="#fff" stroke="#fff" stroke-width=".3"><path id="Vector" d="M23.6 28.6H10a2 2 0 01-2-2V13a2 2 0 012-2h13.6a2 2 0 012 2v13.6a2 2 0 01-2 2zM10 12.6a.4.4 0 00-.4.4v13.6a.4.4 0 00.4.4h13.6a.4.4 0 00.4-.4V13a.4.4 0 00-.4-.4H10z"/><path id="Vector_2" d="M30.404 25.698a1.58 1.58 0 01-.73-.18l-5.236-2.652a.8.8 0 01.72-1.427l5.242 2.656v-8.59l-5.239 2.657a.8.8 0 11-.72-1.427l5.24-2.656A1.599 1.599 0 0132 15.504v8.592a1.6 1.6 0 01-1.6 1.6l.004.002z"/><path id="Vector_3" d="M16 23.219a1.608 1.608 0 01-1.6-1.6v-3.633a1.6 1.6 0 012.4-1.385l3.146 1.815a1.6 1.6 0 010 2.771l-3.145 1.814a1.592 1.592 0 01-.8.218zm0-5.233v3.63l3.147-1.815-3.146-1.815z"/></g></g></svg>