<svg width="22" height="22" viewBox="0 0 22 22" fill="none" xmlns="http://www.w3.org/2000/svg"><g id="bell (2) 1" clip-path="url(#clip0_3968_41033)" fill="#238C6C"><path id="Vector" d="M19.612 15.504a6.14 6.14 0 01-2.181-4.698V8.25c0-3.226-2.396-5.896-5.5-6.343v-.99a.916.916 0 10-1.833 0v.99c-3.105.447-5.5 3.117-5.5 6.343v2.556a6.146 6.146 0 01-2.19 4.705 1.606 1.606 0 001.043 2.823h15.126a1.606 1.606 0 001.035-2.83z"/><path id="Vector_2" d="M11.014 22a3.443 3.443 0 003.368-2.75H7.646A3.443 3.443 0 0011.014 22z"/></g><defs><clipPath id="clip0_3968_41033"><path fill="#fff" d="M0 0h22v22H0z"/></clipPath></defs></svg>