<svg width="24" height="25" viewBox="0 0 24 25" fill="none" xmlns="http://www.w3.org/2000/svg"><path d="M19.665 6.922h-1.954a2.46 2.46 0 00-.032-2.149c-.837-1.653-3.136-1.833-4.224-.345l-1.456 1.98-1.456-1.978c-1.094-1.497-3.392-1.3-4.223.34a2.463 2.463 0 00-.034 2.152H4.328c-.735 0-1.328.6-1.328 1.335v1.418c0 .735.593 1.327 1.328 1.327h15.337c.735 0 1.335-.592 1.335-1.327V8.257c0-.735-.6-1.335-1.335-1.335zm-5.001-1.606c.426-.582 1.342-.529 1.677.137a.973.973 0 01-.033.965.976.976 0 01-.838.48l-1.98.014 1.174-1.596zm-7.006.134c.331-.658 1.247-.72 1.676-.132l1.174 1.594-1.976-.013a.993.993 0 01-.874-1.449zm-3.39 13.937c0 1.215.99 2.198 2.205 2.198h11.055a2.202 2.202 0 002.205-2.198v-6.885H4.268v6.885z" fill="#FF6363"/></svg>