<svg width="24" height="24" viewBox="0 0 28 28" fill="none" xmlns="http://www.w3.org/2000/svg"><path d="M12.56 3.92v6.72a1.92 1.92 0 01-1.92 1.92H3.92A1.92 1.92 0 012 10.64V3.92A1.92 1.92 0 013.92 2h6.72a1.92 1.92 0 011.92 1.92zM24.08 2h-6.72a1.92 1.92 0 00-1.92 1.92v6.72a1.92 1.92 0 001.92 1.92h6.72A1.92 1.92 0 0026 10.64V3.92A1.92 1.92 0 0024.08 2zM10.64 15.44H3.92A1.92 1.92 0 002 17.36v6.72A1.92 1.92 0 003.92 26h6.72a1.92 1.92 0 001.92-1.92v-6.72a1.92 1.92 0 00-1.92-1.92zm10.08 0a5.28 5.28 0 100 10.561 5.28 5.28 0 000-10.561z" fill="#fff"/></svg>