<svg width="24" height="24" viewBox="0 0 16 16" fill="none" xmlns="http://www.w3.org/2000/svg"><path d="M13.47 10.866a3.907 3.907 0 01-1.387-2.99V6.25a4.087 4.087 0 00-3.5-4.037v-.63a.583.583 0 10-1.167 0v.63a4.086 4.086 0 00-3.5 4.037v1.626a3.912 3.912 0 01-1.393 2.995 1.022 1.022 0 00.664 1.796h9.625a1.022 1.022 0 00.659-1.801zM8 15a2.19 2.19 0 002.143-1.75H5.857A2.191 2.191 0 008 15zm6.348-7.394a.652.652 0 01-.652-.652 6.802 6.802 0 00-2.005-4.84.651.651 0 11.922-.923A8.096 8.096 0 0115 6.954c0 .36-.292.652-.652.652zm-12.696 0A.652.652 0 011 6.954a8.1 8.1 0 012.387-5.763.651.651 0 11.922.922 6.801 6.801 0 00-2.005 4.841c0 .36-.292.652-.652.652z" fill="#fff"/></svg>