<svg width="22" height="23" viewBox="0 0 22 23" fill="none" xmlns="http://www.w3.org/2000/svg"><g id="bell (1) 1" clip-path="url(#clip0_7380_70940)" fill="#FFD46E"><path id="Vector" d="M11.015 22.5a3.441 3.441 0 01-3.438-3.438.688.688 0 011.375 0c0 1.138.925 2.063 2.063 2.063a2.064 2.064 0 002.062-2.063.688.688 0 011.375 0 3.441 3.441 0 01-3.437 3.438z"/><path id="Vector_2" d="M18.577 19.75H3.452a1.606 1.606 0 01-1.043-2.823 6.143 6.143 0 002.189-4.705V9.667a6.424 6.424 0 016.417-6.417 6.424 6.424 0 016.416 6.417v2.555a6.14 6.14 0 002.18 4.698 1.604 1.604 0 01-1.034 2.83zM11.015 4.625a5.047 5.047 0 00-5.042 5.042v2.555c0 2.22-.973 4.315-2.667 5.748a.228.228 0 00-.083.176c0 .124.105.229.23.229h15.124c.125 0 .23-.105.23-.23a.226.226 0 00-.081-.173 7.515 7.515 0 01-2.67-5.75V9.667a5.047 5.047 0 00-5.041-5.042z"/><path id="Vector_3" d="M11.015 4.625a.688.688 0 01-.688-.688v-2.75a.688.688 0 011.375 0v2.75c0 .38-.308.688-.687.688z"/></g><defs><clipPath id="clip0_7380_70940"><path fill="#fff" transform="translate(0 .5)" d="M0 0h22v22H0z"/></clipPath></defs></svg>