<svg width="24" height="24" viewBox="0 0 16 16" fill="none" xmlns="http://www.w3.org/2000/svg"><path d="M11.95 12.295a5.5 5.5 0 10-7.943 0L2.578 14.2a.5.5 0 00.8.6l1.385-1.847a5.46 5.46 0 006.43 0l1.385 1.847a.5.5 0 10.8-.6l-1.429-1.905zM8.477 8.5a.5.5 0 01-.1.3l-1.5 2a.5.5 0 11-.8-.6l1.4-1.867V5.5a.5.5 0 111 0v3z" fill="#F58220"/><path d="M5.245 1.732A2.5 2.5 0 001.71 5.267a.5.5 0 00.707 0L5.245 2.44a.5.5 0 000-.707zm9.001 0a2.5 2.5 0 00-3.535 0 .5.5 0 000 .707l2.828 2.828a.5.5 0 00.707 0 2.5 2.5 0 000-3.535z" fill="#F58220"/></svg>