<svg width="24" height="24" viewBox="0 0 24 24" fill="none" xmlns="http://www.w3.org/2000/svg"><path d="M4.118 4.119a1.126 1.126 0 000 2.252h12.385a1.126 1.126 0 100-2.252H4.118zm0 4.503a1.126 1.126 0 000 2.252H12a1.126 1.126 0 100-2.252H4.118zm0 4.504a1.126 1.126 0 100 2.252h4.503a1.126 1.126 0 000-2.252H4.118zm13.51-3.378a1.126 1.126 0 00-2.251 0v6.29L13.92 14.58a1.125 1.125 0 00-1.592 1.592l3.378 3.378a1.126 1.126 0 001.591 0l3.378-3.378a1.125 1.125 0 00-1.592-1.591l-1.456 1.455V9.748z" fill="#F58220"/></svg>