<svg width="28" height="28" viewBox="0 0 28 28" fill="none" xmlns="http://www.w3.org/2000/svg"><g clip-path="url(#clip0_37_282)"><path d="M19.477 15.066c-.517 0-.905 0-1.423.13-.647-3.493-4.01-5.82-7.501-5.174-2.717.517-4.786 2.587-5.174 5.173-3.492.647-5.82 4.01-5.173 7.502C.723 25.801 3.439 28 6.543 28h12.934c3.621 0 6.467-2.846 6.467-6.467 0-3.622-2.846-6.467-6.467-6.467z" fill="#D1D1D1"/><path d="M20.77 25.413H7.836c-3.104 0-5.82-2.199-6.338-5.303-.129-.905-.129-1.81.13-2.716C.464 18.817-.054 20.757.205 22.697.722 25.8 3.438 28 6.542 28h12.934c3.104 0 5.562-2.07 6.338-5.044-1.294 1.552-2.975 2.457-5.044 2.457z" fill="#B8B8B8"/><path d="M23.15 3.864c-.388 0-.68 0-1.067.097-.485-2.619-3.007-4.365-5.627-3.88-2.037.388-3.589 1.94-3.88 3.88-2.619.485-4.365 3.007-3.88 5.626.388 2.328 2.425 3.977 4.753 3.977h9.7c2.717 0 4.85-2.134 4.85-4.85 0-2.716-2.133-4.85-4.85-4.85z" fill="#D1D1D1"/><path d="M24.119 11.624h-9.7c-2.328 0-4.366-1.649-4.754-3.977-.096-.68-.096-1.358.097-2.037-.873 1.067-1.26 2.522-1.067 3.977.388 2.328 2.425 3.977 4.754 3.977h9.7c2.328 0 4.171-1.552 4.753-3.783-.97 1.164-2.231 1.843-3.783 1.843z" fill="#B8B8B8"/></g><defs><clipPath id="clip0_37_282"><path fill="#fff" d="M0 0h28v28H0z"/></clipPath></defs></svg>