<svg width="28" height="28" viewBox="0 0 28 28" fill="none" xmlns="http://www.w3.org/2000/svg"><g clip-path="url(#clip0_6189_6681)"><path d="M27.927 9.28l-1.054-1.864V5.228a.851.851 0 00-.405-.73l-1.864-1.053-1.135-1.864a.851.851 0 00-.73-.406h-2.188L18.687.122a.736.736 0 00-.81 0l-1.865 1.053h-2.188a.851.851 0 00-.73.406l-1.053 1.864-1.865 1.054a.851.851 0 00-.405.729v2.188L8.717 9.281a.736.736 0 000 .81l1.054 1.865v2.188c0 .324.162.567.405.73l1.864 1.053 1.054 1.864a.851.851 0 00.73.406h2.188l1.864 1.053a.736.736 0 00.81 0l1.865-1.053h2.189a.851.851 0 00.73-.406l1.053-1.864 1.864-1.054a.851.851 0 00.405-.73v-2.188l1.054-1.864c.162-.243.162-.567.081-.81z" fill="#FFA927"/><path d="M18.281 16.17a6.484 6.484 0 100-12.968 6.484 6.484 0 000 12.968z" fill="#FFE928"/><path d="M19.477 15.066c-.517 0-.905 0-1.423.13-.647-3.493-4.01-5.82-7.501-5.174-2.717.517-4.786 2.587-5.174 5.173-3.492.647-5.82 4.01-5.173 7.502C.723 25.801 3.439 28 6.543 28h12.934c3.621 0 6.467-2.846 6.467-6.467 0-3.622-2.846-6.467-6.467-6.467z" fill="#D1D1D1"/><path d="M20.77 25.413H7.838c-3.104 0-5.82-2.199-6.338-5.303-.129-.905-.129-1.81.13-2.716C.465 18.817-.053 20.757.206 22.697.723 25.8 3.439 28 6.543 28h12.934c3.104 0 5.562-2.07 6.338-5.044-1.294 1.552-2.975 2.457-5.044 2.457z" fill="#B8B8B8"/></g><defs><clipPath id="clip0_6189_6681"><path fill="#fff" d="M0 0h28v28H0z"/></clipPath></defs></svg>