<svg width="28" height="28" viewBox="0 0 28 28" fill="none" xmlns="http://www.w3.org/2000/svg"><path d="M19.877 4.647c-.466 0-.816 0-1.283.117-.584-3.15-3.617-5.25-6.767-4.667C9.377.564 7.51 2.431 7.16 4.764c-3.15.583-5.25 3.617-4.666 6.767.466 2.8 2.916 4.783 5.716 4.783h11.667c3.267 0 5.834-2.567 5.834-5.833 0-3.267-2.567-5.834-5.834-5.834z" fill="#D1D1D1"/><path d="M21.044 13.98H9.377c-2.8 0-5.25-1.983-5.717-4.783-.116-.817-.116-1.633 0-2.333C2.61 8.147 2.144 9.78 2.494 11.53c.466 2.8 2.916 4.784 5.716 4.784h11.667c2.8 0 5.017-1.867 5.717-4.55-1.167 1.4-2.684 2.216-4.55 2.216z" fill="#B8B8B8"/><path d="M19.877 25.648c0-1.284 2.333-3.5 2.333-3.5s2.334 2.216 2.334 3.5a2.34 2.34 0 01-2.334 2.333 2.34 2.34 0 01-2.333-2.334zm-8.167-3.5c0-1.284 2.334-3.5 2.334-3.5s2.334 2.216 2.334 3.5a2.34 2.34 0 01-2.334 2.333 2.34 2.34 0 01-2.333-2.334zm-8.165 3.5c0-1.284 2.333-3.5 2.333-3.5s2.334 2.216 2.334 3.5a2.34 2.34 0 01-2.334 2.333 2.34 2.34 0 01-2.333-2.334z" fill="#34CDFA"/></svg>