<svg width="28" height="28" viewBox="0 0 28 28" fill="none" xmlns="http://www.w3.org/2000/svg"><g clip-path="url(#clip0_6189_10109)"><path d="M27.844 13.417l-1.564-2.708V7.583c0-.416-.222-.802-.583-1.01L22.99 5.011l-1.563-2.708a1.167 1.167 0 00-1.01-.583H17.29L14.583.156a1.166 1.166 0 00-1.166 0L10.71 1.72H7.583c-.416 0-.802.222-1.01.583L5.01 5.01 2.303 6.573c-.36.208-.583.594-.583 1.01v3.126L.156 13.417a1.166 1.166 0 000 1.166l1.564 2.708v3.126c0 .416.222.802.583 1.01L5.01 22.99l1.563 2.708c.208.361.594.583 1.01.583h3.127l2.707 1.564c.36.208.805.208 1.166 0l2.707-1.564h3.127c.416 0 .802-.222 1.01-.583l1.563-2.708 2.707-1.562c.36-.208.583-.593.583-1.01V17.29l1.564-2.708c.208-.36.208-.805 0-1.166z" fill="#FFA927"/><path d="M14 23.334a9.333 9.333 0 100-18.667 9.333 9.333 0 000 18.667z" fill="#FFE928"/></g><defs><clipPath id="clip0_6189_10109"><path fill="#fff" d="M0 0h28v28H0z"/></clipPath></defs></svg>