<svg width="62" height="50" viewBox="0 0 62 50" fill="none" xmlns="http://www.w3.org/2000/svg"><g id="Layer_1" clip-path="url(#clip0_6329_15155)"><path id="Vector" d="M3.725 50A3.724 3.724 0 010 46.28V26.008a3.724 3.724 0 013.725-3.72h1.008l2.678-9.962a3.688 3.688 0 014.539-2.597h.155l3.725-7.636C16.722.272 18.934-.503 20.796.388l39.07 18.915c1.824.891 2.6 3.1 1.707 4.961l-8.846 18.217c-.155.349-.388.659-.62.93l-.583.465-.349 1.318s-.116.35-.194.543l-.116.271v.31a3.724 3.724 0 01-3.725 3.721H3.725v-.038zm43.415-1.782c1.048 0 1.94-.853 1.94-1.939V26.01a1.945 1.945 0 00-1.94-1.939H3.725c-1.048 0-1.94.853-1.94 1.938V46.28c0 1.047.853 1.938 1.94 1.938H47.14zM6.557 46.782c-.737 0-1.164-.852-.737-1.473.388-.503.233-.852-.039-1.085-.388-.31-.97-.349-1.242-.155-.582.388-1.396 0-1.396-.736V28.605c0-.736.853-1.163 1.435-.698.427.31.854.233 1.203-.077.31-.271.427-.736.078-1.202-.427-.581 0-1.434.737-1.434h37.712c.853 0 1.203 1.047.582 1.59-.466.387-.388.813-.078 1.162.35.349.893.465 1.397 0 .582-.542 1.513-.116 1.513.66v14.728c0 .736-.853 1.163-1.435.736-.815-.581-1.203-.31-1.397 0-.31.427-.233.97 0 1.163.66.543.271 1.59-.582 1.59H6.596l-.04-.04zm36.315-1.821v-.194c0-.659.194-1.318.544-1.822.504-.697 1.319-1.124 2.211-1.046h.272V30.04h-.078c-.892.116-1.746-.233-2.328-.815a3.675 3.675 0 01-.66-1.046l-.077-1.163H7.876a2.594 2.594 0 01-.815 2.132 2.777 2.777 0 01-.97.62l-1.125.155V42.17l1.048.155c.349.116.698.31.97.543.62.504 1.008 1.24.93 2.054V45h34.997l-.039-.04zM25.374 43.76a.877.877 0 01-.892-.891V41.86l-.582-.078c-1.242-.31-2.406-1.046-2.988-2.286a.894.894 0 01.427-1.202.896.896 0 011.203.426c.465.97 1.785 1.512 3.143 1.396 1.164-.116 2.172-.737 2.172-1.977 0-.543-.232-.775-.582-.969-.426-.233-1.047-.388-1.9-.543-.738-.155-1.708-.31-2.484-.736-.853-.465-1.513-1.24-1.668-2.442-.155-2.132 1.319-3.488 3.026-3.837h.272v-.814c0-.504.388-.892.892-.892s.892.427.892.892v.891l.544.117c.892.31 1.707.891 2.366 1.744.31.387.233.969-.155 1.279a.92.92 0 01-1.28-.155c-.893-1.124-2.212-1.473-3.22-1.28a2.354 2.354 0 00-1.087.505l-.155.194-.272.542-.077.233v.542l.077.155.466.582.155.116c.466.271 1.125.388 1.979.543.737.155 1.707.31 2.444.736.854.465 1.436 1.28 1.474 2.48 0 1.163-.465 2.094-1.202 2.753-.35.31-.776.542-1.242.736l-.931.233v1.046a.878.878 0 01-.892.892l.077.077zm-8.341-.542a.879.879 0 01-.738-.427c-3.181-5.077-3.53-8.992 0-14.147.272-.388.854-.504 1.242-.233.427.272.504.853.233 1.24-3.104 4.497-2.833 7.598 0 12.171a.885.885 0 01-.272 1.24.619.619 0 01-.504.117l.038.038zm16.1 0s-.348 0-.504-.117a.885.885 0 01-.271-1.24c2.832-4.535 3.143-7.674 0-12.17-.272-.427-.194-.97.233-1.24.426-.272.97-.195 1.241.232 3.57 5.155 3.182 9.07 0 14.147a.832.832 0 01-.737.426l.039-.038zm17.732-3.566l3.957-14.535c.272-1.047-.349-2.132-1.397-2.403l-41.902-11.28c-1.047-.27-2.134.35-2.405 1.396l-2.561 9.496h.892l1.979-7.325a.884.884 0 011.552-.31c.31.426.815.464 1.203.232.388-.194.62-.62.388-1.202-.272-.659.349-1.356 1.047-1.162l37.48 10.116c.776.194.892 1.279.155 1.628l-.466.504v.232l.039.194v.116l.039.117.543.465c.233.077.504.077.854-.117.66-.348 1.435.272 1.241 1.008l-2.6 9.613v3.255l-.038-.038zm2.444-2.404l6.712-13.837c.466-.969.078-2.132-.892-2.597L20.059 1.938c-.97-.465-2.134-.077-2.6.892l-3.608 7.403.854.233L17.343 5a.856.856 0 011.552 0c.233.466.698.62 1.125.466.388-.117.737-.504.62-1.086a.87.87 0 011.242-.93L56.84 20.388c.737.349.62 1.434-.155 1.628a.902.902 0 00-.505.271l-.116.388.077.116c.117.233.233.427.31.66v.115l.117.078h.854c.737-.155 1.358.581 1.047 1.279l-3.88 7.984-1.202 4.419-.078-.078zm-2.444-7.519l.543-2.054h-.116l-.427-.116v2.17zm-31.466-7.48l.505-.853c.698-1.047 1.63-2.055 2.754-3.024.388-.31.931-.27 1.242.117.31.387.272.93-.116 1.24l-1.397 1.357-.893 1.163h7.14l.504-.078h.66l.31.078.194-.776c.116-.465.62-.736 1.086-.62.466.116.737.582.62 1.085l-.077.35H42.95l-28.633-7.714c-.155.853-.66 1.512-1.32 1.86-.66.35-1.474.466-2.211.194l-1.552 5.698h10.204l-.039-.078zm35.268-.892l.078-.116L22.27 5.543a2.638 2.638 0 01-1.63 1.59 2.637 2.637 0 01-2.21-.233l-1.98 4.03 9.855 2.675h.04c.93-1.046 2.094-1.9 3.452-2.674A.89.89 0 0131 11.28a.888.888 0 01-.35 1.201l-1.629 1.085-.698.62 6.324 1.706h.194c.427-.078.854 0 1.28.077l.272.117.35-.737a.849.849 0 011.163-.387c.427.232.62.736.427 1.163l-.31.658 5.897 1.59v-.155l.078-.04c.116-.193.349-.31.582-.348a.875.875 0 011.008.736v.272l8.42 2.287c.232.077.465.154.698.27l.077.078-.116-.116z" fill="#fff"/></g><defs><clipPath id="clip0_6329_15155"><path fill="#fff" d="M0 0h62v50H0z"/></clipPath></defs></svg>