<svg width="60" height="62" viewBox="0 0 60 62" fill="none" xmlns="http://www.w3.org/2000/svg"><g id="Layer_1" clip-path="url(#clip0_6329_15119)"><path id="Vector" d="M7.021 61.063c-.468 0-.936-.298-1.106-.808L.085 44.85a1.197 1.197 0 01.724-1.574l6.51-2.468a1.197 1.197 0 011.575.723l.213.639c4.34-4.128 9.404-5.49 15.83-3.022 2.042.809 4.17 1.192 6.425 1.234 2.936 0 5.744.086 7.744.681 1.022.298 1.958.809 2.596 1.66.681.893.851 1.957.724 3.191a2.13 2.13 0 01-.383 1.022H42l7.617-2.554c1.617-.553 3.532-1.191 5.234-1.234 1.83 0 3.575.639 4.681 2.681.638 1.277.553 2.639-.425 3.787-.766.852-1.958 1.532-3.447 2.043l-.596.17-14.553 6.043h-.085c-.851.298-1.788.425-2.851.425A10.87 10.87 0 0135.064 58l-.809-.212-12.638-1.405c-1.191-.127-3.787-.212-6.213.086l-.893.127.128.298a1.197 1.197 0 01-.724 1.575l-6.51 2.468s-.341.085-.469.085l.085.042zm.766-2.808L12 56.638l-.085-.256-.17-.34v-.17L7.49 44.638v-.128h-.043l-.383-.979-4.213 1.617 4.936 13.107zm29.575-2.426c.723 0 1.362-.042 1.915-.17l.425-.128 14.553-6.042s.086 0 .128-.043c1.702-.51 2.553-1.021 2.936-1.49.256-.297.298-.595.085-1.02-.553-1.064-1.361-1.362-2.425-1.362-1.234 0-2.724.51-4.51 1.106l-8.682 2.936-.34.17c-1.106.511-2.383.724-3.958.213l-5.063-1.66-1.192-.212a24.436 24.436 0 00-6.766-.128c-.68.085-1.319-.383-1.404-1.02-.085-.682.383-1.32 1.021-1.405 1.575-.213 4.383-.383 7.532.128l1.277.255 1.361.127c1.362.086 2.639.128 3.66 0 .68-.085 1.234-.17 1.617-.297.298-.128.426-.213.468-.256v-.255c.043-.596-.085-.936-.255-1.149-.213-.298-.639-.553-1.362-.809-1.532-.468-3.83-.553-7.021-.595-2.553 0-4.979-.468-7.277-1.404-5.83-2.213-10.127-.852-14 3.234l3.66 9.66h.085c3.021-.597 6.638-.511 8.128-.341l12.68 1.404h.17c.937.255 1.788.383 2.511.425l.043.128zm-6.128-19.745c-5.404-.127-10.723-2.68-14.17-7.404-5.872-8.042-4.128-19.319 3.915-25.191C29.02-2.384 40.298-.64 46.17 7.404c5.873 8.042 4.128 19.319-3.915 25.191-3.02 2.213-6.468 3.32-9.957 3.447h-1.106l.042.042zM31.277 34h.936a15.98 15.98 0 008.808-3.063c7.064-5.192 8.639-15.15 3.447-22.256C39.277 1.574 29.32 0 22.255 5.19c-7.106 5.192-8.638 15.15-3.446 22.256 3.02 4.17 7.702 6.426 12.51 6.51l-.042.043zm.638-5.574a1.036 1.036 0 01-1.021-1.021v-.766l-1.958-.468c-.68-.256-1.361-.554-1.957-.98-.51-.34-.681-1.02-.34-1.531.34-.51 1.02-.68 1.531-.34.426.297.894.51 1.405.723l1.276.34v-5.446l-1.191-.511c-.426-.213-.809-.468-1.192-.724-1.064-.808-1.787-2-1.787-3.66 0-2.254 1.702-3.744 3.66-4.212l.468-.085V8.723c0-.553.468-1.021 1.02-1.021.554 0 1.022.468 1.022.978v1.022l1.873.51c.68.298 1.319.681 1.915 1.192.467.383.51 1.106.127 1.574a1.136 1.136 0 01-1.574.128 4.235 4.235 0 00-1.234-.766L32.85 12v5.319h.043c.936.34 2 .723 2.808 1.276 1.022.681 1.873 1.702 1.873 3.277 0 2.723-1.788 4.255-4 4.723l-.724.128v.723c0 .553-.468 1.021-1.021 1.021l.085-.042zm1.021-3.957h.256c1.361-.341 2.212-1.15 2.212-2.596 0-.596-.255-1.022-.85-1.404a7.649 7.649 0 00-.852-.469l-.766-.297v4.765zm-2-7.958V12l-.808.297c-.724.383-1.107 1.021-1.107 1.745 0 .894.34 1.447.937 1.872l.978.554v.042zm-10.68-1.106c-.596 0-1.064-.468-1.022-1.064.043-4.681 4.894-9.404 9.362-9.107.596.043 1.021.554.979 1.15a1.057 1.057 0 01-1.15.978c-3.106-.255-7.063 3.447-7.106 6.979 0 .596-.468 1.064-1.063 1.021v.043z" fill="#fff"/></g><defs><clipPath id="clip0_6329_15119"><path fill="#fff" d="M0 0h60v61.064H0z"/></clipPath></defs></svg>