<svg width="60" height="65" viewBox="0 0 60 65" fill="none" xmlns="http://www.w3.org/2000/svg"><g id="Layer_1"><path id="Vector" d="M35.507 62.605c-.643 0-1.115-.52-1.115-1.125 0-3.115-2.442-4.716-5.185-4.716-2.743 0-5.186 1.644-5.186 4.63 0 .648-.514 1.124-1.114 1.124h-7.672c-.728 0-1.285-.692-1.114-1.384.514-2.12.9-3.764-.3-5.409l-.557-.649-1.2-.865c-2.143-1.644-3.686-3.461-4.972-5.495L6.021 46.77H3.192c-.6 0-1.114-.519-1.114-1.124V34.223c0-.606.472-1.125 1.072-1.125l2.442-.13 1.672-2.337a27.215 27.215 0 013.3-3.374l.171-.13-.643-.952c-1.028-1.73-1.757-3.461-2.314-5.192a1.153 1.153 0 01.6-1.384c1.672-.779 3.686-.822 5.572-.39l.428.087-.471-2.033c-.129-.606.3-1.255.9-1.342 3.343-.605 7.243 1.385 9.385 4.587l.129.302 1.029-.173c8.614-1.298 17.314 1.039 22.071 6.23.6.65 1.114 1.342 1.629 2.12l.428.736h.386c.514 0 .943 0 1.286-.173l.257-.13-.215-.216s-.257-.26-.342-.39c-.429-.562-.858-1.298-.943-2.076-.086-.909.257-1.774 1.114-2.337a2.97 2.97 0 011.457-.519c.6 0 1.114.216 1.543.563.857.822 1.029 2.206.814 3.46l-.086.433.343-.432c.6-.909.6-1.86.386-2.77a4.784 4.784 0 00-.729-1.643 6.542 6.542 0 00-.642-.779l-.172-.13c-.428-.303-.557-.908-.343-1.384a1.142 1.142 0 011.5-.563c.043 0 .086.043.129.087.514.303 1.029.865 1.414 1.47a7.516 7.516 0 011.029 2.38c.471 1.86.214 4.154-1.929 5.928-.385.303-.771.432-1.157.432-.343 0-.686-.043-1.028-.173h-.215c-.6.52-1.328.952-2.228 1.082h-.472l.129.346c2.914 7.269 1.971 16.96-4.5 22.628l-1.457 1.125-.343.952c-.3 1.211-.257 2.509.3 4.283.214.735-.3 1.47-1.072 1.47h-8.228l.043-.042zm6.814-2.25l-.129-.52c-.3-1.903 0-3.504.729-5.105a1.35 1.35 0 01.386-.476c8.785-5.754 8.528-19.383 2.571-25.915-7.971-8.74-29.357-8.567-38.743 6.273-.214.303-.514.52-.9.52l-1.928.086v9.172H6.62c.429 0 .814.26 1.029.649 1.585 3.288 3.557 5.927 6.942 8.134.043.043.129.086.172.13 2.186 2.163 2.271 4.413 1.971 6.403l-.128.476h5.271v-.476c.857-3.548 4.2-5.235 7.286-5.235 3.086 0 6.471 1.687 7.243 5.321v.52h5.871l.043.043zM11.464 35.52s-.214 0-.343-.044c-.6-.173-.9-.822-.729-1.427.172-.563.472-1.212 1.029-1.688.3-.26.6-.476.986-.606.385-.13.814-.173 1.243-.173.642 0 1.114.52 1.114 1.125 0 .606-.514 1.125-1.114 1.125-.258 0-.386 0-.515.087-.085 0-.171.086-.214.13-.129.13-.257.302-.386.692-.128.476-.6.779-1.071.779zm13.543-8.178a1.14 1.14 0 01-1.115-.908 1.134 1.134 0 01.858-1.341c4.071-.909 7.628-.606 11.014 0 .6.086 1.028.692.9 1.297-.086.606-.686 1.039-1.286.91-3.214-.563-6.471-.823-10.157 0h-.214v.042zm27.771-.043v-.26s.043-.216 0-.346c0-.216-.043-.389-.086-.519v-.13s-.214.044-.3.13c-.128.087-.128.087-.085.173 0 .173.128.52.471.952zm-40.157-1.6l.471-.347a32.072 32.072 0 012.615-1.557l1.243-.606-.643-.606c-.557-.433-1.286-.779-2.1-1.038-1.243-.39-2.529-.52-3.686-.26h-.086l.215.563c.3.779.685 1.557 1.114 2.336l.943 1.514h-.086zm6.471-3.462l.686-.26c.472-.173.943-.302 1.414-.475l.9-.26-.857-.995c-1.371-1.298-3.043-2.077-4.585-2.25h-.172l.514 2.293h.043c.815.563 1.543 1.168 2.015 1.86l.042.087zm11.229-5.754c-4.5 0-8.143-3.678-8.143-8.22 0-4.543 3.643-8.221 8.143-8.221 4.5 0 8.143 3.678 8.143 8.22 0 4.543-3.643 8.22-8.143 8.22zm0-2.553c3.129 0 5.657-2.552 5.657-5.71 0-3.16-2.528-5.712-5.657-5.712s-5.657 2.553-5.657 5.711c0 3.159 2.528 5.711 5.657 5.711z" fill="#fff"/></g></svg>