<svg width="50" height="56" viewBox="0 0 50 56" fill="none" xmlns="http://www.w3.org/2000/svg"><g id="Layer_1" clip-path="url(#clip0_6329_15137)"><path id="Vector" d="M1.896 55c-.69 0-1.25-.552-1.25-1.232 0-.68.56-1.232 1.25-1.232h46.81c.69 0 1.25.552 1.25 1.232 0 .68-.56 1.232-1.25 1.232H1.896zm.302-6.543c-.69 0-1.25-.553-1.25-1.232v-8.71c0-.68.56-1.233 1.25-1.233h11.638c.69 0 1.25.553 1.25 1.233v8.71c0 .68-.56 1.232-1.25 1.232H2.198zm17.069 0c-.69 0-1.25-.553-1.25-1.232V26.023c0-.68.56-1.232 1.25-1.232h11.638c.69 0 1.25.552 1.25 1.232v21.202c0 .68-.56 1.232-1.25 1.232H19.267zm17.198 0c-.69 0-1.25-.553-1.25-1.232V14.763c0-.68.56-1.232 1.25-1.232h11.638c.69 0 1.25.553 1.25 1.232v32.42c0 .679-.56 1.231-1.25 1.231H36.465v.043zM12.543 45.95v-6.246H3.448v6.246h9.095zm17.069 0V27.255h-9.095V45.95h9.095zm17.198 0V15.995h-9.095V45.95h9.095zM6.207 32.056h-.173a.84.84 0 01-.43-.127L.688 29.294c-.603-.34-.862-1.104-.517-1.7.345-.594 1.12-.806 1.724-.509l3.923 2.082 11.25-15.806a1.25 1.25 0 011.68-.34l7.673 4.547L39.094 2.059l-4.18.765a1.27 1.27 0 01-1.466-.977c-.13-.68.302-1.317.991-1.445L41.896-1c.733-.127 1.423.382 1.466 1.105l.776 7.095c.086.68-.431 1.275-1.121 1.36h-.259a1.197 1.197 0 01-1.12-1.105l-.431-4.036-13.535 16.528c-.388.467-1.078.595-1.638.297l-7.586-4.503L7.24 31.504c-.259.34-.603.552-1.034.552z" fill="#fff"/></g><defs><clipPath id="clip0_6329_15137"><path fill="#fff" d="M0 0h50v56H0z"/></clipPath></defs></svg>