<svg width="24" height="24" viewBox="0 0 32 32" fill="none" xmlns="http://www.w3.org/2000/svg"><path d="M22.01 3.568H9.99A6.999 6.999 0 003 10.558v6.136c0 1.426.427 2.799 1.235 3.968a6.984 6.984 0 002.69 2.316v4.053a.762.762 0 001.245.588l4.787-3.934h9.052A6.998 6.998 0 0029 16.694v-6.135a6.998 6.998 0 00-6.99-6.99zM7.62 14.308a.762.762 0 11-1.523 0v-.964a.762.762 0 011.523 0v.964zm3.047 1.778a.762.762 0 01-1.523 0v-4.52a.762.762 0 011.523 0v4.52zm3.047-1.27a.762.762 0 01-1.524 0v-1.98a.762.762 0 011.524 0v1.98zm3.047 2.54a.762.762 0 11-1.524 0v-7.059a.762.762 0 011.524 0v7.058zm3.047-3.048a.762.762 0 11-1.524 0v-.964a.762.762 0 011.524 0v.964zm3.046 1.016a.762.762 0 11-1.523 0v-2.996a.762.762 0 111.523 0v2.996zm3.047-.508a.762.762 0 01-1.523 0v-1.98a.762.762 0 011.523 0v1.98z" fill="#222"/></svg>