<svg width="24" height="24" viewBox="0 0 24 24" fill="none" xmlns="http://www.w3.org/2000/svg"><path d="M11.998 6.635c-3.439 0-6.558 1.882-8.86 4.938a.712.712 0 000 .85c2.302 3.06 5.421 4.942 8.86 4.942 3.44 0 6.558-1.882 8.86-4.938a.713.713 0 000-.85c-2.302-3.06-5.42-4.942-8.86-4.942zm.247 9.143a3.788 3.788 0 01-4.025-4.025 3.794 3.794 0 013.531-3.53 3.788 3.788 0 014.025 4.024 3.806 3.806 0 01-3.531 3.53zm-.114-1.745a2.035 2.035 0 01-2.165-2.166 2.047 2.047 0 011.903-1.903 2.035 2.035 0 012.165 2.165 2.047 2.047 0 01-1.903 1.904z" fill="#222"/></svg>