<svg width="24" height="24" viewBox="0 0 16 16" fill="none" xmlns="http://www.w3.org/2000/svg"><path fill-rule="evenodd" clip-rule="evenodd" d="M8 16A8 8 0 108 0a8 8 0 000 16zm1.86-3.688l.134-.548c-.07.033-.182.07-.335.112a1.578 1.578 0 01-.415.064c-.259 0-.441-.042-.547-.128-.106-.085-.158-.246-.158-.481a4.676 4.676 0 01.159-.903l.5-1.773a2.64 2.64 0 00.101-.537c.019-.194.027-.33.027-.408 0-.374-.13-.677-.393-.911-.262-.234-.635-.351-1.119-.351-.27 0-.554.048-.855.143-.301.096-.616.21-.946.345l-.134.549c.098-.037.215-.076.352-.116.136-.04.27-.061.4-.061.265 0 .444.045.538.134.093.09.14.248.14.476 0 .125-.015.265-.045.417-.03.153-.069.314-.114.485l-.503 1.78a5.323 5.323 0 00-.098.502c-.02.149-.03.295-.03.436 0 .366.135.668.406.906.27.237.649.356 1.136.356.317 0 .596-.042.835-.125.24-.083.561-.204.963-.363zm-.09-7.201c.234-.217.35-.481.35-.79 0-.308-.116-.572-.35-.792a1.189 1.189 0 00-.843-.33 1.2 1.2 0 00-.848.33c-.236.22-.354.484-.354.792 0 .309.118.573.354.79.236.217.518.326.848.326.329 0 .61-.109.843-.326z" fill="#222"/></svg>