<svg width="24" height="24" viewBox="0 0 20 20" fill="none" xmlns="http://www.w3.org/2000/svg"><path d="M14.94 5.665a.28.28 0 00.38.102l2.244-1.296a.28.28 0 00.103-.38.28.28 0 00-.38-.104l-2.244 1.297a.278.278 0 00-.103.38zm3.521 1.879l-2.588.114a.278.278 0 00.011.555h.011l2.588-.113a.279.279 0 00.267-.289.277.277 0 00-.289-.267zm-5.165-3.598a.274.274 0 00.383-.083l1.394-2.186a.276.276 0 10-.466-.297l-1.394 2.185a.275.275 0 00.083.38z" fill="#222" stroke="#222" stroke-width=".5"/><path fill-rule="evenodd" clip-rule="evenodd" d="M10.21 3.214a.824.824 0 00-1.516.224 7.778 7.778 0 01-3.685 4.967L2.621 9.784a2.901 2.901 0 00-1.062 3.96l.387.67a2.901 2.901 0 003.96 1.062l2.39-1.38a7.778 7.778 0 016.143-.707.825.825 0 00.953-1.201L10.21 3.214z" fill="#222"/><path fill-rule="evenodd" clip-rule="evenodd" d="M5.91 16.338l2.032 2.473c.42.512 1.149.645 1.722.314l1.569-.906a.965.965 0 00.049-1.643l-.849-.561a.197.197 0 01-.033-.027l-1.36-1.415c-.121.06-3 1.708-3.13 1.765z" fill="#222"/></svg>