<svg width="24" height="24" viewBox="0 0 88 88" fill="none" xmlns="http://www.w3.org/2000/svg"><g id="Icon/88/Failed"><circle id="Ellipse 322" cx="44" cy="44" r="36" fill="#fff"/><path id="Vector" d="M44 8C24.118 8 8 24.118 8 44s16.118 36 36 36 36-16.118 36-36S63.882 8 44 8zm16.372 52.369a4.05 4.05 0 01-5.724 0L44 49.728 33.355 60.372a4.048 4.048 0 01-5.724-5.724L38.277 44 27.63 33.355a4.044 4.044 0 010-5.724 4.044 4.044 0 015.724 0L44 38.277 54.645 27.63a4.047 4.047 0 115.724 5.724L49.726 44l10.646 10.645c1.628 1.534 1.785 4.011.251 5.64a.227.227 0 01-.251.084z" fill="#222"/></g></svg>