<svg width="224" height="128" viewBox="0 0 224 128" fill="none" xmlns="http://www.w3.org/2000/svg"><path d="M198.198 120.797c22.372-10.009 28.196-28.326 14.351-59.107-5.741-18.317-11.144-34.405-34.392-30.472-7.72 3.203-14.417 3.205-21.968 0-8.722-3.703-17.782-7.171-27.148-3.933-9.318 3.221-15.602 11.947-18.589 21.731-2.69 8.81-11.846 16.542-14.56 25.355-10.884 35.354 28.016 43.275 44.477 41.451 16.461-1.824 35.457 14.983 57.829 4.975z" fill="#E5F3BE"/><ellipse cx="22.186" cy="2.219" rx="22.186" ry="2.219" transform="matrix(-1 0 0 1 202.803 121.562)" fill="#E2E2E2"/><path d="M198.147 108.06s2.683-3.424 7.047-.898c1.403.813 1.68-.608 1.933-1.096.253-.488 2.725 3.62-1.34 6.041-4.068 2.421-8.146-2.268-7.64-4.047z" fill="#F2B34C"/><path d="M202.629 106.268c-2.825-.32-4.481 1.794-4.481 1.794-.334 1.172 1.322 3.605 3.653 4.439 0 0-2.178-2.084-.196-3.553 1.981-1.47 1.024-2.68 1.024-2.68z" fill="#F8E6C6"/><path d="M155.648 83.674s-10.23-3.358-14.437-7.357a8.256 8.256 0 01-.448-1.294 4.955 4.955 0 01-.181-1.094c-.015-.391.118-.81.024-1.198-.132-.54-.656-.572-1-.16a2.368 2.368 0 00-.511 1.078c-.028.163-.085 1.072.111 1.136 0 0-1.184-.298-1.452.849 0 0-.921.668-.021 1.536 0 0-.674.505.006 1.201 0 0-.454 1.051 2.06 1.693 0 0 .693 1.207 2.232 3.273 0 0 4.02 5.896 11.5 9.443l2.12-9.109-.003.003z" fill="#F8E5C3"/><path d="M159.168 81.063s-3.072 12.31 1.126 29.454c0 0 1.993 7.221 5.261 12.395 0 0 1.035 1.322 3.107.259 0 0 .849-.545-.716-1.639l3.189-8.362s3.746-3.105 17.137-.346c0 0 2.843 7.441 3.96 8.995 0 0-1.488.186-.771 1.177 0 0 1.593 1.078 3.002.129 0 0 3.241-6.248 4.252-13.548 0 0 1.328-4.541.904-27.126l-40.448-1.39-.003.002z" fill="#404040"/><mask id="mask0_7156_18940" style="mask-type:luminance" maskUnits="userSpaceOnUse" x="156" y="83" width="51" height="37"><path d="M206.097 119.5h-49.784V83.219h49.784V119.5z" fill="#fff"/></mask><g mask="url(#mask0_7156_18940)"><path d="M169.434 119.653l1.569-3.93s3.822-3.023 17.481-.337c0 0 2.9 7.248 4.038 8.76 0 0-1.517.181-.786 1.147 0 0 1.627 1.051 3.063.127 0 0 3.306-6.089 4.336-13.199 0 0 1.355-4.424.922-26.425l-41.259-1.355s-3.131 11.992 1.151 28.695c0 0 .843 2.921 2.336 6.348" fill="#2C3342"/></g><mask id="mask1_7156_18940" style="mask-type:luminance" maskUnits="userSpaceOnUse" x="135" y="20" width="89" height="89"><path d="M224 108.274h-88.274V20H224v88.274z" fill="#fff"/></mask><g mask="url(#mask1_7156_18940)"><path d="M158.64 82.7s-3.192 11.837 1.172 28.321c0 0 2.071 6.944 5.471 11.916 0 0 1.078 1.271 3.231.25 0 0 .886-.524-.746-1.575l3.315-8.041s3.897-2.984 17.821-.331c0 0 2.957 7.155 4.117 8.649 0 0-1.548.18-.801 1.132 0 0 1.656 1.036 3.122.124 0 0 3.37-6.011 4.421-13.028 0 0 1.382-4.366.94-26.08l-42.063-1.338z" fill="#F8E6C6"/><path d="M163.407 84.246s-8.101-2.084-18.068-5.787C142.06 81.234 140 82.623 140 82.623s5.14 12.585 18.905 14.617c1.831-4.923 4.502-12.99 4.502-12.99v-.004z" fill="#2C3342"/><path d="M205.205 86.449c10.166 8.492 7.236 19.161 7.236 19.161-.436 2.087-1.807 1.999-1.807 1.999-1.532 1.166-2.002-.46-2.002-.46-.626-.509-.265-1.858-.265-1.858-1.527-2.738-11.603-8.625-11.603-8.625" fill="#F8E6C6"/><path d="M190.549 92.606s11.521 6.577 15.942 10.985c4.077-.078 6.249-1.298 6.249-1.298s.557-14.951-13.919-20.362c-5.149 8.175-8.269 10.672-8.269 10.672l-.003.003z" fill="#2C3342"/><path d="M162.739 87.168l8.742.407 8.504 13.629v9.621h-21.486s-4.382-14.812-2.286-27.108c4.921 2.765 6.523 3.451 6.523 3.451h.003z" fill="#192030"/><path d="M195.25 87.158l-5.715-.289-9.844 14.789v9.169h20.853s2.912-15.39.877-27.108c-4.776 2.635-6.174 3.44-6.174 3.44h.003z" fill="#192030"/><path d="M186.106 110.611h-12.705V91.986h12.705v18.625z" fill="#fff"/><path d="M167.109 93.323l12.973 8.2 12.319-9.016-11.976-2.334-13.316 3.15z" fill="#FFFFFA"/><mask id="mask2_7156_18940" style="mask-type:luminance" maskUnits="userSpaceOnUse" x="171" y="91" width="19" height="22"><path d="M189.78 112.847h-18.216V91.219h18.216v21.628z" fill="#fff"/></mask><g mask="url(#mask2_7156_18940)"><path d="M181.844 96.933c-.081.157-.422.274-.768.274h-2.307c-.346 0-.689-.117-.767-.274l-1.319-2.566c-.256-.5.093-.966.822-.966h4.839c.729 0 1.078.467.822.967l-1.319 2.565h-.003z" fill="#43C567"/><path d="M183.602 121.121l-3.656 6.128-3.758-5.571.478-6.601 1.319-18.198h3.858l1.367 18.821.392 5.421z" fill="#13AB67"/></g><path d="M166.807 91.02l-.714 3.568 13.148-3.569h-12.434zm13.234-.002l12.546 2.644-.717-3.568-11.829.924z" fill="#D9DADA"/></g><path d="M177.205 108.274l2.65 4.514 2.734-4.514h-5.384z" fill="#13AB67"/><path d="M140.238 84.32a.71.71 0 01-.858-.519l-7.55-30.366a.71.71 0 011.377-.34l7.549 30.363a.71.71 0 01-.518.858v.003z" fill="#805751"/><path d="M137.956 80.085c-.886 0-1.605-1.352-1.605-3.02s.719-3.02 1.605-3.02 1.605 1.352 1.605 3.02-.719 3.02-1.605 3.02z" fill="#F7E5C5" stroke="#E2AD89" stroke-width=".25" stroke-linecap="round" stroke-linejoin="round"/><path d="M150.315 50.604c-.37.093-3.243-.49-3.517-.8 3.156-1.796 4.155-5.927 6.339-8.213 9.268-9.717 18.673-16.062 32.341-14.671 5.225.533 10.362 2.198 14.855 4.923 3.268 1.982 6.171 5.011 8.631 7.914 2.584 3.048 3.348 4.46 4.987 8.113 2.071 4.625 4.857 6.592 4.857 6.592s-4.008 1.036-5.472.156c.798.44 1.608 6.113 1.638 7.032.073 2.352-.09 4.703-.4 7.034-1.316 9.796-5.761 11.088-6.225 15.804-1.123.177-3.044-1.967-3.014-3.4-.066 3.069-2.544 5.824-4.213 7.191-6.122 5.023-20.227 6.405-23.982 6.688a4.042 4.042 0 01-1.81-.277c-4.041-1.61-20.793-8.832-24.018-18.93-.368-1.15-.81-2.712-.717-3.137-.31 1.38-1.126 3.12-1.765 3.08-.379-3.447-2.367-4.52-2.454-10.398-.075-5.02 1.68-9.494 3.939-14.7z" fill="#F2B34C"/><path d="M157.283 31.654a6.643 6.643 0 017.886-5.102c2.644.567 4.638 2.915 5.165 5.4l-7.953 7.588a6.643 6.643 0 01-5.101-7.886h.003zm5.739 4.676l4.261-4.249a3.587 3.587 0 00-7.013-.009 3.584 3.584 0 002.752 4.258zm39.671-7.684a6.66 6.66 0 017.342 5.896 6.66 6.66 0 01-5.897 7.342l-7.061-8.66a6.665 6.665 0 015.616-4.578zm1.078 10.007a3.85 3.85 0 10-4.083-5.008l4.083 5.008z" fill="#F2B34C"/><path d="M203.757 38.96a4.144 4.144 0 110-8.288 4.144 4.144 0 010 8.287zm-40.19-2.03a4.144 4.144 0 110-8.288 4.144 4.144 0 010 8.288zm36.538 13.869c-2.829-7.793-11.608-11.565-17.902-12.97 0 0-6.461-1.698-5.824 1.443 0 0 1.696 3.667-4.3 1.796-7.631-2.378-14.794 11.369-14.186 20.123.592 8.5 9.433 15.634 25.557 15.241 1.641-.04 8.045-.776 10.945-2.282 12.09-6.269 8.064-16.868 5.71-23.354v.003z" fill="#F8E6C6"/><path d="M174.733 59.577s-1.789 7.058 2.132 7.772c0 0 4.315 1.24 4.851-6.318l-3.725-2.388-3.258.934z" fill="#EB8080"/><path d="M190.334 56.5a.629.629 0 01.852.268l.841 1.611a.64.64 0 01-.265.858.609.609 0 01-.473.046.64.64 0 01-.38-.314l-.84-1.61a.64.64 0 01.265-.859zm2.826 2.476a.643.643 0 00.476-.045.636.636 0 00.265-.858l-.84-1.611a.63.63 0 00-.852-.269.635.635 0 00-.265.859l.84 1.61a.628.628 0 00.379.314h-.003zm-25.461-6.679a.627.627 0 01.853.268l.84 1.61a.64.64 0 01-.265.859.635.635 0 01-.855-.268l-.841-1.611a.64.64 0 01.265-.858h.003zm-1.87.304a.629.629 0 01.852.268l.84 1.611a.638.638 0 01-.265.859.607.607 0 01-.473.045.638.638 0 01-.379-.313l-.84-1.611a.638.638 0 01.265-.859zm7.722 15.71a.568.568 0 01.629.503c.045.386.952.813 1.539.958 1.195.262 2.183-.084 2.445-.244a.569.569 0 011.03.334c0 .139-.051.344-.277.527-.494.398-1.927.831-3.451.497-.036-.009-.115-.027-.223-.06-.59-.178-2.06-.729-2.192-1.88a.574.574 0 01.5-.635zm-3.584-12.127c.849-.777 2.066-1.033 3.168-1.054 1.831-.037 3.677.737 4.92 2.092.368.401.551.892.564 1.4.138-.243.316-.466.511-.668 1.494-1.548 3.894-1.993 5.942-1.668 1.551.244 3.342.75 4.457 1.94.012.014.027.026.039.041.921 1.015 1.216 2.693.238 3.777-.678.753-1.846 1.069-2.807 1.252-2.222.422-4.999.428-6.959-.852-.636-.415-1.172-1-1.476-1.698a2.72 2.72 0 01-.229-.952c-.349.6-.996.864-1.68 1.003-1.59.325-3.367.32-4.908-.232-1.69-.602-3.557-2.752-1.777-4.381h-.003z" fill="#F0C9AE"/><path d="M176.992 59.392c-.768-.338-1.825-1.139-1.665-2.394.262-2.036 3.107-2.262 4.52-1.943 1.629.368 2.878 2.138 2.421 3.65-.389 1.289-2.195 1.295-3.514 1.175 0 0-.997-.151-1.765-.488h.003z" fill="#4B1E0E"/><path d="M174.588 46.748c-.748-.176-1.26-.717-1.144-1.208.116-.49.816-.745 1.564-.568.747.177 1.26.718 1.144 1.208-.116.49-.816.745-1.564.568zm11.71 1.715c-.768-.022-1.379-.448-1.365-.951.015-.504.649-.895 1.417-.873.768.022 1.379.448 1.365.952-.015.503-.649.894-1.417.872zm-12.809 5.58a2.138 2.138 0 110-4.276 2.138 2.138 0 010 4.276zm12.041 1.753a2.138 2.138 0 110-4.276 2.138 2.138 0 010 4.276z" fill="#4A1D0E"/><path d="M185.368 59.532a4.822 4.822 0 110-9.643 4.822 4.822 0 010 9.643zm-11.248-2.029a4.822 4.822 0 110-9.644 4.822 4.822 0 010 9.644zm6.445-3.233l-1.735-.156" stroke="#2C3342" stroke-width=".825" stroke-miterlimit="10"/><g filter="url(#filter0_d_7156_18940)"><path fill-rule="evenodd" clip-rule="evenodd" d="M16 8C9.373 8 4 13.373 4 20v13c0 6.627 5.373 12 12 12h90c0 11 11.5 16 20 14-10.17-3.236-10.083-8.61-10.011-12.958.005-.355.011-.703.011-1.042h16c6.627 0 12-5.373 12-12V20c0-6.627-5.373-12-12-12H16z" fill="#A4844E"/></g><path d="M42.78 20.498h-5.557v1.543h4.736v4.795H26.178V22.04h4.638v-1.543h-5.498v-1.582H42.78v1.582zm-7.276 1.543v-1.543h-2.94v1.543h2.94zm4.697 3.3v-1.825h-2.978v1.826H40.2zm-4.697 0v-1.825h-2.94v1.826h2.94zm-4.688 0v-1.825h-2.92v1.826h2.92zM42.8 30.245h-4.62a13.801 13.801 0 01-1.962 2.432c1.725.436 3.786 1.09 6.181 1.963l-.761 1.523c-1.778-.71-4.108-1.478-6.992-2.305-1.902 1.218-4.782 1.96-8.643 2.227l-.586-1.66c2.858-.065 5.14-.446 6.846-1.143a67.051 67.051 0 00-3.985-.86 17.412 17.412 0 001.826-2.177h-4.765v-1.543h5.84c.384-.586.706-1.126.966-1.62l1.739.4c-.117.247-.358.654-.723 1.22h3.985c.24-.41.413-.752.517-1.025l1.738.303a5.798 5.798 0 01-.341.722h3.74v1.543zm-6.719 0h-3.935c-.267.378-.583.798-.948 1.26.95.163 1.944.374 2.979.635.638-.476 1.273-1.107 1.904-1.895zm18.184-8.906a200.17 200.17 0 01-.215 8.496c-.13 2.76-.27 4.356-.42 4.785a1.94 1.94 0 01-.8 1.016c-.385.247-.997.37-1.837.37-.416 0-.833-.015-1.25-.048l-.498-1.758c.54.04.983.059 1.328.059.84 0 1.325-.25 1.455-.752.137-.501.28-3.985.43-10.45h-2.334c-.189 5.639-1.344 9.988-3.467 13.047l-1.513-1.064c2.109-3.112 3.173-7.106 3.193-11.982H45.62v-1.72h2.764l.078-2.86h1.777l-.078 2.86h4.102zm8.076 14.678h-1.758V34.62H57.32v1.377h-1.738V20.06h6.758v15.957zm-1.758-3.174V21.816H57.32v11.026h3.262zm9.502-11.68l-1.162 1.436a15.108 15.108 0 00-3.399-2.696l1.26-1.338c1.472.905 2.572 1.771 3.301 2.598zM82.32 35.996h-1.777v-1.035h-7.92v1.035h-1.767V21.758h4.863v-3.174h1.797v3.174h4.804v14.238zm-1.777-8.652v-3.926h-3.027v3.926h3.027zm-4.824 0v-3.926h-3.096v3.926h3.096zm4.824 5.976v-4.355h-3.027v4.355h3.027zm-4.824 0v-4.355h-3.096v4.355h3.096zm-5.801-7.5l-1.035 1.543c-.807-.826-2.009-1.69-3.604-2.588l1.065-1.533c1.53.86 2.721 1.719 3.574 2.578zm-.098 3.76c-.898 2.65-1.93 4.824-3.095 6.523l-1.543-1.084c1.263-1.887 2.288-4 3.076-6.337l1.562.898zm33.145-.176l-1.465.772a4.66 4.66 0 00-.498-.88c-.742.131-1.43.232-2.06.304v1.435h3.173v1.504h-3.174v1.582h3.819v1.523h-9.356v-1.523h3.819V32.54h-3.145v-1.504h3.145v-1.299c-.795.072-1.761.108-2.9.108l-.362-1.367c.775-.41 1.488-1.189 2.139-2.334h-2.442v2.353c0 3.379-.758 5.908-2.275 7.588l-1.299-1.309c1.237-1.438 1.855-3.398 1.855-5.878v-10h10.176V23.3h-8.457v1.377h9.082v1.465h-4.677a12.629 12.629 0 01-1.68 2.177 24.776 24.776 0 003.681-.38c-.097-.19-.286-.424-.566-.704l1.426-.771a13.873 13.873 0 012.041 2.94zm-2.627-7.607V20.42h-6.68v1.377h6.68zm-9.873 11.26h-1.66v-.977h-1.348v1.621h-1.68v-13.78h4.688v13.136zm-1.66-2.754V21.68h-1.348v8.623h1.348zm26.338-10.42l-.264 10.713h-1.817l-.263-10.713h2.344zM114 32.539c.384 0 .716.133.996.4.28.26.42.58.42.958 0 .37-.137.69-.41.956-.274.26-.609.391-1.006.391a1.44 1.44 0 01-1.016-.38 1.298 1.298 0 01-.4-.967c0-.385.137-.707.41-.967.28-.26.615-.39 1.006-.39z" fill="#fff"/><defs><filter id="filter0_d_7156_18940" x="0" y="6" width="152" height="63.432" filterUnits="userSpaceOnUse" color-interpolation-filters="sRGB"><feFlood flood-opacity="0" result="BackgroundImageFix"/><feColorMatrix in="SourceAlpha" values="0 0 0 0 0 0 0 0 0 0 0 0 0 0 0 0 0 0 127 0" result="hardAlpha"/><feOffset dx="2" dy="4"/><feGaussianBlur stdDeviation="3"/><feComposite in2="hardAlpha" operator="out"/><feColorMatrix values="0 0 0 0 0 0 0 0 0 0 0 0 0 0 0 0 0 0 0.15 0"/><feBlend in2="BackgroundImageFix" result="effect1_dropShadow_7156_18940"/><feBlend in="SourceGraphic" in2="effect1_dropShadow_7156_18940" result="shape"/></filter></defs></svg>