<svg width="72" height="60" viewBox="0 0 72 60" fill="none" xmlns="http://www.w3.org/2000/svg"><g id="Frame 4987"><ellipse id="Ellipse 238" cx="36.5" cy="57.243" rx="34.5" ry="2.5" fill="#000" fill-opacity=".1"/><g id="Group"><g id="icon_100_"><path id="Vector" d="M8.633 25.96h3.105v30.895H8.633V25.96z" fill="#F3C689"/><path id="Vector_2" d="M21.736 24.157l1.44-5.205h5.834l1.44 5.205h-8.714z" fill="#9C9EA8"/><path id="Vector_3" d="M31.236 23.157h-10.29a.658.658 0 000 1.316h10.29a.658.658 0 000-1.316z" fill="#B0B2BA"/><g id="Group_2" fill="#F3C689"><path id="Vector_4" d="M41.316 54.17l.61 2.685h3.727l.61-2.684h-4.947z"/><path id="Vector_5" d="M60.053 54.17l.61 2.685h3.728l.61-2.684h-4.948z"/><path id="Vector_6" d="M39.79 27.96h26.736v27.105H39.789V27.96z"/><path id="Vector_7" d="M6 24.093h63.158v4.184H6v-4.184z"/></g><path id="Vector_8" d="M42.328 31.55h21.66v8.258h-21.66V31.55z" fill="#E6B987"/><path id="Vector_9" d="M42.328 43.218h21.66v8.258h-21.66v-8.258z" fill="#E6B987"/><path id="Vector_10" d="M12.012 0h28.161c.619 0 1.12.501 1.12 1.12v17.977a1.12 1.12 0 01-1.12 1.12h-28.16a1.12 1.12 0 01-1.12-1.12V1.12c0-.619.5-1.12 1.12-1.12z" fill="#B0B2BA"/><path id="Vector_11" d="M12.154 1.263H40.03v15.263H12.154V1.263z" fill="#C3DCF2"/><path id="Vector_12" d="M26.092 19.11a.768.768 0 100-1.536.768.768 0 000 1.536z" fill="#9C9EA8"/><path id="Vector_13" d="M10.893 47.892h31.17v2.316h-31.17v-2.316z" fill="#F3C689"/><path id="Vector_14" d="M50.77 22.392h13.394v1.726H50.77v-1.726z" fill="#DBD8DD"/><path id="Vector_15" d="M50.77 20.666h13.394v1.726H50.77v-1.726z" fill="#ECECF4"/><path id="Vector_16" d="M50.77 18.94h13.394v1.726H50.77v-1.727z" fill="#DBD8DD"/><path id="Vector_17" d="M50.77 15.487h13.394v1.726H50.77v-1.726z" fill="#DBD8DD"/><path id="Vector_18" d="M50.77 17.214h13.394v1.726H50.77v-1.726z" fill="#ECECF4"/><path id="Vector_19" d="M48.15 24.114h-5.414a2.707 2.707 0 015.415 0z" fill="#B0B2BA"/><path id="Vector_20" d="M8.63 28.273h3.105v1.44H8.63v-1.44z" fill="#E6B987"/><path id="Vector_21" d="M39.74 28.273h26.786v1.44H39.74v-1.44z" fill="#E6B987"/></g></g></g></svg>