<svg width="244" height="132" viewBox="0 0 244 132" fill="none" xmlns="http://www.w3.org/2000/svg"><g filter="url(#filter0_d_4526_25419)"><path fill-rule="evenodd" clip-rule="evenodd" d="M16 2C9.373 2 4 7.373 4 14v13c0 6.627 5.373 12 12 12h69c0 11 11.5 16 20 14-10.17-3.236-10.083-8.61-10.011-12.958.005-.355.011-.703.011-1.042h18c6.627 0 12-5.373 12-12V14c0-6.627-5.373-12-12-12H16z" fill="#A4844E"/></g><path d="M42.603 23.844l-1.484.86c-.371-.47-.65-.798-.84-.987-5.618.319-10.286.452-14.004.4l-.459-1.416c.964.02 2.077.03 3.34.03 1.673 0 3.021-.017 4.043-.05v-1.064h-6.103v-5.781h6.103v-.938h-7.597v-1.377h7.597v-.986h1.719v.986h7.48v1.377h-7.48v.938H41.1v5.781h-.518c.755.768 1.43 1.51 2.021 2.227zm-3.222-5.703v-.977h-4.463v.977h4.463zm-6.182 0v-.977h-4.355v.977h4.355zm6.182 2.1v-.9h-4.463v.9h4.463zm-6.182 0v-.9h-4.355v.9h4.355zm6.22 1.376h-4.501v1.006c1.836-.059 3.19-.14 4.063-.244a2.923 2.923 0 00-.381-.4l.82-.362zm3.38 4.805h-3.936v1.7c0 .513-.15.95-.449 1.308-.3.358-.928.537-1.885.537-.403 0-1.019-.016-1.845-.049l-.46-1.582c1.335.02 2.143.013 2.423-.02.286-.032.43-.179.43-.439v-1.455h-11.72v-1.445h11.72v-.616h1.786v.616H42.8v1.445zm-9.58 2.08l-1.338 1.24c-.716-.534-1.751-1.136-3.106-1.806l1.329-1.24c1.197.56 2.236 1.161 3.115 1.806zM62.28 17.623h-1.738v-2.041H47.565v2.041h-1.768V14h7.207a7.328 7.328 0 00-.762-1.182l1.895-.38c.319.5.618 1.022.898 1.562h7.246v3.623zm.654 10.117l-1.015 1.455c-2.311-1.295-4.023-2.66-5.137-4.091.02.273.03.585.03.937 0 1.53-.222 2.575-.665 3.135-.442.566-1.298.85-2.568.85-.332 0-.765-.01-1.299-.03l-.586-1.7a63.61 63.61 0 001.963.05c.489 0 .807-.069.957-.205.157-.137.277-.303.362-.498.084-.202.127-.814.127-1.836 0-.326-.007-.629-.02-.909-2.507 2.116-5.52 3.623-9.043 4.522l-.781-1.504c3.633-.755 6.813-2.36 9.54-4.814a5.23 5.23 0 00-.42-1.045c-2.382 1.842-5.11 3.082-8.183 3.72l-.762-1.455c2.878-.482 5.606-1.65 8.184-3.506a23.346 23.346 0 00-.684-.752c-1.835.957-3.968 1.65-6.396 2.08l-.8-1.523c2.714-.28 5.22-1.061 7.519-2.344h-4.854v-1.552h11.3v1.552h-4.102a6.033 6.033 0 01-1.221.918c.833.912 1.432 1.859 1.797 2.842 1.373-.683 2.689-1.644 3.945-2.88l1.26 1.122c-1.185 1.133-2.578 2.12-4.18 2.96 1.237 1.679 3.148 3.18 5.732 4.501zm19.307.762c0 .45-.16.81-.478 1.084-.32.273-1.215.41-2.686.41-.273 0-.514-.006-.722-.02l-.46-1.913c.482.11 1.055.166 1.72.166.357 0 .588-.033.693-.098.104-.065.156-.202.156-.41v-8.36h-5.723v-6.338h7.5v15.479zm-1.777-12.998v-.86h-3.906v.86h3.906zm0 2.334v-.86h-3.906v.86h3.906zm-7.041 1.523H67.7v10.674h-1.797V13.023h7.52v6.338zm-1.807-3.857v-.86H67.7v.86h3.916zm0 2.334v-.86H67.7v.86h3.916zm8.184 7.48h-2.803v4.326H75.22v-4.326h-2.364c-.188 1.784-1.054 3.246-2.597 4.385l-1.485-1.201c1.296-.853 2.045-1.914 2.246-3.184h-2.783v-1.68h2.94v-1.64h-2.315v-1.66h10.362v1.66h-2.227v1.64H79.8v1.68zm-4.58-1.68v-1.64h-2.217v1.64h2.217zm15.976-7.656h-5.84V14.4h2.227c-.104-.41-.3-.95-.586-1.62l1.7-.46.742 2.08h1.757v1.582zm11.621 10.743h-1.22v1.63c0 .632-.176 1.062-.528 1.29-.351.227-.934.341-1.748.341-.267 0-.641-.01-1.123-.029l-.517-1.64h1.816c.293 0 .44-.14.44-.42v-1.172h-5.801v3.29h-1.66v-3.29h-.918v-1.348h.918v-4.56h3.72v-1.114h-4.892v-1.426h2.617v-.918h-1.719v-1.357h1.719v-.898h-2.12v-1.446h2.12v-1.123h1.621v1.123h2.92v-1.123h1.66v1.084h2.481v1.446h-2.481v.937h1.797v1.357h-1.797v.918h2.617v1.426h-4.883v1.113h3.741v4.561h1.22v1.348zm-4.355-10.723v-.898h-2.92v.898h2.92zm0 2.275v-.918h-2.92v.918h2.92zm1.475 4.825v-.918h-2.08v.918h2.08zm-3.74 0v-.899h-2.061v.899h2.06zm3.74 2.275V24.4h-2.08v.977h2.08zm-3.74 0V24.4h-2.061v.977h2.06zm-5.48-6.436h-4.862V17.38h4.863v1.562zm0 2.92h-4.862V20.28h4.863v1.582zm.04 7.803h-1.66v-.8h-1.563v1.24h-1.68v-6.866h4.903v6.426zm-1.66-2.46v-2.345h-1.563v2.344h1.563z" fill="#fff"/><g clip-path="url(#clip0_4526_25419)"><ellipse cx="179" cy="129" rx="32" ry="3" fill="#F0D1B2"/><path d="M203.669 108.913s3.522-4.494 9.249-1.178c1.842 1.067 2.205-.798 2.537-1.439.332-.64 3.577 4.751-1.759 7.929-5.339 3.178-10.691-2.976-10.027-5.312z" fill="#F2B34C"/><path d="M209.551 106.562c-3.708-.419-5.881 2.355-5.881 2.355-.439 1.538 1.735 4.731 4.794 5.826 0 0-2.858-2.735-.257-4.664 2.601-1.929 1.344-3.517 1.344-3.517z" fill="#F8E6C6"/><path d="M147.89 76.907s-13.426-4.407-18.948-9.656a10.787 10.787 0 01-.588-1.7c-.123-.466-.222-.952-.238-1.434-.019-.514.155-1.063.032-1.573-.174-.708-.862-.751-1.312-.21-.332.4-.581.901-.672 1.415-.036.214-.111 1.407.146 1.49 0 0-1.553-.391-1.905 1.115 0 0-1.209.877-.027 2.016 0 0-.886.663.007 1.576 0 0-.596 1.38 2.704 2.222 0 0 .909 1.585 2.929 4.296 0 0 5.276 7.739 15.094 12.395l2.782-11.956-.004.004z" fill="#F8E5C3"/><path d="M152.511 73.48s-4.032 16.157 1.478 38.658c0 0 2.616 9.477 6.905 16.267 0 0 1.359 1.736 4.078.34 0 0 1.115-.715-.94-2.15l4.185-10.975s4.917-4.075 22.493-.455c0 0 3.731 9.766 5.198 11.806 0 0-1.953.245-1.012 1.545 0 0 2.09 1.415 3.94.17 0 0 4.253-8.201 5.581-17.782 0 0 1.743-5.96 1.186-35.602l-53.088-1.826-.004.004z" fill="#404040"/><mask id="mask0_4526_25419" style="mask-type:luminance" maskUnits="userSpaceOnUse" x="148" y="76" width="67" height="48"><path d="M214.104 76.306h-65.34v47.618h65.34V76.306z" fill="#fff"/></mask><g mask="url(#mask0_4526_25419)"><path d="M165.98 124.129l2.059-5.158s5.016-3.968 22.944-.442c0 0 3.806 9.513 5.3 11.497 0 0-1.992.237-1.032 1.506 0 0 2.135 1.379 4.02.166 0 0 4.34-7.992 5.691-17.323 0 0 1.779-5.806 1.21-34.682l-54.152-1.779s-4.11 15.738 1.51 37.662c0 0 1.107 3.834 3.067 8.332" fill="#2C3342"/></g><mask id="mask1_4526_25419" style="mask-type:luminance" maskUnits="userSpaceOnUse" x="121" y="-7" width="117" height="117"><path d="M237.6-6.666H121.74v115.859H237.6V-6.666z" fill="#fff"/></mask><g mask="url(#mask1_4526_25419)"><path d="M151.817 75.625s-4.189 15.537 1.538 37.172c0 0 2.719 9.114 7.181 15.639 0 0 1.415 1.668 4.241.328 0 0 1.162-.687-.98-2.067l4.351-10.552s5.115-3.917 23.39-.435c0 0 3.882 9.391 5.403 11.351 0 0-2.031.237-1.051 1.486 0 0 2.174 1.36 4.098.162 0 0 4.423-7.889 5.802-17.098 0 0 1.815-5.731 1.234-34.231l-55.207-1.755z" fill="#F8E6C6"/><path d="M158.074 77.657s-10.632-2.735-23.714-7.596c-4.304 3.644-7.007 5.466-7.007 5.466s6.746 16.517 24.812 19.184c2.403-6.462 5.909-17.05 5.909-17.05v-.004z" fill="#2C3342"/><path d="M157.198 81.49l11.473.534 11.162 17.888v12.628h-28.2s-5.751-19.442-3-35.58c6.458 3.63 8.561 4.53 8.561 4.53h.004z" fill="#192030"/><path d="M199.862 81.48l-7.501-.38-12.921 19.41v12.035h27.371s3.821-20.2 1.15-35.58c-6.269 3.46-8.103 4.514-8.103 4.514h.004z" fill="#192030"/><path d="M187.867 87.814h-16.675v24.446h16.675V87.814z" fill="#fff"/><path d="M162.932 89.57l17.026 10.762 16.169-11.833-15.718-3.063-17.477 4.134z" fill="#FFFFFA"/><mask id="mask2_4526_25419" style="mask-type:luminance" maskUnits="userSpaceOnUse" x="168" y="86" width="25" height="30"><path d="M192.677 86.81H168.77v28.386h23.907V86.811z" fill="#fff"/></mask><g mask="url(#mask2_4526_25419)"><path d="M182.268 94.308c-.107.205-.554.36-1.008.36h-3.028c-.454 0-.905-.155-1.008-.36l-1.731-3.367c-.336-.657.123-1.27 1.079-1.27h6.352c.956 0 1.415.613 1.079 1.27l-1.731 3.367h-.004z" fill="#43C567"/><path d="M184.575 126.053l-4.802 8.043-4.928-7.312.628-8.664 1.731-23.884h5.063l1.791 24.703.517 7.114z" fill="#13AB67"/></g><path d="M162.537 86.545l-.94 4.683 17.26-4.683h-16.32zm17.366 0l16.466 3.47-.937-4.683-15.529 1.213z" fill="#D9DADA"/></g><path d="M176.181 109.193l3.478 5.925 3.592-5.925h-7.07z" fill="#13AB67"/><path d="M127.662 77.752a.932.932 0 01-1.127-.68l-9.908-39.851a.931.931 0 011.806-.447l9.909 39.852a.932.932 0 01-.68 1.126z" fill="#805751"/><path d="M122.562 68.232c0 2.19.945 3.964 2.107 3.964 1.162 0 2.107-1.775 2.107-3.964 0-2.19-.945-3.964-2.107-3.964-1.166 0-2.107 1.774-2.107 3.964z" fill="#F7E5C5" stroke="#E2AD89" stroke-width=".402" stroke-linecap="round" stroke-linejoin="round"/><path d="M140.887 33.502c-.487.122-4.257-.644-4.617-1.051 4.142-2.356 5.455-7.779 8.32-10.779C156.755 8.918 169.099.591 187.038 2.418c6.858.7 13.6 2.885 19.497 6.462 4.289 2.6 8.099 6.577 11.328 10.386 3.391 4 4.395 5.854 6.545 10.648 2.719 6.071 6.375 8.652 6.375 8.652s-5.261 1.36-7.181.205c1.047.577 2.11 8.024 2.15 9.23.095 3.086-.119 6.173-.526 9.232-1.727 12.857-7.561 14.552-8.17 20.742-1.474.233-3.995-2.581-3.956-4.462-.087 4.027-3.34 7.644-5.529 9.438-8.035 6.592-26.548 8.407-31.477 8.778a5.303 5.303 0 01-2.375-.363c-5.304-2.115-27.291-11.593-31.524-24.845-.482-1.51-1.063-3.561-.941-4.118-.407 1.81-1.478 4.094-2.316 4.043-.498-4.526-3.106-5.933-3.221-13.648-.099-6.588 2.205-12.461 5.17-19.295z" fill="#F2B34C"/><path d="M156.727 18.981l10.439-9.96c-.692-3.26-3.312-6.343-6.779-7.086a8.715 8.715 0 00-10.351 6.695 8.714 8.714 0 006.695 10.351h-.004zm-2.774-9.806a4.705 4.705 0 019.205.012l-5.593 5.577a4.704 4.704 0 01-3.612-5.589zm48.315 1.515l9.268 11.367c4.798-.522 8.26-4.838 7.739-9.636a8.741 8.741 0 00-17.007-1.731zm3.43.553a5.054 5.054 0 115.36 6.573l-5.36-6.573z" fill="#F2B34C"/><path d="M211.034 18.219a5.439 5.439 0 100-10.878 5.439 5.439 0 000 10.878zm-52.75-2.664a5.439 5.439 0 100-10.878 5.439 5.439 0 000 10.878zm46.491 15.453c-4.707-9.81-16.663-13.596-25.066-14.611 0 0-8.66-1.38-7.419 2.64 0 0 2.692 4.569-5.383 2.905-10.276-2.115-17.845 16.77-15.912 28.125 1.878 11.023 14.351 19.192 35.358 16.584 2.138-.265 10.407-2.06 13.999-4.403 14.976-9.759 8.34-23.078 4.423-31.244v.004z" fill="#F8E6C6"/><path d="M172.935 45.28s-2.348 9.264 2.798 10.201c0 0 5.664 1.628 6.367-8.292l-4.889-3.134-4.276 1.225z" fill="#EB8080"/><path d="M193.417 41.24a.825.825 0 011.118.352l1.103 2.115a.839.839 0 01-.348 1.126.796.796 0 01-.62.06.834.834 0 01-.498-.412l-1.103-2.114a.837.837 0 01.348-1.126zm3.702 3.25a.85.85 0 00.625-.06.835.835 0 00.348-1.127l-1.103-2.114a.826.826 0 00-1.118-.352.833.833 0 00-.348 1.127l1.102 2.114a.826.826 0 00.498.411h-.004zm-33.412-8.767a.822.822 0 011.118.352l1.103 2.114a.839.839 0 01-.348 1.127.834.834 0 01-1.122-.352l-1.103-2.115a.839.839 0 01.348-1.126h.004zm-2.454.399a.825.825 0 011.118.352l1.103 2.115a.839.839 0 01-.348 1.126.798.798 0 01-.621.06.84.84 0 01-.498-.412l-1.102-2.114a.837.837 0 01.348-1.127zm9.477 21.449c.174 1.51 2.102 2.233 2.877 2.467.142.043.245.067.292.079 2 .438 3.882-.13 4.53-.652.3-.242.363-.51.363-.692a.744.744 0 00-1.351-.439c-.344.21-1.644.668-3.21.32-.774-.19-1.964-.747-2.019-1.257a.75.75 0 00-.826-.66.748.748 0 00-.656.834zm-4.052-16.746c1.115-1.02 2.712-1.355 4.158-1.383 2.403-.047 4.826.968 6.459 2.747.482.526.723 1.17.739 1.838.181-.32.415-.613.672-.878 1.96-2.031 5.11-2.616 7.798-2.19 2.035.32 4.387.985 5.849 2.546.016.02.036.036.051.055 1.21 1.332 1.597 3.534.313 4.957-.89.988-2.423 1.403-3.684 1.644-2.917.553-6.561.561-9.134-1.119-.834-.545-1.537-1.312-1.937-2.229a3.552 3.552 0 01-.3-1.249c-.458.787-1.308 1.135-2.205 1.316-2.087.427-4.419.42-6.443-.304-2.217-.79-4.667-3.612-2.332-5.75h-.004z" fill="#F0C9AE"/><path d="M175.903 45.034c-1.008-.442-2.395-1.494-2.186-3.142.344-2.672 4.079-2.968 5.933-2.55 2.138.483 3.778 2.807 3.178 4.791-.51 1.692-2.882 1.7-4.613 1.541 0 0-1.308-.197-2.316-.64h.004z" fill="#4B1E0E"/><path d="M174.807 27.7c.152-.644-.52-1.354-1.502-1.586-.981-.232-1.9.102-2.052.746-.152.644.52 1.353 1.502 1.585.981.232 1.9-.102 2.052-.746zm15.171 1.852c.018-.66-.784-1.22-1.792-1.249-1.008-.028-1.84.484-1.859 1.145-.019.662.783 1.22 1.791 1.25 1.008.028 1.841-.485 1.86-1.146zm-18.671 8.463a2.806 2.806 0 100-5.612 2.806 2.806 0 000 5.612zm15.802 2.301a2.806 2.806 0 100-5.612 2.806 2.806 0 000 5.611z" fill="#4A1D0E"/><path d="M186.895 45.22a6.328 6.328 0 100-12.655 6.328 6.328 0 000 12.656zm-14.766-2.663a6.328 6.328 0 100-12.656 6.328 6.328 0 000 12.656zm8.462-4.241l-2.277-.206" stroke="#2C3342" stroke-width="1.324" stroke-miterlimit="10"/><path d="M190.343 78.99l1.098 5.45 1.463 7.26a1.9 1.9 0 01-1.285 2.182l-1.284.41a1.896 1.896 0 01-2.312-1.035l-3.459-7.746-1.826-4.091 7.601-2.43h.004z" fill="#484C65"/><path d="M190.718 80.859l-7.197 2.304-.779-1.743 7.601-2.43.375 1.869z" fill="#292B38"/><path d="M176.276 67.551l1.442 4.518a5.928 5.928 0 0011.292-3.608l-1.443-4.518a5.928 5.928 0 00-7.45-3.842 5.932 5.932 0 00-3.841 7.45z" fill="#8DA2AD"/><path d="M180.245 62.05a.476.476 0 01.308-.597 4.535 4.535 0 014.905 1.494.48.48 0 01-.075.668.478.478 0 01-.668-.08 3.568 3.568 0 00-3.869-1.177.477.477 0 01-.597-.308h-.004zm-2.362 9.943l10.918-3.488a1.58 1.58 0 00-.963-3.012L176.92 68.98a1.581 1.581 0 00.963 3.012z" fill="#DFE3EA"/><path d="M189.797 71.7l-10.843 3.464a1.422 1.422 0 00-.922 1.788l1.299 4.066a1.423 1.423 0 001.788.922l10.843-3.464a1.422 1.422 0 00.922-1.789l-1.299-4.066a1.423 1.423 0 00-1.788-.922z" fill="#484C65"/><path d="M185.461 78.476a1.66 1.66 0 100-3.32 1.66 1.66 0 000 3.32z" fill="#EB8080"/><path d="M200.745 91.649c-4.775-4.81-9.818-6.715-9.818-6.715-2.822-3.201-4.873 1.925-4.02 3.055.854 1.13 2.158.763 2.158.763 3.273 4.387 3.771 7.245 11.28 11.592 5.143 2.976 11.367 7.075 16.023-6.81l-9.956-8.146-5.671 6.26h.004z" fill="#FBE9C9"/><path d="M208.649 82.163s-2.766 6.324-10.671 6.324c-1.893 5.008-5.138 7.114-5.138 7.114s14.624 17.39 22.924 2.767c4.347-8.3-7.115-16.205-7.115-16.205z" fill="#2C3342"/></g><defs><clipPath id="clip0_4526_25419"><path fill="#fff" transform="translate(114 2)" d="M0 0h130v130H0z"/></clipPath><filter id="filter0_d_4526_25419" x="0" y="0" width="133" height="63.432" filterUnits="userSpaceOnUse" color-interpolation-filters="sRGB"><feFlood flood-opacity="0" result="BackgroundImageFix"/><feColorMatrix in="SourceAlpha" values="0 0 0 0 0 0 0 0 0 0 0 0 0 0 0 0 0 0 127 0" result="hardAlpha"/><feOffset dx="2" dy="4"/><feGaussianBlur stdDeviation="3"/><feComposite in2="hardAlpha" operator="out"/><feColorMatrix values="0 0 0 0 0 0 0 0 0 0 0 0 0 0 0 0 0 0 0.15 0"/><feBlend in2="BackgroundImageFix" result="effect1_dropShadow_4526_25419"/><feBlend in="SourceGraphic" in2="effect1_dropShadow_4526_25419" result="shape"/></filter></defs></svg>