<svg width="195" height="92" viewBox="0 0 195 92" fill="none" xmlns="http://www.w3.org/2000/svg"><ellipse cx="157" cy="89" rx="32" ry="3" fill="#F0D1B2"/><g filter="url(#filter0_d_4526_11754)"><path fill-rule="evenodd" clip-rule="evenodd" d="M17 3C10.373 3 5 8.373 5 15v16c0 6.627 5.373 12 12 12h65.739C86.202 53.116 96.426 57.031 107 55c-9.699-2.816-12.356-7.377-12.986-12H113c6.627 0 12-5.373 12-12V15c0-6.627-5.373-12-12-12H17z" fill="#A4844E"/></g><path d="M43.603 25.472l-1.484.86c-.371-.47-.65-.799-.84-.987-5.618.319-10.286.452-14.004.4l-.459-1.416c.964.02 2.077.03 3.34.03 1.673 0 3.021-.017 4.043-.05v-1.064h-6.103v-5.781h6.103v-.938h-7.597V15.15h7.597v-.986h1.719v.986h7.48v1.377h-7.48v.938H42.1v5.781h-.518c.755.768 1.43 1.51 2.021 2.227zm-3.222-5.703v-.977h-4.463v.977h4.463zm-6.182 0v-.977h-4.355v.977h4.355zm6.182 2.1v-.9h-4.463v.9h4.463zm-6.182 0v-.9h-4.355v.9h4.355zm6.22 1.376h-4.501v1.006c1.836-.059 3.19-.14 4.063-.244a2.923 2.923 0 00-.381-.4l.82-.362zm3.38 4.805h-3.936v1.699c0 .514-.15.95-.449 1.309-.3.358-.928.537-1.885.537-.403 0-1.019-.017-1.845-.05l-.46-1.581c1.335.02 2.143.013 2.423-.02.286-.032.43-.179.43-.44V28.05h-11.72v-1.445h11.72v-.616h1.786v.616H43.8v1.445zm-9.58 2.08l-1.338 1.24c-.716-.534-1.751-1.136-3.106-1.806l1.329-1.24c1.197.56 2.236 1.161 3.115 1.806zM63.28 19.25h-1.738v-2.04H48.565v2.041h-1.768v-3.623h7.207a7.333 7.333 0 00-.762-1.182l1.895-.38c.319.5.618 1.022.898 1.562h7.246v3.623zm.654 10.117l-1.015 1.455c-2.311-1.295-4.023-2.66-5.137-4.092.02.274.03.586.03.938 0 1.53-.222 2.575-.665 3.135-.442.566-1.298.85-2.568.85-.332 0-.765-.01-1.299-.03l-.586-1.7c.918.033 1.573.05 1.963.05.489 0 .807-.069.957-.205.157-.137.277-.303.362-.498.084-.202.127-.814.127-1.836 0-.326-.007-.629-.02-.909-2.507 2.116-5.52 3.623-9.043 4.522l-.781-1.504c3.633-.755 6.813-2.36 9.54-4.814a5.23 5.23 0 00-.42-1.045c-2.382 1.842-5.11 3.082-8.183 3.72l-.762-1.455c2.878-.482 5.606-1.65 8.184-3.506a23.472 23.472 0 00-.684-.752c-1.835.957-3.968 1.65-6.396 2.08l-.8-1.523c2.714-.28 5.22-1.061 7.519-2.344h-4.854v-1.553h11.3v1.553h-4.102a6.037 6.037 0 01-1.221.918c.833.912 1.432 1.859 1.797 2.842 1.373-.684 2.689-1.644 3.945-2.88l1.26 1.122c-1.185 1.133-2.578 2.12-4.18 2.96 1.237 1.679 3.148 3.18 5.732 4.501zm19.307.762c0 .45-.16.81-.478 1.084-.32.273-1.215.41-2.686.41-.273 0-.514-.006-.722-.02l-.46-1.914c.482.111 1.055.166 1.72.166.357 0 .588-.032.693-.097.104-.065.156-.202.156-.41v-8.36h-5.723V14.65h7.5v15.48zm-1.777-12.998v-.86h-3.906v.86h3.906zm0 2.334v-.86h-3.906v.86h3.906zm-7.041 1.523H68.7v10.674h-1.797V14.651h7.52v6.338zm-1.807-3.857v-.86H68.7v.86h3.916zm0 2.334v-.86H68.7v.86h3.916zm8.184 7.48h-2.803v4.326H76.22v-4.326h-2.364c-.188 1.784-1.054 3.246-2.597 4.385l-1.485-1.201c1.296-.853 2.045-1.914 2.246-3.184h-2.783v-1.68h2.94v-1.64h-2.315v-1.66h10.362v1.66h-2.227v1.64H80.8v1.68zm-4.58-1.68v-1.64h-2.217v1.64h2.217zm15.976-7.656h-5.84v-1.582h2.227c-.104-.41-.3-.95-.586-1.62l1.7-.46.742 2.08h1.757v1.582zm11.621 10.742h-1.22v1.631c0 .632-.176 1.062-.528 1.29-.351.227-.934.341-1.748.341-.267 0-.641-.01-1.123-.029l-.517-1.64h1.816c.293 0 .44-.14.44-.42v-1.172h-5.801v3.29h-1.66v-3.29h-.918v-1.348h.918v-4.56h3.72V21.33h-4.892v-1.426h2.617v-.918h-1.719V17.63h1.719v-.899h-2.12v-1.445h2.12v-1.123h1.621v1.123h2.92v-1.123h1.66v1.084h2.481v1.445h-2.481v.938h1.797v1.357h-1.797v.918h2.617v1.426h-4.883v1.113h3.741v4.56h1.22v1.348zM99.463 17.63v-.899h-2.92v.899h2.92zm0 2.275v-.918h-2.92v.918h2.92zm1.475 4.825v-.919h-2.08v.919h2.08zm-3.74 0v-.899h-2.061v.899h2.06zm3.74 2.275v-.977h-2.08v.977h2.08zm-3.74 0v-.977h-2.061v.977h2.06zm-5.48-6.436h-4.862v-1.562h4.863v1.562zm0 2.92h-4.862v-1.582h4.863v1.582zm.04 7.803h-1.66v-.8h-1.563v1.24h-1.68v-6.866h4.903v6.426zm-1.66-2.46v-2.345h-1.563v2.344h1.563z" fill="#fff"/><path d="M173.033 75.138s2.328-2.97 6.115-.778c1.218.705 1.458-.528 1.677-.951.22-.424 2.365 3.14-1.162 5.241-3.531 2.101-7.069-1.967-6.63-3.512z" fill="#F2B34C"/><path d="M176.922 73.583c-2.451-.277-3.889 1.558-3.889 1.558-.29 1.016 1.147 3.127 3.17 3.851 0 0-1.889-1.808-.17-3.083 1.72-1.275.889-2.326.889-2.326z" fill="#F8E6C6"/><path d="M136.155 53.978s-8.877-2.914-12.528-6.384a7.113 7.113 0 01-.389-1.124 4.368 4.368 0 01-.157-.948c-.013-.34.102-.703.021-1.04-.115-.468-.57-.497-.867-.139-.22.264-.385.596-.445.936-.023.14-.073.93.097.985 0 0-1.027-.259-1.26.737 0 0-.799.58-.018 1.332 0 0-.585.44.005 1.043 0 0-.394.912 1.788 1.469 0 0 .601 1.047 1.936 2.84 0 0 3.489 5.117 9.98 8.195l1.839-7.905-.002.003z" fill="#F8E5C3"/><path d="M139.209 51.712s-2.665 10.682.977 25.559c0 0 1.73 6.266 4.566 10.755 0 0 .899 1.147 2.696.225 0 0 .737-.473-.622-1.422l2.768-7.256s3.25-2.694 14.871-.3c0 0 2.467 6.456 3.436 7.805 0 0-1.291.162-.669 1.021 0 0 1.383.936 2.606.113 0 0 2.811-5.422 3.689-11.757 0 0 1.153-3.94.784-23.539l-35.099-1.207-.003.003z" fill="#404040"/><mask id="mask0_4526_11754" style="mask-type:luminance" maskUnits="userSpaceOnUse" x="136" y="53" width="44" height="33"><path d="M179.933 53.58h-43.201v31.483h43.201V53.58z" fill="#fff"/></mask><g mask="url(#mask0_4526_11754)"><path d="M148.115 85.199l1.361-3.41s3.317-2.624 15.17-.293c0 0 2.516 6.29 3.504 7.602 0 0-1.317.156-.682.995 0 0 1.411.912 2.657.11 0 0 2.87-5.284 3.763-11.453 0 0 1.176-3.839.8-22.93l-35.803-1.176s-2.717 10.405.999 24.9c0 0 .731 2.535 2.027 5.508" fill="#2C3342"/></g><mask id="mask1_4526_11754" style="mask-type:luminance" maskUnits="userSpaceOnUse" x="118" y="-2" width="78" height="78"><path d="M195.466-1.277h-76.601v76.6h76.601v-76.6z" fill="#fff"/></mask><g mask="url(#mask1_4526_11754)"><path d="M138.75 53.13s-2.77 10.273 1.016 24.577c0 0 1.798 6.026 4.748 10.34 0 0 .936 1.103 2.804.217 0 0 .769-.454-.648-1.366l2.877-6.977s3.382-2.59 15.465-.288c0 0 2.566 6.209 3.572 7.505 0 0-1.343.157-.695.983 0 0 1.437.899 2.71.107 0 0 2.924-5.216 3.836-11.305 0 0 1.199-3.789.815-22.632l-36.5-1.16z" fill="#F8E6C6"/><path d="M142.887 54.474s-7.029-1.809-15.679-5.023c-2.845 2.41-4.633 3.614-4.633 3.614s4.461 10.92 16.405 12.684c1.589-4.272 3.907-11.273 3.907-11.273v-.002z" fill="#2C3342"/><path d="M142.307 57.008l7.586.353 7.379 11.827v8.35h-18.645s-3.802-12.855-1.983-23.524c4.27 2.398 5.66 2.994 5.66 2.994h.003z" fill="#192030"/><path d="M170.516 57l-4.96-.25-8.542 12.833v7.957h18.096s2.526-13.356.76-23.523c-4.144 2.286-5.357 2.984-5.357 2.984h.003z" fill="#192030"/><path d="M162.585 61.19h-11.024v16.162h11.024V61.189z" fill="#fff"/><path d="M146.099 62.35l11.257 7.115 10.69-7.824-10.392-2.025-11.555 2.733z" fill="#FFFFFA"/><mask id="mask2_4526_11754" style="mask-type:luminance" maskUnits="userSpaceOnUse" x="149" y="60" width="17" height="20"><path d="M165.765 60.525h-15.807v18.768h15.807V60.525z" fill="#fff"/></mask><g mask="url(#mask2_4526_11754)"><path d="M158.882 65.482c-.07.136-.365.238-.666.238h-2.002c-.3 0-.598-.102-.666-.238l-1.145-2.226c-.222-.434.081-.839.714-.839h4.199c.633 0 .936.405.714.839l-1.145 2.226h-.003z" fill="#43C567"/><path d="M160.408 86.471l-3.175 5.318-3.258-4.834.415-5.728 1.145-15.791h3.347l1.184 16.332.342 4.703z" fill="#13AB67"/></g><path d="M145.837 60.35l-.622 3.097 11.411-3.096h-10.789zm11.481.001l10.887 2.294-.62-3.096-10.267.802z" fill="#D9DADA"/></g><path d="M154.859 75.324l2.3 3.917 2.375-3.917h-4.675z" fill="#13AB67"/><path d="M122.781 54.537a.616.616 0 01-.745-.45l-6.551-26.348a.616.616 0 011.194-.295l6.551 26.348a.616.616 0 01-.449.745z" fill="#805751"/><path d="M119.409 48.241c0 1.448.625 2.621 1.393 2.621s1.393-1.173 1.393-2.62c0-1.449-.625-2.622-1.393-2.622-.771 0-1.393 1.173-1.393 2.621z" fill="#F7E5C5" stroke="#E2AD89" stroke-width=".266" stroke-linecap="round" stroke-linejoin="round"/><path d="M131.524 25.28c-.321.081-2.814-.425-3.052-.695 2.739-1.557 3.606-5.142 5.501-7.126 8.043-8.432 16.204-13.938 28.065-12.73 4.534.462 8.992 1.907 12.891 4.272 2.835 1.72 5.354 4.348 7.489 6.867 2.242 2.644 2.906 3.87 4.327 7.04 1.798 4.014 4.215 5.72 4.215 5.72s-3.478.899-4.748.136c.693.381 1.395 5.304 1.422 6.101.062 2.041-.079 4.082-.348 6.105-1.142 8.5-4.999 9.621-5.401 13.713-.975.155-2.642-1.706-2.616-2.95-.057 2.663-2.208 5.054-3.656 6.24-5.312 4.359-17.552 5.558-20.811 5.804a3.505 3.505 0 01-1.57-.24c-3.507-1.398-18.044-7.665-20.843-16.426-.318-.999-.702-2.355-.621-2.723-.27 1.197-.978 2.707-1.532 2.673-.329-2.992-2.054-3.922-2.129-9.023-.066-4.356 1.458-8.24 3.417-12.757z" fill="#F2B34C"/><path d="M141.998 15.68l6.901-6.586c-.457-2.155-2.189-4.194-4.481-4.685a5.762 5.762 0 00-6.844 4.427 5.762 5.762 0 004.427 6.844h-.003zm-1.834-6.484a3.11 3.11 0 013.695-2.388 3.11 3.11 0 012.391 2.396l-3.698 3.687a3.11 3.11 0 01-2.388-3.695zm31.942 1.001l6.128 7.515a5.778 5.778 0 10-6.128-7.515zm2.269.366a3.34 3.34 0 113.543 4.346l-3.543-4.346z" fill="#F2B34C"/><path d="M177.902 15.176a3.596 3.596 0 100-7.192 3.596 3.596 0 000 7.192zm-34.875-1.762a3.596 3.596 0 100-7.192 3.596 3.596 0 000 7.192zm30.738 10.217c-3.112-6.486-11.017-8.989-16.572-9.66 0 0-5.726-.913-4.905 1.745 0 0 1.779 3.02-3.559 1.92-6.794-1.397-11.798 11.088-10.521 18.596 1.242 7.288 9.489 12.689 23.377 10.964 1.414-.175 6.881-1.361 9.256-2.91 9.901-6.453 5.514-15.259 2.924-20.658v.003z" fill="#F8E6C6"/><path d="M152.713 33.067s-1.552 6.125 1.85 6.744c0 0 3.744 1.077 4.21-5.482l-3.233-2.072-2.827.81z" fill="#EB8080"/><path d="M166.255 30.397a.545.545 0 01.739.232l.729 1.398a.554.554 0 01-.23.745.551.551 0 01-.739-.233l-.729-1.397a.554.554 0 01.23-.745zm2.448 2.148a.552.552 0 00.643-.784l-.729-1.398a.547.547 0 00-.74-.233.552.552 0 00-.23.745l.729 1.398a.547.547 0 00.33.272h-.003zm-22.091-5.796a.543.543 0 01.739.233l.729 1.398a.553.553 0 01-.229.744.556.556 0 01-.743-.233l-.729-1.397a.555.555 0 01.23-.745h.003zm-1.623.264a.547.547 0 01.74.233l.729 1.398a.555.555 0 01-.23.744.527.527 0 01-.41.04.556.556 0 01-.33-.272l-.729-1.398a.555.555 0 01.23-.745zm6.266 14.181c.115.998 1.39 1.477 1.903 1.63.094.03.162.045.193.053 1.322.29 2.566-.086 2.995-.431.198-.16.24-.337.24-.457a.492.492 0 00-.894-.29c-.227.138-1.087.441-2.121.211-.513-.125-1.299-.494-1.336-.83a.495.495 0 00-.546-.437.495.495 0 00-.434.551zm-2.678-11.071c.737-.675 1.792-.897 2.749-.915a5.725 5.725 0 014.27 1.816c.318.348.478.774.488 1.215a2.92 2.92 0 01.444-.58c1.297-1.343 3.379-1.73 5.156-1.447 1.346.211 2.901.65 3.868 1.682.01.013.023.024.034.037.799.88 1.055 2.336.206 3.277-.588.653-1.602.928-2.435 1.087-1.929.366-4.338.371-6.039-.74-.552-.36-1.017-.867-1.281-1.473a2.33 2.33 0 01-.198-.826c-.304.52-.865.75-1.459.87-1.379.282-2.921.277-4.259-.201-1.466-.523-3.086-2.389-1.542-3.802h-.002z" fill="#F0C9AE"/><path d="M154.676 32.906c-.666-.293-1.584-.988-1.445-2.078.227-1.766 2.697-1.962 3.922-1.685 1.414.319 2.498 1.855 2.101 3.167-.337 1.118-1.905 1.123-3.049 1.019 0 0-.865-.13-1.532-.423h.003z" fill="#4B1E0E"/><path d="M153.952 21.444c.1-.426-.344-.895-.993-1.048-.649-.154-1.257.067-1.357.493-.101.425.344.894.993 1.048.649.153 1.256-.068 1.357-.493zm10.03 1.225c.012-.437-.518-.807-1.184-.826-.667-.019-1.217.32-1.23.757-.012.437.518.807 1.185.826.666.019 1.217-.32 1.229-.757zm-12.344 5.595a1.856 1.856 0 10-.001-3.71 1.856 1.856 0 00.001 3.71zm10.447 1.521a1.856 1.856 0 10-.001-3.711 1.856 1.856 0 00.001 3.71z" fill="#4A1D0E"/><path d="M161.943 33.028a4.184 4.184 0 100-8.367 4.184 4.184 0 000 8.367zm-9.762-1.761a4.183 4.183 0 10-.001-8.367 4.183 4.183 0 00.001 8.367zm5.594-2.804l-1.505-.136" stroke="#2C3342" stroke-width=".875" stroke-miterlimit="10"/><path d="M164.222 55.355l.726 3.603.967 4.8c.126.627-.24 1.25-.849 1.443l-.849.272a1.254 1.254 0 01-1.529-.685l-2.286-5.122-1.208-2.704 5.025-1.608h.003z" fill="#484C65"/><path d="M164.47 56.59l-4.759 1.524-.515-1.152 5.025-1.608.249 1.236z" fill="#292B38"/><path d="M154.922 47.792l.954 2.987a3.92 3.92 0 007.466-2.386l-.954-2.986a3.92 3.92 0 00-4.926-2.54 3.923 3.923 0 00-2.54 4.925z" fill="#8DA2AD"/><path d="M157.545 44.155a.315.315 0 01.204-.395 2.999 2.999 0 013.243.988.318.318 0 01-.05.442.317.317 0 01-.442-.052 2.359 2.359 0 00-2.558-.78.315.315 0 01-.394-.203h-.003zm-1.561 6.575l7.219-2.307a1.045 1.045 0 00-.637-1.992l-7.218 2.307a1.046 1.046 0 00.636 1.991z" fill="#DFE3EA"/><path d="M163.861 50.534l-7.169 2.291a.94.94 0 00-.61 1.182l.859 2.689a.941.941 0 001.183.61l7.168-2.291a.94.94 0 00.61-1.182l-.859-2.689a.94.94 0 00-1.182-.61z" fill="#484C65"/><path d="M160.994 55.015a1.098 1.098 0 100-2.196 1.098 1.098 0 000 2.196z" fill="#EB8080"/><path d="M171.1 63.724c-3.157-3.18-6.491-4.44-6.491-4.44-1.866-2.116-3.222 1.273-2.657 2.02.564.748 1.426.505 1.426.505 2.164 2.9 2.493 4.79 7.458 7.664 3.4 1.968 7.516 4.678 10.594-4.502l-6.583-5.386-3.749 4.14h.002z" fill="#FBE9C9"/><path d="M176.327 57.453s-1.83 4.181-7.056 4.181c-1.252 3.311-3.397 4.704-3.397 4.704s9.669 11.498 15.156 1.829c2.875-5.488-4.703-10.714-4.703-10.714z" fill="#2C3342"/><defs><filter id="filter0_d_4526_11754" x=".372" y=".686" width="133.884" height="66.404" filterUnits="userSpaceOnUse" color-interpolation-filters="sRGB"><feFlood flood-opacity="0" result="BackgroundImageFix"/><feColorMatrix in="SourceAlpha" values="0 0 0 0 0 0 0 0 0 0 0 0 0 0 0 0 0 0 127 0" result="hardAlpha"/><feOffset dx="2.314" dy="4.628"/><feGaussianBlur stdDeviation="3.471"/><feComposite in2="hardAlpha" operator="out"/><feColorMatrix values="0 0 0 0 0 0 0 0 0 0 0 0 0 0 0 0 0 0 0.15 0"/><feBlend in2="BackgroundImageFix" result="effect1_dropShadow_4526_11754"/><feBlend in="SourceGraphic" in2="effect1_dropShadow_4526_11754" result="shape"/></filter></defs></svg>