<svg width="200" height="150" viewBox="0 0 200 150" fill="none" xmlns="http://www.w3.org/2000/svg"><g clip-path="url(#clip0_3225_99513)"><path d="M14 56.5c29.5-35.33 50.032-37.117 84.072-35.33C127.47 22.713 137.5 30.34 148 42c10.499 11.66 7 27.5 28 31.5 20.22 3.852 22.5 15 23.917 24.144 3.937 52.983-133.344 43.896-160.642 37.209C11.976 128.165-18.585 95.523 14 56.5z" fill="#CFF7D8"/><ellipse cx="100" cy="133" rx="60" ry="17" fill="#7DD3A4"/><g clip-path="url(#clip1_3225_99513)"><path d="M120.671 77.293s15.247-16.02 23.826-18.163c.779-4.096 1.242-6.058 4.559-6.898 3.314-.84 4.693 5.251 3.036 6.908-2 3.022-5.156 3.108-5.156 3.108s-6.13 26.882-18.876 28.68c-12.743 1.794-7.389-13.635-7.389-13.635z" fill="#FBE9C9"/><path d="M126.764 85.374s8.119 7.337 5.426 28.104c.676-.676 2.484.535 3.293.535 2.573 0 4.13.95 4.13.95s-.374-5.711 3.228-7.615c1.599-.847 3.561.25 3.766 2.048.388 3.361-1.193 8.352-2.404 11.556a4.51 4.51 0 01-3.712 2.878c-5.714.676-12.431-.744-12.431-.744l-8.747 9.508-53.541-38.689 60.992-8.534v.003z" fill="#FBE9C9"/><path d="M73.602 127.62s-3.492-6.088-11.052-3.066c-2.429.971-2.545-1.362-2.833-2.199-.289-.837-5.194 5.149.744 9.958s13.535-1.739 13.141-4.696v.003z" fill="#F5B64C"/><path d="M66.858 123.717c4.586.147 6.74 3.903 6.74 3.903.261 1.949-2.946 5.454-6.863 6.243 0 0 3.962-2.826 1.135-5.632-2.823-2.806-1.012-4.518-1.012-4.518v.004z" fill="#FBE9C9"/><path d="M73 95s-24.5 45 35.433 44.64c6.689 0 11.505-.131 14.52-.251a5.516 5.516 0 005.083-3.968c1.17-4.017 2.244-9.807-1.269-9.807-5.382 0-7.45 6.98-7.45 6.98l-9.005-6.98L73 95z" fill="#FBE9C9"/><path d="M61.88 86.39s7.931 16.434 35.544 18.169l5.822-1.266s18.31-2.456 27.441-26.004l-68.806 9.097v.004z" fill="#13AE67"/><path d="M99.507 100.735s-7.46 0-9.982 6.881c0 0-1.255 3.2-.61 5.052 0 0 5.436.906 7.985-3.56 0 0 1.595-2.724 3.358-3.763l-.75-4.61zm6.298-.793s7.227-1.845 11.374 4.199c0 0 2.01 2.788 1.842 4.744 0 0-5.042 2.222-8.616-1.475 0 0-2.216-2.244-4.185-2.816l-.412-4.655-.003.003z" fill="#43C867"/><path d="M106.516 110.775a7.163 7.163 0 11-6.742-12.637 7.163 7.163 0 016.742 12.637z" fill="#B18749"/><path d="M106.522 110.792a7.18 7.18 0 01-9.714-2.954 7.179 7.179 0 1112.667-6.76 7.179 7.179 0 01-2.953 9.714z" fill="#fff"/><path d="M98.564 103.835c.038.594.213 1.156.484 1.678.182.346.435.665.696.96.501.57 1.118.981 1.859 1.18.065.017.137 0 .23 0-.034-.065-.038-.085-.048-.089-.899-.377-1.513-1.029-1.86-1.931a3.482 3.482 0 01-.033-2.47c.343-.991 1.018-1.67 1.965-2.089.82-.36 1.674-.497 2.566-.336.761.137 1.423.484 2 .991a4.851 4.851 0 011.43 2.223c.182.566.213 1.149.161 1.736-.003.044.028.096.041.144.028-.024.076-.041.083-.072.209-.799.257-1.609.062-2.415-.093-.384-.241-.755-.361-1.132l-.281-.532s-.038-.024-.048-.041a5.023 5.023 0 00-1.78-1.725 5.182 5.182 0 00-2.583-.724c-1.125-.01-2.165.312-3.063 1.019-.37.291-.676.645-.923 1.049-.33.535-.573 1.235-.597 1.736-.024.501-.01.638 0 .837" fill="#B18749"/><path d="M105.668 109.07c1.087-.604 1.753-1.533 1.996-2.741.264-1.314-.044-2.511-.857-3.581-.556-.734-1.256-1.252-2.151-1.495-.058-.018-.123-.018-.185-.024a.93.93 0 00-.021.058c.041.031.076.072.124.092.82.398 1.416.999 1.759 1.856.419 1.043.34 2.055-.161 3.032-.494.961-1.334 1.499-2.346 1.791-1.376.398-2.638.172-3.766-.717a4.7 4.7 0 01-1.523-2.096 4.256 4.256 0 01-.268-1.777c.003-.061.065-.291.017-.336-.027-.024-.069-.034-.113-.058-.02.048-.041.079-.048.113-.254 1.118-.206 2.206.23 3.283.435 1.077 1.132 1.938 2.13 2.507 1.694.968 3.434 1.064 5.176.096" fill="#005B42"/><path d="M104.022 105.952c-.755-.237-1.468-.456-2.182-.69-.045-.013-.093-.133-.079-.188.151-.522.316-1.04.477-1.558.055-.178.103-.356.161-.566.083.024.161.045.237.069.634.192 1.269.391 1.91.573.131.038.145.075.11.185-.164.528-.326 1.057-.483 1.588-.055.182-.093.371-.148.587" fill="#AA803A"/><path d="M67.316 86c-8.206-.086-14.099 29.634-14.099 29.634s-10.445 3.938-7.783 6.599c2.659 2.659 12.661 1.589 12.661 0 0-1.588.316-3.708-.634-4.658 4.387-1.461 16.231-7.896 16.231-12.65 0-4.755-4.099-14.702-6.376-18.925z" fill="#FBE9C9"/><path d="M125.947 5.595A9.42 9.42 0 00113.513.813c-3.503 1.557-5.588 5.4-5.595 8.997l13.251 8.216a9.42 9.42 0 004.782-12.435l-.004.004zm-6.603 8.16l-7.152-4.658a5.08 5.08 0 013.022-4.638 5.085 5.085 0 114.133 9.293l-.003.003z" fill="#F5B64C"/><path d="M121.108 13.674a5.876 5.876 0 10-7.114-9.355 5.876 5.876 0 007.114 9.355z" fill="#FBE9C9"/><path d="M137.054 36.09c.525.123 4.59-.762 4.97-1.208-4.507-2.484-6.013-8.319-9.148-11.519-13.337-13.597-26.8-22.41-46.153-20.166-7.4.857-14.65 3.32-20.97 7.275-4.592 2.875-8.65 7.228-12.08 11.392-3.602 4.374-4.662 6.39-6.912 11.604-2.854 6.6-6.761 9.44-6.761 9.44s5.704 1.39 7.763.114c-1.122.638-2.161 8.699-2.182 10.005-.058 3.334.22 6.669.71 9.968 2.058 13.865 8.387 15.608 9.142 22.29 1.595.23 4.277-2.847 4.205-4.881.158 4.35 3.722 8.208 6.116 10.115 8.781 7.005 28.81 8.682 34.14 9.012a5.75 5.75 0 002.563-.43c5.698-2.366 29.314-12.934 33.685-27.314.497-1.636 1.097-3.862.953-4.466.467 1.948 1.66 4.401 2.562 4.332.47-4.898 3.266-6.459 3.273-14.794.007-7.118-2.569-13.433-5.873-20.77h-.003z" fill="#F5B64C"/><path d="M67.623 2.902c-5.104-1.07-10.109 2.199-11.179 7.3-1.07 5.104 2.199 10.108 7.3 11.178l11.172-11.24a9.442 9.442 0 00-7.29-7.241l-.003.003zm-2.916 13.971a5.463 5.463 0 01-4.222-6.466 5.463 5.463 0 016.466-4.222 5.458 5.458 0 014.216 4.188l-6.46 6.5z" fill="#F5B64C"/><path d="M70.14 14.744a5.876 5.876 0 10-9.748-6.565 5.876 5.876 0 009.747 6.565zm54.541 9.662c-6.342-9.896-19.665-12.383-28.81-12.362 0 0-9.467-.337-7.608 3.81 0 0 3.492 4.545-5.392 3.829-11.303-.913-16.925 20.337-13.35 32.26 3.47 11.574 17.922 18.688 40.109 13.121 2.257-.566 10.887-3.581 14.434-6.569 14.774-12.441 5.9-25.85.617-34.09z" fill="#FBE9C9"/><path d="M118.412 26.526a1.011 1.011 0 00-1.273.645l-.899 2.74a1.01 1.01 0 00.645 1.273.995.995 0 00.758-.055 1.01 1.01 0 00.515-.59l.898-2.74a1.01 1.01 0 00-.644-1.273zm3.022-.021a1.01 1.01 0 00-1.273.645l-.895 2.74a1.01 1.01 0 001.917.628l.895-2.74a1.01 1.01 0 00-.644-1.273zM82.974 37.75a1.011 1.011 0 00-1.273.644l-.898 2.741a1.01 1.01 0 00.645 1.273 1.01 1.01 0 001.273-.645l.898-2.741a1.01 1.01 0 00-.645-1.273zm3.019-.025a1.011 1.011 0 00-1.272.645l-.896 2.74a1.01 1.01 0 00.645 1.273 1.01 1.01 0 001.273-.645l.895-2.74a1.01 1.01 0 00-.645-1.273zm31.753-4.115c-1.54-.992-3.519-1.068-5.258-.807-2.888.429-5.588 2.134-7.186 4.583a3.337 3.337 0 00-.515 2.34 5.465 5.465 0 00-.978-.913c-2.754-2.024-6.644-2.082-9.78-1.03-2.373.797-5.059 2.062-6.496 4.216l-.051.076c-1.184 1.832-1.204 4.535.617 5.968 1.266.995 3.183 1.184 4.74 1.211 3.606.069 7.972-.658 10.72-3.183.892-.82 1.578-1.876 1.873-3.05a4.383 4.383 0 00.113-1.55c.707.847 1.794 1.088 2.905 1.122 2.583.082 5.376-.398 7.653-1.667 2.497-1.393 4.868-5.248 1.64-7.324l.003.007z" fill="#F0C9AE"/><path d="M106.221 40.919c1.118-.73 2.572-2.267 1.986-4.188-.947-3.115-5.482-2.71-7.619-1.839-2.463 1.005-3.965 4.106-2.847 6.35.95 1.91 3.79 1.44 5.835.901 0 0 1.526-.5 2.645-1.231v.007zM91.64 37.475a3.249 3.249 0 01-3.757-2.624 3.249 3.249 0 012.624-3.756 3.249 3.249 0 013.756 2.624 3.249 3.249 0 01-2.624 3.756zm19.15-5.43a3.25 3.25 0 01-3.757-2.624 3.249 3.249 0 012.625-3.756 3.25 3.25 0 013.756 2.624 3.249 3.249 0 01-2.624 3.756zm-3.784-9.862c.141.786-.717 1.595-1.914 1.808-1.197.212-2.281-.254-2.422-1.04-.14-.785.717-1.595 1.914-1.807 1.198-.213 2.282.254 2.422 1.04zm-14.362 4.02c.14.786-.717 1.595-1.914 1.808-1.197.213-2.281-.254-2.422-1.04-.14-.785.717-1.594 1.914-1.807 1.197-.213 2.281.254 2.422 1.04z" fill="#4B1E0E"/><path d="M111.914 47.296a.907.907 0 00-.751 1.039c.1.607-1.111 1.653-1.952 2.127-1.722.919-3.389.816-3.859.686a.906.906 0 00-1.437.96c.062.213.223.501.652.686.926.395 3.313.432 5.509-.74.051-.028.164-.093.315-.19.83-.524 2.851-2.006 2.559-3.817a.907.907 0 00-1.039-.751h.003z" fill="#F0C9AE"/><path d="M102.981 126.787s12.692-.985 16.332 5.811c3.529-7.564 7.45-6.981 7.45-6.981s4.799.083 0 12.033c-3.547 3.547-32.268 1.074-32.268 1.074m37.355-42.387s4.164 18.791-3.794 26.749" stroke="#F0C9AE" stroke-width="2" stroke-linecap="round" stroke-linejoin="round"/></g><path d="M168.854 1.792C149.185.414 139.648 18.344 143.946 29.38c1.877 4.817 4.37 8.378 7.229 10.91-.652 2.991-1.472 7.109-1.262 8.029.213.935 4.201-1.426 7.589-4.2 11.671 4.391 25.836-2.619 30.728-10.759 4.756-7.917 5.733-29.809-19.376-31.568z" fill="#7DD3A4"/><path d="M179.579 21.242l-2.19-.438a10.671 10.671 0 00-1.358-3.256l1.241-1.869a.847.847 0 00-.117-1.095l-1.46-1.46a.847.847 0 00-1.095-.116l-1.868 1.24a10.691 10.691 0 00-3.256-1.357l-.438-2.19a.889.889 0 00-.862-.701h-2.073a.887.887 0 00-.861.7l-.438 2.19a10.7 10.7 0 00-3.256 1.358l-1.869-1.24a.848.848 0 00-1.095.116l-1.46 1.46a.848.848 0 00-.116 1.095l1.241 1.87a10.671 10.671 0 00-1.358 3.255l-2.19.438a.888.888 0 00-.701.861v2.073c0 .41.292.774.701.862l2.19.438c.277 1.168.73 2.263 1.358 3.256l-1.241 1.868a.848.848 0 00.116 1.095l1.46 1.46c.292.307.76.35 1.095.117l1.869-1.24a10.69 10.69 0 003.256 1.357l.438 2.19c.087.409.452.7.861.7h2.073a.889.889 0 00.862-.7l.438-2.19a10.69 10.69 0 003.256-1.358l1.868 1.241a.848.848 0 001.095-.117l1.46-1.46a.847.847 0 00.117-1.095l-1.241-1.868a10.671 10.671 0 001.358-3.256l2.19-.438a.888.888 0 00.701-.862v-2.073a.888.888 0 00-.701-.861zm-12.439 7.373a5.477 5.477 0 01-5.475-5.475 5.477 5.477 0 015.475-5.475 5.477 5.477 0 015.475 5.475 5.477 5.477 0 01-5.475 5.475z" fill="#fff"/></g><defs><clipPath id="clip0_3225_99513"><path fill="#fff" d="M0 0h200v150H0z"/></clipPath><clipPath id="clip1_3225_99513"><path fill="#fff" transform="translate(40)" d="M0 0h112.792v140H0z"/></clipPath></defs></svg>