<svg width="200" height="150" viewBox="0 0 200 150" fill="none" xmlns="http://www.w3.org/2000/svg"><g clip-path="url(#clip0_4736_176117)"><path d="M14 56.5c29.5-35.329 50.032-37.116 84.072-35.329 29.399 1.543 39.429 9.17 49.928 20.83 10.499 11.66 7 27.5 28 31.5 20.22 3.851 22.5 15 23.917 24.144 3.937 52.983-133.344 43.895-160.642 37.208C11.976 128.166-18.585 95.524 14 56.501z" fill="#CFF7D8"/><ellipse cx="100" cy="133.001" rx="60" ry="17" fill="#7DD3A4"/><path d="M71.256 82.33s-2.97 12.87-.717 35.685c.672 6.804 3.55 14.991 7.783 21.074 0 0 1.548 1.794 4.645.35 0 0 1.27-.741-1.072-2.221l4.762-11.339s5.596-4.209 25.602-.468c0 0 4.246 10.093 5.913 12.198 0 0-2.224.253-1.151 1.597 0 0 2.381 1.462 4.485.177 0 0 4.843-8.476 6.35-18.375 0 0 1.984-6.158 1.349-36.79l-57.952-1.885.003-.003z" fill="#FBE9C9"/><path d="M82.85 101.317S63.453 90.181 58.564 89.532c0 0-1.365 1.096-2.595.54 0 0-2.493.167-2.46-2.326 0 0-1.394-1.695.832-3.235 0 0 10.722-8.745 30.98.158" fill="#FBE9C9"/><path d="M81.111.197C76.198-.837 71.38 2.318 70.348 7.245c-1.031 4.927 2.115 9.759 7.028 10.793l10.752-10.85C87.392 3.785 84.73.962 81.111.2V.197zm-2.806 13.488a5.271 5.271 0 01-4.064-6.241c.597-2.849 3.383-4.674 6.224-4.075a5.263 5.263 0 014.057 4.041l-6.217 6.273v.002zm65.033 5.553c1.568-4.771-1.02-9.915-5.778-11.487-4.76-1.572-9.887 1.023-11.455 5.794l9.54 11.898a9.081 9.081 0 007.693-6.208v.003zm-13.029-4.285a5.241 5.241 0 016.623-3.35 5.26 5.26 0 013.34 6.64 5.25 5.25 0 01-4.446 3.59l-5.517-6.878v-.002z" fill="#F4B54C"/><path d="M129.813 82.769s12.931 7.484 16.87 7.563c0 0 1.212-1.161 2.17-.777 0 0 2.054-.42 1.809 1.893 0 0 .993 1.42-.96 3.083 0 0-9.529 9.242-25.315 3.15" fill="#FBE9C9"/><path d="M68.107 76.992s3.828 15.78 28.3 22.796l5.49.07s16.954 1.536 29.893-16.981l-63.68-5.882-.003-.003z" fill="#13AC67"/><path d="M148.235 44.218c.48.22 4.55.16 5.003-.195-3.845-3.266-4.156-9.173-6.546-12.86-10.162-15.675-21.371-26.769-40.375-28.372-7.264-.613-14.7.347-21.528 2.925-4.963 1.873-9.7 5.272-13.8 8.611-4.305 3.508-5.71 5.24-8.88 9.822-4.012 5.796-8.312 7.77-8.312 7.77s5.204 2.447 7.425 1.618c-1.199.395-3.758 7.952-4.033 9.203-.7 3.197-1.08 6.459-1.25 9.727-.712 13.74 5.024 16.649 4.451 23.222 1.485.529 4.657-1.908 4.981-3.878-.692 4.213 1.982 8.62 3.908 10.922 7.07 8.444 21.434 12.072 26.485 13.425.831.223 1.797.52 2.54.086 6.673-3.902 35.158-4.87 42.139-17.858.795-1.48 1.8-3.505 1.779-4.11.07 1.965.739 4.556 1.62 4.666 1.399-4.622 4.386-5.577 6.008-13.599 1.385-6.849.137-13.422-1.611-21.123l-.004-.002z" fill="#F3B44C"/><path d="M79.353 14.675c3.177 0 5.753-2.583 5.753-5.77 0-3.186-2.576-5.769-5.753-5.769-3.178 0-5.753 2.583-5.753 5.77 0 3.186 2.575 5.769 5.753 5.769zm55.543 7.398c3.177 0 5.753-2.583 5.753-5.77 0-3.186-2.576-5.77-5.753-5.77-3.178 0-5.753 2.584-5.753 5.77 0 3.187 2.575 5.77 5.753 5.77zm-5.713 15.237c-3.14-11.13-14.942-17.27-23.536-19.861 0 0-8.796-3.016-8.229 1.418 0 0 1.985 5.275-6.152 2.067-10.353-4.084-21.68 14.324-21.715 26.57-.034 11.889 11.513 22.712 33.932 23.798 2.281.11 11.243-.269 15.421-2.067 17.413-7.502 12.892-22.66 10.279-31.923v-.003z" fill="#F9E7C7"/><path d="M94.949 51.99s-1.266 4.753 2.09 5.406c3.357.653 4.172-3.492 4.555-4.531.383-1.04-2.225-3.642-2.225-3.642l-4.42 2.768z" fill="#ED8280"/><path d="M117.007 44.602a.94.94 0 00-1.329-.093l-2.032 1.773a.948.948 0 00-.092 1.333.924.924 0 00.633.32.934.934 0 00.694-.227l2.032-1.774a.948.948 0 00.092-1.332h.002zm2.431 1.432a.943.943 0 00-1.33-.093l-2.029 1.774a.948.948 0 00-.093 1.332.94.94 0 001.33.093l2.029-1.773a.948.948 0 00.093-1.333zm-37.965-8.51a.94.94 0 00-1.33-.092l-2.031 1.773a.948.948 0 00-.092 1.333.924.924 0 00.633.32.932.932 0 00.694-.228l2.031-1.773a.948.948 0 00.093-1.333h.002zm2.43 1.435a.942.942 0 00-1.329-.093l-2.03 1.774a.948.948 0 00-.092 1.332.938.938 0 001.33.093l2.029-1.773a.948.948 0 00.092-1.333z" fill="#F0C9AE"/><path d="M110.382 34.96c.187-.725-.553-1.542-1.652-1.826-1.099-.284-2.14.074-2.327.799-.186.725.554 1.542 1.653 1.826 1.099.284 2.14-.074 2.326-.799zm-12.779-5.89c.215-.717-.492-1.564-1.579-1.89-1.087-.328-2.142-.012-2.356.705-.215.717.492 1.563 1.579 1.89 1.087.328 2.142.012 2.356-.705z" fill="#4B1E0E"/><path d="M101.387 62.28a.848.848 0 00-1.081.518c-.192.544-1.65.86-2.552.874-1.82-.016-3.143-.85-3.47-1.165a.854.854 0 00-.592-.497.843.843 0 00-1.011.641c-.045.201-.04.513.23.856.583.739 2.522 1.841 4.845 1.862.054 0 .176-.003.344-.014.917-.059 3.233-.37 3.803-1.99a.85.85 0 00-.516-1.084zm11.695-12.307c-.761-1.536-2.311-2.546-3.829-3.172-2.523-1.04-5.499-.969-7.952.235a3.134 3.134 0 00-1.534 1.634 5.1 5.1 0 00-.35-1.202c-1.238-2.948-4.329-4.861-7.345-5.523-2.284-.5-5.041-.773-7.227.27a1.245 1.245 0 00-.076.04c-1.825.903-3.136 3.067-2.363 5.093.536 1.407 1.987 2.478 3.221 3.25 2.857 1.788 6.706 3.299 10.117 2.587 1.106-.23 2.162-.75 2.962-1.55a4.03 4.03 0 00.831-1.192c.162 1.019.919 1.735 1.791 2.297 2.032 1.308 4.499 2.261 6.934 2.334 2.669.079 6.413-1.884 4.82-5.099v-.002z" fill="#F0C9AE"/><path d="M100.346 50.317c1.248-.05 3.147-.587 3.598-2.412.732-2.96-3.095-4.81-5.228-5.135-2.458-.373-5.143 1.398-5.324 3.739-.153 1.992 2.35 2.977 4.244 3.526 0 0 1.462.332 2.71.28v.002z" fill="#4B1E0E"/><path d="M96.354 98.062s-6.791-1.132-10.128 4.771c0 0-1.628 2.731-1.317 4.522 0 0 4.811 1.651 7.807-2.042 0 0 1.863-2.245 3.625-2.928l.013-4.323zm4.034 1.385s6.577-2.035 10.675 3.363c0 0 1.978 2.488 1.913 4.304 0 0-4.549 2.284-8.011-.972 0 0-2.147-1.974-3.985-2.412l-.592-4.283z" fill="#3BC763"/><path d="M92.985 38.642c.392-1.527-.55-3.091-2.106-3.493-1.556-.401-3.134.511-3.526 2.038-.392 1.527.55 3.091 2.106 3.493 1.555.401 3.134-.511 3.526-2.038z" fill="#4B1E0E"/><path d="M108.035 39.593s-2.034.16-2.246 1.701m.219 2.029s.527-1.873 2.962-1.988c0 0 2.183-.151 3.242 2.512 0 0-1.32-.935-2.938-.881 0 0-1.534-.027-3.266.357z" stroke="#4C1E0B" stroke-width="1.5" stroke-linecap="round" stroke-linejoin="round"/><path d="M58.52 69.09l-4.248-.973-1.257 5.514 4.247.974 1.258-5.514z" fill="#fff"/><path opacity=".1" d="M65.767 67.077c5.82-3.664 7.576-11.364 3.922-17.2-3.653-5.836-11.332-7.597-17.152-3.933-5.82 3.663-7.575 11.364-3.922 17.2 3.653 5.836 11.333 7.596 17.152 3.933z" fill="#AFE6FF"/><path d="M53.817 70.116a8.288 8.288 0 004.246.974l.455-2-4.248-.973-.456 2h.003z" fill="#C8E6EB"/><path d="M51.714 61.196c-2.58-4.12-1.34-9.56 2.77-12.149" stroke="#fff" stroke-width="6.18" stroke-miterlimit="10" stroke-linecap="round"/><path opacity=".1" d="M59.155 67.9c6.272 0 11.358-5.099 11.358-11.39 0-6.29-5.086-11.389-11.358-11.389-6.273 0-11.358 5.1-11.358 11.39 0 6.29 5.085 11.39 11.358 11.39z" stroke="#6C9BAA" stroke-width="5" stroke-miterlimit="10" stroke-linecap="round"/><path d="M56.11 69.864c-7.342-1.683-11.95-9.043-10.27-16.405 1.678-7.362 9.017-11.984 16.359-10.299 7.341 1.683 11.95 9.043 10.27 16.405-1.679 7.362-9.018 11.984-16.36 10.299zm5.546-24.323c-6.033-1.382-12.063 2.413-13.442 8.462-1.378 6.05 2.406 12.097 8.439 13.48 6.032 1.382 12.063-2.413 13.441-8.462 1.379-6.05-2.406-12.097-8.438-13.48z" fill="#87AFB9"/><path d="M56.505 67.444c-5.947-1.448-9.659-7.444-8.291-13.441 1.367-6 7.31-9.78 13.292-8.494l.543-2.38c-7.292-1.589-14.543 3.015-16.21 10.33-1.667 7.311 2.868 14.62 10.124 16.368l.542-2.381v-.002z" fill="#A5C8CD"/><path d="M54.657 93.607a3.865 3.865 0 01-4.663 3.086 3.876 3.876 0 01-2.864-4.811l5.087-18.434 5.846 1.34-3.409 18.82h.003z" fill="#373C41"/><path d="M51.102 77.478l6.215 1.425.374-2.062-6.03-1.382-.56 2.02z" fill="#55879B"/><path d="M54.656 93.608l3.408-18.82-2.124-.488-5.127 22.488a3.868 3.868 0 003.845-3.183l-.002.003z" fill="#000" opacity=".2"/><path d="M103.876 100.111a5.863 5.863 0 01-5.796 5.932c-3.235.034-5.882-2.568-5.916-5.812-.033-3.244 2.562-5.898 5.796-5.932 3.235-.034 5.882 2.568 5.916 5.812z" fill="#fff"/><path d="M98.018 98.811l-1.348 1.351 1.347 1.352 1.348-1.351-1.347-1.352z" fill="#AD833B"/><path d="M98.02 98.819l1.347 1.353h-.133l-1.215-1.218v-.135z" fill="#C1994D"/><path d="M98.017 98.954l-1.214 1.218h-.135l1.35-1.353v.135z" fill="#D8BF98"/><path d="M98.017 101.522l-1.349-1.35h.135l1.214 1.215v.135z" fill="#C1994D"/><path d="M98.02 101.387l1.214-1.215h.133l-1.348 1.35v-.135z" fill="#7D4B2D"/><path d="M94.614 100.097c0-2.062 1.69-3.734 3.771-3.734.935 0 1.791.337 2.451.897l.031-.032a4.154 4.154 0 00-2.903-1.17c-2.293 0-4.156 1.844-4.156 4.116 0 1.875 1.534 3.337 3.426 3.337 1.023 0 1.94-.391 2.568-1.094l-.02-.02c-.55.47-1.27.727-2.061.727-1.717 0-3.11-1.326-3.11-3.027h.003z" fill="url(#paint0_linear_4736_176117)"/><path d="M101.426 100.244c0 2.062-1.687 3.734-3.771 3.734-.935 0-1.79-.339-2.449-.897l-.031.032a4.17 4.17 0 002.904 1.17c2.295 0 4.153-1.844 4.153-4.116 0-1.875-1.534-3.339-3.426-3.339-1.023 0-1.94.391-2.568 1.094l.02.02c.548-.47 1.27-.727 2.062-.727 1.716 0 3.106 1.325 3.106 3.027v.002z" fill="url(#paint1_linear_4736_176117)"/><path d="M97.983 102.989c-1.548 0-2.859-1.258-2.859-2.81 0-2.264 1.647-3.57 3.61-3.57.776 0 1.493.251 2.078.674l.025-.025a3.786 3.786 0 00-2.45-.897c-2.082 0-3.772 1.672-3.772 3.734 0 1.701 1.392 3.027 3.109 3.027.79 0 1.511-.257 2.061-.727l-.036-.036a2.794 2.794 0 01-1.764.625l-.002.005z" fill="url(#paint2_linear_4736_176117)"/><path d="M98.389 96.363c-2.093 0-3.79 1.674-3.79 3.739 0 1.705 1.4 3.034 3.125 3.034.793 0 1.518-.258 2.07-.728l-.009-.009c-.545.45-1.252.696-2.03.696-1.714 0-3.104-1.312-3.104-3 0-2.042 1.688-3.698 3.767-3.698a3.79 3.79 0 012.417.863l.007-.007a3.816 3.816 0 00-2.453-.888v-.002z" fill="url(#paint3_linear_4736_176117)"/><path d="M98.057 97.352c1.55 0 2.859 1.258 2.859 2.808 0 2.264-1.647 3.569-3.611 3.569a3.527 3.527 0 01-2.08-.673l-.022.023c.658.56 1.514.897 2.451.897 2.082 0 3.771-1.672 3.771-3.735 0-1.7-1.39-3.026-3.106-3.026-.791 0-1.512.257-2.062.727l.034.036a2.783 2.783 0 011.766-.626z" fill="url(#paint4_linear_4736_176117)"/><path d="M97.651 103.978c2.093 0 3.789-1.674 3.789-3.738 0-1.706-1.399-3.032-3.124-3.032-.793 0-1.518.255-2.068.727l.009.012c.543-.452 1.252-.696 2.027-.696 1.715 0 3.105 1.312 3.105 3 0 2.042-1.688 3.698-3.767 3.698a3.8 3.8 0 01-2.417-.863l-.007.007a3.82 3.82 0 002.453.89v-.005z" fill="url(#paint5_linear_4736_176117)"/><path d="M143.131 58.817a2 2 0 012-2h32a2 2 0 012 2v24a2 2 0 01-2 2h-32a2 2 0 01-2-2v-24z" fill="#238C6C"/><path d="M139 60.825h36.376v18.458a2 2 0 01-2 2H141a2 2 0 01-2-2V60.825z" fill="#fff"/><path d="M139.001 63.095h36.376v16.188a2 2 0 01-2 2h-32.376a2 2 0 01-2-2V63.095z" fill="#D9D9D9"/><path d="M175.376 60.821H139v-4.82a2 2 0 012-2h32.376a2 2 0 012 2v4.82z" fill="#6AD265"/><circle cx="142.411" cy="57.411" r="1.137" fill="#fff"/><circle cx="145.82" cy="57.411" r="1.137" fill="#fff"/><circle cx="1.137" cy="1.137" r="1.137" transform="matrix(1 0 0 -1 148.095 58.548)" fill="#fff"/><ellipse cx="157.188" cy="71.052" rx="5.684" ry="4.547" fill="#fff"/><path d="M153.919 77.49a.2.2 0 01-.348-.135l.001-2.693c0-.11.09-.2.2-.2h2.447a.2.2 0 01.148.335l-2.448 2.692z" fill="#fff"/><path d="M156.996 68.227a.2.2 0 01.381 0l.53 1.633a.2.2 0 00.191.138h1.716a.2.2 0 01.118.362l-1.389 1.01a.202.202 0 00-.073.223l.531 1.633a.2.2 0 01-.308.223l-1.389-1.009a.2.2 0 00-.235 0l-1.389 1.01a.2.2 0 01-.308-.224l.531-1.633a.2.2 0 00-.073-.224l-1.389-1.009a.2.2 0 01.118-.362h1.717a.2.2 0 00.19-.138l.53-1.633z" fill="#948BF2"/></g><defs><linearGradient id="paint0_linear_4736_176117" x1="94.668" y1="102.661" x2="100.442" y2="96.77" gradientUnits="userSpaceOnUse"><stop stop-color="#AD833B"/><stop offset=".12" stop-color="#AE853E"/><stop offset=".22" stop-color="#B38B48"/><stop offset=".31" stop-color="#BA9659"/><stop offset=".4" stop-color="#C5A570"/><stop offset=".48" stop-color="#D3B98F"/><stop offset=".5" stop-color="#D8BF98"/><stop offset=".52" stop-color="#D3B98F"/><stop offset=".6" stop-color="#C5A570"/><stop offset=".69" stop-color="#BA9659"/><stop offset=".78" stop-color="#B38B48"/><stop offset=".88" stop-color="#AE853E"/><stop offset="1" stop-color="#AD833B"/></linearGradient><linearGradient id="paint1_linear_4736_176117" x1="101.302" y1="97.696" x2="95.661" y2="103.574" gradientUnits="userSpaceOnUse"><stop stop-color="#00553C"/><stop offset=".12" stop-color="#03573E"/><stop offset=".21" stop-color="#0D5D45"/><stop offset=".3" stop-color="#1E6950"/><stop offset=".38" stop-color="#357961"/><stop offset=".46" stop-color="#548D76"/><stop offset=".5" stop-color="#689B84"/><stop offset=".54" stop-color="#548D76"/><stop offset=".62" stop-color="#357961"/><stop offset=".7" stop-color="#1E6950"/><stop offset=".79" stop-color="#0D5D45"/><stop offset=".88" stop-color="#03573E"/><stop offset="1" stop-color="#00553C"/></linearGradient><linearGradient id="paint2_linear_4736_176117" x1="98.111" y1="96.675" x2="97.026" y2="101.849" gradientUnits="userSpaceOnUse"><stop stop-color="#7D4B2D"/><stop offset=".3" stop-color="#AD833B"/><stop offset="1" stop-color="#7D4B2D"/></linearGradient><linearGradient id="paint3_linear_4736_176117" x1="98.046" y1="96.763" x2="97.07" y2="101.937" gradientUnits="userSpaceOnUse"><stop stop-color="#C1994D"/><stop offset=".3" stop-color="#F1E5CD"/><stop offset="1" stop-color="#C1994D"/></linearGradient><linearGradient id="paint4_linear_4736_176117" x1="99.01" y1="98.509" x2="97.889" y2="103.665" gradientUnits="userSpaceOnUse"><stop stop-color="#00462F"/><stop offset=".7" stop-color="#00553C"/><stop offset="1" stop-color="#00462F"/></linearGradient><linearGradient id="paint5_linear_4736_176117" x1="97.956" y1="103.653" x2="99.004" y2="98.497" gradientUnits="userSpaceOnUse"><stop stop-color="#007156"/><stop offset=".3" stop-color="#E8F3F2"/><stop offset="1" stop-color="#007156"/></linearGradient><clipPath id="clip0_4736_176117"><path fill="#fff" d="M0 0h200v150H0z"/></clipPath></defs></svg>