<svg width="108" height="80" viewBox="0 0 108 80" fill="none" xmlns="http://www.w3.org/2000/svg"><g clip-path="url(#clip0_6898_49486)"><path d="M98.325 61.828s-2.505-4.57-7.78-5.623c-3.776-.928-6.058.23-7.436 1.937a6.297 6.297 0 00-1.378 3.365l-9.383-2.405c-3.04-4.304-7.68-7.158-12.938-7.464a6.28 6.28 0 00-.358-2.275c-1.216-3.485-5.075-5.291-8.625-4.287-6.476 1.827-18.771 5.113-21.14 4.43 0 0-.743-1.298-1.608-1.215 0 0-1.592-.88-1.89 1.156 0 0-1.122.96.12 2.878 0 0 4.633 8.23 15.775 9.153-.742 3.226-1.25 7.43-1.113 12.813 0 0 1.306 8.104.869 8.383-1.156.74-2.162.795-2.306.798-.057-.06 1.41 3.754 0 2.661-.897-.695-3.542-4.253-4.026-3.38-.596 1.08-.533 2.227-.183 3.38.463 1.524-5.613.548-3.79.966 3.612.826 4.266 1.834 4.266 1.834L45.726 87.1c-.044-.003-.094-.031-.133-.01-1.924.962-1.402 4.065-1.402 5.145 0 2.157 1.164 2.862 2.675 3.059 1.919.248 4.993.595 9.273.935 13.712 1.09 22.018-2.703 26.98-8.332.672 1.412 2.032 2.955 3.784 3.768 0 0-2.537-2.92.167-4.562 2.703-1.645 1.62-3.302 1.62-3.302a6.312 6.312 0 00-2.682.015c2.068-3.668 3.161-7.725 3.69-11.566 4.236-.916 8.292 1.654 8.627 2.95 0 0-.664 1.2-.21 1.802 0 0 .624 1.982 2.326 1.19 0 0 1.778.22 2.693-1.658 0 0 2-4.933-4.807-14.7l-.002-.005z" fill="#FAE8C8"/><path d="M93.8 54.176S83.435 72.51 55.463 68.12c0 0-8.69-4.78-10.463-19.321l48.8 5.376z" fill="#13AD67"/><path d="M41.977 61.066s-3.848 14.677.74 21.386" stroke="#F0C9AE" stroke-width="2.06" stroke-linecap="round" stroke-linejoin="round"/><path d="M63.451 1.159a6.162 6.162 0 00-7.193 10.004l9.631-3.759a6.164 6.164 0 00-2.438-6.245z" fill="#F5B64C"/><path d="M62.987 7.76a3.716 3.716 0 10-6.327-3.9 3.716 3.716 0 006.327 3.898z" fill="#FBE9C9"/><path d="M104.136 37.7c.306.202 3.119.611 3.47.423-2.283-2.632-1.832-6.653-3.065-9.406C99.304 17.01 92.826 8.28 79.908 5.091c-4.94-1.219-10.172-1.396-15.17-.414-3.634.715-7.281 2.483-10.483 4.282-3.363 1.89-4.527 2.904-7.229 5.643-3.417 3.467-6.605 4.323-6.605 4.323s3.311 2.227 4.937 1.915c-.872.135-3.486 4.95-3.816 5.764-.844 2.08-1.474 4.238-1.958 6.428-2.038 9.194 1.034 9.545-.101 13.917.964.522 3.751-.705 3.87-2.064-.545 6.183 13.042 11.56 15.322 17.683.59 1.585 1.767.4 4.459.766 10.666.533 25.377 2.771 31.65-5.218.713-.91 1.635-2.166 1.69-2.578-.173 1.336-.005 3.158.59 3.33 1.486-2.965 4.06-2.236 6.081-7.47 1.726-4.467 1.328-8.302.989-13.694l.002-.005z" fill="#F5B64C"/><path d="M103.66 15.35a6.859 6.859 0 00-5.863-7.727c-2.765-.38-5.528 1.199-6.914 3.425l5.051 10.168a6.86 6.86 0 007.728-5.863l-.002-.002z" fill="#F5B64C"/><path d="M98.403 18.335a4.28 4.28 0 10-2.486-8.191 4.28 4.28 0 002.486 8.19zm-6.536 7.937c-1.742-7.973-9.814-12.806-15.773-15 0 0-6.084-2.503-5.872.644 0 0 1.177 3.8-4.433 1.192-7.138-3.321-15.927 9.157-16.476 17.78-.534 8.372 7.157 16.49 22.945 18.22 1.608.176 7.951.294 10.981-.794 12.62-4.536 10.077-15.405 8.628-22.044v.002z" fill="#FBE9C9"/><path d="M66.325 29.485s-4.566 12.29.654 14.656c0 0 5.93 3.413 10.132-10.399l-4.575-5.374-6.211 1.117z" fill="#FB8886"/><path d="M63.537 32.429s.8 2.714 1.846 2.36c0 0 1.02-.486.816-2.738l-2.662.378zm7.855 1.267s-.517 2.782.575 2.944c0 0 1.131.029 1.969-2.072l-2.544-.872z" fill="#fff"/><path d="M59.867 27.07c.99-.798 2.35-.998 3.57-.95 2.026.082 4.016 1.054 5.301 2.626.38.464.551 1.018.532 1.576.169-.258.38-.493.606-.703 1.75-1.603 4.431-1.932 6.674-1.441 1.7.37 3.646 1.044 4.799 2.425.014.017.026.034.04.049.954 1.174 1.17 3.04.022 4.166-.799.782-2.108 1.054-3.181 1.19-2.484.319-5.552.143-7.639-1.395-.676-.498-1.23-1.177-1.52-1.964a3.034 3.034 0 01-.193-1.061c-.424.638-1.158.883-1.92.991-1.78.25-3.74.128-5.408-.577-1.83-.775-3.752-3.259-1.68-4.931h-.003z" fill="#F0C9AE"/><path d="M69.233 18.553c.08-.546-.527-1.088-1.357-1.21-.83-.123-1.567.22-1.648.766-.08.545.527 1.087 1.356 1.21.83.122 1.568-.22 1.649-.766zm10.202 2.321c-.082.547-.819.888-1.649.766-.83-.123-1.437-.665-1.357-1.211.082-.546.818-.888 1.648-.765.83.122 1.437.664 1.358 1.21zM68.656 31.48c-.857-.342-2.046-1.184-1.911-2.563.219-2.236 3.34-2.575 4.907-2.275 1.803.347 3.237 2.244 2.787 3.911-.385 1.422-2.37 1.488-3.824 1.4 0 0-1.1-.131-1.957-.473h-.002z" fill="#4C1E0B"/><path d="M83.744 28.012a.694.694 0 00-.939.296l-.92 1.764a.695.695 0 00.82.987.691.691 0 00.415-.345l.92-1.764a.695.695 0 00-.296-.938zm2.058.327a.694.694 0 00-.938.296l-.92 1.764a.695.695 0 00.819.987.691.691 0 00.416-.344l.92-1.765a.694.694 0 00-.297-.938zM56.903 23.25a.694.694 0 00-.939.295l-.916 1.767a.697.697 0 001.234.642l.917-1.766a.697.697 0 00-.296-.939zm2.057.322a.698.698 0 00-.939.296l-.917 1.766a.697.697 0 001.235.643l.917-1.767a.697.697 0 00-.296-.938z" fill="#FB8886"/><path d="M70.928 46.274a.628.628 0 00-.862.204c-.224.361-1.326.364-1.978.234-1.314-.296-2.137-1.1-2.325-1.38a.626.626 0 00-1.182-.144c-.062.137-.108.364.034.653.308.623 1.538 1.718 3.213 2.093.038.008.127.024.25.044.672.098 2.392.236 3.057-.843a.628.628 0 00-.205-.861h-.002z" fill="#F0C9AE"/><path d="M67.466 21.887s.828.7.736 2.081m8.013 1.522s.426-.996 1.776-1.312m-1.633 2.955s.63-1.222 2.279-1.034c0 0 1.485.137 1.802 2.072 0 0-.748-.785-1.838-.924 0 0-1.025-.186-2.243-.116v.002zm-13.3-3.176s.631-1.223 2.28-1.035c0 0 1.485.137 1.802 2.072 0 0-.748-.785-1.838-.924 0 0-1.026-.186-2.243-.116v.003z" stroke="#4C1E0B" stroke-width="1.6" stroke-linecap="round" stroke-linejoin="round"/><path d="M12.73 22.468a.82.82 0 001.026.247.82.82 0 00.364-1.098l-2.05-4.076a.82.82 0 00-1.098-.364.82.82 0 00-.364 1.098l2.05 4.076a.76.76 0 00.072.117zm-8.664 8.917a.822.822 0 00.15.011l4.37-.08a.818.818 0 10-.032-1.636l-4.37.08a.818.818 0 00-.119 1.627v-.002zm-.5-7.725l6.093 2.628a.817.817 0 10.649-1.502l-6.093-2.628a.817.817 0 10-.649 1.501z" fill="#FAEF60"/><path d="M11.385 31.647c-2.14 7.18-1.151 13.81 2.21 14.813.893.265 1.864.109 2.847-.402 2.236-1.16 4.541-4.14 6.163-8.093a28.727 28.727 0 001.628-5.463c.734-3.822.554-7.277-.419-9.52-.564-1.304-1.396-2.198-2.471-2.52-3.36-1.003-7.82 4.005-9.96 11.185h.002z" fill="#F1EFEA"/><path d="M13.49 32.277c-1.804 6.054-1.16 11.589 1.44 12.363.692.207 1.45.055 2.226-.39 1.765-1.014 3.62-3.552 4.96-6.895a26.909 26.909 0 001.374-4.608c.644-3.214.57-6.104-.146-7.966-.415-1.081-1.047-1.815-1.878-2.065-2.6-.775-6.172 3.504-7.975 9.556l-.001.005z" fill="#DAD8D7"/><path d="M23.934 32.414l-4.157-1.238-1.738-.518-1.627 5.464 1.735.517 4.158 1.239 1.63-5.464z" fill="#F1EFEA"/><path d="M18.283 33.705c.45-1.508.342-2.871-.241-3.045-.584-.174-1.42.907-1.87 2.416-.45 1.508-.342 2.872.241 3.045.583.174 1.42-.907 1.87-2.416z" fill="#EF584E"/><path d="M16.439 46.058c2.388-.925 8.946-3.178 13.868-2.187.29.058.581.12.872.19 1.21.284 2.417.643 3.583.978.042.01.08.023.119.033.805-.937 1.868-2.453 2.65-4.56l.034-.095c.917-2.521.543-5.009.159-6.462-1.44-.542-2.962-1.104-4.434-1.814-4.536-2.183-7.954-6.805-9.478-9.16.972 2.244 1.153 5.7.418 9.518a28.914 28.914 0 01-1.627 5.464c-.095.234-.195.465-.296.692-1.602 3.608-3.765 6.309-5.87 7.4l.002.003z" fill="#F1EFEA"/><path d="M16.44 46.059c2.387-.925 8.945-3.178 13.867-2.188.29.058.581.121.872.19 1.21.285 2.417.643 3.584.978.04.011.079.024.118.034.805-.937 1.869-2.453 2.65-4.56-4.122-1.918-9.353-3.165-15.224-1.857-1.601 3.607-3.765 6.308-5.87 7.4l.002.003z" fill="#DAD8D7"/><path d="M31.06 44.025l-2.738 9.18a1.983 1.983 0 003.8 1.134l2.762-9.262c-1.246-.361-2.533-.743-3.825-1.052z" fill="#EF584E"/><path d="M34.883 45.077l-.117.395a23.098 23.098 0 00-2.905 2.209c-.425.377-.74.863-.914 1.403-.528 1.636-1.208 3.827-1.286 4.526-.074.65.615 1.74 1.563 1.875-.456.266-1.02.35-1.567.188a1.98 1.98 0 01-1.333-2.468l.757-2.537.943-3.162 1.038-3.483c1.291.309 2.579.691 3.824 1.052l-.003.002z" fill="#D1392F"/><path d="M37.535 40.51c-.781 2.112-1.848 3.628-2.653 4.567 3.745 1.078 7.07 1.892 8.85-.75.315-.466.58-1.044.792-1.742 1.618-5.366-2.152-6.875-6.797-8.622.381 1.452.755 3.943-.16 6.462l-.032.088v-.003z" fill="#EF584E"/><path d="M34.883 45.075c3.746 1.077 7.071 1.892 8.85-.751a25.132 25.132 0 00-.566-.427c-1.91-1.418-3.842-2.562-5.63-3.387-.783 2.112-1.849 3.628-2.654 4.567v-.002z" fill="#D1392F"/><path d="M54.308 66.195s-5.014-1.84-8.41 2.164c0 0-1.633 1.842-1.657 3.248 0 0 3.432 1.951 6.248-.424 0 0 1.743-1.438 3.186-1.7l.634-3.285v-.003zm3.206 1.834s5.947-.67 8.571 4.592c0 0 1.29 2.438.938 3.974 0 0-4.25 1.209-6.683-2.123 0 0-1.513-2.028-3.014-2.7l.185-3.743h.003z" fill="#3BC763"/><path d="M60.383 69.159a5.089 5.089 0 11-10.02-1.792 5.089 5.089 0 1110.02 1.792z" fill="#fff"/><path d="M55.591 67.115l-1.37.933.932 1.37 1.37-.932-.932-1.37z" fill="#AD833B"/><path d="M55.593 67.113l.933 1.37-.116-.02-.84-1.234.023-.116z" fill="#C1994D"/><path d="M55.571 67.229l-1.233.84-.114-.024 1.37-.932-.023.116z" fill="#D8BF98"/><path d="M55.157 69.414l-.932-1.37.113.024.84 1.23-.02.116z" fill="#C1994D"/><path d="M55.176 69.298l1.234-.837.116.02-1.37.933.02-.116z" fill="#7D4B2D"/><path d="M52.477 67.65c.332-1.754 2.044-2.905 3.823-2.568a3.28 3.28 0 011.947 1.16l.032-.022a3.625 3.625 0 00-2.29-1.468c-1.96-.37-3.848.896-4.213 2.831-.304 1.599.773 3.09 2.387 3.397.874.165 1.72-.019 2.369-.514l-.013-.02c-.544.312-1.203.416-1.877.287-1.467-.278-2.44-1.632-2.165-3.082z" fill="url(#paint0_linear_6898_49486)"/><path d="M58.269 68.876c-.333 1.755-2.044 2.905-3.823 2.568a3.29 3.29 0 01-1.948-1.16l-.034.023a3.633 3.633 0 002.29 1.469c1.96.37 3.845-.896 4.213-2.832.303-1.599-.77-3.09-2.388-3.397-.873-.165-1.72.02-2.368.514l.016.022c.544-.311 1.2-.415 1.877-.286 1.466.278 2.44 1.632 2.165 3.082v-.003z" fill="url(#paint1_linear_6898_49486)"/><path d="M54.888 70.658c-1.32-.25-2.238-1.535-1.987-2.855.364-1.928 1.981-2.772 3.657-2.456a3.085 3.085 0 011.667.909l.025-.016a3.289 3.289 0 00-1.948-1.16c-1.776-.337-3.49.814-3.823 2.568-.274 1.45.701 2.804 2.165 3.082.674.13 1.333.025 1.877-.286l-.025-.036a2.437 2.437 0 01-1.608.248v.002z" fill="url(#paint2_linear_6898_49486)"/><path d="M56.302 65.082c-1.787-.338-3.507.813-3.838 2.57-.274 1.453.704 2.81 2.178 3.089.68.128 1.339.027 1.886-.285l-.007-.01c-.538.295-1.182.39-1.846.264-1.463-.278-2.438-1.621-2.167-3.058.33-1.738 2.037-2.875 3.814-2.538a3.29 3.29 0 011.925 1.128l.007-.006a3.304 3.304 0 00-1.952-1.154z" fill="url(#paint3_linear_6898_49486)"/><path d="M55.862 65.87c1.323.25 2.238 1.535 1.987 2.856-.366 1.927-1.983 2.772-3.657 2.453a3.07 3.07 0 01-1.667-.909l-.025.016a3.27 3.27 0 001.948 1.16c1.776.337 3.488-.813 3.822-2.571.275-1.45-.698-2.804-2.165-3.082-.674-.129-1.333-.025-1.877.286l.023.037a2.436 2.436 0 011.608-.248l.003.002z" fill="url(#paint4_linear_6898_49486)"/><path d="M54.444 71.445c1.787.338 3.507-.813 3.838-2.57.274-1.453-.704-2.81-2.178-3.088-.677-.13-1.339-.028-1.883.283l.006.01c.538-.297 1.183-.391 1.843-.266 1.464.278 2.438 1.622 2.167 3.058-.329 1.739-2.037 2.876-3.813 2.538a3.299 3.299 0 01-1.925-1.128l-.007.007a3.305 3.305 0 001.952 1.153v.003z" fill="url(#paint5_linear_6898_49486)"/></g><defs><linearGradient id="paint0_linear_6898_49486" x1="52.115" y1="69.84" x2="57.984" y2="65.742" gradientUnits="userSpaceOnUse"><stop stop-color="#AD833B"/><stop offset=".12" stop-color="#AE853E"/><stop offset=".22" stop-color="#B38B48"/><stop offset=".31" stop-color="#BA9659"/><stop offset=".4" stop-color="#C5A570"/><stop offset=".48" stop-color="#D3B98F"/><stop offset=".5" stop-color="#D8BF98"/><stop offset=".52" stop-color="#D3B98F"/><stop offset=".6" stop-color="#C5A570"/><stop offset=".69" stop-color="#BA9659"/><stop offset=".78" stop-color="#B38B48"/><stop offset=".88" stop-color="#AE853E"/><stop offset="1" stop-color="#AD833B"/></linearGradient><linearGradient id="paint1_linear_6898_49486" x1="58.579" y1="66.688" x2="52.828" y2="70.795" gradientUnits="userSpaceOnUse"><stop stop-color="#00553C"/><stop offset=".12" stop-color="#03573E"/><stop offset=".21" stop-color="#0D5D45"/><stop offset=".3" stop-color="#1E6950"/><stop offset=".38" stop-color="#357961"/><stop offset=".46" stop-color="#548D76"/><stop offset=".5" stop-color="#689B84"/><stop offset=".54" stop-color="#548D76"/><stop offset=".62" stop-color="#357961"/><stop offset=".7" stop-color="#1E6950"/><stop offset=".79" stop-color="#0D5D45"/><stop offset=".88" stop-color="#03573E"/><stop offset="1" stop-color="#00553C"/></linearGradient><linearGradient id="paint2_linear_6898_49486" x1="56.022" y1="65.301" x2="54.265" y2="69.532" gradientUnits="userSpaceOnUse"><stop stop-color="#7D4B2D"/><stop offset=".3" stop-color="#AD833B"/><stop offset="1" stop-color="#7D4B2D"/></linearGradient><linearGradient id="paint3_linear_6898_49486" x1="55.951" y1="65.365" x2="54.288" y2="69.616" gradientUnits="userSpaceOnUse"><stop stop-color="#C1994D"/><stop offset=".3" stop-color="#F1E5CD"/><stop offset="1" stop-color="#C1994D"/></linearGradient><linearGradient id="paint4_linear_6898_49486" x1="56.495" y1="67.008" x2="54.71" y2="71.217" gradientUnits="userSpaceOnUse"><stop stop-color="#00462F"/><stop offset=".7" stop-color="#00553C"/><stop offset="1" stop-color="#00462F"/></linearGradient><linearGradient id="paint5_linear_6898_49486" x1="54.76" y1="71.217" x2="56.483" y2="66.996" gradientUnits="userSpaceOnUse"><stop stop-color="#007156"/><stop offset=".3" stop-color="#E8F3F2"/><stop offset="1" stop-color="#007156"/></linearGradient><clipPath id="clip0_6898_49486"><path fill="#fff" d="M0 0h108v80H0z"/></clipPath></defs></svg>