<svg width="130" height="130" viewBox="0 0 130 130" fill="none" xmlns="http://www.w3.org/2000/svg"><g id="_圖層_1" clip-path="url(#clip0_4526_21559)"><ellipse id="Ellipse 237" cx="65" cy="127" rx="32" ry="3" fill="#F0D1B2"/><g id="Group"><g id="Group_2"><path id="Vector" d="M89.67 106.912s3.521-4.494 9.248-1.178c1.842 1.067 2.206-.798 2.538-1.439.332-.64 3.577 4.751-1.76 7.929-5.339 3.178-10.69-2.976-10.026-5.312z" fill="#F2B34C"/><path id="Vector_2" d="M95.551 104.561c-3.707-.419-5.88 2.355-5.88 2.355-.44 1.538 1.734 4.731 4.793 5.826 0 0-2.857-2.735-.257-4.664 2.601-1.928 1.344-3.517 1.344-3.517z" fill="#F8E6C6"/></g><path id="Vector_3" d="M33.89 74.906s-13.426-4.407-18.947-9.656a10.8 10.8 0 01-.59-1.7c-.122-.466-.22-.952-.236-1.434-.02-.514.154-1.063.031-1.573-.174-.708-.861-.751-1.312-.21-.332.4-.581.901-.672 1.415-.036.214-.11 1.407.146 1.49 0 0-1.553-.391-1.905 1.115 0 0-1.21.877-.027 2.016 0 0-.886.663.007 1.576 0 0-.596 1.38 2.704 2.222 0 0 .909 1.585 2.928 4.296 0 0 5.277 7.739 15.095 12.395l2.782-11.956-.004.004z" fill="#F8E5C3"/><path id="Vector_4" d="M38.511 71.479s-4.031 16.157 1.478 38.658c0 0 2.617 9.477 6.905 16.267 0 0 1.36 1.736 4.079.34 0 0 1.114-.715-.94-2.15l4.185-10.975s4.916-4.075 22.493-.455c0 0 3.73 9.766 5.197 11.806 0 0-1.953.245-1.012 1.545 0 0 2.091 1.415 3.94.17 0 0 4.253-8.201 5.581-17.782 0 0 1.743-5.96 1.186-35.602l-53.088-1.826-.004.004z" fill="#404040"/><g id="Clip path group"><mask id="mask0_4526_21559" style="mask-type:luminance" maskUnits="userSpaceOnUse" x="34" y="74" width="67" height="48"><g id="clippath"><path id="Vector_5" d="M100.105 74.305h-65.34v47.618h65.34V74.305z" fill="#fff"/></g></mask><g mask="url(#mask0_4526_21559)"><g id="Group_3"><path id="Vector_6" d="M51.98 122.128l2.06-5.158s5.015-3.968 22.943-.442c0 0 3.806 9.513 5.3 11.497 0 0-1.992.237-1.032 1.506 0 0 2.134 1.379 4.02.166 0 0 4.34-7.992 5.691-17.323 0 0 1.779-5.806 1.21-34.682L38.02 75.913s-4.11 15.738 1.51 37.662c0 0 1.107 3.834 3.067 8.332" fill="#2C3342"/></g></g></g><g id="Clip path group_2"><mask id="mask1_4526_21559" style="mask-type:luminance" maskUnits="userSpaceOnUse" x="7" y="-9" width="117" height="117"><g id="clippath-1"><path id="Vector_7" d="M123.6-8.667H7.74v115.859H123.6V-8.667z" fill="#fff"/></g></mask><g mask="url(#mask1_4526_21559)"><g id="Group_4"><g id="Group_5"><g id="Group_6"><path id="Vector_8" d="M37.818 73.626s-4.19 15.537 1.537 37.172c0 0 2.72 9.114 7.181 15.639 0 0 1.415 1.668 4.241.328 0 0 1.162-.687-.98-2.067l4.352-10.552s5.114-3.917 23.39-.435c0 0 3.881 9.391 5.403 11.351 0 0-2.032.237-1.052 1.486 0 0 2.174 1.36 4.099.162 0 0 4.423-7.889 5.802-17.098 0 0 1.814-5.731 1.233-34.231l-55.206-1.755z" fill="#F8E6C6"/><path id="Vector_9" d="M44.074 75.657s-10.632-2.735-23.714-7.596c-4.304 3.644-7.008 5.466-7.008 5.466S20.1 90.044 38.165 92.71c2.404-6.462 5.91-17.05 5.91-17.05v-.004z" fill="#2C3342"/></g><path id="Vector_10" d="M43.197 79.49l11.474.534 11.161 17.888v12.628h-28.2s-5.75-19.442-3-35.58c6.459 3.63 8.561 4.53 8.561 4.53h.004z" fill="#192030"/><path id="Vector_11" d="M85.862 79.48l-7.501-.38-12.92 19.41v12.035h27.37s3.821-20.2 1.15-35.58c-6.269 3.46-8.103 4.514-8.103 4.514h.004z" fill="#192030"/><path id="Vector_12" d="M73.867 85.814H57.192v24.446h16.675V85.814z" fill="#fff"/><path id="Vector_13" d="M48.932 87.57l17.026 10.762 16.17-11.833-15.719-3.063-17.477 4.134z" fill="#FFFFFA"/><g id="Clip path group_3"><mask id="mask2_4526_21559" style="mask-type:luminance" maskUnits="userSpaceOnUse" x="54" y="84" width="25" height="30"><g id="clippath-2"><path id="Vector_14" d="M78.677 84.81H54.769v28.386h23.908V84.811z" fill="#fff"/></g></mask><g mask="url(#mask2_4526_21559)"><g id="Group_7"><g id="Group_8"><path id="Vector_15" d="M68.267 92.308c-.107.205-.554.36-1.008.36H64.23c-.454 0-.905-.155-1.007-.36l-1.732-3.367c-.336-.657.123-1.27 1.08-1.27h6.35c.957 0 1.416.613 1.08 1.27l-1.731 3.367h-.004z" fill="#43C567"/><path id="Vector_16" d="M70.575 124.053l-4.803 8.043-4.928-7.312.628-8.664 1.731-23.884h5.063l1.79 24.703.519 7.114z" fill="#13AB67"/></g></g></g></g><g id="Group_9" fill="#D9DADA"><path id="Vector_17" d="M48.537 84.545l-.94 4.683 17.26-4.683h-16.32z"/><path id="Vector_18" d="M65.903 84.545l16.465 3.47-.936-4.683-15.53 1.213z"/></g></g></g></g></g><path id="Vector_19" d="M62.181 107.192l3.478 5.925 3.593-5.925h-7.07z" fill="#13AB67"/><path id="Vector_20" d="M13.662 75.751a.932.932 0 01-1.126-.68L2.627 35.22a.931.931 0 011.806-.447l9.909 39.852a.932.932 0 01-.68 1.126z" fill="#805751"/><path id="Vector_21" d="M8.563 66.23c0 2.19.945 3.964 2.107 3.964 1.162 0 2.107-1.775 2.107-3.964 0-2.19-.945-3.964-2.107-3.964-1.166 0-2.107 1.774-2.107 3.964z" fill="#F7E5C5" stroke="#E2AD89" stroke-width=".402" stroke-linecap="round" stroke-linejoin="round"/><g id="Group_10"><path id="Vector_22" d="M26.887 31.501c-.486.122-4.257-.644-4.617-1.051 4.142-2.356 5.454-7.779 8.32-10.778C42.755 6.917 55.099-1.41 73.038.416c6.858.7 13.6 2.885 19.497 6.462 4.289 2.6 8.099 6.576 11.328 10.387 3.391 4 4.395 5.853 6.545 10.647 2.719 6.071 6.375 8.652 6.375 8.652s-5.261 1.36-7.181.205c1.047.578 2.11 8.024 2.15 9.23.095 3.086-.119 6.173-.526 9.232-1.727 12.857-7.561 14.553-8.17 20.742-1.474.233-3.995-2.581-3.956-4.462-.087 4.027-3.34 7.644-5.53 9.438-8.034 6.593-26.547 8.407-31.476 8.778a5.302 5.302 0 01-2.375-.364C54.415 87.25 32.428 77.772 28.195 64.52c-.482-1.51-1.063-3.561-.94-4.118-.408 1.81-1.479 4.094-2.317 4.043-.498-4.526-3.107-5.933-3.221-13.648-.099-6.588 2.205-12.461 5.17-19.295z" fill="#F2B34C"/><path id="Vector_23" d="M42.727 16.98l10.439-9.96c-.692-3.26-3.312-6.343-6.779-7.086a8.715 8.715 0 00-10.35 6.695A8.715 8.715 0 0042.73 16.98h-.004zm-2.774-9.806a4.705 4.705 0 019.205.012l-5.593 5.577a4.705 4.705 0 01-3.612-5.589z" fill="#F2B34C"/><path id="Vector_24" d="M88.268 8.688l9.268 11.367c4.798-.521 8.26-4.837 7.739-9.635a8.742 8.742 0 00-9.636-7.74 8.742 8.742 0 00-7.371 6.008zm3.43.554a5.054 5.054 0 115.36 6.573l-5.36-6.573z" fill="#F2B34C"/><path id="Vector_25" d="M97.034 16.218a5.439 5.439 0 100-10.878 5.439 5.439 0 000 10.878z" fill="#F8E6C6"/><path id="Vector_26" d="M44.285 13.554a5.438 5.438 0 100-10.877 5.438 5.438 0 000 10.877z" fill="#F8E6C6"/><path id="Vector_27" d="M90.775 29.007c-4.707-9.81-16.663-13.596-25.066-14.612 0 0-8.66-1.379-7.419 2.64 0 0 2.692 4.57-5.383 2.906-10.276-2.115-17.845 16.77-15.912 28.125 1.878 11.023 14.351 19.192 35.358 16.584 2.138-.265 10.407-2.06 14-4.403 14.975-9.759 8.339-23.078 4.422-31.244v.004z" fill="#F8E6C6"/></g><g id="Group_11"><path id="Vector_28" d="M58.936 43.279s-2.348 9.264 2.798 10.201c0 0 5.664 1.628 6.367-8.292l-4.889-3.134-4.276 1.225z" fill="#EB8080"/><g id="Group_12"><g id="Group_13"><path id="Vector_29" d="M79.418 39.24a.826.826 0 011.118.351l1.103 2.115a.838.838 0 01-.348 1.126.797.797 0 01-.62.06.837.837 0 01-.499-.411l-1.102-2.115a.838.838 0 01.348-1.126z" fill="#F0C9AE"/><path id="Vector_30" d="M83.12 42.488a.84.84 0 00.625-.059.834.834 0 00.348-1.126l-1.103-2.115a.827.827 0 00-1.118-.352.835.835 0 00-.348 1.127l1.102 2.114a.824.824 0 00.498.411h-.004z" fill="#F0C9AE"/><path id="Vector_31" d="M49.707 33.722a.822.822 0 011.119.352l1.102 2.114a.838.838 0 01-.347 1.127.805.805 0 01-.625.059.837.837 0 01-.498-.411l-1.102-2.115a.838.838 0 01.347-1.126h.004z" fill="#F0C9AE"/><path id="Vector_32" d="M47.253 34.121a.826.826 0 011.119.352l1.102 2.115a.838.838 0 01-.347 1.126.796.796 0 01-.621.06.837.837 0 01-.498-.412l-1.103-2.114a.838.838 0 01.348-1.127z" fill="#F0C9AE"/><path id="Vector_33" d="M56.73 55.57c.174 1.51 2.103 2.233 2.878 2.467.142.043.245.067.292.079 2 .438 3.881-.13 4.53-.652.3-.242.363-.51.363-.692a.744.744 0 00-1.352-.439c-.344.21-1.644.668-3.21.32-.774-.19-1.963-.747-2.019-1.256a.749.749 0 00-.826-.66.749.749 0 00-.656.833z" fill="#F0C9AE"/><path id="Vector_34" d="M52.68 38.824c1.114-1.02 2.71-1.355 4.157-1.383 2.403-.047 4.826.968 6.458 2.747.483.526.724 1.17.74 1.838a4.38 4.38 0 01.672-.878c1.96-2.031 5.11-2.616 7.797-2.19 2.036.32 4.388.985 5.85 2.546.016.02.036.036.051.055 1.21 1.332 1.597 3.534.313 4.957-.89.988-2.423 1.403-3.684 1.644-2.917.553-6.56.561-9.134-1.119-.834-.545-1.537-1.312-1.937-2.229a3.526 3.526 0 01-.3-1.249c-.458.787-1.308 1.135-2.205 1.316-2.087.427-4.42.42-6.443-.304-2.217-.79-4.667-3.612-2.332-5.75h-.004z" fill="#F0C9AE"/><path id="Vector_35" d="M61.904 43.033c-1.008-.442-2.396-1.494-2.186-3.142.344-2.672 4.079-2.968 5.932-2.55 2.139.483 3.779 2.807 3.178 4.791-.51 1.692-2.881 1.7-4.612 1.541 0 0-1.308-.197-2.316-.64h.004z" fill="#4B1E0E"/></g><g id="Group_14" fill="#4A1D0E"><path id="Vector_36" d="M60.808 25.698c.152-.643-.52-1.353-1.502-1.585-.981-.232-1.9.102-2.052.746-.152.644.52 1.353 1.502 1.585.981.232 1.9-.102 2.052-.746z"/><path id="Vector_37" d="M75.978 27.551c.019-.66-.783-1.22-1.791-1.249-1.008-.028-1.84.484-1.86 1.146-.018.66.784 1.22 1.792 1.248 1.008.03 1.84-.484 1.859-1.145z"/><path id="Vector_38" d="M57.308 36.014a2.806 2.806 0 100-5.613 2.806 2.806 0 000 5.613z"/><path id="Vector_39" d="M73.109 38.315a2.806 2.806 0 100-5.613 2.806 2.806 0 000 5.613z"/></g><g id="Group_15" stroke="#2C3342" stroke-width="1.324" stroke-miterlimit="10"><path id="Vector_40" d="M72.896 43.22a6.328 6.328 0 100-12.655 6.328 6.328 0 000 12.655z"/><path id="Vector_41" d="M58.13 40.556a6.328 6.328 0 100-12.656 6.328 6.328 0 000 12.656z"/><path id="Vector_42" d="M66.592 36.315l-2.277-.206"/></g></g></g><g id="Microphone Icon"><g id="Group_16"><path id="Vector_43" d="M76.342 76.988l1.099 5.45 1.462 7.261c.19.949-.363 1.89-1.284 2.182l-1.285.41a1.897 1.897 0 01-2.312-1.035l-3.458-7.746-1.826-4.091 7.6-2.43h.004z" fill="#484C65"/><path id="Vector_44" d="M76.718 78.858l-7.198 2.304-.778-1.743 7.6-2.43.376 1.869z" fill="#292B38"/></g><g id="Group_17"><path id="Vector_45" d="M62.276 65.55l1.442 4.518a5.929 5.929 0 007.45 3.841 5.929 5.929 0 003.842-7.45l-1.443-4.517a5.929 5.929 0 00-7.45-3.842 5.932 5.932 0 00-3.842 7.45z" fill="#8DA2AD"/><path id="Vector_46" d="M66.244 60.049a.476.476 0 01.309-.597 4.534 4.534 0 014.905 1.494.48.48 0 01-.076.668.478.478 0 01-.668-.079 3.569 3.569 0 00-3.869-1.178.476.476 0 01-.597-.308h-.004z" fill="#DFE3EA"/><path id="Vector_47" d="M63.882 69.992L74.8 66.504a1.581 1.581 0 10-.962-3.012L62.92 66.98a1.58 1.58 0 10.962 3.012z" fill="#DFE3EA"/></g><g id="Group_18"><path id="Vector_48" d="M75.796 69.698l-10.843 3.465a1.423 1.423 0 00-.922 1.788l1.3 4.066a1.423 1.423 0 001.788.922l10.843-3.464a1.423 1.423 0 00.922-1.789l-1.3-4.066a1.423 1.423 0 00-1.788-.922z" fill="#484C65"/><path id="Vector_49" d="M71.46 76.474a1.66 1.66 0 100-3.32 1.66 1.66 0 000 3.32z" fill="#EB8080"/></g></g><path id="Vector_50" d="M86.745 89.648c-4.775-4.81-9.818-6.715-9.818-6.715-2.822-3.202-4.873 1.925-4.02 3.055.854 1.13 2.159.763 2.159.763 3.272 4.387 3.77 7.245 11.28 11.592 5.141 2.976 11.367 7.075 16.022-6.81l-9.956-8.146-5.671 6.261h.004z" fill="#FBE9C9"/><path id="Vector_51" d="M94.65 80.162s-2.767 6.324-10.672 6.324C82.085 91.493 78.84 93.6 78.84 93.6s14.624 17.391 22.924 2.767c4.348-8.3-7.114-16.205-7.114-16.205z" fill="#2C3342"/></g></g><defs><clipPath id="clip0_4526_21559"><path fill="#fff" d="M0 0h130v130H0z"/></clipPath></defs></svg>