<svg width="122" height="134" viewBox="0 0 122 134" fill="none" xmlns="http://www.w3.org/2000/svg"><g clip-path="url(#clip0_3225_91510)"><path d="M116.537 134.941c-.47-1.079-2.628-1.079-2.628-1.079-2.456-2.337-6.475-19.053-8.47-27.924-.566-2.515-1.557-8.931-3.682-10.257-.143-.848-1.012-1.518-1.012-1.518l-2.531 2.025c-1.76-.815-1.925 2.093-4.02 2.455-3.137.54-6.236 2.491-7.99 7.387l-17.28-4.453c-5.079-6.423-12.532-10.48-20.843-10.48h-.09a14.54 14.54 0 00-.931-.222C35.229 88.48 12.904 83.68 9.614 80.92c0 0-.196-2.386-1.66-2.93 0 0-1.889-2.448-3.932.169 0 0-3.481.982-2.954 4.616 0 0 2.398 15.42 22.54 24.575-1.74 4.019-3.251 9.719-3.251 14.48 0 1.903.163 3.768.465 5.575-1.813 1.161.667 4.722.442 4.726-1.005 2.968 4.761 6.798 2.53 5.063-1.414-1.099-10.885 1.65-11.643 3.037-.94 1.711-4.095 4.926-3.544 6.752.73 2.414 4.722 4.738 7.594 5.398 3.837.882 4.632-2.256 7.088-2.531 1.832 2.848 6.285-4.876 8.87-2.867l.173.275c-.072-.005-.14-.029-.211-.015-3.237.584-2.278 7.069-2.278 8.775 0 3.417 1.9 3.894 4.283 4.202 3.02.39 7.865.945 14.603 1.484 19.308 1.542 31.81-3.089 39.834-10.456 1.237 2.269 3.995 4.789 7.299 5.744 0 0-4.661-3.937-.858-7.175 3.803-3.239 1.712-5.561 1.712-5.561-.85-.039-1.64.024-2.37.164 1.876-2.853 3.758-3.359 4.88-6.472 7.012 4.361 13.34 1.793 13.34 1.793 3.28.178 3.76-1.793 3.76-1.793 2.402-1.72.211-3.007.211-3.007z" fill="#FAE8C8"/><path d="M100.367 95.2c-9.763 20.445-45.939 24.769-45.939 24.769s-18.105-3.314-28.504-31.631c0 0 74.669 6.385 74.443 6.861z" fill="#13AD67"/><path d="M52.482.986C47.3-1.444 41.113.771 38.674 5.934c-2.44 5.162-.216 11.322 4.968 13.752l14.796-9.145A10.332 10.332 0 0052.482.986zM45.82 15.13c-2.997-1.404-4.284-4.967-2.87-7.951a6.01 6.01 0 017.983-2.859 5.977 5.977 0 013.447 5.526l-8.555 5.288-.005-.004z" fill="#F4B54C"/><path d="M53.93 11.502c-1.105 3.376-4.753 5.223-8.143 4.122-3.39-1.1-5.245-4.733-4.14-8.11 1.106-3.376 4.753-5.222 8.144-4.122 3.39 1.1 5.244 4.734 4.139 8.11z" fill="#F6E3C4"/><path d="M115.986 64.949c.457.371 4.854 1.45 5.44 1.2-3.219-4.572-1.891-10.977-3.428-15.591-6.528-19.614-15.472-34.631-35.48-41.688-7.646-2.696-15.924-3.76-24.004-2.925-5.872.607-11.929 2.91-17.281 5.328-5.62 2.54-7.625 4-12.324 8.004-5.95 5.07-11.136 5.972-11.136 5.972s4.91 4.075 7.539 3.817c-1.403.086-6.284 7.446-6.932 8.706-1.653 3.224-2.982 6.601-4.087 10.048-4.633 14.49.723 19.212-1.744 26.078 1.452.983 5.554-.733 6.456-2.745-1.931 4.31-.294 9.775 1.134 12.775 5.232 11.018 24.021 22.214 29.079 25.081a6.276 6.276 0 002.71.806c6.71.418 34.877 1.393 46.048-10.53 1.273-1.355 2.924-3.239 3.074-3.895-.48 2.12-.489 5.078.432 5.443 2.808-4.548 6.292-4.731 10.298-12.852 3.418-6.934 3.925-14.313 4.211-23.04l-.005.008z" fill="#F4B54C"/><path d="M101.6 45.771c-3.044-13.155-16.328-20.929-26.096-24.394 0 0-9.978-3.973-9.557 1.24 0 0 2.014 6.264-7.197 2.1-11.72-5.298-25.725 15.621-26.4 29.92-.655 13.882 12.095 27.107 37.872 29.518 2.623.247 12.97.261 17.878-1.627 20.453-7.872 16.028-25.803 13.495-36.757h.005z" fill="#F6E3C4"/><path d="M116.604 21.658c.684-5.652-3.362-10.786-9.037-11.467-4.181-.504-8.311 1.94-10.348 5.316l7.871 15.156c5.675.68 10.831-3.348 11.514-9v-.005zm-10.826 3.964l-4.125-8.39a5.603 5.603 0 015.465-2.662c3.062.368 5.249 3.138 4.879 6.193-.37 3.054-3.152 5.227-6.219 4.859z" fill="#F4B54C"/><path d="M107.591 26.519c3.537-.451 6.038-3.672 5.585-7.195-.452-3.523-3.687-6.014-7.224-5.563-3.538.45-6.038 3.672-5.586 7.195.453 3.523 3.687 6.013 7.225 5.563z" fill="#F6E3C4"/><path d="M23.546 106.816s-7.461 21.384.971 31.744m72.406-29.209s5.642 23.19-.734 34.425" stroke="#F0C9AE" stroke-width="2.06" stroke-linecap="round" stroke-linejoin="round"/><path d="M69.445 54.358s-1.039 13.058-4.801 13.077c0 0-4.308.832-1.97-12.707l4.21-3.05 2.556 2.68h.005z" fill="#ED8280"/><path d="M88.032 49.163a1.133 1.133 0 00-1.661-.183l-2.367 2.073c-.454.4-.584 1.097-.217 1.578a1.137 1.137 0 001.652.163l2.371-2.077c.45-.395.58-1.078.227-1.559l-.005.005zm2.931 1.699a1.137 1.137 0 00-1.662-.183l-2.37 2.078c-.455.399-.585 1.096-.218 1.577a1.137 1.137 0 001.652.164l2.37-2.078c.45-.394.58-1.077.228-1.558zm-46.15-9.769a1.133 1.133 0 00-1.662-.183l-2.366 2.073c-.459.4-.584 1.097-.217 1.577a1.137 1.137 0 001.651.164l2.372-2.078c.449-.394.58-1.077.227-1.558l-.005.005zm2.931 1.697a1.137 1.137 0 00-1.661-.182l-2.372 2.077c-.454.4-.584 1.097-.217 1.573a1.137 1.137 0 001.652.164l2.371-2.078c.45-.395.58-1.078.227-1.559v.005zm35.541 12.727c-.922-1.828-2.791-3.02-4.617-3.761-3.032-1.227-6.611-1.12-9.552.327a3.73 3.73 0 00-1.811 1.91.015.015 0 01-.03 0 6.02 6.02 0 00-.415-1.386c-1.506-3.511-5.23-5.776-8.857-6.546-2.748-.582-6.06-.89-8.678.366l-.092.043c-2.188 1.087-3.748 3.68-2.81 6.089.651 1.678 2.4 2.944 3.887 3.857 3.443 2.117 8.075 3.896 12.165 3.026 1.328-.28 2.594-.91 3.55-1.867.4-.404.739-.87.97-1.385.005-.014.025-.01.03 0 .217 1.188 1.12 2.025 2.158 2.684 2.449 1.549 5.42 2.67 8.34 2.746 3.208.082 7.694-2.284 5.762-6.108v.005z" fill="#F0C9AE"/><path d="M67.99 55.998c1.497-.067 3.777-.716 4.308-2.9.86-3.535-3.748-5.719-6.308-6.094-2.955-.433-6.167 1.698-6.37 4.492-.173 2.377 2.84 3.536 5.12 4.185.005 0 1.763.385 3.255.317h-.005zm11.64-18.025c.315-.836-.466-1.899-1.743-2.374-1.276-.475-2.566-.182-2.88.654-.313.836.467 1.899 1.744 2.374 1.277.475 2.566.182 2.88-.654zm-16.225-4.357c.123-.884-.872-1.752-2.222-1.938-1.35-.187-2.544.38-2.667 1.263-.123.884.871 1.752 2.221 1.938 1.35.187 2.545-.379 2.668-1.263z" fill="#4A1D0E"/><path d="M68.38 69.792c-.483-.091-.928.226-1.145.664-.304.615-2.019.918-3.081.9-2.183-.097-3.733-1.136-4.115-1.53a1.003 1.003 0 00-.69-.611 1.01 1.01 0 00-1.242.726c-.062.236-.072.61.242 1.03.671.903 2.956 2.298 5.742 2.419h.415c1.102-.034 3.898-.313 4.646-2.218a1.01 1.01 0 00-.763-1.366l-.01-.014z" fill="#F0C9AE"/><path d="M81.094 46.411l-5.524-2.564a.856.856 0 00-1.136.412l-.825 1.761a.85.85 0 00.414 1.131l5.524 2.565a.856.856 0 001.136-.412l.825-1.762a.85.85 0 00-.414-1.13zm-21.61-6.044l-6.09-.231a.853.853 0 00-.887.818l-.075 1.942c-.018.47.35.865.822.883l6.09.23a.853.853 0 00.887-.817l.074-1.942a.853.853 0 00-.821-.883z" fill="#4B1E0E"/><path d="M51.343 108.917s-9.757-1.412-14.389 7.089c0 0-2.259 3.937-1.773 6.479 0 0 6.937 2.211 11.135-3.135 0 0 2.609-3.253 5.119-4.273l-.09-6.156-.002-.004zm6.49 2.078s10.498-3.462 17.223 5.018c0 0 3.247 3.9 3.19 6.799 0 0-7.23 3.791-12.88-1.285 0 0-3.499-3.079-6.464-3.718l-1.074-6.812.005-.002z" fill="#3BC763"/><path d="M62.174 111.984c.13 4.472-3.406 8.207-7.893 8.346-4.489.136-8.226-3.375-8.355-7.847-.128-4.472 3.407-8.207 7.894-8.346 4.487-.14 8.226 3.375 8.354 7.847z" fill="#fff"/><path d="M54.015 110.372l-1.84 1.902 1.905 1.829 1.839-1.902-1.904-1.829z" fill="#AD833B"/><path d="M54.014 110.365l1.905 1.831-.184.001-1.715-1.645-.006-.187z" fill="#C1994D"/><path d="M54.02 110.552l-1.655 1.713-.187.006 1.836-1.906.006.187z" fill="#D8BF98"/><path d="M54.082 114.094l-1.902-1.823.187-.006 1.713 1.641.002.188z" fill="#C1994D"/><path d="M54.078 113.906l1.656-1.709.185-.001-1.839 1.898-.002-.188z" fill="#7D4B2D"/><path d="M49.324 112.226c-.052-2.842 2.25-5.196 5.14-5.255a5.233 5.233 0 013.422 1.166l.042-.045a5.785 5.785 0 00-4.058-1.534c-3.184.066-5.723 2.658-5.664 5.793.045 2.589 2.214 4.559 4.838 4.507 1.42-.029 2.683-.595 3.536-1.578l-.027-.026c-.75.663-1.746 1.041-2.842 1.061-2.383.049-4.344-1.74-4.387-4.089z" fill="url(#paint0_linear_3225_91510)"/><path d="M58.778 112.236c.052 2.842-2.25 5.196-5.14 5.255a5.245 5.245 0 01-3.423-1.166l-.046.046a5.797 5.797 0 004.059 1.535c3.184-.066 5.719-2.658 5.664-5.793-.045-2.59-2.21-4.561-4.838-4.508-1.42.03-2.683.595-3.536 1.579l.032.028c.75-.663 1.742-1.039 2.842-1.061 2.383-.049 4.345 1.74 4.388 4.089l-.002-.004z" fill="url(#paint1_linear_3225_91510)"/><path d="M54.068 116.119c-2.146.044-3.998-1.656-4.036-3.795-.059-3.122 2.195-4.967 4.919-5.027a4.93 4.93 0 012.901.869l.033-.033a5.245 5.245 0 00-3.422-1.166c-2.887.057-5.193 2.413-5.14 5.255.042 2.348 2.008 4.137 4.387 4.089 1.096-.02 2.092-.398 2.842-1.061l-.052-.049a3.91 3.91 0 01-2.433.914l.001.004z" fill="url(#paint2_linear_3225_91510)"/><path d="M54.468 106.969c-2.905.059-5.218 2.417-5.165 5.264.044 2.352 2.015 4.143 4.411 4.094 1.104-.023 2.102-.397 2.855-1.062l-.013-.013c-.746.636-1.722.994-2.8 1.017-2.379.047-4.339-1.725-4.383-4.051-.052-2.816 2.248-5.148 5.136-5.206a5.257 5.257 0 013.377 1.125l.009-.012a5.282 5.282 0 00-3.428-1.156z" fill="url(#paint3_linear_3225_91510)"/><path d="M54.034 108.342c2.15-.045 3.999 1.656 4.037 3.795.054 3.123-2.2 4.969-4.92 5.023a4.905 4.905 0 01-2.902-.869l-.033.033a5.225 5.225 0 003.422 1.167c2.887-.058 5.189-2.412 5.14-5.26-.043-2.348-2.005-4.138-4.388-4.089-1.096.021-2.092.398-2.842 1.062l.048.049a3.91 3.91 0 012.433-.914l.005.003z" fill="url(#paint4_linear_3225_91510)"/><path d="M53.633 117.493c2.905-.06 5.218-2.418 5.165-5.264-.044-2.352-2.015-4.143-4.411-4.094-1.1.022-2.102.397-2.852 1.06l.014.013c.744-.639 1.721-.997 2.794-1.019 2.38-.048 4.34 1.725 4.384 4.051.052 2.816-2.249 5.148-5.136 5.206a5.271 5.271 0 01-3.377-1.125l-.009.012a5.282 5.282 0 003.427 1.156l.002.004z" fill="url(#paint5_linear_3225_91510)"/><path d="M10.413 80.642c-1.338.967-2.859 1.164-3.39.433-.531-.73.12-2.106 1.463-3.078s2.763-1.222 3.226-.447c.55.923.044 2.126-1.294 3.092h-.005z" fill="#FAE8C8"/><path d="M8.235 76.996c.073 2.463-.801 4.488-1.95 4.522-1.15.033-2.15-1.934-2.222-4.397-.073-2.462.135-4.708 2.139-4.732 1.005-.01 1.96 2.145 2.038 4.607h-.005z" fill="#FAE8C8"/></g><defs><linearGradient id="paint0_linear_3225_91510" x1="49.459" y1="115.764" x2="57.273" y2="107.424" gradientUnits="userSpaceOnUse"><stop stop-color="#AD833B"/><stop offset=".12" stop-color="#AE853E"/><stop offset=".22" stop-color="#B38B48"/><stop offset=".31" stop-color="#BA9659"/><stop offset=".4" stop-color="#C5A570"/><stop offset=".48" stop-color="#D3B98F"/><stop offset=".5" stop-color="#D8BF98"/><stop offset=".52" stop-color="#D3B98F"/><stop offset=".6" stop-color="#C5A570"/><stop offset=".69" stop-color="#BA9659"/><stop offset=".78" stop-color="#B38B48"/><stop offset=".88" stop-color="#AE853E"/><stop offset="1" stop-color="#AD833B"/></linearGradient><linearGradient id="paint1_linear_3225_91510" x1="58.539" y1="108.728" x2="50.912" y2="117.04" gradientUnits="userSpaceOnUse"><stop stop-color="#00553C"/><stop offset=".12" stop-color="#03573E"/><stop offset=".21" stop-color="#0D5D45"/><stop offset=".3" stop-color="#1E6950"/><stop offset=".38" stop-color="#357961"/><stop offset=".46" stop-color="#548D76"/><stop offset=".5" stop-color="#689B84"/><stop offset=".54" stop-color="#548D76"/><stop offset=".62" stop-color="#357961"/><stop offset=".7" stop-color="#1E6950"/><stop offset=".79" stop-color="#0D5D45"/><stop offset=".88" stop-color="#03573E"/><stop offset="1" stop-color="#00553C"/></linearGradient><linearGradient id="paint2_linear_3225_91510" x1="54.09" y1="107.408" x2="52.745" y2="114.583" gradientUnits="userSpaceOnUse"><stop stop-color="#7D4B2D"/><stop offset=".3" stop-color="#AD833B"/><stop offset="1" stop-color="#7D4B2D"/></linearGradient><linearGradient id="paint3_linear_3225_91510" x1="53.999" y1="107.534" x2="52.808" y2="114.701" gradientUnits="userSpaceOnUse"><stop stop-color="#C1994D"/><stop offset=".3" stop-color="#F1E5CD"/><stop offset="1" stop-color="#C1994D"/></linearGradient><linearGradient id="paint4_linear_3225_91510" x1="55.383" y1="109.912" x2="53.988" y2="117.063" gradientUnits="userSpaceOnUse"><stop stop-color="#00462F"/><stop offset=".7" stop-color="#00553C"/><stop offset="1" stop-color="#00462F"/></linearGradient><linearGradient id="paint5_linear_3225_91510" x1="54.045" y1="117.04" x2="55.337" y2="109.892" gradientUnits="userSpaceOnUse"><stop stop-color="#007156"/><stop offset=".3" stop-color="#E8F3F2"/><stop offset="1" stop-color="#007156"/></linearGradient><clipPath id="clip0_3225_91510"><path fill="#fff" d="M0 0h122v162H0z"/></clipPath></defs></svg>