<svg width="300" height="148" viewBox="0 0 300 148" fill="none" xmlns="http://www.w3.org/2000/svg"><g clip-path="url(#clip0_4880_188657)"><path d="M150 147c70.14 0 127-8.583 127-19.17 0-10.587-56.86-19.17-127-19.17s-127 8.583-127 19.17C23 138.417 79.86 147 150 147z" fill="#7DD3A4"/><path d="M249.857 77.684l6.458 6.458-42.215 42.215h11.022l36.704-36.704 6.674 6.667L271.184 75l-21.327 2.684z" fill="#FFC53B" stroke="#FFC53B" stroke-width="5"/><path d="M264.577 20l-2.684 21.32-6.32-6.32-62.463 62.458h-64.267l-27.832 27.826H90l35.614-35.614h64.273l60.175-60.18-6.805-6.806L264.577 20z" fill="#FFA031" stroke="#FFA031" stroke-width="5"/><g filter="url(#filter0_d_4880_188657)"><path fill-rule="evenodd" clip-rule="evenodd" d="M12 8C5.373 8 0 13.373 0 20v13c0 6.627 5.373 12 12 12h90c0 11 11.5 16 20 14-10.17-3.236-10.083-8.61-10.011-12.958.005-.355.011-.703.011-1.042h16c6.627 0 12-5.373 12-12V20c0-6.627-5.373-12-12-12H12z" fill="#A4844E"/></g><path d="M38.398 27.803a44.758 44.758 0 01-.351 4.687c-.189 1.498-.371 2.357-.547 2.578-.176.228-.361.41-.557.547-.188.143-.68.228-1.474.254-.794.033-1.498.056-2.11.069l-.595-1.7 2.656.059c.26 0 .45-.075.566-.225.124-.156.251-.82.381-1.992.13-1.172.196-2.057.196-2.656H23.017V18.818h15.341v1.602h-6.543v1.435h5.762v1.485h-5.762v1.504h5.762v1.513h-5.762v1.446h6.582zm-8.34-5.948V20.42h-5.283v1.435h5.284zm0 2.989V23.34h-5.283v1.504h5.284zm0 2.959v-1.446h-5.283v1.446h5.284zm5.245 5.341l-1.485.538c-.358-1.329-.79-2.455-1.298-3.38l1.62-.42c.541 1.153.928 2.24 1.163 3.262zM25.156 30.42c-.69 2.155-1.517 3.887-2.48 5.195l-1.533-.996c.937-1.172 1.722-2.75 2.353-4.736l1.66.537zm7.002 3.877l-1.562.527a21.741 21.741 0 00-1.28-4.365l1.582-.361a20.673 20.673 0 011.26 4.199zm-3.799.723l-1.66.302c-.02-1.523-.247-3.112-.683-4.765l1.66-.215c.39 1.465.618 3.024.683 4.678zm30.381.498H41.3V33.72h7.178V18.535h1.865v6.006h7.539v1.758h-7.54v7.422h8.4v1.797zm9.004-13.516H61.28V20.4h2.442c-.104-.325-.326-.82-.664-1.484l1.806-.42c.306.586.58 1.22.82 1.904h2.061v1.602zm11.24 10.039c-.117 1.211-.348 2.194-.693 2.95-.338.754-.8 1.132-1.387 1.132-1.087 0-1.849-1.097-2.285-3.291-.436-2.194-.69-5.283-.762-9.268h-5.654v-1.66h5.576l-.02-3.34h1.7c0 1.589.02 2.702.059 3.34H78.7v1.66h-3.144c.143 3.855.361 6.589.654 8.204.3 1.614.52 2.422.664 2.422.052 0 .143-.212.273-.635.13-.43.241-1.182.333-2.256l1.503.742zm-.449-11.396l-1.23.859c-.358-.56-.873-1.201-1.543-1.924l1.22-.82a11 11 0 011.553 1.884zM67.383 25.02h-5.645v-1.582h5.645v1.582zm6.435 7.88c-2.03.938-3.916 1.664-5.654 2.178l-.244-1.7a13.56 13.56 0 001.943-.614v-5.606h-1.767v-1.601h5.068v1.601h-1.582V32.1a34.946 34.946 0 002.1-.938l.136 1.738zm-6.435-5.039h-5.645V26.28h5.645v1.582zm.039 7.862h-1.778v-.948h-1.982v1.328h-1.806V29.22h5.566v6.504zm-1.778-2.52V30.84h-1.982v2.363h1.982zm24.239-12.1h-5.186c-.898 1.03-1.712 1.781-2.441 2.256l-1.074-1.357c1.276-.886 2.409-2.093 3.398-3.623l1.738.4c-.28.443-.452.723-.517.84h4.082v1.485zm8.857 0h-6.22c-.43.58-.87 1.084-1.319 1.514l-1.68-.762c.918-.761 1.784-1.907 2.598-3.437l1.758.342-.459.86h5.322v1.483zm-2.617 1.377l-1.807.342c-.104-.234-.341-.621-.713-1.162l1.837-.303c.332.443.56.817.683 1.123zm-8.223.06l-1.757.321-.782-1.2 1.817-.304c.163.202.403.596.722 1.182zm9.024 7.724H83.223v-7.168h13.7v7.168zm-1.768-5.127v-.713H84.981v.713h10.175zm0 1.924v-.762H84.981v.762h10.175zm0 1.943v-.82H84.981v.82h10.175zm3.662 4.219h-4.58v2.793h-1.797v-2.793h-4.463a3.291 3.291 0 01-1.24 1.738c-.605.443-1.719.85-3.34 1.22l-1.142-1.503c2.116-.365 3.369-.85 3.76-1.455h-4.62v-1.485h4.961v-.976h1.787v.976h4.297v-.976h1.797v.976h4.58v1.485zm12.325-13.34l-.264 10.713h-1.817l-.263-10.713h2.344zM110 32.539c.384 0 .716.133.996.4.28.26.42.58.42.958 0 .37-.137.69-.41.956-.274.26-.609.391-1.006.391a1.44 1.44 0 01-1.016-.38 1.298 1.298 0 01-.4-.967c0-.385.137-.707.41-.967.28-.26.615-.39 1.006-.39z" fill="#fff"/><path d="M94.767 67.29l5.521 5.512L48 125h9.419L105 77.506l5.705 5.69L113 65l-18.233 2.29z" fill="#FFC53B" stroke="#FFC53B" stroke-width="5"/><g clip-path="url(#clip1_4880_188657)"><path d="M248.786 89.94s-6.182 12.816-16.771 16.556c-10.59 3.74-16.536 6.079-28.225 15.896-11.689 9.818-11.232 16.014-11.232 16.014s-3.737-12.976-15.629-14.145c-11.893-1.17-16.184-17.208-17.73-23.216l43.157-12.552s37.702 6.863 46.432 1.445l-.002.002z" fill="#3BC663"/><path d="M224.028 117.7c1.683-.749 5.297-3.064 5.297-3.064s2.529 3.038 4.634 2.103c1.93-.858 1.186-3.853.303-6.226-.926-2.489-1.917-3.288-3.34-3.285-1.807 0-4.189 1.455-8.463.411-13.32-2.993-13.938 11.372-13.938 11.372s7.212 2.378 15.507-1.311z" fill="#FAE8C8"/><path d="M208.43 119.32h-.009l-.232-.078.011-.246c.011-.275.339-6.755 4.705-10.138 2.457-1.903 5.696-2.421 9.625-1.539 2.879.703 4.849.253 6.431-.109.731-.166 1.363-.312 1.961-.312 1.661 0 2.716 1.012 3.642 3.498.508 1.364 2.052 5.514-.474 6.638-1.974.877-4.171-1.272-4.821-1.98-.829.526-3.65 2.294-5.108 2.941-8.192 3.64-15.451 1.412-15.727 1.323l-.004.002zm23.279-11.661a2.557 2.557 0 00-.787-.111c-.525 0-1.125.139-1.82.297-1.56.357-3.7.844-6.718.106-3.727-.838-6.786-.36-9.084 1.418-3.659 2.833-4.33 8.176-4.437 9.399 1.309.36 7.794 1.852 15.037-1.368 1.642-.73 5.217-3.019 5.254-3.043l.238-.152.182.217c.023.028 2.399 2.841 4.257 2.014 1.308-.581 1.351-2.538.131-5.815-.723-1.942-1.447-2.711-2.253-2.967v.005z" fill="#F0C9AE"/><path d="M196.911 95.419s21.65-.217 23.365 12.777c0 0 .643 5.414-2.572 10.828-2.386 4.017-5.574 7.146-1.715 11.045 0 0 2.572.433 3.001 1.732.682 2.064-.643 8.663-4.502 7.796-3.858-.866-2.572-5.63-2.572-5.63s-12.004.866-11.79-8.23c0 0-21.436 11.045-45.444-10.395 0 0-4.716-4.547-6.645-8.446l48.874-11.477z" fill="#F9E7C7"/><path d="M215.162 140c-.242 0-.491-.028-.744-.085-1.089-.244-1.901-.803-2.411-1.661-.823-1.377-.639-3.142-.493-3.945-.611.015-1.818.008-3.243-.2-1.882-.272-4.504-.963-6.311-2.704-1.483-1.43-2.208-3.34-2.152-5.677l.643.016c-.052 2.146.606 3.891 1.953 5.188 3.234 3.119 9.431 2.714 9.494 2.71l.452-.033-.118.442c-.006.024-.602 2.306.332 3.87.418.697 1.091 1.154 2 1.36.98.219 1.844-.082 2.57-.897 1.49-1.667 2.007-5.115 1.557-6.479-.303-.914-2.086-1.404-2.748-1.514l-.101-.017-.073-.074c-3.447-3.482-1.511-6.479.54-9.65.375-.578.761-1.176 1.125-1.791 3.117-5.249 2.536-10.57 2.53-10.622-.693-5.241-4.757-8.938-12.079-10.984-5.52-1.542-10.909-1.507-10.963-1.507l-.006-.65c.054 0 5.524-.037 11.127 1.526 7.497 2.093 11.839 6.079 12.56 11.532.028.23.619 5.592-2.616 11.039-.37.625-.76 1.228-1.138 1.812-2.053 3.175-3.678 5.687-.694 8.764.555.107 2.709.6 3.149 1.932.495 1.503-.007 5.237-1.689 7.121-.697.779-1.531 1.18-2.444 1.18l-.009-.002z" fill="#F0C9AE"/><path d="M150.786 94.312c-6.45-.975-18.635-2.973-20.482-4.398 0 0-.17-1.304-.971-1.562 0 0-1.083-1.29-2.12.206 0 0-1.362.34-.982 2.32 0 0 1.265 10.323 14.388 14.721 0 0 5.226 2.436 10.705.633 4.034-1.148 5.361-3.236 5.513-5.308.238-3.208-2.512-6.077-6.051-6.612z" fill="#F9E7C7"/><path d="M145.01 95.194s-.381 15.951 19.507 18.082c23.991 2.571 28.197-12.703 38.756-16.597 13.944-5.143 25.221 3.74 35.271-.234 10.047-3.974 10.458-6.546 10.458-6.546s-12.304 2.105-27.888-1.872c-15.584-3.974-50.291-5.31-76.102 7.164l-.002.002z" fill="#13AC67"/><path d="M170.725 16.865a8.235 8.235 0 00-11.702-.794c-3.449 3.044-3.8 8.337-.786 11.822l13.776-2.001c1.327-2.909.933-6.458-1.288-9.027zm-9.43 8.347c-1.742-2.014-1.539-5.077.455-6.837a4.763 4.763 0 016.767.459 4.886 4.886 0 01.744 5.219l-7.966 1.159zm53.68 17.493c1.229-4.448-1.344-9.06-5.747-10.304-4.402-1.24-8.968 1.358-10.199 5.806l9.192 10.523a8.307 8.307 0 006.752-6.025h.002zM202.92 39.32c.712-2.572 3.35-4.075 5.897-3.356 2.546.718 4.034 3.384 3.322 5.957a4.8 4.8 0 01-3.903 3.482l-5.316-6.085v.002z" fill="#F3B44C"/><path d="M216.443 59.288c.448.181 4.154-.046 4.553-.39-3.64-2.837-4.172-8.249-6.504-11.534-9.916-13.966-20.596-23.681-37.984-24.348-6.648-.256-13.385.94-19.503 3.597-4.446 1.93-9.104 4.775-12.22 8.491-4.075 4.86-13.644 12.663-13.644 12.663s4.844 2.024 6.836 1.171c-1.077.414-4.388 11.68-4.586 12.84-.505 2.965-.716 5.977-.735 8.985-.077 12.647 5.273 15.077 5.027 21.137 1.376.424 4.165-1.95 4.379-3.77-.454 3.897 2.165 7.832 4.017 9.864 6.795 7.456 20.041 10.18 24.701 11.209.767.169 1.659.401 2.319-.028 5.919-3.866 31.843-5.958 37.665-18.178.663-1.393 1.494-3.294 1.451-3.85.146 1.8.864 4.153 1.672 4.216 1.083-4.303 3.765-5.308 4.909-12.743.978-6.347-.433-12.333-2.349-19.33l-.004-.002z" fill="#F2B34C"/><path d="M164.826 27.743c2.899 0 5.249-2.375 5.249-5.304 0-2.929-2.35-5.303-5.249-5.303-2.899 0-5.25 2.374-5.25 5.303 0 2.93 2.351 5.304 5.25 5.304zm42.332 17.929c2.899 0 5.249-2.374 5.249-5.303 0-2.93-2.35-5.304-5.249-5.304-2.899 0-5.25 2.374-5.25 5.303 0 2.93 2.351 5.304 5.25 5.304zm-12.541 7.098c-1.927-11.124-11.927-17.597-19.354-20.451 0 0-7.573-3.281-7.413 1.13 0 0 1.355 5.289-5.62 1.839-8.875-4.39-20.351 13.455-21.329 25.578-.949 11.77 8.463 22.871 28.278 24.697 2.018.186 10 .11 13.848-1.532 16.036-6.843 13.196-22 11.593-31.262l-.003.002z" fill="#F8E6C6"/><path d="M159.267 58.666s-2.129 10.778 2.036 11.207c4.165.429 5.818-7.155 6.339-8.808.52-1.652-2.86-5.74-2.86-5.74l-5.513 3.34h-.002z" fill="#EC8180"/><path d="M177.162 48.807c.149-.721-.594-1.489-1.66-1.714-1.066-.225-2.051.177-2.2.898-.15.721.594 1.488 1.66 1.714 1.066.225 2.051-.177 2.2-.898zm-11.989-4.864c.444-.52.169-1.497-.615-2.18-.784-.684-1.781-.816-2.225-.296-.445.521-.17 1.497.614 2.181.785.684 1.781.816 2.226.295z" fill="#4B1E0E"/><path d="M179.995 60.084a.714.714 0 00-.984-.247l-1.756 1.07a.729.729 0 00.189 1.321.71.71 0 00.551-.08l1.755-1.07a.73.73 0 00.245-.994zm1.634 1.406a.711.711 0 00-.984-.245l-1.755 1.07a.73.73 0 00-.245.994.71.71 0 00.984.247l1.756-1.07a.729.729 0 00.244-.994v-.002zm-29.03-15.188a.694.694 0 00-.958-.24l-1.711 1.041a.71.71 0 00-.238.968.698.698 0 00.96.24l1.711-1.04a.71.71 0 00.238-.969h-.002zm1.434 2.422a.709.709 0 00.238-.966.691.691 0 00-.956-.239l-1.706 1.04a.709.709 0 00-.238.966.694.694 0 00.956.238l1.706-1.04zm9.101 23.871a.663.663 0 00-.804.492c-.107.444-1.221.805-1.927.885-1.423.128-2.518-.424-2.799-.65a.664.664 0 00-1.243.24c-.02.163.006.408.244.657.512.537 2.111 1.254 3.929 1.09.043-.005.137-.016.268-.037.712-.117 2.497-.542 2.819-1.86a.67.67 0 00-.487-.813v-.004zm8.565-14.362c-1.728-1.103-3.927-1.447-5.885-.89a2.304 2.304 0 00-1.333.996 3.746 3.746 0 00-.107-.931c-.544-2.335-2.581-4.156-4.72-5.044-1.619-.674-3.614-1.241-5.353-.765l-.062.018c-1.455.42-2.69 1.838-2.375 3.432.219 1.107 1.153 2.088 1.966 2.822 1.88 1.696 4.527 3.322 7.125 3.255.842-.022 1.685-.264 2.373-.745a3 3 0 00.761-.767c-.009.771.461 1.4 1.033 1.93 1.333 1.234 3.029 2.265 4.812 2.644 1.955.416 4.956-.528 4.185-3.108-.369-1.232-1.383-2.18-2.423-2.845l.003-.002z" fill="#F0C9AE"/><path d="M166.136 59.028c1.02-.087 2.557-.598 2.857-2.114.487-2.456-2.722-3.836-4.484-4.022-2.03-.216-4.165 1.339-4.223 3.266-.049 1.642 2.041 2.356 3.616 2.74 0 0 1.211.218 2.234.13zm-3.577-8.603c.688-1.17.225-2.732-1.035-3.488-1.26-.757-2.84-.421-3.528.749-.688 1.17-.225 2.731 1.035 3.488 1.26.756 2.84.42 3.528-.75z" fill="#4B1E0E"/><path d="M160.892 48.674c.186-.44-.062-.968-.552-1.18-.49-.21-1.038-.024-1.223.416-.185.44.062.968.552 1.18.49.21 1.038.024 1.223-.416z" fill="#fff"/><path d="M176.103 55.754c.434-1.352-.414-2.84-1.893-3.325-1.48-.485-3.031.218-3.465 1.57-.434 1.35.414 2.84 1.893 3.324 1.48.485 3.031-.218 3.465-1.57z" fill="#4B1E0E"/><path d="M174.037 54.365c.108-.486-.252-.983-.804-1.108-.552-.125-1.087.168-1.195.654-.108.487.251.983.804 1.108.552.126 1.087-.167 1.195-.654z" fill="#fff"/><path d="M165.658 111.632s-4.995 1.412-5.396 6.545c0 0-.242 2.401.538 3.534 0 0 3.809-.416 4.68-3.92 0 0 .557-2.144 1.543-3.181l-1.368-2.978h.003zm4.994.113s5.949-1.26 9.098 4.115c0 0 1.53 2.484 1.32 4.156 0 0-4.184 1.682-6.956-1.653 0 0-1.721-2.025-3.299-2.605l-.163-4.013z" fill="#3BC663"/><path d="M173.599 113.956c.15 2.753-1.938 5.107-4.662 5.258-2.725.152-5.055-1.957-5.205-4.71-.15-2.752 1.938-5.106 4.663-5.258 2.724-.152 5.054 1.958 5.204 4.71z" fill="#fff"/><path d="M168.615 113.082l-1.086 1.198 1.186 1.097 1.086-1.198-1.186-1.097z" fill="#AC823B"/><path d="M168.613 113.083l1.188 1.098-.114.005-1.069-.988-.005-.115z" fill="#C0984D"/><path d="M168.618 113.198l-.977 1.081-.114.004 1.087-1.2.004.115z" fill="#D7BE97"/><path d="M168.715 115.379l-1.188-1.096.114-.004 1.07.985.004.115z" fill="#C0984D"/><path d="M168.711 115.264l.977-1.078.114-.004-1.087 1.197-.004-.115z" fill="#7D4B2D"/><path d="M165.792 114.301a3.184 3.184 0 015.138-2.649l.026-.028a3.489 3.489 0 00-2.491-.883 3.506 3.506 0 00-3.348 3.653c.071 1.594 1.419 2.776 3.014 2.703.861-.039 1.62-.405 2.124-1.027l-.017-.015c-.446.42-1.044.667-1.711.695-1.447.065-2.671-1.007-2.735-2.454v.005z" fill="url(#paint0_linear_4880_188657)"/><path d="M171.539 114.165a3.182 3.182 0 01-5.136 2.646l-.026.028a3.507 3.507 0 005.839-2.77c-.071-1.594-1.417-2.776-3.014-2.705-.862.039-1.62.405-2.124 1.027l.019.017c.444-.42 1.044-.667 1.709-.697 1.447-.065 2.668 1.007 2.733 2.454z" fill="url(#paint1_linear_4880_188657)"/><path d="M168.74 116.627c-1.305.058-2.456-.959-2.516-2.278-.086-1.921 1.254-3.095 2.906-3.169a2.95 2.95 0 011.777.494l.02-.022a3.17 3.17 0 00-2.101-.667 3.182 3.182 0 00-3.038 3.316c.065 1.444 1.289 2.519 2.736 2.454.666-.031 1.264-.275 1.71-.695l-.032-.029c-.392.351-.9.574-1.464.6l.002-.004z" fill="url(#paint2_linear_4880_188657)"/><path d="M168.833 110.985c-1.764.08-3.132 1.566-3.054 3.32.064 1.449 1.292 2.523 2.748 2.456.668-.031 1.271-.275 1.717-.698l-.009-.006c-.442.403-1.029.639-1.685.667-1.445.065-2.666-.996-2.729-2.43-.077-1.735 1.282-3.205 3.036-3.283a3.179 3.179 0 012.07.641l.007-.006a3.18 3.18 0 00-2.101-.661z" fill="url(#paint3_linear_4880_188657)"/><path d="M168.591 111.836c1.305-.058 2.459.96 2.517 2.276.085 1.924-1.254 3.095-2.909 3.169a2.966 2.966 0 01-1.777-.492l-.02.022a3.181 3.181 0 005.136-2.647c-.064-1.444-1.286-2.518-2.733-2.453-.666.03-1.264.275-1.708.697l.03.028c.392-.351.9-.574 1.464-.6z" fill="url(#paint4_linear_4880_188657)"/><path d="M168.497 117.48a3.193 3.193 0 003.055-3.32c-.064-1.449-1.293-2.523-2.748-2.456-.669.03-1.269.275-1.717.695l.008.009c.442-.405 1.029-.639 1.683-.669 1.445-.065 2.667.996 2.729 2.43.077 1.734-1.284 3.205-3.035 3.283a3.187 3.187 0 01-2.071-.641l-.006.006a3.192 3.192 0 002.1.663h.002z" fill="url(#paint5_linear_4880_188657)"/><path d="M159.027 73.134h-18.025v35.532h18.025V73.134z" fill="#C4DEE6"/><path d="M147.117 76.134h-3.672v5.152h3.672v-5.152zm4.735 0h-3.672v5.152h3.672v-5.152zm4.732 0h-3.672v5.152h3.672v-5.152zm-9.467 6.946h-3.672v5.153h3.672V83.08zm4.735 0h-3.672v5.153h3.672V83.08zm4.732 0h-3.672v5.153h3.672V83.08zm-9.467 6.496h-3.672v5.152h3.672v-5.152zm4.735 0h-3.672v5.152h3.672v-5.152zm4.732 0h-3.672v5.152h3.672v-5.152zm-9.467 6.274h-3.672v5.152h3.672V95.85zm4.735 0h-3.672v5.152h3.672V95.85zm4.732 0h-3.672v5.152h3.672V95.85zm-9.467 6.274h-3.672v5.154h3.672v-5.154zm4.735 0h-3.672v5.154h3.672v-5.154zm4.732 0h-3.672v5.154h3.672v-5.154z" fill="#EAF7EC"/><path d="M138.022 67.263L117 83.497l21.022.045 19.355-16.279h-19.355z" fill="#30AF45"/><path d="M177.147 83.497h-39.264l19.494-16.188 19.77 16.188z" fill="#2E9E40"/><path d="M175.477 83.497h-35.924l17.834-14.811 18.09 14.81z" fill="#B6DDBE"/><path d="M175.477 83.497h-33.702l16.731-13.895 16.971 13.895z" fill="#B6DDBE"/><path d="M148.911 63.907h-7.136v7.21h7.136v-7.21z" fill="#2E9E40"/><path d="M148.91 71.114l1.456-3.604 2.18-.247v-3.356h-3.636v7.207zm-10.589 2.016l-1.633 1.26 6.392.145 1.841-1.405h-6.6zm-4.828 4.739l-1.634 1.262 6.39.143 1.844-1.405h-6.6zm1.394-6.337l-1.633 1.262 6.392.143 1.841-1.405h-6.6z" fill="#2E9E40"/><path d="M153.029 62.878h-11.541v2.666h11.541v-2.666z" fill="#DD8922"/><path d="M153.03 62.878h-4.12v2.666h4.12v-2.666z" fill="#FBB62C"/><path d="M175.477 83.497h-35.924v26.431h35.924v-26.43z" fill="#EAF7EC"/><path d="M139.553 83.497h-20.442v26.431h20.442v-26.43z" fill="#B6DDBE"/><path d="M135.095 87.44h-11.884v15.814h11.884V87.44z" fill="#fff"/><path d="M134.155 88.688h-10.009v13.316h10.009V88.688z" fill="#30AF45"/><path d="M129.618 87.44h-.932v15.814h.932V87.44zm25.143 0h-11.884v15.814h11.884V87.44z" fill="#fff"/><path d="M153.825 88.688h-10.009v13.316h10.009V88.688z" fill="#B6DDBE"/><path d="M149.286 87.44h-.932v15.814h.932V87.44zm21.868 0H159.27v15.814h11.884V87.44z" fill="#fff"/><path d="M170.215 88.688h-10.008v13.316h10.008V88.688z" fill="#B6DDBE"/><path d="M194.484 100.521c-7.833.937-15.86-2.887-15.86-2.887-3.106-4.095-5.897-1.442-4.95.75 1.2 2.778 3.143 2.563 3.143 2.563 3.292 6.001 6.34 8.401 10.068 10.116 4.493 2.066 15.453 2.339 14.774-5.553 0 0 .214-5.873-7.175-4.987v-.002z" fill="#FAE8C8"/><path d="M188.911 112.094a12.365 12.365 0 01-2.167-.734c-3.653-1.681-6.776-4.044-10.122-10.083-.587-.024-2.195-.325-3.248-2.762a.328.328 0 01.165-.426.322.322 0 01.425.166c1.082 2.504 2.744 2.378 2.814 2.37a.32.32 0 01.313.166c3.297 6.01 6.35 8.334 9.921 9.977 4.613 2.123 10.178 1.148 12.259-.337 1.552-1.109 2.246-2.755 2.062-4.89a.323.323 0 01.292-.351.323.323 0 01.347.294c.206 2.385-.579 4.228-2.332 5.479-2.785 1.988-7.419 1.952-10.729 1.133v-.002z" fill="#F0C9AE"/></g></g><defs><linearGradient id="paint0_linear_4880_188657" x1="165.936" y1="116.473" x2="170.619" y2="111.285" gradientUnits="userSpaceOnUse"><stop stop-color="#AC823B"/><stop offset=".12" stop-color="#AD843E"/><stop offset=".22" stop-color="#B28A48"/><stop offset=".31" stop-color="#BA9559"/><stop offset=".4" stop-color="#C5A570"/><stop offset=".48" stop-color="#D3B88F"/><stop offset=".5" stop-color="#D7BE97"/><stop offset=".52" stop-color="#D3B88F"/><stop offset=".6" stop-color="#C5A570"/><stop offset=".69" stop-color="#BA9559"/><stop offset=".78" stop-color="#B28A48"/><stop offset=".88" stop-color="#AD843E"/><stop offset="1" stop-color="#AC823B"/></linearGradient><linearGradient id="paint1_linear_4880_188657" x1="171.34" y1="112.005" x2="166.768" y2="117.176" gradientUnits="userSpaceOnUse"><stop stop-color="#00553C"/><stop offset=".12" stop-color="#03573E"/><stop offset=".21" stop-color="#0D5D45"/><stop offset=".3" stop-color="#1E6850"/><stop offset=".38" stop-color="#357860"/><stop offset=".46" stop-color="#548C75"/><stop offset=".5" stop-color="#689A83"/><stop offset=".54" stop-color="#548C75"/><stop offset=".62" stop-color="#357860"/><stop offset=".7" stop-color="#1E6850"/><stop offset=".79" stop-color="#0D5D45"/><stop offset=".88" stop-color="#03573E"/><stop offset="1" stop-color="#00553C"/></linearGradient><linearGradient id="paint2_linear_4880_188657" x1="168.613" y1="111.259" x2="167.886" y2="115.691" gradientUnits="userSpaceOnUse"><stop stop-color="#7D4B2D"/><stop offset=".3" stop-color="#AC823B"/><stop offset="1" stop-color="#7D4B2D"/></linearGradient><linearGradient id="paint3_linear_4880_188657" x1="168.562" y1="111.334" x2="167.926" y2="115.765" gradientUnits="userSpaceOnUse"><stop stop-color="#C0984D"/><stop offset=".3" stop-color="#F0E4CC"/><stop offset="1" stop-color="#C0984D"/></linearGradient><linearGradient id="paint4_linear_4880_188657" x1="169.439" y1="112.782" x2="168.678" y2="117.201" gradientUnits="userSpaceOnUse"><stop stop-color="#00462F"/><stop offset=".7" stop-color="#00553C"/><stop offset="1" stop-color="#00462F"/></linearGradient><linearGradient id="paint5_linear_4880_188657" x1="168.742" y1="117.19" x2="169.442" y2="112.774" gradientUnits="userSpaceOnUse"><stop stop-color="#007156"/><stop offset=".3" stop-color="#E7F2F1"/><stop offset="1" stop-color="#007156"/></linearGradient><clipPath id="clip0_4880_188657"><path fill="#fff" d="M0 0h300v148H0z"/></clipPath><clipPath id="clip1_4880_188657"><path fill="#fff" transform="translate(117 14)" d="M0 0h132v126H0z"/></clipPath><filter id="filter0_d_4880_188657" x="-4" y="6" width="152" height="63.432" filterUnits="userSpaceOnUse" color-interpolation-filters="sRGB"><feFlood flood-opacity="0" result="BackgroundImageFix"/><feColorMatrix in="SourceAlpha" values="0 0 0 0 0 0 0 0 0 0 0 0 0 0 0 0 0 0 127 0" result="hardAlpha"/><feOffset dx="2" dy="4"/><feGaussianBlur stdDeviation="3"/><feComposite in2="hardAlpha" operator="out"/><feColorMatrix values="0 0 0 0 0 0 0 0 0 0 0 0 0 0 0 0 0 0 0.15 0"/><feBlend in2="BackgroundImageFix" result="effect1_dropShadow_4880_188657"/><feBlend in="SourceGraphic" in2="effect1_dropShadow_4880_188657" result="shape"/></filter></defs></svg>