<svg width="200" height="150" viewBox="0 0 200 150" fill="none" xmlns="http://www.w3.org/2000/svg"><g clip-path="url(#clip0_3225_95457)"><path d="M14 56.5c29.5-35.33 50.032-37.116 84.072-35.33C127.47 22.715 137.5 30.34 148 42c10.499 11.66 7 27.5 28 31.5 20.22 3.852 22.5 15 23.917 24.145 3.937 52.983-133.344 43.895-160.642 37.208C11.976 128.166-18.585 95.524 14 56.5z" fill="#CFF7D8"/><ellipse cx="100" cy="133" rx="60" ry="17" fill="#7DD3A4"/><path d="M125.926 6.564c-1.682-5.032-7.124-7.748-12.156-6.066-3.706 1.239-6.198 4.936-6.557 8.59l12.65 9.632c5.032-1.682 7.748-7.124 6.066-12.156h-.003zm-7.5 7.642l-6.808-5.425a5.187 5.187 0 116.806 5.427l.002-.002z" fill="#F5B64C"/><path d="M117.076 15.191a5.993 5.993 0 100-11.986 5.993 5.993 0 000 11.986zm10.719 63.141s14.421 16.98.6 27.551l-.6-27.551z" fill="#FBE9C9"/><path d="M70.121 80.863s-4.617 17.12 1.697 40.965c0 0 2.998 10.042 7.911 17.236 0 0 1.56 1.838 4.676.359 0 0 1.28-.76-1.08-2.278l4.796-11.628s5.634-4.316 25.774-.479c0 0 4.276 10.35 5.955 12.507 0 0 1.039 2.509 3.969 2.454 0 0 3.647.13 3.345-1.75-.301-1.88-3.026-.692-2.785-1.203 1.542-3.246 4.176-9.541 5.222-16.525 0 0 1.998-6.314 1.359-37.722l-60.839-1.936z" fill="#FBE9C9"/><path d="M62.049 81.53s6.21 17.45 33.471 22.07l5.915-.677s18.445-.589 29.914-23.473l-69.298 2.08h-.002z" fill="#13AE67"/><path d="M99.435 96.053s-7.592.506-9.69 7.683c0 0-1.064 3.34-.278 5.183 0 0 5.594.555 7.883-4.166 0 0 1.436-2.88 3.162-4.059l-1.077-4.641zm6.358-1.233s7.23-2.372 11.86 3.499c0 0 2.234 2.701 2.195 4.704 0 0-4.981 2.605-8.871-.916 0 0-2.41-2.133-4.449-2.581l-.737-4.71.002.003z" fill="#43C867"/><path d="M137.456 32.314c.542.065 4.57-1.213 4.915-1.686-4.776-1.93-6.81-7.416-10.264-10.183-14.68-11.756-29.063-18.872-48.419-14.687-7.399 1.602-14.507 4.74-20.542 9.22-4.385 3.259-8.1 7.89-11.199 12.275-3.254 4.604-4.145 6.663-5.955 11.938C43.698 45.874 40 49.028 40 49.028s5.886.75 7.853-.698c-1.076.734-1.41 8.638-1.319 9.902.238 3.229.812 6.424 1.6 9.562 3.307 13.189 9.858 14.217 11.21 20.596 1.63.055 4.07-3.2 3.816-5.156.543 4.188 4.489 7.547 7.075 9.144 9.493 5.856 29.877 5.389 35.29 5.153a6.115 6.115 0 002.55-.682c5.548-2.882 28.47-15.563 31.614-29.922.358-1.635.766-3.85.567-4.416.643 1.837 2.065 4.081 2.973 3.92.041-4.785 2.728-6.584 1.995-14.645-.624-6.883-3.787-12.72-7.776-19.47l.008-.002z" fill="#F5B64C"/><path d="M110.949 99.586a7.57 7.57 0 01-7.56 7.579 7.567 7.567 0 01-7.576-7.56 7.567 7.567 0 017.56-7.577 7.566 7.566 0 017.576 7.56v-.002z" fill="#fff"/><path d="M100.536 103.548a4.408 4.408 0 001.801.379 5.37 5.37 0 001.238-.172c.779-.185 1.465-.556 2.02-1.147.048-.05.07-.125.115-.212-.079 0-.098-.007-.108 0-.795.649-1.706.897-2.718.776a3.68 3.68 0 01-2.316-1.19c-.755-.81-1.051-1.776-.97-2.863.07-.94.365-1.805.958-2.555a4.315 4.315 0 011.911-1.371c.901-.34 1.831-.403 2.776-.231.614.11 1.174.368 1.697.71.04.027.101.022.151.034-.007-.038 0-.091-.024-.113-.641-.59-1.369-1.034-2.215-1.256-.402-.106-.821-.151-1.231-.224h-.634c-.021.01-.041.024-.062.024a5.275 5.275 0 00-2.49.803 5.474 5.474 0 00-1.952 2.044c-.566 1.043-.78 2.169-.569 3.354.09.492.263.95.518 1.379.338.571.868 1.147 1.321 1.417.453.27.588.327.781.412" fill="#B18749"/><path d="M108.923 99.53c-.024-1.31-.557-2.39-1.564-3.215-1.094-.896-2.357-1.2-3.755-.976-.959.155-1.785.55-2.455 1.26-.046.046-.077.107-.116.16l.043.048c.049-.022.104-.036.147-.067.776-.567 1.63-.825 2.598-.721 1.179.125 2.08.699 2.743 1.65.651.936.732 1.984.503 3.069-.31 1.475-1.147 2.54-2.53 3.149-.86.381-1.762.507-2.704.381a4.491 4.491 0 01-1.788-.631c-.053-.034-.239-.205-.304-.183-.036.012-.067.045-.108.077.034.043.053.077.082.101.913.79 1.952 1.284 3.169 1.41 1.217.125 2.364-.094 3.388-.74 1.738-1.097 2.69-2.67 2.651-4.77" fill="#005B42"/><path d="M105.207 99.52c-.593.583-1.152 1.142-1.721 1.689-.036.034-.174.022-.215-.022-.409-.397-.809-.81-1.212-1.214-.137-.14-.282-.273-.446-.43.063-.065.121-.127.181-.187.494-.497.993-.986 1.477-1.494.099-.102.14-.097.224-.01.41.414.822.829 1.237 1.236.142.142.299.27.475.43" fill="#AA803A"/><path d="M60.167 9.526a9.631 9.631 0 00-9.606 9.655 9.632 9.632 0 009.654 9.606l8.76-13.58a9.633 9.633 0 00-8.808-5.678v-.003zm.055 14.556a5.568 5.568 0 115.066-7.854l-5.066 7.854z" fill="#F5B64C"/><path d="M59.632 24.56a5.994 5.994 0 100-11.988 5.994 5.994 0 000 11.987zm61.934-1.826c-7.482-9.367-21.258-10.478-30.531-9.49 0 0-9.64.663-7.314 4.673 0 0 4.022 4.24-5.064 4.453-11.56.273-15.014 22.423-10.126 34.14 4.745 11.372 20.159 17.057 42.075 9.061 2.229-.814 10.664-4.786 13.944-8.191 13.669-14.185 3.246-26.847-2.984-34.646z" fill="#FBE9C9"/><path d="M108.722 56.996a.84.84 0 00-1.024.6c-.145.552-1.559.989-2.451 1.075-1.803.138-3.179-.57-3.528-.858a.838.838 0 00-.629-.438.839.839 0 00-.947.718c-.027.202 0 .508.298.824.639.68 2.649 1.603 4.948 1.427.053-.005.174-.017.34-.044.901-.134 3.164-.638 3.593-2.282a.839.839 0 00-.6-1.024v.002z" fill="#F0C9AE"/><path d="M107.122 33.469a2.506 2.506 0 100-5.013 2.506 2.506 0 000 5.013zm-14.79 5.091a2.506 2.506 0 100-5.012 2.506 2.506 0 000 5.012zm12.319-13.24c1.036-.77 1.466-1.945.961-2.626-.506-.68-1.756-.608-2.792.163-1.037.77-1.467 1.946-.961 2.626.506.68 1.756.608 2.792-.162zm-12.307 6.599c1.29 0 2.337-.687 2.337-1.535 0-.848-1.046-1.535-2.337-1.535-1.291 0-2.338.687-2.338 1.535 0 .848 1.046 1.535 2.338 1.535z" fill="#4B1E0E"/><path d="M117.258 25.048a1.1 1.1 0 00-1.299.858l-.631 3.085a1.1 1.1 0 002.156.443l.632-3.084a1.101 1.101 0 00-.856-1.3l-.002-.002zm3.275-.398a1.102 1.102 0 00-1.299.858l-.631 3.082a1.101 1.101 0 002.157.441l.631-3.082a1.1 1.1 0 00-.858-1.299zM78.27 38.31a1.1 1.1 0 00-1.3.859l-.63 3.085a1.1 1.1 0 002.156.443l.632-3.085a1.101 1.101 0 00-.856-1.299l-.002-.002zm3.275-.397a1.102 1.102 0 00-1.299.858l-.631 3.082a1.1 1.1 0 002.157.441l.63-3.082a1.1 1.1 0 00-.857-1.3zm35.827-2.789c-1.653-1.027-3.752-1.073-5.596-.769-3.06.506-5.897 2.357-7.553 4.986a3.56 3.56 0 00-.508 2.495 5.734 5.734 0 00-1.056-.952c-2.957-2.102-7.09-2.1-10.401-.93-2.506.884-5.336 2.272-6.827 4.586-.017.026-.034.055-.053.082-1.227 1.964-1.203 4.834.754 6.326 1.36 1.036 3.4 1.202 5.056 1.207 3.83.012 8.454-.834 11.329-3.56.933-.884 1.644-2.017 1.94-3.267a4.576 4.576 0 00.094-1.649c.764.887 1.926 1.123 3.104 1.143 2.745.045 5.702-.511 8.1-1.9 2.629-1.52 5.08-5.656 1.62-7.8l-.003.002z" fill="#F0C9AE"/><path d="M105.261 43.08c1.176-.796 2.692-2.449 2.039-4.48-1.058-3.293-5.866-2.786-8.121-1.822-2.6 1.11-4.14 4.427-2.919 6.79 1.041 2.013 4.049 1.466 6.21.864 0 0 1.613-.557 2.789-1.35l.002-.002z" fill="#4B1E0E"/><path d="M80.014 113.464c24.576 7.148 32.565-3.253 32.565-3.253 1.564-1.735.285-2.894.285-2.894-.256-2.114-2.181-1.487-2.181-1.487-1.022-.232-1.964.961-1.964.961-3.888.405-26.433-6.935-26.433-6.935m42.69-9.206c-1.906-6.958-11.23-11.127-11.23-11.127-.937-4.447-5.526-.77-5.323.725.2 1.494 1.6 1.839 1.6 1.839.735 5.781-.581 10.285 2.586 18.92 2.176 5.938 8.625 10.245 20.212-.19l-4.96-12.763-2.885 2.595z" fill="#FBE9C9"/><path d="M96.867 30.581a2.01 2.01 0 00-.132-.778 1.264 1.264 0 00-.277-.444c.031.234.15.682.132 1.213-.012.53-.157.973-.197 1.205.086-.075.204-.22.298-.427s.164-.475.174-.769h.002z" fill="#642711"/><path d="M80.014 113.464c24.576 7.148 32.565-3.253 32.565-3.253 1.564-1.735.285-2.894.285-2.894-.256-2.114-2.181-1.487-2.181-1.487-1.022-.232-1.964.961-1.964.961-3.888.405-26.433-6.935-26.433-6.935m30.321 1.151c2.177 5.938 8.009 9.221 17.911 2.974" stroke="#F0C9AE" stroke-width="2" stroke-linecap="round" stroke-linejoin="round"/><path d="M160.304 8.725c-17.295-4.301-28.589 10.17-26.488 20.667.918 4.582 2.581 8.142 4.73 10.844-1.048 2.56-2.421 6.097-2.378 6.95.043.866 3.963-.613 7.413-2.554 9.704 5.735 23.41 1.709 29.038-4.774 5.472-6.304 9.764-25.641-12.315-31.133z" fill="#FDE9C8"/><path d="M149.433 21.523c-1.404-.733-1.816-2.576-.814-3.806 1.185-1.452 3.279-2.938 6.839-2.83 4.546.139 8.52 3.233 8.388 7.508-.092 2.97-2.36 4.723-5.307 5.874-1.045.423-1.099 1.272-1.132 2.27a1.698 1.698 0 01-1.75 1.647l-1.605-.048a1.698 1.698 0 01-1.646-1.75l.047-1.606c.041-1.332.135-2.423 1.525-3.26 1.884-1.126 3.617-1.166 3.681-3.317.046-1.455-1.016-2.519-2.379-2.56-1.236-.038-2.131.518-2.74 1.245a2.535 2.535 0 01-3.11.633h.003zm8.739 15.93a3.46 3.46 0 01-3.591 3.347 3.456 3.456 0 01-3.351-3.561 3.46 3.46 0 013.562-3.381 3.47 3.47 0 013.38 3.592v.002z" fill="#FFA031"/></g><defs><clipPath id="clip0_3225_95457"><path fill="#fff" d="M0 0h200v150H0z"/></clipPath></defs></svg>