<svg width="186" height="162" viewBox="0 0 186 162" fill="none" xmlns="http://www.w3.org/2000/svg"><path d="M35.17 30.34c7.826 0 14.17-6.344 14.17-14.17S42.996 2 35.17 2 21 8.344 21 16.17s6.344 14.17 14.17 14.17z" fill="#DBD8DD"/><path d="M35.171 28.22c6.655 0 12.05-5.395 12.05-12.05 0-6.655-5.395-12.05-12.05-12.05-6.655 0-12.05 5.395-12.05 12.05 0 6.655 5.395 12.05 12.05 12.05z" fill="#ECECF4"/><path d="M35.74 7.9v8.42l5.58-3.15" fill="#ECECF4"/><path d="M35.74 17.33c-.17 0-.35-.05-.5-.14a1 1 0 01-.5-.86V7.9c0-.55.45-1 1-1s1 .45 1 1v6.71l4.09-2.31a1 1 0 01.98 1.74l-5.58 3.16c-.15.09-.32.13-.49.13z" fill="#DBD8DD"/><ellipse cx="35" cy="151.489" rx="35" ry="2.511" fill="#000" fill-opacity=".1"/><path d="M6.729 120.072h3.15V151.1h-3.15v-31.028z" fill="#F3C689"/><path d="M20.021 118.261l1.46-5.227h5.92l1.46 5.227h-8.84z" fill="#9C9EA8"/><path d="M29.66 117.257H19.222a.664.664 0 00-.667.66c0 .365.298.661.667.661H29.66a.664.664 0 00.668-.661.664.664 0 00-.668-.66z" fill="#B0B2BA"/><path d="M39.887 148.404l.618 2.696h3.782l.619-2.696h-5.02zm19.008 0l.618 2.696h3.782l.62-2.696h-5.02z" fill="#F3C689"/><path d="M38.338 122.08h27.124v27.222H38.338V122.08z" fill="#F3C689"/><path d="M4.059 118.196h64.073v4.202H4.059v-4.202z" fill="#F3C689"/><path d="M40.914 125.686h21.973v8.293H40.914v-8.293zm0 11.718h21.973v8.294H40.914v-8.294z" fill="#E6B987"/><path d="M10.158 94h28.568a1.13 1.13 0 011.137 1.125v18.054a1.13 1.13 0 01-1.137 1.125H10.158a1.13 1.13 0 01-1.137-1.125V95.125A1.13 1.13 0 0110.158 94z" fill="#B0B2BA"/><path d="M10.303 95.268h28.279v15.329h-28.28V95.268z" fill="#C3DCF2"/><path d="M24.441 113.192c.43 0 .78-.345.78-.771a.775.775 0 00-.78-.771.775.775 0 00-.779.771c0 .426.349.771.78.771z" fill="#9C9EA8"/><path d="M9.021 142.097h31.623v2.326H9.021v-2.326z" fill="#F3C689"/><path d="M49.477 116.488h13.589v1.733h-13.59v-1.733z" fill="#DBD8DD"/><path d="M49.477 114.755h13.589v1.733h-13.59v-1.733z" fill="#ECECF4"/><path d="M49.477 113.021h13.589v1.733h-13.59v-1.733zm0-3.467h13.589v1.733h-13.59v-1.733z" fill="#DBD8DD"/><path d="M49.477 111.288h13.589v1.734h-13.59v-1.734z" fill="#ECECF4"/><path d="M46.82 118.218h-5.494c.001-1.502 1.231-2.718 2.748-2.718 1.516.001 2.744 1.217 2.745 2.718z" fill="#B0B2BA"/><path d="M6.727 122.395h3.149v1.447h-3.15v-1.447zm31.56 0h27.174v1.447H38.287v-1.447z" fill="#E6B987"/><g clip-path="url(#clip0_6016_74455)"><ellipse cx="167.834" cy="154.5" rx="10.527" ry="2.5" fill="#000" fill-opacity=".1"/><path d="M155.818 129.329s3.554-1.526 6.615-.258c3.06 1.267 4.479 4.861 4.479 4.861s-3.554 1.526-6.614.259c-3.061-1.268-4.48-4.862-4.48-4.862z" fill="#79C679"/><path d="M166.012 127.176c1.258 2.658 1.962 5.538 2.529 8.406.543 2.806.864 5.821 1.037 8.676a1.308 1.308 0 01-1.209 1.391c-.753.062-1.407-.566-1.395-1.317.074-2.781.025-5.723-.259-8.492-.21-2.105-.531-4.197-1.074-6.24a18.45 18.45 0 00-.629-1.994c-.21-.615.679-1.021 1-.43z" fill="#238C6C"/><path d="M179.881 127.841s-.926 4.516-4.27 6.646c-3.344 2.129-7.836 1.058-7.836 1.058s.926-4.517 4.27-6.646c3.344-2.129 7.836-1.058 7.836-1.058z" fill="#79C679"/><path d="M177.883 143.84h-20.065a1.094 1.094 0 01-1.086-1.083v-1.76c0-.591.494-1.083 1.086-1.083h20.077c.593 0 1.086.492 1.086 1.083v1.76a1.104 1.104 0 01-1.098 1.083z" fill="#DCC5A3"/><path d="M173.674 154.486h-11.649a2.209 2.209 0 01-2.197-1.908l-1.246-8.738h18.535l-1.247 8.738a2.227 2.227 0 01-2.196 1.908z" fill="#CFB590"/><path d="M79.089 137.245s-3.447-4.386-9.05-1.149c-1.803 1.041-2.159-.779-2.484-1.404-.325-.625-3.5 4.637 1.721 7.738 5.225 3.102 10.462-2.905 9.813-5.185z" fill="#F2B34C"/><path d="M73.334 134.95c3.628-.409 5.755 2.299 5.755 2.299.43 1.501-1.698 4.618-4.691 5.687 0 0 2.796-2.67.251-4.552-2.545-1.883-1.315-3.434-1.315-3.434z" fill="#F8E6C6"/><path d="M133.674 106.007s13.138-4.302 18.542-9.425c.239-.532.429-1.095.576-1.658.12-.456.217-.93.232-1.4.019-.502-.151-1.038-.031-1.536.17-.69.843-.733 1.284-.205.325.39.569.88.658 1.382.034.208.108 1.373-.143 1.454 0 0 1.52-.382 1.864 1.088 0 0 1.183.856.027 1.967 0 0 .866.648-.008 1.54 0 0 .584 1.346-2.645 2.167 0 0-.89 1.547-2.866 4.193 0 0-5.164 7.554-14.771 12.098l-2.723-11.669.004.004z" fill="#F8E5C3"/><path d="M129.153 102.661s3.945 15.77-1.447 37.732c0 0-2.56 9.25-6.757 15.878 0 0-1.33 1.693-3.991.331 0 0-1.091-.698.92-2.098l-4.096-10.713s-4.811-3.977-22.011-.443c0 0-3.651 9.532-5.086 11.522 0 0 1.91.239.99 1.509 0 0-2.046 1.381-3.856.165 0 0-4.162-8.004-5.461-17.355 0 0-1.706-5.817-1.16-34.75l51.951-1.782.004.004z" fill="#404040"/><mask id="mask0_6016_74455" style="mask-type:luminance" maskUnits="userSpaceOnUse" x="68" y="105" width="65" height="47"><path d="M68.88 151.899h63.94v-46.476H68.88v46.476z" fill="#fff"/></mask><g mask="url(#mask0_6016_74455)"><path d="M115.968 152.097l-2.015-5.035s-4.908-3.873-22.452-.432c0 0-3.725 9.286-5.187 11.222 0 0 1.95.232 1.01 1.47 0 0-2.089 1.346-3.934.162 0 0-4.246-7.8-5.57-16.908 0 0-1.74-5.667-1.183-33.851l52.992-1.736s4.022 15.361-1.478 36.76c0 0-1.082 3.742-3.001 8.132" fill="#2C3342"/></g><mask id="mask1_6016_74455" style="mask-type:luminance" maskUnits="userSpaceOnUse" x="45" y="24" width="115" height="114"><path d="M45.881 137.52H159.26V24.437H45.881V137.52z" fill="#fff"/></mask><g mask="url(#mask1_6016_74455)"><path d="M129.83 104.756s4.1 15.164-1.505 36.281c0 0-2.661 8.896-7.027 15.265 0 0-1.385 1.627-4.15.32 0 0-1.137-.672.959-2.018l-4.258-10.3s-5.005-3.823-22.89-.424c0 0-3.798 9.166-5.287 11.079 0 0 1.988.232 1.029 1.451 0 0-2.127 1.327-4.01.158 0 0-4.329-7.7-5.679-16.688 0 0-1.775-5.594-1.206-33.411l54.024-1.713z" fill="#F8E6C6"/><path d="M123.707 106.739s10.404-2.67 23.206-7.415c4.212 3.557 6.858 5.335 6.858 5.335s-6.602 16.121-24.282 18.725c-2.351-6.307-5.782-16.642-5.782-16.642v-.003z" fill="#2C3342"/><path d="M70.024 109.559c-13.058 10.878-9.294 24.546-9.294 24.546.56 2.673 2.32 2.561 2.32 2.561 1.969 1.493 2.572-.59 2.572-.59.805-.652.34-2.38.34-2.38 1.962-3.507 14.903-11.048 14.903-11.048" fill="#F8E6C6"/><path d="M88.849 117.448s-14.798 8.425-20.476 14.072c-5.237-.1-8.026-1.662-8.026-1.662s-.715-19.153 17.877-26.086c6.614 10.474 10.62 13.672 10.62 13.672l.005.004z" fill="#2C3342"/><path d="M124.566 110.48l-11.228.521-10.922 17.46v12.325h27.596s5.628-18.976 2.936-34.726c-6.32 3.541-8.378 4.42-8.378 4.42h-.004z" fill="#192030"/><path d="M82.81 110.469l7.341-.37 12.644 18.944v11.747H76.011s-3.74-19.716-1.126-34.727c6.134 3.376 7.929 4.406 7.929 4.406h-.004z" fill="#192030"/><path d="M94.553 140.512h16.318v-23.86H94.553v23.86z" fill="#fff"/><path d="M118.954 118.365l-16.662 10.504-15.823-11.549 15.382-2.99 17.103 4.035z" fill="#FFFFFA"/><mask id="mask2_6016_74455" style="mask-type:luminance" maskUnits="userSpaceOnUse" x="89" y="115" width="25" height="29"><path d="M89.842 143.377h23.396v-27.706H89.842v27.706z" fill="#fff"/></mask><g mask="url(#mask2_6016_74455)"><path d="M100.034 122.991c.104.2.541.351.986.351h2.963c.444 0 .885-.151.986-.351l1.694-3.287c.329-.64-.12-1.238-1.056-1.238h-6.215c-.936 0-1.385.598-1.056 1.238l1.694 3.287h.004z" fill="#43C567"/><path d="M97.775 153.975l4.696 7.85 4.827-7.137-.615-8.455-1.694-23.312h-4.955l-1.756 24.11-.503 6.944z" fill="#13AB67"/></g><path d="M119.341 115.415l.917 4.571-16.887-4.571h15.97zm-16.998-.001l-16.112 3.387.92-4.572 15.192 1.185z" fill="#D9DADA"/></g><path d="M105.986 137.52l-3.404 5.782-3.512-5.782h6.916z" fill="#13AB67"/><path d="M153.465 106.832a.912.912 0 001.103-.663l9.696-38.9a.91.91 0 00-.665-1.1.912.912 0 00-1.103.664l-9.696 38.896c-.12.486.178.98.665 1.099v.004z" fill="#805751"/><path d="M156.397 101.407c1.139 0 2.062-1.732 2.062-3.869 0-2.137-.923-3.87-2.062-3.87-1.138 0-2.061 1.733-2.061 3.87s.923 3.869 2.061 3.869z" fill="#F7E5C5" stroke="#E2AD89" stroke-width=".158" stroke-linecap="round" stroke-linejoin="round"/><path d="M140.524 63.64c.476.12 4.166-.628 4.518-1.026-4.054-2.299-5.338-7.591-8.142-10.52-11.905-12.448-23.984-20.576-41.54-18.794-6.71.683-13.308 2.816-19.079 6.308-4.196 2.538-7.925 6.419-11.085 10.137-3.318 3.904-4.3 5.714-6.405 10.393-2.66 5.925-6.238 8.444-6.238 8.444s5.148 1.327 7.027.2c-1.025.564-2.065 7.832-2.104 9.008-.093 3.013.116 6.026.515 9.012 1.69 12.549 7.399 14.204 7.994 20.245 1.443.227 3.91-2.519 3.872-4.356.085 3.931 3.268 7.461 5.41 9.212 7.864 6.435 25.98 8.206 30.803 8.568a5.202 5.202 0 002.325-.355c5.19-2.064 26.707-11.314 30.849-24.249.472-1.473 1.04-3.476.92-4.02.399 1.767 1.447 3.997 2.267 3.947.487-4.417 3.04-5.79 3.152-13.32.097-6.431-2.158-12.164-5.059-18.833z" fill="#F2B34C"/><path d="M131.573 39.365c-.99-4.595-5.523-7.519-10.129-6.535-3.396.725-5.957 3.734-6.633 6.917l10.214 9.721c4.607-.988 7.538-5.509 6.552-10.103h-.004zm-7.372 5.99l-5.472-5.442a4.6 4.6 0 013.539-3.538 4.603 4.603 0 015.468 3.526 4.592 4.592 0 01-3.535 5.455zm-50.953-9.843c-4.695-.51-8.915 2.87-9.43 7.553-.51 4.683 2.878 8.892 7.573 9.405l9.07-11.095a8.555 8.555 0 00-7.213-5.863zM71.863 48.33c-2.715-.297-4.676-2.732-4.378-5.44a4.942 4.942 0 015.454-4.366 4.936 4.936 0 014.169 3.39l-5.245 6.416z" fill="#F2B34C"/><path d="M71.885 48.724c2.939 0 5.322-2.377 5.322-5.308a5.316 5.316 0 00-5.322-5.309c-2.94 0-5.323 2.377-5.323 5.309 0 2.931 2.383 5.308 5.323 5.308zm51.617-2.6c2.939 0 5.322-2.377 5.322-5.308 0-2.932-2.383-5.308-5.322-5.308a5.315 5.315 0 00-5.322 5.308 5.315 5.315 0 005.322 5.308zm2.639 15.083c-4.607-9.574-16.306-13.27-24.529-14.261 0 0-8.474-1.347-7.26 2.577 0 0 2.634 4.459-5.268 2.835-10.056-2.064-17.463 16.368-15.571 27.45 1.837 10.76 14.043 18.733 34.6 16.188 2.093-.259 10.184-2.01 13.7-4.298 14.655-9.524 8.161-22.525 4.328-30.494v.003z" fill="#F8E6C6"/><path d="M109.161 75.137s2.297 9.043-2.739 9.957c0 0-5.542 1.59-6.231-8.093l4.785-3.06 4.185 1.196z" fill="#EB8080"/><path d="M89.122 71.195a.81.81 0 00-1.094.344l-1.08 2.064a.817.817 0 00.341 1.099.78.78 0 00.607.058.82.82 0 00.488-.401l1.079-2.064a.817.817 0 00-.34-1.1zm-3.627 3.172a.814.814 0 01-.952-1.157l1.08-2.064a.81.81 0 111.434.756l-1.079 2.064a.805.805 0 01-.487.401h.004zm32.702-8.557a.806.806 0 00-1.095.344l-1.079 2.064a.817.817 0 00.34 1.099.79.79 0 00.611.058.822.822 0 00.488-.401l1.079-2.064a.817.817 0 00-.341-1.1h-.003zm2.402.39a.81.81 0 00-1.095.344l-1.079 2.063a.817.817 0 00.341 1.1.78.78 0 00.607.058.817.817 0 00.487-.401l1.079-2.064a.817.817 0 00-.34-1.1zm-9.917 20.125a.73.73 0 00-.809.644c-.058.494-1.222 1.042-1.976 1.227-1.536.336-2.804-.108-3.141-.312a.73.73 0 00-1.322.428c0 .177.065.44.355.675.635.51 2.476 1.065 4.433.637.046-.012.147-.035.286-.078.758-.227 2.646-.933 2.816-2.407a.736.736 0 00-.642-.814zm4.602-15.535c-1.091-.995-2.653-1.323-4.069-1.35-2.351-.046-4.722.945-6.32 2.681a2.719 2.719 0 00-.723 1.794 4.292 4.292 0 00-.657-.857c-1.919-1.982-5.001-2.553-7.631-2.137-1.992.313-4.293.96-5.725 2.485-.015.019-.034.034-.05.054-1.183 1.3-1.562 3.448-.305 4.837.87.965 2.37 1.37 3.604 1.605 2.855.54 6.42.548 8.939-1.092.816-.532 1.504-1.28 1.895-2.175.17-.386.274-.803.294-1.22.448.768 1.28 1.108 2.158 1.285 2.042.417 4.324.409 6.304-.297 2.17-.772 4.568-3.526 2.282-5.613h.004z" fill="#F0C9AE"/><path d="M106.26 74.899c.987-.432 2.344-1.458 2.139-3.067-.336-2.608-3.991-2.897-5.805-2.488-2.093.47-3.698 2.739-3.11 4.675.499 1.651 2.82 1.66 4.514 1.505 0 0 1.28-.193 2.266-.625h-.004z" fill="#4B1E0E"/><path d="M109.348 58.704c.961-.226 1.619-.919 1.47-1.547-.149-.628-1.048-.954-2.009-.728-.96.226-1.618.92-1.469 1.547.148.629 1.048.955 2.008.728zm-15.04 2.197c.986-.028 1.771-.574 1.753-1.219-.019-.645-.833-1.146-1.82-1.118-.986.029-1.771.574-1.753 1.22.019.645.833 1.145 1.82 1.117zm16.45 7.147a2.743 2.743 0 002.746-2.739 2.743 2.743 0 00-2.746-2.739 2.742 2.742 0 00-2.746 2.74 2.742 2.742 0 002.746 2.738zm-15.463 2.245a2.743 2.743 0 002.746-2.739 2.743 2.743 0 00-2.746-2.739 2.743 2.743 0 00-2.746 2.74 2.743 2.743 0 002.746 2.738z" fill="#4A1D0E"/><path d="M95.505 75.08c3.42 0 6.192-2.764 6.192-6.175s-2.772-6.177-6.192-6.177c-3.42 0-6.192 2.766-6.192 6.177 0 3.41 2.772 6.176 6.192 6.176zm14.445-2.6c3.42 0 6.192-2.765 6.192-6.176 0-3.41-2.772-6.176-6.192-6.176-3.42 0-6.192 2.765-6.192 6.176 0 3.41 2.772 6.176 6.192 6.176zm-8.276-4.14l2.228-.2" stroke="#2C3342" stroke-width=".521" stroke-miterlimit="10"/><ellipse cx="101.646" cy="157.5" rx="27.572" ry="2.5" fill="#000" fill-opacity=".1"/></g><defs><clipPath id="clip0_6016_74455"><path fill="#fff" transform="translate(46 30)" d="M0 0h140v132H0z"/></clipPath></defs></svg>