<svg width="160" height="160" viewBox="0 0 160 160" fill="none" xmlns="http://www.w3.org/2000/svg"><g id="Frame 4286"><g id="Group 2464"><path id="Vector" d="M155 97.62s-7.52 14.379-20.406 18.576c-12.886 4.196-20.119 6.819-34.34 17.835C86.034 145.047 86.587 152 86.587 152s-4.546-14.559-19.016-15.871c-14.47-1.311-19.692-19.306-21.571-26.047L98.508 96s45.871 7.701 56.492 1.62z" fill="#3BC763"/><g id="Group"><path id="Vector_2" d="M123.946 128.169c2.045-.901 6.438-3.687 6.438-3.687s3.074 3.656 5.633 2.53c2.345-1.032 1.441-4.635.367-7.49-1.125-2.994-2.329-3.955-4.059-3.953-2.196 0-5.091 1.751-10.286.495-16.19-3.6-16.94 13.681-16.94 13.681s8.764 2.861 18.847-1.576z" fill="#FBE9C9"/><path id="Vector_3" d="M104.987 130.121h-.01l-.282-.094.013-.297c.013-.33.412-8.126 5.719-12.195 2.986-2.291 6.923-2.913 11.698-1.853 3.499.847 5.894.305 7.817-.13.888-.201 1.657-.375 2.383-.375 2.02 0 3.301 1.216 4.427 4.207.617 1.642 2.493 6.634-.576 7.986-2.399 1.055-5.07-1.529-5.859-2.381-1.009.633-4.437 2.759-6.209 3.538-9.958 4.379-18.78 1.699-19.116 1.592l-.005.002zm28.295-14.03a3.185 3.185 0 00-.957-.133c-.638 0-1.367.167-2.212.357-1.896.43-4.496 1.016-8.165.128-4.531-1.008-8.248-.433-11.041 1.707-4.448 3.407-5.263 9.835-5.394 11.307 1.592.432 9.474 2.228 18.277-1.647 1.996-.878 6.342-3.632 6.386-3.66l.289-.183.222.261c.028.034 2.915 3.418 5.174 2.423 1.589-.698 1.641-3.054.159-6.996-.878-2.337-1.759-3.262-2.738-3.569v.005z" fill="#F0C9AE"/></g><path id="Vector_4" d="M90.988 101.363s26.314-.261 28.398 15.371c0 0 .782 6.514-3.126 13.027-2.9 4.833-6.774 8.598-2.084 13.288 0 0 3.126.521 3.647 2.084.829 2.483-.781 10.422-5.471 9.38-4.69-1.043-3.127-6.774-3.127-6.774s-14.59 1.042-14.33-9.901c0 0-26.053 13.288-55.233-12.506 0 0-5.732-5.471-8.077-10.161l59.403-13.808z" fill="#FAE8C8"/><path id="Vector_5" d="M113.171 154.997c-.294 0-.596-.033-.904-.101-1.323-.295-2.311-.967-2.931-1.998-1-1.657-.776-3.781-.599-4.747-.743.018-2.21.01-3.942-.24-2.288-.328-5.474-1.16-7.67-3.254-1.803-1.72-2.684-4.018-2.616-6.829l.781.018c-.062 2.582.738 4.682 2.374 6.243 3.931 3.751 11.464 3.264 11.539 3.259l.55-.039-.143.531c-.008.029-.732 2.775.403 4.656.509.839 1.327 1.389 2.431 1.637 1.191.263 2.241-.099 3.124-1.079 1.811-2.006 2.439-6.154 1.892-7.795-.368-1.1-2.535-1.689-3.34-1.822l-.123-.02-.088-.089c-4.19-4.19-1.837-7.795.656-11.61.456-.695.925-1.414 1.368-2.154 3.788-6.316 3.082-12.717 3.074-12.78-.841-6.305-5.781-10.752-14.681-13.214-6.709-1.855-13.259-1.814-13.324-1.814l-.008-.781c.065 0 6.714-.045 13.525 1.837 9.111 2.516 14.389 7.313 15.265 13.873.034.276.753 6.727-3.179 13.28-.451.753-.925 1.477-1.383 2.181-2.496 3.819-4.471 6.841-.845 10.544.675.127 3.294.721 3.828 2.324.602 1.808-.008 6.299-2.053 8.566-.847.938-1.86 1.42-2.97 1.42l-.011-.003z" fill="#F0C9AE"/><path id="Vector_6" d="M34.926 100.032c-7.84-1.173-22.649-3.578-24.895-5.292 0 0-.205-1.568-1.18-1.878 0 0-1.316-1.553-2.577.247 0 0-1.654.41-1.193 2.79 0 0 1.537 12.42 17.487 17.712 0 0 6.352 2.931 13.012.761 4.903-1.381 6.516-3.893 6.7-6.386.29-3.859-3.053-7.311-7.354-7.954z" fill="#FAE8C8"/><path id="Vector_7" d="M29 103.89s-.462 17.459 23.634 19.793c29.07 2.814 34.166-13.903 46.96-18.165 16.895-5.629 30.56 4.093 42.734-.256 12.175-4.35 12.672-7.164 12.672-7.164s-14.908 2.303-33.791-2.047c-18.883-4.35-60.935-5.81-92.208 7.839z" fill="#13AD67"/><path id="Vector_8" d="M49.641 7.702c-4.075-3.794-10.453-3.564-14.246.51-3.794 4.075-3.564 10.453.513 14.247l16.409-4.12A10.088 10.088 0 0049.644 7.7l-.003.003zM39.274 18.869a5.832 5.832 0 01-.297-8.239 5.832 5.832 0 018.239-.297 5.83 5.83 0 011.544 6.152l-9.488 2.38.002.004z" fill="#F4B54C"/><path id="Vector_9" d="M106.34 33.09c.935-5.477-2.746-10.675-8.223-11.613-5.476-.935-10.677 2.746-11.612 8.223l12.417 11.443a10.069 10.069 0 007.418-8.053zm-14.994-2.543a5.818 5.818 0 117.18 6.615l-7.18-6.615z" fill="#F4B54C"/><path id="Vector_10" d="M110.164 52.75c.562.16 5.017-.577 5.455-1.038-4.752-2.939-6.063-9.348-9.291-12.988-13.717-15.47-27.83-25.762-48.937-24.386-8.069.526-16.064 2.798-23.133 6.743-5.135 2.866-10.416 6.852-13.722 11.69-4.323 6.323-14.927 16.86-14.927 16.86s6.107 1.818 8.41.547c-1.25.63-3.858 14.525-3.954 15.94-.245 3.61-.128 7.24.224 10.846 1.474 15.142 8.24 17.38 8.691 24.665 1.717.333 4.794-2.856 4.828-5.06-.068 4.724 3.588 9.103 6.078 11.302 9.137 8.072 25.489 9.677 31.25 10.326.948.106 2.055.273 2.8-.326 6.678-5.365 37.76-11.115 43.286-26.466.628-1.748 1.399-4.13 1.277-4.788.398 2.139 1.558 4.861 2.543 4.838.776-5.287 3.895-6.824 4.356-15.862.396-7.717-2.051-14.705-5.234-22.839v-.005z" fill="#F3B44C"/><path id="Vector_11" d="M43.2 21.49a6.38 6.38 0 100-12.762 6.38 6.38 0 000 12.762z" fill="#F9E7C7"/><path id="Vector_12" d="M96.597 37.65a6.38 6.38 0 100-12.762 6.38 6.38 0 000 12.762z" fill="#F9E7C7"/><path id="Vector_13" d="M82.974 47.681C79.267 34.61 66.375 28.112 57.043 25.63c0 0-9.562-2.98-8.822 2.28 0 0 2.29 6.16-6.565 2.905C30.385 26.67 18.718 49.46 19.036 64.09c.31 14.205 13.063 26.31 37.244 26.017 2.46-.028 12.104-1.117 16.552-3.564 18.54-10.195 13.23-27.979 10.142-38.86v-.002z" fill="#F9E7C7"/><path id="Vector_14" d="M40.965 59.156s-1.24 13.165 3.848 13.157c5.089-.008 6.146-9.291 6.574-11.334.427-2.042-4.169-6.513-4.169-6.513l-6.253 4.69z" fill="#ED8280"/><path id="Vector_15" d="M61.386 45.125c.091-.882-.902-1.707-2.22-1.843-1.316-.137-2.457.468-2.549 1.35-.09.88.903 1.706 2.22 1.842 1.316.137 2.458-.468 2.549-1.35z" fill="#4B1E0E"/><path id="Vector_16" d="M46.287 40.803c.474-.679.02-1.813-1.013-2.533-1.032-.72-2.253-.754-2.727-.075-.473.679-.02 1.813 1.013 2.533s2.254.754 2.727.075z" fill="#4B1E0E"/><path id="Vector_17" d="M66.199 58.262a.87.87 0 00-1.22-.172l-1.99 1.5a.87.87 0 101.048 1.392l1.99-1.501a.87.87 0 00.172-1.22z" fill="#F0C9AE"/><path id="Vector_18" d="M68.35 59.74a.872.872 0 00-1.22-.173l-1.99 1.501a.87.87 0 101.047 1.389l1.99-1.501a.87.87 0 00.172-1.22v.003z" fill="#F0C9AE"/><path id="Vector_19" d="M31.372 45.196a.846.846 0 00-1.188-.166l-1.941 1.461a.848.848 0 101.021 1.355l1.941-1.462a.848.848 0 00.167-1.188z" fill="#F0C9AE"/><path id="Vector_20" d="M33.404 47.913a.847.847 0 00-1.019-1.352l-1.933 1.459a.847.847 0 00.38 1.511.841.841 0 00.639-.161l1.933-1.46v.003z" fill="#F0C9AE"/><path id="Vector_21" d="M49.935 73.905a.806.806 0 00-.977.591c-.13.534-1.485.97-2.342 1.066-1.73.153-3.061-.511-3.402-.782a.81.81 0 00-1.511.29c-.024.195.007.489.296.789.623.646 2.567 1.508 4.776 1.31a5.45 5.45 0 00.326-.044c.865-.14 3.035-.651 3.426-2.238a.806.806 0 00-.592-.977v-.005z" fill="#F0C9AE"/><path id="Vector_22" d="M55.942 57.084c-2.225-1.105-4.927-1.24-7.222-.328a2.804 2.804 0 00-1.488 1.36 4.493 4.493 0 00-.245-1.102c-.948-2.725-3.635-4.65-6.331-5.445-2.04-.602-4.523-1.035-6.566-.248l-.073.029c-1.709.685-3.024 2.537-2.446 4.405.404 1.298 1.652 2.356 2.725 3.132 2.483 1.795 5.883 3.41 9.017 3.004 1.017-.133 2.007-.526 2.778-1.188.33-.287.617-.628.826-1.013.086.925.73 1.617 1.487 2.18 1.764 1.31 3.945 2.332 6.146 2.561 2.416.253 5.928-1.253 4.675-4.241-.6-1.428-1.944-2.439-3.283-3.103v-.003z" fill="#F0C9AE"/><path id="Vector_23" d="M49.313 58.729c1.222-.232 3.017-1.037 3.194-2.887.284-3.002-3.767-4.247-5.92-4.252-2.48-.005-4.869 2.123-4.7 4.437.144 1.97 2.76 2.566 4.71 2.824 0 0 1.494.11 2.716-.122z" fill="#4B1E0E"/><path id="Vector_24" d="M43.924 48.879c.687-1.486-.067-3.297-1.684-4.045-1.617-.747-3.485-.148-4.172 1.338-.687 1.486.067 3.297 1.684 4.045 1.617.747 3.485.148 4.172-1.338z" fill="#4B1E0E"/><path id="Vector_25" d="M41.693 46.998c.17-.55-.194-1.15-.813-1.341-.618-.191-1.258.1-1.427.65-.17.55.194 1.15.813 1.341.619.191 1.258-.1 1.427-.65z" fill="#fff"/><path id="Vector_26" d="M60.966 53.573c.357-1.672-.852-3.347-2.7-3.743-1.85-.395-3.638.64-3.996 2.311-.357 1.672.852 3.348 2.7 3.743 1.85.395 3.638-.64 3.996-2.311z" fill="#4B1E0E"/><path id="Vector_27" d="M58.289 52.16c.07-.596-.426-1.144-1.11-1.225-.682-.081-1.293.337-1.364.932-.07.596.426 1.145 1.11 1.226.682.08 1.293-.337 1.364-.933z" fill="#fff"/><path id="Vector_28" d="M53 120.873s-6.071 1.699-6.558 7.874c0 0-.295 2.889.654 4.252 0 0 4.63-.501 5.687-4.716 0 0 .678-2.58 1.876-3.828l-1.662-3.582h.002z" fill="#3BC763"/><path id="Vector_29" d="M59.073 121.005s7.23-1.516 11.057 4.95c0 0 1.86 2.989 1.605 5 0 0-5.085 2.025-8.454-1.988 0 0-2.092-2.436-4.01-3.134l-.198-4.828z" fill="#3BC763"/><path id="Vector_30" d="M62.655 123.668a6.005 6.005 0 11-11.992.66 6.005 6.005 0 0111.992-.66z" fill="#fff"/><g id="Group_2"><g id="Group_3"><path id="Vector_31" d="M56.598 122.613l-1.32 1.442 1.442 1.319 1.32-1.441-1.442-1.32z" fill="#AD833B"/><path id="Vector_32" d="M56.594 122.616l1.443 1.321-.138.008-1.3-1.191-.005-.138z" fill="#C1994D"/><path id="Vector_33" d="M56.6 122.754l-1.186 1.3-.138.008 1.319-1.446.005.138z" fill="#D8BF98"/><path id="Vector_34" d="M56.717 125.378l-1.44-1.315.137-.008 1.298 1.185.005.138z" fill="#C1994D"/><path id="Vector_35" d="M56.712 125.239l1.188-1.295.138-.007-1.32 1.44-.006-.138z" fill="#7D4B2D"/></g><path id="Vector_36" d="M53.164 124.08c-.094-2.108 1.56-3.893 3.692-3.989a3.902 3.902 0 012.553.802l.031-.034a4.273 4.273 0 00-3.027-1.063c-2.35.105-4.174 2.074-4.07 4.396.086 1.917 1.725 3.34 3.663 3.251 1.048-.047 1.97-.487 2.582-1.235l-.02-.018c-.542.506-1.27.803-2.08.836-1.758.079-3.246-1.211-3.324-2.952v.006z" fill="url(#paint0_linear_3303_187412)"/><path id="Vector_37" d="M60.149 123.915c.094 2.108-1.558 3.893-3.692 3.989a3.875 3.875 0 01-2.55-.805l-.032.034a4.277 4.277 0 003.028 1.063c2.35-.104 4.173-2.074 4.07-4.395-.087-1.918-1.723-3.34-3.664-3.254-1.047.047-1.97.487-2.582 1.235l.023.02c.54-.505 1.27-.802 2.077-.838 1.759-.079 3.244 1.211 3.322 2.951z" fill="url(#paint1_linear_3303_187412)"/><path id="Vector_38" d="M56.749 126.879c-1.587.071-2.986-1.154-3.059-2.741-.104-2.311 1.524-3.723 3.533-3.811a3.604 3.604 0 012.16.594l.023-.026a3.87 3.87 0 00-2.553-.803c-2.134.097-3.788 1.881-3.692 3.989.078 1.738 1.566 3.03 3.325 2.952.81-.037 1.537-.331 2.079-.836l-.04-.034a2.87 2.87 0 01-1.779.721l.003-.005z" fill="url(#paint2_linear_3303_187412)"/><path id="Vector_39" d="M56.86 120.092c-2.144.097-3.806 1.884-3.713 3.994.078 1.743 1.571 3.036 3.34 2.955.813-.037 1.545-.331 2.087-.839l-.01-.008c-.537.485-1.25.769-2.048.802-1.756.079-3.241-1.198-3.317-2.923-.093-2.087 1.559-3.856 3.69-3.95a3.9 3.9 0 012.517.772l.007-.008a3.897 3.897 0 00-2.553-.795z" fill="url(#paint3_linear_3303_187412)"/><path id="Vector_40" d="M56.566 121.117c1.587-.07 2.989 1.155 3.06 2.739.103 2.313-1.525 3.723-3.536 3.811a3.628 3.628 0 01-2.16-.591l-.024.026a3.875 3.875 0 002.55.805c2.135-.096 3.786-1.881 3.693-3.989-.078-1.738-1.563-3.03-3.322-2.952-.81.037-1.537.331-2.077.839l.037.034a2.877 2.877 0 011.78-.722z" fill="url(#paint4_linear_3303_187412)"/><path id="Vector_41" d="M56.454 127.904c2.145-.096 3.807-1.883 3.713-3.994-.078-1.743-1.571-3.035-3.34-2.954-.813.036-1.542.331-2.087.836l.01.01c.537-.487 1.251-.768 2.046-.805 1.756-.078 3.24 1.199 3.316 2.924.094 2.087-1.56 3.856-3.689 3.949a3.894 3.894 0 01-2.517-.771l-.008.008a3.91 3.91 0 002.554.797h.002z" fill="url(#paint5_linear_3303_187412)"/></g><g id="Group_4"><path id="Vector_42" d="M95.932 105.776c-8.979 3.361-19.551 1.212-19.551 1.212-4.838-3.89-7.374.018-5.628 2.306 2.212 2.899 4.442 2.086 4.442 2.086 5.605 6.061 9.89 7.983 14.78 8.911 5.897 1.118 18.913-1.733 15.854-10.76 0 0-1.427-6.925-9.897-3.755z" fill="#FBE9C9"/><path id="Vector_43" d="M92.665 120.91c-1.027 0-1.97-.08-2.77-.232-4.791-.906-9.158-2.766-14.835-8.858-.7.141-2.683.255-4.624-2.287a.391.391 0 01.62-.475c1.996 2.614 3.918 1.986 3.999 1.957a.397.397 0 01.417.104c5.612 6.068 9.882 7.905 14.567 8.791 6.055 1.146 12.344-1.6 14.374-3.939 1.516-1.743 1.862-3.867 1.034-6.311a.391.391 0 01.74-.25c.925 2.725.526 5.107-1.186 7.076-2.717 3.127-8.201 4.424-12.341 4.424h.005z" fill="#F0C9AE"/></g></g></g><defs><linearGradient id="paint0_linear_3303_187412" x1="53.338" y1="126.692" x2="58.969" y2="120.393" gradientUnits="userSpaceOnUse"><stop stop-color="#AD833B"/><stop offset=".12" stop-color="#AE853E"/><stop offset=".22" stop-color="#B38B48"/><stop offset=".31" stop-color="#BA9659"/><stop offset=".4" stop-color="#C5A570"/><stop offset=".48" stop-color="#D3B98F"/><stop offset=".5" stop-color="#D8BF98"/><stop offset=".52" stop-color="#D3B98F"/><stop offset=".6" stop-color="#C5A570"/><stop offset=".69" stop-color="#BA9659"/><stop offset=".78" stop-color="#B38B48"/><stop offset=".88" stop-color="#AE853E"/><stop offset="1" stop-color="#AD833B"/></linearGradient><linearGradient id="paint1_linear_3303_187412" x1="59.91" y1="121.318" x2="54.417" y2="127.596" gradientUnits="userSpaceOnUse"><stop stop-color="#00553C"/><stop offset=".12" stop-color="#03573E"/><stop offset=".21" stop-color="#0D5D45"/><stop offset=".3" stop-color="#1E6950"/><stop offset=".38" stop-color="#357961"/><stop offset=".46" stop-color="#548D76"/><stop offset=".5" stop-color="#689B84"/><stop offset=".54" stop-color="#548D76"/><stop offset=".62" stop-color="#357961"/><stop offset=".7" stop-color="#1E6950"/><stop offset=".79" stop-color="#0D5D45"/><stop offset=".88" stop-color="#03573E"/><stop offset="1" stop-color="#00553C"/></linearGradient><linearGradient id="paint2_linear_3303_187412" x1="56.594" y1="120.419" x2="55.724" y2="125.758" gradientUnits="userSpaceOnUse"><stop stop-color="#7D4B2D"/><stop offset=".3" stop-color="#AD833B"/><stop offset="1" stop-color="#7D4B2D"/></linearGradient><linearGradient id="paint3_linear_3303_187412" x1="56.532" y1="120.513" x2="55.775" y2="125.847" gradientUnits="userSpaceOnUse"><stop stop-color="#C1994D"/><stop offset=".3" stop-color="#F1E5CD"/><stop offset="1" stop-color="#C1994D"/></linearGradient><linearGradient id="paint4_linear_3303_187412" x1="57.599" y1="122.251" x2="56.692" y2="127.573" gradientUnits="userSpaceOnUse"><stop stop-color="#00462F"/><stop offset=".7" stop-color="#00553C"/><stop offset="1" stop-color="#00462F"/></linearGradient><linearGradient id="paint5_linear_3303_187412" x1="56.752" y1="127.557" x2="57.586" y2="122.238" gradientUnits="userSpaceOnUse"><stop stop-color="#007156"/><stop offset=".3" stop-color="#E8F3F2"/><stop offset="1" stop-color="#007156"/></linearGradient></defs></svg>