<svg width="200" height="150" viewBox="0 0 200 150" fill="none" xmlns="http://www.w3.org/2000/svg"><g clip-path="url(#clip0_3225_99787)"><path d="M14 56.5c29.5-35.33 50.032-37.117 84.072-35.33C127.47 22.713 137.5 30.34 148 42c10.499 11.66 7 27.5 28 31.5 20.22 3.852 22.5 15 23.917 24.144 3.937 52.983-133.344 43.896-160.642 37.209C11.976 128.165-18.585 95.523 14 56.5z" fill="#CFF7D8"/><ellipse cx="100" cy="133" rx="60" ry="17" fill="#7DD3A4"/><path d="M120.5 89s24.5 55.5-36.621 51c-6.595-.014-11.234-.555-14.203-.677-2.337-.098-3.747-2.147-4.397-4.396-1.146-3.963-2.448-8.799 1.015-8.792 5.306.01 7.027 5.83 7.027 5.83l8.89-6.865L120.5 89z" fill="#FBE9C9"/><path d="M130.589 82.467s11.326-.598 21.775-5.316c2.134-3.513 3.24-5.164 6.591-4.795 3.351.369 2.519 6.47.419 7.43-2.888 2.1-5.833 1.092-5.833 1.092s-14.941 22.711-27.328 19.969c-12.39-2.74 4.38-18.376 4.38-18.376l-.004-.004zm-57.576 1.079S56.101 69.79 47.444 68.765c-1.275-3.906-1.971-5.77-5.32-6.175-3.347-.406-3.932 5.722-2.102 7.135 2.333 2.706 5.43 2.394 5.43 2.394s9.358 25.522 22.046 25.684c12.688.163 5.518-14.257 5.518-14.257h-.003z" fill="#FBE9C9"/><path d="M66.398 86.414s-8.018 7.22-5.397 27.696c-.666-.67-2.448.524-3.246.524-2.537-.004-4.075.93-4.075.93s.378-5.631-3.169-7.514c-1.576-.836-3.51.24-3.717 2.012-.388 3.314 1.16 8.234 2.347 11.396a4.449 4.449 0 003.653 2.844c5.634.676 12.258-.71 12.258-.71l8.607 9.391 56.548-46.41-63.812-.156.003-.003z" fill="#FBE9C9"/><path d="M118.734 128.157s3.453-5.999 10.899-3.003c2.394.964 2.513-1.339 2.797-2.161.287-.825 5.11 5.086-.751 9.817-5.86 4.731-13.341-1.738-12.948-4.653h.003z" fill="#F5B64C"/><path d="M125.386 124.319c-4.525.135-6.652 3.838-6.652 3.838-.261 1.921 2.898 5.38 6.756 6.168 0 0-3.899-2.793-1.109-5.552 2.79-2.76 1.008-4.451 1.008-4.451l-.003-.003z" fill="#FBE9C9"/><path d="M89.77 127.281s-12.51-.994-16.11 5.699c-3.467-7.464-7.335-6.896-7.335-6.896s-4.732.075-.02 11.863c3.49 3.504 31.807 1.116 31.807 1.116M61.363 97.215s-4.139 18.518 3.693 26.377" stroke="#F0C9AE" stroke-width="2.56" stroke-linecap="round" stroke-linejoin="round"/><path d="M127.393 85.798c-10.003 16.665-41.412 16.03-41.412 16.03s-17.04-4.846-23.546-29.911c0 0 65.192 13.492 64.958 13.881z" fill="#13AD67"/><path d="M145.056 51.464c.44.277 4.407.744 4.89.46-3.317-3.666-2.857-9.435-4.704-13.32-7.855-16.517-17.324-28.728-35.595-32.742-6.987-1.535-14.342-1.566-21.315.047-5.07 1.174-10.115 3.856-14.531 6.564-4.64 2.844-6.233 4.342-9.905 8.373-4.65 5.103-9.087 6.46-9.087 6.46s4.745 3.046 7.014 2.532c-1.217.227-4.68 7.224-5.11 8.404-1.095 3.01-1.887 6.12-2.472 9.272-2.468 13.23 2.736 16.794 1.33 23.097 1.376.707 4.774-1.248 5.342-3.114-1.217 3.997.815 8.616 2.388 11.095 5.782 9.103 23.442 16.892 28.18 18.856a5.518 5.518 0 002.458.413c5.914-.365 30.658-2.577 39.126-14.267.964-1.333 2.205-3.166 2.262-3.758-.186 1.918.129 4.515.974 4.735 1.958-4.302 4.985-4.843 7.599-12.411 2.232-6.462 1.866-13 1.163-20.692l-.007-.004z" fill="#F4B54C"/><path d="M127.796 38.952c-2.604-11.298-13.963-17.974-22.316-20.946 0 0-8.535-3.41-8.173 1.061 0 0 1.721 5.377-6.155 1.803-10.023-4.548-21.998 13.415-22.576 25.694-.558 11.92 10.341 23.28 32.386 25.35 2.242.209 11.092.222 15.289-1.401 17.493-6.76 13.709-22.157 11.542-31.565l.003.004z" fill="#F6E3C4"/><path d="M140.626 18.242a8.851 8.851 0 00-7.73-9.847c-3.578-.43-7.109 1.664-8.85 4.565l6.733 13.013a8.851 8.851 0 009.847-7.73zm-9.259 3.406l-3.527-7.203a4.783 4.783 0 018.847 3.03 4.777 4.777 0 01-5.316 4.173h-.004zM82.603.847C78.17-1.239 72.881.661 70.794 5.094c-2.086 4.434-.186 9.723 4.248 11.81L87.696 9.05A8.873 8.873 0 0082.6.847h.003zm-5.698 12.144a5.13 5.13 0 117.318-4.539l-7.318 4.542v-.003z" fill="#F4B54C"/><path d="M83.841 9.876a5.523 5.523 0 01-6.966 3.537 5.523 5.523 0 01-3.537-6.966 5.523 5.523 0 016.966-3.537 5.523 5.523 0 013.537 6.966zm49.074 12.545a5.525 5.525 0 10-1.403-10.963 5.525 5.525 0 001.403 10.963z" fill="#F6E3C4"/><path d="M102.109 48.383s-.494 10.93-4.92 10.74c0 0-5.022.464-3.024-10.804l4.785-2.333 3.159 2.397z" fill="#ED8280"/><path d="M117.219 43.69a.938.938 0 00-1.377-.153l-1.961 1.725c-.379.331-.484.913-.183 1.315.169.227.42.349.677.369a.926.926 0 00.689-.23l1.969-1.728c.372-.328.48-.896.186-1.298zm2.428 1.41a.936.936 0 00-1.376-.153l-1.965 1.728c-.379.332-.484.914-.179 1.313a.932.932 0 00.676.368.927.927 0 00.69-.23l1.965-1.728c.372-.328.48-.896.186-1.298h.003zm-38.264-8.13a.937.937 0 00-1.376-.152l-1.962 1.724c-.378.332-.487.913-.182 1.316a.93.93 0 00.676.369.928.928 0 00.69-.23l1.968-1.728c.372-.328.48-.897.186-1.299zm2.428 1.41a.937.937 0 00-1.376-.152l-1.965 1.728c-.379.331-.484.91-.18 1.312.173.227.42.352.677.369a.928.928 0 00.69-.23l1.965-1.728c.372-.328.48-.896.186-1.299h.003zm1.586 5.137c1.356-1.031 3.182-1.248 4.816-1.136 2.709.186 5.336 1.566 6.997 3.716.48.626.69 1.356.652 2.09 0 .014.014.017.02.007.234-.325.514-.622.816-.883 2.404-2.08 6.005-2.418 8.988-1.674 2.259.562 4.839 1.536 6.334 3.43.017.023.034.043.054.067 1.231 1.61 1.451 4.115-.132 5.576-1.099 1.018-2.864 1.33-4.305 1.471-3.338.332-7.439-.023-10.172-2.16-.886-.694-1.6-1.624-1.961-2.689a4.057 4.057 0 01-.22-1.39c0-.013-.014-.017-.02-.007-.596.812-1.576 1.11-2.587 1.225-2.391.267-5.012.027-7.217-.981-2.418-1.106-4.896-4.508-2.06-6.665l-.003.003z" fill="#F0C9AE"/><path d="M100.598 49.38c1.241-.057 3.131-.598 3.571-2.414.713-2.942-3.108-4.761-5.232-5.072-2.448-.359-5.116 1.413-5.282 3.737-.142 1.978 2.354 2.945 4.244 3.483.007 0 1.461.321 2.699.267zm9.656-15.015c.26-.696-.387-1.581-1.445-1.977-1.059-.395-2.127-.152-2.388.545-.26.696.387 1.581 1.446 1.977 1.058.395 2.127.151 2.387-.545zM96.8 30.747c.101-.736-.723-1.46-1.842-1.614-1.12-.155-2.11.316-2.212 1.052-.102.736.723 1.459 1.842 1.614 1.12.155 2.11-.316 2.211-1.052z" fill="#4A1D0E"/><path d="M100.922 60.862c-.402-.078-.767.186-.95.554-.253.51-1.674.768-2.556.748-1.81-.078-3.095-.947-3.412-1.275v-.004a.843.843 0 00-1.6.092c-.05.2-.057.507.2.859.554.754 2.448 1.913 4.76 2.012h.342c.913-.027 3.23-.257 3.852-1.847a.842.842 0 00-.632-1.136l-.004-.003z" fill="#F0C9AE"/><path d="M111.564 41.44l-4.781-2.23a.6.6 0 00-.796.29l-.775 1.665c-.14.3-.01.656.289.795l4.782 2.229c.299.14.656.01.795-.29l.776-1.664c.14-.3.01-.656-.29-.795zm-17.908-5.074l-5.272-.2a.599.599 0 00-.62.575l-.07 1.835a.599.599 0 00.575.62l5.271.201a.599.599 0 00.621-.575l.07-1.835a.599.599 0 00-.575-.621z" fill="#4B1E0E"/><path d="M86.115 99.379s-7.284-3.727-13.186 1.738c0 0-2.823 2.496-3.118 4.633 0 0 4.857 3.598 9.577.507 0 0 2.915-1.863 5.157-1.998l1.57-4.88zm4.538 3.378s9.164.081 12.188 8.566c0 0 1.508 3.943.693 6.216 0 0-6.689 1.055-9.77-4.464 0 0-1.927-3.362-4.081-4.66l.973-5.658h-.003z" fill="#3BC763"/><path d="M94.81 105.006a7.794 7.794 0 01-9.739 5.164 7.794 7.794 0 01-5.164-9.739 7.794 7.794 0 019.74-5.164 7.794 7.794 0 015.163 9.739z" fill="#fff"/><path d="M87.893 101.015l-2.253 1.163 1.163 2.254 2.254-1.164-1.164-2.253z" fill="#AD833B"/><path d="M87.902 101.009l1.163 2.256-.169-.054-1.048-2.033.054-.169z" fill="#C1994D"/><path d="M87.848 101.178l-2.03 1.052-.171-.054 2.255-1.167-.054.169z" fill="#D8BF98"/><path d="M86.813 104.428l-1.166-2.252.172.054 1.048 2.026-.054.172z" fill="#C1994D"/><path d="M86.867 104.256l2.029-1.045.169.054-2.252 1.163.054-.172z" fill="#7D4B2D"/><path d="M83.066 101.253c.831-2.608 3.645-4.041 6.286-3.203a5.044 5.044 0 012.75 2.124l.053-.027a5.565 5.565 0 00-3.209-2.655c-2.908-.926-6.012.653-6.929 3.531-.754 2.374.602 4.842 3.003 5.603 1.295.413 2.618.291 3.696-.345l-.016-.034c-.886.372-1.904.406-2.909.088-2.178-.693-3.409-2.932-2.725-5.086v.004z" fill="url(#paint0_linear_3225_99787)"/><path d="M91.648 104.184c-.832 2.608-3.645 4.042-6.286 3.203a5.025 5.025 0 01-2.746-2.124l-.055.027a5.566 5.566 0 003.21 2.655c2.911.926 6.012-.653 6.929-3.531.754-2.374-.602-4.842-3.003-5.606-1.295-.413-2.618-.291-3.696.344l.017.034c.886-.375 1.903-.409 2.904-.088 2.178.694 3.41 2.932 2.723 5.086h.003z" fill="url(#paint1_linear_3225_99787)"/><path d="M86.173 106.268c-1.965-.626-3.118-2.746-2.496-4.708.91-2.86 3.527-3.851 6.016-3.057.984.315 1.796.92 2.367 1.691l.04-.02a5.044 5.044 0 00-2.748-2.124c-2.642-.842-5.455.592-6.287 3.203-.686 2.154.548 4.392 2.726 5.086 1 .318 2.022.284 2.908-.088l-.03-.061a3.731 3.731 0 01-2.49.081l-.006-.003z" fill="url(#paint2_linear_3225_99787)"/><path d="M89.356 98.053c-2.655-.845-5.482.589-6.314 3.199-.687 2.158.555 4.4 2.742 5.097 1.008.321 2.03.287 2.919-.085l-.007-.017c-.872.349-1.87.376-2.854.061-2.174-.693-3.409-2.915-2.73-5.049.823-2.583 3.63-3.997 6.267-3.158a5.04 5.04 0 012.719 2.069l.014-.006a5.074 5.074 0 00-2.753-2.114l-.003.003z" fill="url(#paint3_linear_3225_99787)"/><path d="M88.537 99.17c1.965.625 3.121 2.745 2.496 4.707-.913 2.864-3.527 3.848-6.016 3.057a4.707 4.707 0 01-2.364-1.691l-.04.02a5.038 5.038 0 002.745 2.124c2.641.842 5.455-.592 6.287-3.203.686-2.154-.545-4.392-2.722-5.086-1.002-.317-2.023-.284-2.905.088l.03.058a3.72 3.72 0 012.492-.078l-.003.003z" fill="url(#paint4_linear_3225_99787)"/><path d="M85.355 107.384c2.655.845 5.482-.589 6.314-3.199.686-2.158-.551-4.4-2.743-5.097-1.004-.32-2.029-.287-2.915.085l.007.017c.873-.352 1.87-.376 2.854-.061 2.175.693 3.409 2.915 2.73 5.049-.823 2.583-3.63 3.997-6.267 3.158a5.05 5.05 0 01-2.719-2.069l-.013.006a5.077 5.077 0 002.752 2.117v-.006z" fill="url(#paint5_linear_3225_99787)"/><rect x="158.021" y="57.939" width="4" height="33" rx="2" transform="rotate(18.868 158.021 57.939)" fill="#4A1D0E"/><circle cx="161.53" cy="53.854" r="15.5" transform="rotate(18.868 161.53 53.854)" fill="#fff" stroke="#FFDBD7" stroke-width="3"/><path d="M167.019 49.39a3.81 3.81 0 00-2.501.001c-.803.27-1.439.747-1.843 1.114-.095-.537-.307-1.304-.776-2.009a3.809 3.809 0 00-1.977-1.532c-2.293-.783-4.657.484-5.499 2.95-.91 2.662.624 5.221 2.947 9.095.394.658.842 1.404 1.301 2.193a.503.503 0 00.623.213c.847-.343 1.657-.66 2.372-.938 4.208-1.642 6.987-2.727 7.897-5.39.842-2.465-.251-4.914-2.544-5.698z" fill="red"/><rect x="33.244" y="53.213" width="4" height="33" rx="2" transform="rotate(-15.203 33.244 53.213)" fill="#4A1D0E"/><circle cx="33.863" cy="47.863" r="15.5" transform="rotate(-15.203 33.863 47.863)" fill="#fff" stroke="#B7C516" stroke-width="3"/><path d="M27.108 49.699l13.51-3.672m-8.59-4.919l3.67 13.51" stroke="#B7C516" stroke-width="3" stroke-linecap="round"/></g><defs><linearGradient id="paint0_linear_3225_99787" x1="82.079" y1="104.52" x2="91.759" y2="99.37" gradientUnits="userSpaceOnUse"><stop stop-color="#AD833B"/><stop offset=".12" stop-color="#AE853E"/><stop offset=".22" stop-color="#B38B48"/><stop offset=".31" stop-color="#BA9659"/><stop offset=".4" stop-color="#C5A570"/><stop offset=".48" stop-color="#D3B98F"/><stop offset=".5" stop-color="#D8BF98"/><stop offset=".52" stop-color="#D3B98F"/><stop offset=".6" stop-color="#C5A570"/><stop offset=".69" stop-color="#BA9659"/><stop offset=".78" stop-color="#B38B48"/><stop offset=".88" stop-color="#AE853E"/><stop offset="1" stop-color="#AD833B"/></linearGradient><linearGradient id="paint1_linear_3225_99787" x1="92.491" y1="100.916" x2="82.988" y2="106.101" gradientUnits="userSpaceOnUse"><stop stop-color="#00553C"/><stop offset=".12" stop-color="#03573E"/><stop offset=".21" stop-color="#0D5D45"/><stop offset=".3" stop-color="#1E6950"/><stop offset=".38" stop-color="#357961"/><stop offset=".46" stop-color="#548D76"/><stop offset=".5" stop-color="#689B84"/><stop offset=".54" stop-color="#548D76"/><stop offset=".62" stop-color="#357961"/><stop offset=".7" stop-color="#1E6950"/><stop offset=".79" stop-color="#0D5D45"/><stop offset=".88" stop-color="#03573E"/><stop offset="1" stop-color="#00553C"/></linearGradient><linearGradient id="paint2_linear_3225_99787" x1="88.858" y1="98.337" x2="85.406" y2="104.446" gradientUnits="userSpaceOnUse"><stop stop-color="#7D4B2D"/><stop offset=".3" stop-color="#AD833B"/><stop offset="1" stop-color="#7D4B2D"/></linearGradient><linearGradient id="paint3_linear_3225_99787" x1="88.74" y1="98.42" x2="85.425" y2="104.576" gradientUnits="userSpaceOnUse"><stop stop-color="#C1994D"/><stop offset=".3" stop-color="#F1E5CD"/><stop offset="1" stop-color="#C1994D"/></linearGradient><linearGradient id="paint4_linear_3225_99787" x1="89.261" y1="101.02" x2="85.771" y2="107.092" gradientUnits="userSpaceOnUse"><stop stop-color="#00462F"/><stop offset=".7" stop-color="#00553C"/><stop offset="1" stop-color="#00462F"/></linearGradient><linearGradient id="paint5_linear_3225_99787" x1="85.851" y1="107.1" x2="89.247" y2="100.998" gradientUnits="userSpaceOnUse"><stop stop-color="#007156"/><stop offset=".3" stop-color="#E8F3F2"/><stop offset="1" stop-color="#007156"/></linearGradient><clipPath id="clip0_3225_99787"><path fill="#fff" d="M0 0h200v150H0z"/></clipPath></defs></svg>