<svg width="201" height="150" viewBox="0 0 201 150" fill="none" xmlns="http://www.w3.org/2000/svg"><g clip-path="url(#clip0_3225_99852)"><path d="M14.5 56.5C44 21.17 64.532 19.385 98.572 21.17 127.97 22.715 138 30.34 148.5 42c10.499 11.66 7 27.5 28 31.5 20.22 3.852 22.5 15 23.917 24.145 3.937 52.983-133.344 43.895-160.642 37.208C12.476 128.166-18.085 95.524 14.5 56.5z" fill="#CFF7D8"/><ellipse cx="100.5" cy="133" rx="60" ry="17" fill="#7DD3A4"/><path d="M130.522 86.515s19.1 53.603-46.143 53.484c-6.595-.013-11.234-.554-14.203-.676-2.337-.098-3.747-2.147-4.397-4.396-1.146-3.964-2.448-8.799 1.015-8.793 5.306.011 7.027 5.83 7.027 5.83l8.89-6.864 47.811-38.585z" fill="#FBE9C9"/><path d="M131.089 82.468s11.326-.6 21.775-5.317c2.134-3.513 3.24-5.163 6.591-4.795 3.351.369 2.519 6.47.419 7.43-2.888 2.1-5.833 1.092-5.833 1.092s-14.941 22.711-27.328 19.969c-12.39-2.74 4.38-18.376 4.38-18.376l-.004-.004zm-57.576 1.078S56.601 69.789 47.944 68.764c-1.275-3.905-1.971-5.769-5.32-6.174-3.347-.406-3.932 5.721-2.102 7.135 2.333 2.705 5.43 2.394 5.43 2.394s9.358 25.522 22.046 25.684c12.688.162 5.518-14.257 5.518-14.257h-.003z" fill="#FBE9C9"/><path d="M66.9 86.414s-8.019 7.22-5.398 27.696c-.666-.67-2.448.524-3.247.524-2.536-.003-4.074.93-4.074.93s.378-5.63-3.17-7.514c-1.575-.835-3.51.24-3.716 2.012-.388 3.314 1.16 8.235 2.347 11.396a4.448 4.448 0 003.653 2.844c5.633.677 12.258-.71 12.258-.71l8.607 9.391 56.548-46.41-63.812-.156.003-.003z" fill="#FBE9C9"/><path d="M119.233 128.158s3.453-6 10.899-3.003c2.394.963 2.513-1.34 2.797-2.161.287-.825 5.11 5.086-.751 9.817-5.86 4.731-13.341-1.738-12.948-4.653h.003z" fill="#F5B64C"/><path d="M125.886 124.319c-4.525.136-6.652 3.839-6.652 3.839-.261 1.92 2.898 5.38 6.756 6.168 0 0-3.899-2.794-1.109-5.553s1.008-4.45 1.008-4.45l-.003-.004z" fill="#FBE9C9"/><path d="M90.269 127.281s-12.51-.994-16.11 5.698c-3.467-7.463-7.336-6.895-7.336-6.895s-4.73.075-.02 11.863c3.49 3.504 31.808 1.116 31.808 1.116M61.862 97.215s-4.139 18.518 3.693 26.377" stroke="#F0C9AE" stroke-width="2.56" stroke-linecap="round" stroke-linejoin="round"/><path d="M127.894 85.799c-10.003 16.665-41.412 16.029-41.412 16.029s-17.04-4.846-23.547-29.911c0 0 65.193 13.493 64.959 13.882z" fill="#13AD67"/><path d="M145.556 51.464c.44.277 4.407.744 4.89.46-3.317-3.666-2.857-9.435-4.704-13.32-7.855-16.517-17.324-28.728-35.595-32.742-6.987-1.535-14.342-1.566-21.315.047-5.07 1.174-10.115 3.856-14.531 6.564-4.64 2.844-6.233 4.342-9.905 8.373-4.65 5.103-9.087 6.46-9.087 6.46s4.745 3.046 7.014 2.532c-1.217.227-4.68 7.224-5.11 8.404-1.095 3.01-1.887 6.12-2.472 9.272-2.468 13.23 2.736 16.794 1.33 23.097 1.376.707 4.774-1.248 5.342-3.114-1.217 3.997.815 8.616 2.388 11.095 5.782 9.103 23.442 16.891 28.18 18.856a5.518 5.518 0 002.458.413c5.914-.365 30.658-2.577 39.126-14.268.964-1.332 2.205-3.165 2.262-3.757-.186 1.918.129 4.515.974 4.735 1.958-4.302 4.985-4.843 7.599-12.411 2.232-6.462 1.866-13 1.163-20.693l-.007-.003z" fill="#F4B54C"/><path d="M128.297 38.952c-2.604-11.298-13.963-17.973-22.316-20.946 0 0-8.535-3.409-8.173 1.062 0 0 1.721 5.377-6.155 1.802-10.023-4.548-21.998 13.415-22.576 25.694-.558 11.92 10.341 23.28 32.386 25.35 2.242.21 11.092.223 15.289-1.4 17.493-6.76 13.709-22.157 11.542-31.565l.003.003z" fill="#F6E3C4"/><path d="M141.127 18.242a8.851 8.851 0 00-7.73-9.847c-3.578-.43-7.109 1.664-8.85 4.565l6.733 13.013a8.851 8.851 0 009.847-7.73zm-9.259 3.406l-3.527-7.203a4.783 4.783 0 018.847 3.03 4.777 4.777 0 01-5.316 4.173h-.004zM83.103.847C78.67-1.239 73.381.661 71.294 5.094c-2.086 4.434-.186 9.723 4.248 11.81L88.196 9.05A8.873 8.873 0 0083.1.847h.003zm-5.698 12.144a5.13 5.13 0 117.318-4.539l-7.318 4.542v-.003z" fill="#F4B54C"/><path d="M84.34 9.876a5.523 5.523 0 01-6.966 3.538 5.523 5.523 0 01-3.537-6.967 5.523 5.523 0 016.966-3.537 5.523 5.523 0 013.537 6.966zm49.075 12.545a5.525 5.525 0 10-1.404-10.962 5.525 5.525 0 001.404 10.962z" fill="#F6E3C4"/><path d="M102.609 48.383s-.494 10.93-4.92 10.74c0 0-5.022.464-3.024-10.804l4.785-2.334 3.159 2.398z" fill="#ED8280"/><path d="M117.719 43.69a.938.938 0 00-1.377-.153l-1.961 1.725c-.379.331-.484.913-.183 1.316.169.226.42.348.677.368a.926.926 0 00.689-.23l1.969-1.728c.372-.328.48-.896.186-1.298zm2.426 1.41a.936.936 0 00-1.376-.153l-1.965 1.729c-.379.331-.484.913-.179 1.312a.932.932 0 00.676.368.927.927 0 00.69-.23l1.965-1.728c.372-.328.48-.896.186-1.298h.003zm-38.263-8.13a.937.937 0 00-1.376-.152l-1.962 1.724c-.378.332-.486.913-.182 1.316.169.226.42.348.676.368a.927.927 0 00.69-.23l1.968-1.728c.372-.328.48-.896.186-1.298zm2.428 1.41a.937.937 0 00-1.377-.152l-1.965 1.728c-.379.331-.484.91-.18 1.312a.92.92 0 00.677.368.928.928 0 00.69-.23l1.965-1.727c.372-.329.48-.897.186-1.299h.003zm1.586 5.136c1.356-1.031 3.183-1.248 4.816-1.136 2.709.186 5.336 1.566 6.996 3.716.48.626.69 1.357.653 2.09 0 .014.014.017.02.007.234-.325.514-.622.816-.883 2.404-2.08 6.005-2.418 8.988-1.674 2.259.562 4.839 1.536 6.334 3.43.017.023.034.043.054.067 1.231 1.61 1.451 4.116-.132 5.577-1.099 1.017-2.864 1.329-4.305 1.47-3.337.332-7.439-.023-10.172-2.16-.886-.694-1.6-1.623-1.961-2.689a4.055 4.055 0 01-.22-1.39c0-.013-.014-.017-.02-.006-.596.811-1.576 1.109-2.587 1.224-2.391.267-5.012.027-7.217-.98-2.418-1.107-4.897-4.509-2.06-6.666l-.003.003z" fill="#F0C9AE"/><path d="M101.097 49.38c1.241-.057 3.131-.598 3.571-2.414.713-2.942-3.108-4.761-5.232-5.072-2.448-.359-5.116 1.413-5.282 3.737-.142 1.978 2.354 2.945 4.244 3.483.007 0 1.461.321 2.699.267zm9.656-15.015c.261-.696-.387-1.582-1.445-1.977s-2.127-.152-2.388.545c-.26.696.387 1.581 1.446 1.977 1.058.395 2.127.151 2.387-.545zm-13.455-3.619c.102-.736-.722-1.459-1.841-1.614-1.12-.155-2.11.316-2.212 1.052-.102.737.723 1.46 1.842 1.614 1.12.155 2.11-.316 2.211-1.052z" fill="#4A1D0E"/><path d="M101.421 60.861c-.402-.077-.767.186-.95.555-.253.51-1.674.768-2.556.747-1.81-.077-3.095-.946-3.413-1.274v-.004a.842.842 0 00-1.599.091c-.05.2-.058.508.2.86.554.754 2.448 1.913 4.76 2.011h.343c.912-.027 3.229-.257 3.851-1.846a.842.842 0 00-.632-1.136l-.004-.004z" fill="#F0C9AE"/><path d="M112.064 41.44l-4.781-2.23a.6.6 0 00-.796.29l-.775 1.665c-.14.3-.01.656.289.795l4.782 2.229c.299.14.656.01.795-.29l.776-1.664c.14-.3.01-.656-.29-.795zm-17.909-5.074l-5.272-.2a.599.599 0 00-.62.575l-.07 1.835a.599.599 0 00.575.62l5.272.201a.599.599 0 00.62-.575l.07-1.835a.599.599 0 00-.575-.621z" fill="#4B1E0E"/><path d="M86.616 99.378s-7.285-3.726-13.186 1.738c0 0-2.823 2.496-3.118 4.633 0 0 4.857 3.598 9.577.508 0 0 2.915-1.864 5.157-1.999l1.57-4.88zm4.538 3.379s9.164.081 12.188 8.566c0 0 1.508 3.943.693 6.215 0 0-6.689 1.055-9.77-4.464 0 0-1.927-3.361-4.081-4.66l.974-5.657h-.004z" fill="#3BC763"/><path d="M95.311 105.006a7.794 7.794 0 01-9.739 5.164 7.794 7.794 0 01-5.164-9.739 7.794 7.794 0 019.74-5.164 7.794 7.794 0 015.163 9.739z" fill="#fff"/><path d="M88.392 101.014l-2.253 1.164 1.163 2.253 2.254-1.163-1.164-2.254z" fill="#AD833B"/><path d="M88.402 101.009l1.163 2.255-.169-.054-1.048-2.032.054-.169z" fill="#C1994D"/><path d="M88.346 101.178l-2.029 1.052-.172-.055 2.255-1.166-.054.169z" fill="#D8BF98"/><path d="M87.311 104.428l-1.167-2.252.173.054 1.048 2.026-.054.172z" fill="#C1994D"/><path d="M87.367 104.255l2.029-1.045.169.054-2.252 1.163.054-.172z" fill="#7D4B2D"/><path d="M83.566 101.252c.831-2.607 3.645-4.041 6.286-3.202a5.045 5.045 0 012.75 2.123l.053-.027a5.565 5.565 0 00-3.209-2.654c-2.908-.927-6.012.652-6.929 3.53-.754 2.374.602 4.843 3.003 5.604 1.295.412 2.618.29 3.696-.345l-.016-.034c-.886.372-1.904.406-2.909.088-2.178-.693-3.409-2.932-2.725-5.086v.003z" fill="url(#paint0_linear_3225_99852)"/><path d="M92.15 104.184c-.833 2.608-3.646 4.041-6.288 3.203a5.025 5.025 0 01-2.745-2.124l-.055.027a5.565 5.565 0 003.21 2.655c2.911.926 6.012-.653 6.929-3.531.754-2.374-.602-4.842-3.003-5.606-1.295-.413-2.618-.291-3.696.344l.017.034c.886-.375 1.903-.409 2.904-.088 2.178.694 3.41 2.932 2.723 5.086h.003z" fill="url(#paint1_linear_3225_99852)"/><path d="M86.673 106.267c-1.965-.625-3.118-2.746-2.496-4.707.91-2.861 3.527-3.852 6.016-3.057.984.314 1.796.92 2.367 1.691l.04-.021a5.046 5.046 0 00-2.748-2.123c-2.642-.842-5.455.591-6.287 3.202-.686 2.154.548 4.393 2.726 5.086 1 .318 2.022.284 2.908-.088l-.03-.061a3.731 3.731 0 01-2.49.082l-.006-.004z" fill="url(#paint2_linear_3225_99852)"/><path d="M89.856 98.053c-2.654-.845-5.481.589-6.313 3.199-.687 2.158.554 4.4 2.742 5.097 1.008.321 2.03.287 2.919-.085l-.007-.017c-.873.348-1.87.375-2.854.061-2.175-.693-3.409-2.915-2.73-5.049.823-2.584 3.63-3.997 6.267-3.158a5.041 5.041 0 012.719 2.069l.013-.007a5.077 5.077 0 00-2.752-2.113l-.004.003z" fill="url(#paint3_linear_3225_99852)"/><path d="M89.038 99.169c1.965.625 3.121 2.746 2.496 4.707-.913 2.864-3.527 3.848-6.016 3.057a4.707 4.707 0 01-2.364-1.691l-.04.02a5.037 5.037 0 002.745 2.124c2.641.842 5.455-.592 6.287-3.202.686-2.154-.545-4.393-2.722-5.086-1.002-.318-2.023-.284-2.905.088l.03.057a3.72 3.72 0 012.492-.078l-.003.004z" fill="url(#paint4_linear_3225_99852)"/><path d="M85.854 107.383c2.655.845 5.482-.588 6.314-3.199.686-2.158-.551-4.4-2.743-5.096-1.004-.322-2.029-.288-2.915.084l.007.017c.873-.351 1.87-.375 2.854-.06 2.175.693 3.409 2.914 2.73 5.048-.823 2.584-3.63 3.997-6.267 3.159a5.053 5.053 0 01-2.719-2.07l-.013.007a5.086 5.086 0 002.752 2.117v-.007z" fill="url(#paint5_linear_3225_99852)"/><rect x="158.521" y="57.94" width="4" height="33" rx="2" transform="rotate(18.868 158.521 57.94)" fill="#4A1D0E"/><circle cx="162.03" cy="53.855" r="15.5" transform="rotate(18.868 162.03 53.855)" fill="#fff" stroke="#FFDBD7" stroke-width="3"/><path d="M167.519 49.39a3.81 3.81 0 00-2.501.002c-.803.27-1.439.746-1.843 1.113-.095-.537-.307-1.303-.776-2.009a3.81 3.81 0 00-1.977-1.532c-2.293-.783-4.657.485-5.499 2.95-.91 2.662.624 5.221 2.947 9.095.394.658.842 1.404 1.301 2.193a.503.503 0 00.623.213c.847-.343 1.657-.659 2.372-.938 4.208-1.642 6.987-2.727 7.897-5.39.842-2.464-.251-4.914-2.544-5.697z" fill="red"/><rect x="33.744" y="53.213" width="4" height="33" rx="2" transform="rotate(-15.203 33.744 53.213)" fill="#4A1D0E"/><circle cx="34.363" cy="47.863" r="15.5" transform="rotate(-15.203 34.363 47.863)" fill="#fff" stroke="#BBC63D" stroke-width="3"/><path d="M27.607 49.698l13.51-3.67m-8.59-4.92l3.67 13.51" stroke="#BBC63D" stroke-width="3" stroke-linecap="round"/></g><defs><linearGradient id="paint0_linear_3225_99852" x1="82.579" y1="104.519" x2="92.259" y2="99.37" gradientUnits="userSpaceOnUse"><stop stop-color="#AD833B"/><stop offset=".12" stop-color="#AE853E"/><stop offset=".22" stop-color="#B38B48"/><stop offset=".31" stop-color="#BA9659"/><stop offset=".4" stop-color="#C5A570"/><stop offset=".48" stop-color="#D3B98F"/><stop offset=".5" stop-color="#D8BF98"/><stop offset=".52" stop-color="#D3B98F"/><stop offset=".6" stop-color="#C5A570"/><stop offset=".69" stop-color="#BA9659"/><stop offset=".78" stop-color="#B38B48"/><stop offset=".88" stop-color="#AE853E"/><stop offset="1" stop-color="#AD833B"/></linearGradient><linearGradient id="paint1_linear_3225_99852" x1="92.992" y1="100.916" x2="83.489" y2="106.101" gradientUnits="userSpaceOnUse"><stop stop-color="#00553C"/><stop offset=".12" stop-color="#03573E"/><stop offset=".21" stop-color="#0D5D45"/><stop offset=".3" stop-color="#1E6950"/><stop offset=".38" stop-color="#357961"/><stop offset=".46" stop-color="#548D76"/><stop offset=".5" stop-color="#689B84"/><stop offset=".54" stop-color="#548D76"/><stop offset=".62" stop-color="#357961"/><stop offset=".7" stop-color="#1E6950"/><stop offset=".79" stop-color="#0D5D45"/><stop offset=".88" stop-color="#03573E"/><stop offset="1" stop-color="#00553C"/></linearGradient><linearGradient id="paint2_linear_3225_99852" x1="89.358" y1="98.337" x2="85.906" y2="104.446" gradientUnits="userSpaceOnUse"><stop stop-color="#7D4B2D"/><stop offset=".3" stop-color="#AD833B"/><stop offset="1" stop-color="#7D4B2D"/></linearGradient><linearGradient id="paint3_linear_3225_99852" x1="89.241" y1="98.42" x2="85.926" y2="104.576" gradientUnits="userSpaceOnUse"><stop stop-color="#C1994D"/><stop offset=".3" stop-color="#F1E5CD"/><stop offset="1" stop-color="#C1994D"/></linearGradient><linearGradient id="paint4_linear_3225_99852" x1="89.762" y1="101.019" x2="86.272" y2="107.092" gradientUnits="userSpaceOnUse"><stop stop-color="#00462F"/><stop offset=".7" stop-color="#00553C"/><stop offset="1" stop-color="#00462F"/></linearGradient><linearGradient id="paint5_linear_3225_99852" x1="86.35" y1="107.099" x2="89.746" y2="100.998" gradientUnits="userSpaceOnUse"><stop stop-color="#007156"/><stop offset=".3" stop-color="#E8F3F2"/><stop offset="1" stop-color="#007156"/></linearGradient><clipPath id="clip0_3225_99852"><path fill="#fff" transform="translate(.5)" d="M0 0h200v150H0z"/></clipPath></defs></svg>