<svg width="60" height="60" viewBox="0 0 60 60" fill="none" xmlns="http://www.w3.org/2000/svg"><g id="illus_小粉獅比讚" clip-path="url(#clip0_4365_29128)"><path id="Vector" d="M49.602 43.222s3.212.077 3.642 2.819c.6 3.817-2.495 6.421-2.495 6.421s.782 4.696 3.586 3.606c0 0 1.244-.632.466-2.355-.478-1.058-1.613-1.683-1.613-1.683s7.563-3.238 6.752-8.808c-1.072-7.349-10.338-8.612-10.338-8.612v8.612z" fill="#FBE9C9"/><path id="Vector_2" d="M18.524 47.837s1.592 5.978-.471 12.113H51.03S53.106 48.335 49.298 38l-30.774 9.837z" fill="#FBE9C9"/><path id="Vector_3" d="M16.829 46.51s-9.215 1.248-11.553.622c0 0-.622-1.566-2.337-2.349 0 0 1.246-2.818-.156-3.758 0 0-1.401-.94-2.025 1.253-.625 2.192.622 2.662.622 2.662s-2.493 1.566-.778 3.445c1.579 1.73 3.894.626 3.894.626s9.348 8.769 17.138 2.819l-4.807-5.32h.002z" fill="#FBE9C9"/><path id="Vector_4" d="M17.257 47.284s6.63 8.788 20.4 6.719l2.63-1.398s8.528-3.497 9.037-18.383L17.256 47.284h.001z" fill="#13AC67"/><g id="Group"><path id="Vector_5" d="M49.855 16.567c.277.034 2.317-.644 2.49-.894-2.451-1.039-3.54-3.973-5.325-5.456-7.59-6.3-14.986-10.123-24.81-7.91-3.756.845-7.35 2.513-10.384 4.9-2.204 1.736-4.054 4.205-5.593 6.544-1.615 2.456-2.05 3.556-2.924 6.373C2.202 23.69.347 25.372.347 25.372s3.005.408 3.996-.364c-.542.39-.639 4.613-.581 5.29.151 1.727.473 3.433.903 5.112 1.808 7.053 5.156 7.61 5.903 11.022.832.031 2.045-1.705 1.898-2.751.317 2.239 2.358 4.04 3.69 4.895 4.892 3.14 15.277 2.919 18.033 2.8.453-.02.894-.143 1.294-.362 2.8-1.533 14.364-8.28 15.833-15.948.166-.874.355-2.056.247-2.36.346.982 1.09 2.184 1.553 2.1-.024-2.557 1.33-3.516.881-7.825-.381-3.68-2.047-6.802-4.142-10.414z" fill="#F5B64C"/><path id="Vector_6" d="M43.137 3.309c-.872-2.557-3.64-3.92-6.184-3.043-1.873.646-3.12 2.539-3.29 4.402l6.447 4.859c2.543-.877 3.897-3.66 3.025-6.218h.002zm-3.77 3.922l-3.471-2.737A2.626 2.626 0 0141 3.874a2.646 2.646 0 01-1.633 3.357z" fill="#F5B64C"/><path id="Vector_7" d="M9.83 5.074C7.136 5.101 4.973 7.32 5 10.029c.028 2.71 2.234 4.884 4.928 4.858l4.387-6.954a4.878 4.878 0 00-4.485-2.86zm.084 7.415a2.828 2.828 0 01-2.85-2.807 2.83 2.83 0 012.794-2.866 2.822 2.822 0 012.593 1.654l-2.537 4.02z" fill="#F5B64C"/><path id="Vector_8" d="M9.842 12.724a3.048 3.048 0 002.775-3.295 3.042 3.042 0 00-3.277-2.79 3.048 3.048 0 00-2.775 3.295 3.041 3.041 0 003.277 2.79z" fill="#FBE9C9"/><path id="Vector_9" d="M40.754 6.894a3.066 3.066 0 00.104-4.317 3.025 3.025 0 00-4.293-.105 3.065 3.065 0 00-.104 4.317 3.025 3.025 0 004.293.105z" fill="#FBE9C9"/><g id="Group_2"><path id="Vector_10" d="M40.974 15.02c-3.458-5.07-10.32-6.157-14.994-6.003 0 0-4.846-.027-3.804 2.11 0 0 1.883 2.32-2.672 2.084-5.796-.299-8.204 10.89-6.116 17.062 2.027 5.99 9.568 9.478 20.786 6.221 1.142-.332 5.486-2.043 7.233-3.658 7.278-6.731 2.45-13.595-.43-17.814l-.003-.002z" fill="#FBE9C9"/><path id="Vector_11" d="M32.715 14.575c-.008.408-.514.729-1.131.718-.617-.011-1.11-.351-1.102-.758.007-.407.513-.728 1.13-.717.617.01 1.11.35 1.103.758z" fill="#4A1D0E"/><path id="Vector_12" d="M23.734 15.91c.215.345-.034.893-.556 1.222-.523.329-1.12.316-1.336-.028-.215-.345.035-.892.556-1.221.523-.33 1.121-.317 1.336.028z" fill="#4A1D0E"/><path id="Vector_13" d="M29.014 31.274c.445.742 1.62.66 2.077.596.084-.012.145-.023.171-.028 1.143-.247 1.989-.991 2.202-1.415a.507.507 0 00.026-.447.423.423 0 00-.563-.214.431.431 0 00-.243.305c-.13.191-.698.737-1.593.932-.447.086-1.198.078-1.347-.173a.426.426 0 10-.73.444z" fill="#F0C9AE"/><path id="Vector_14" d="M25.396 26.731s1.31 2.541 5.6 1.063c4.289-1.478 2.811-3.545 2.65-4.155-.163-.611-4.725-.295-4.725-.295l-3.527 3.387h.002z" fill="#fff"/><path id="Vector_15" d="M35.182 21.82c-.634-.471-1.486-.565-2.247-.51-1.265.09-2.49.731-3.266 1.724a1.428 1.428 0 00-.303.98 2.324 2.324 0 00-.392-.42c-1.123-.95-2.803-1.097-4.197-.75-1.054.263-2.26.717-2.954 1.591a.42.42 0 01-.025.032c-.574.742-.676 1.894.062 2.563.513.465 1.338.604 2.01.667 1.558.144 3.473-.028 4.747-1.016.412-.321.746-.749.915-1.24.072-.212.11-.436.102-.658.277.383.74.52 1.219.57 1.115.117 2.339.001 3.368-.467 1.129-.513 2.284-2.082.96-3.067v.001z" fill="#F0C9AE"/><path id="Vector_16" d="M28.14 24.636c-.662-.006-1.68-.258-1.95-1.221-.438-1.563 1.562-2.612 2.688-2.82 1.297-.242 2.751.656 2.887 1.897.115 1.057-1.196 1.624-2.193 1.948 0 0-.77.2-1.432.196z" fill="#4A1D0E"/><g id="Group_3" fill="#F0C9AE"><path id="Vector_17" d="M37.827 19.07a.472.472 0 00-.608.28l-.474 1.274a.476.476 0 00.277.613.476.476 0 00.609-.28l.474-1.275a.477.477 0 00-.278-.613v.002z"/><path id="Vector_18" d="M39.242 19.12a.472.472 0 00-.608.28l-.474 1.274a.477.477 0 00.277.612c.12.046.248.038.357-.01a.476.476 0 00.252-.27l.474-1.274a.476.476 0 00-.278-.613z"/></g><g id="Group_4" fill="#F0C9AE"><path id="Vector_19" d="M17.712 23.35a.472.472 0 00-.61.279l-.473 1.275a.477.477 0 00.277.612.476.476 0 00.609-.28l.474-1.275a.477.477 0 00-.277-.612v.001z"/><path id="Vector_20" d="M19.13 23.399a.472.472 0 00-.61.28l-.473 1.274a.477.477 0 00.277.613.476.476 0 00.609-.28l.474-1.275a.476.476 0 00-.277-.612z"/></g><path id="Vector_21" d="M24.254 21.208a1.682 1.682 0 01-1.885-1.442 1.688 1.688 0 011.435-1.894 1.682 1.682 0 011.884 1.442 1.688 1.688 0 01-1.434 1.894z" fill="#4B1E0E"/><path id="Vector_22" d="M32.52 19.34a1.682 1.682 0 01-1.885-1.443 1.688 1.688 0 011.434-1.895 1.682 1.682 0 011.884 1.443 1.688 1.688 0 01-1.434 1.894z" fill="#4B1E0E"/></g></g><g id="Group_5"><g id="Group_6" fill="#3BC763"><path id="Vector_23" d="M34.845 52.129s-3.51.626-4.12 4.093c0 0-.324 1.62.136 2.441 0 0 2.633-.028 3.458-2.355 0 0 .522-1.422 1.264-2.062l-.738-2.119v.002z"/><path id="Vector_24" d="M37.053 52.105s2.86-2.139 5.79-.206c0 0 1.393.873 1.674 1.774 0 0-1.827 1.907-4.077.916 0 0-1.387-.594-2.36-.489l-1.025-1.993-.002-.002z"/></g><g id="Group_7"><path id="Vector_25" d="M38.868 51.825a3.053 3.053 0 01-1.806 3.91 3.027 3.027 0 01-3.888-1.817 3.053 3.053 0 011.806-3.91 3.027 3.027 0 013.888 1.817z" fill="#fff"/><g id="Group_8"><g id="Group_9"><path id="Vector_26" d="M35.788 52.21l-.426.895.89.429.426-.896-.89-.428z" fill="#AD833B"/><path id="Vector_27" d="M35.788 52.208l.89.429-.065.022-.802-.384-.023-.067z" fill="#C1994D"/><path id="Vector_28" d="M35.81 52.275l-.383.807-.065.023.425-.897.023.067z" fill="#D8BF98"/><path id="Vector_29" d="M36.252 53.53l-.89-.425.065-.023.802.383.023.066z" fill="#C1994D"/><path id="Vector_30" d="M36.229 53.465l.383-.806.066-.022-.426.894-.023-.066z" fill="#7D4B2D"/></g><path id="Vector_31" d="M34.345 53.426a1.953 1.953 0 011.198-2.481 1.95 1.95 0 011.35.012l.01-.022a2.15 2.15 0 00-1.619-.069 2.152 2.152 0 00-1.319 2.736c.323.917 1.324 1.367 2.247 1.038.499-.177.88-.528 1.066-.98l-.013-.006a1.63 1.63 0 01-.881.713c-.838.298-1.746-.11-2.039-.94z" fill="url(#paint0_linear_4365_29128)"/><path id="Vector_32" d="M37.694 52.315a1.953 1.953 0 01-1.198 2.482 1.942 1.942 0 01-1.35-.015l-.01.022a2.15 2.15 0 001.617.07 2.153 2.153 0 001.32-2.736c-.323-.918-1.324-1.367-2.248-1.038-.498.176-.88.527-1.065.98l.014.006c.187-.326.495-.576.88-.714.838-.297 1.744.11 2.038.943h.002z" fill="url(#paint1_linear_4365_29128)"/><path id="Vector_33" d="M36.487 54.256c-.755.27-1.612-.119-1.88-.878-.389-1.107.189-2.033 1.147-2.374a1.818 1.818 0 011.13-.031l.008-.016a1.942 1.942 0 00-1.35-.013 1.955 1.955 0 00-1.198 2.482c.293.833 1.2 1.24 2.039.941a1.63 1.63 0 00.881-.714l-.023-.01a1.444 1.444 0 01-.754.612v.001z" fill="url(#paint2_linear_4365_29128)"/><path id="Vector_34" d="M35.544 50.943c-1.021.363-1.562 1.476-1.205 2.488.294.835 1.205 1.242 2.046.941a1.63 1.63 0 00.884-.716l-.006-.003a1.639 1.639 0 01-.87.692c-.837.298-1.741-.103-2.03-.928-.353-1 .186-2.103 1.2-2.463.45-.16.917-.147 1.328.003v-.005a1.964 1.964 0 00-1.349-.01h.002z" fill="url(#paint3_linear_4365_29128)"/><path id="Vector_35" d="M35.553 51.485c.757-.27 1.611.119 1.88.879.389 1.107-.19 2.032-1.148 2.373a1.817 1.817 0 01-1.13.032l-.008.015c.417.16.893.177 1.35.014a1.954 1.954 0 001.197-2.482c-.293-.833-1.2-1.24-2.038-.942a1.62 1.62 0 00-.88.714l.023.01c.168-.275.427-.495.754-.611v-.002z" fill="url(#paint4_linear_4365_29128)"/><path id="Vector_36" d="M36.495 54.796a1.96 1.96 0 001.205-2.488c-.294-.835-1.204-1.242-2.047-.941a1.632 1.632 0 00-.885.715l.006.003c.187-.314.49-.559.87-.693.835-.298 1.74.103 2.03.928.352 1-.187 2.103-1.2 2.463-.45.16-.918.148-1.33-.003v.005c.417.157.893.172 1.35.01z" fill="url(#paint5_linear_4365_29128)"/></g></g></g></g><defs><linearGradient id="paint0_linear_4365_29128" x1="34.818" y1="54.667" x2="36.627" y2="50.785" gradientUnits="userSpaceOnUse"><stop stop-color="#AD833B"/><stop offset=".12" stop-color="#AE853E"/><stop offset=".22" stop-color="#B38B48"/><stop offset=".31" stop-color="#BA9659"/><stop offset=".4" stop-color="#C5A570"/><stop offset=".48" stop-color="#D3B98F"/><stop offset=".5" stop-color="#D8BF98"/><stop offset=".52" stop-color="#D3B98F"/><stop offset=".6" stop-color="#C5A570"/><stop offset=".69" stop-color="#BA9659"/><stop offset=".78" stop-color="#B38B48"/><stop offset=".88" stop-color="#AE853E"/><stop offset="1" stop-color="#AD833B"/></linearGradient><linearGradient id="paint1_linear_4365_29128" x1="37.199" y1="51.087" x2="35.454" y2="54.939" gradientUnits="userSpaceOnUse"><stop stop-color="#00553C"/><stop offset=".12" stop-color="#03573E"/><stop offset=".21" stop-color="#0D5D45"/><stop offset=".3" stop-color="#1E6950"/><stop offset=".38" stop-color="#357961"/><stop offset=".46" stop-color="#548D76"/><stop offset=".5" stop-color="#689B84"/><stop offset=".54" stop-color="#548D76"/><stop offset=".62" stop-color="#357961"/><stop offset=".7" stop-color="#1E6950"/><stop offset=".79" stop-color="#0D5D45"/><stop offset=".88" stop-color="#03573E"/><stop offset="1" stop-color="#00553C"/></linearGradient><linearGradient id="paint2_linear_4365_29128" x1="35.468" y1="51.14" x2="35.837" y2="53.86" gradientUnits="userSpaceOnUse"><stop stop-color="#7D4B2D"/><stop offset=".3" stop-color="#AD833B"/><stop offset="1" stop-color="#7D4B2D"/></linearGradient><linearGradient id="paint3_linear_4365_29128" x1="35.452" y1="51.194" x2="35.874" y2="53.895" gradientUnits="userSpaceOnUse"><stop stop-color="#C1994D"/><stop offset=".3" stop-color="#F1E5CD"/><stop offset="1" stop-color="#C1994D"/></linearGradient><linearGradient id="paint4_linear_4365_29128" x1="36.222" y1="51.882" x2="36.569" y2="54.599" gradientUnits="userSpaceOnUse"><stop stop-color="#00462F"/><stop offset=".7" stop-color="#00553C"/><stop offset="1" stop-color="#00462F"/></linearGradient><linearGradient id="paint5_linear_4365_29128" x1="36.593" y1="54.581" x2="36.208" y2="51.878" gradientUnits="userSpaceOnUse"><stop stop-color="#007156"/><stop offset=".3" stop-color="#E8F3F2"/><stop offset="1" stop-color="#007156"/></linearGradient><clipPath id="clip0_4365_29128"><path fill="#fff" d="M0 0h60v60H0z"/></clipPath></defs></svg>