<svg width="73" height="84" viewBox="0 0 73 84" fill="none" xmlns="http://www.w3.org/2000/svg"><g id="Frame 4986"><g id="Group 2460"><g id="Group"><path id="Vector" d="M17.088 67.821s-2.189-2.792-5.747-.731c-1.145.663-1.37-.497-1.577-.894-.206-.398-2.223 2.952 1.093 4.926 3.318 1.975 6.643-1.85 6.23-3.3z" fill="#F2B34C"/><path id="Vector_2" d="M13.433 66.36c2.303-.26 3.654 1.464 3.654 1.464.273.955-1.078 2.94-2.979 3.62 0 0 1.776-1.7.16-2.898-1.616-1.198-.835-2.186-.835-2.186z" fill="#F8E6C6"/></g><path id="Vector_3" d="M51.749 47.932s8.342-2.738 11.773-6c.153-.339.273-.697.366-1.056.077-.29.138-.592.148-.892.012-.319-.096-.66-.02-.977.108-.44.535-.467.815-.13.207.248.361.56.418.88.022.132.069.873-.09.925 0 0 .964-.243 1.183.693 0 0 .751.545.017 1.252 0 0 .55.413-.005.98 0 0 .371.857-1.68 1.38 0 0-.565.985-1.82 2.67 0 0-3.278 4.809-9.379 7.702l-1.729-7.43.003.003z" fill="#F8E5C3"/><path id="Vector_4" d="M48.877 45.802s2.506 10.04-.918 24.022c0 0-1.626 5.89-4.29 10.109 0 0-.845 1.078-2.535.211 0 0-.693-.444.584-1.336l-2.6-6.82s-3.056-2.532-13.977-.282c0 0-2.319 6.068-3.23 7.335 0 0 1.213.153.629.96 0 0-1.3.88-2.449.106 0 0-2.642-5.096-3.468-11.05 0 0-1.083-3.703-.736-22.123L48.875 45.8l.002.002z" fill="#404040"/><g id="Clip path group"><mask id="mask0_5293_179490" style="mask-type:luminance" maskUnits="userSpaceOnUse" x="10" y="47" width="42" height="31"><g id="clippath"><path id="Vector_5" d="M10.603 77.15h40.602V47.56H10.603v29.59z" fill="#fff"/></g></mask><g mask="url(#mask0_5293_179490)"><g id="Group_2"><path id="Vector_6" d="M40.505 77.276l-1.28-3.205s-3.116-2.466-14.256-.275c0 0-2.365 5.911-3.294 7.144 0 0 1.238.148.642.936 0 0-1.327.857-2.498.103 0 0-2.697-4.966-3.537-10.764 0 0-1.105-3.608-.751-21.552l33.649-1.105s2.554 9.78-.938 23.403c0 0-.688 2.382-1.906 5.177" fill="#2C3342"/></g></g></g><g id="Clip path group_2"><mask id="mask1_5293_179490" style="mask-type:luminance" maskUnits="userSpaceOnUse" x="-4" y="-4" width="72" height="72"><g id="clippath-1"><path id="Vector_7" d="M-4 67.995h71.994V-4H-4v71.995z" fill="#fff"/></g></mask><g mask="url(#mask1_5293_179490)"><g id="Group_3"><path id="Vector_8" d="M49.308 47.136s2.603 9.655-.956 23.099c0 0-1.69 5.663-4.462 9.718 0 0-.88 1.037-2.635.204 0 0-.722-.427.609-1.285l-2.704-6.557s-3.178-2.434-14.535-.27c0 0-2.411 5.835-3.357 7.053 0 0 1.262.148.653.924 0 0-1.35.845-2.546.1 0 0-2.749-4.902-3.606-10.624 0 0-1.127-3.561-.766-21.271l34.305-1.09z" fill="#F8E6C6"/><path id="Vector_9" d="M45.42 48.398s6.606-1.7 14.736-4.72c2.674 2.264 4.354 3.396 4.354 3.396s-4.192 10.264-15.418 11.922C47.598 54.98 45.42 48.4 45.42 48.4v-.003z" fill="#2C3342"/><path id="Vector_10" d="M11.33 50.194C3.04 57.12 5.43 65.82 5.43 65.82c.356 1.702 1.473 1.631 1.473 1.631 1.25.95 1.634-.376 1.634-.376.51-.415.216-1.515.216-1.515 1.245-2.233 9.463-7.034 9.463-7.034" fill="#F8E6C6"/><path id="Vector_11" d="M23.284 55.216s-9.397 5.364-13.002 8.96c-3.325-.065-5.096-1.06-5.096-1.06S4.732 50.924 16.537 46.51c4.2 6.668 6.744 8.704 6.744 8.704l.003.003z" fill="#2C3342"/><path id="Vector_12" d="M45.964 50.78l-7.13.332-6.936 11.116v7.847h17.524s3.573-12.081 1.864-22.11c-4.013 2.255-5.32 2.815-5.32 2.815h-.002z" fill="#192030"/><path id="Vector_13" d="M19.45 50.773l4.661-.236L32.14 62.6v7.478H15.132s-2.375-12.552-.715-22.109c3.896 2.15 5.035 2.805 5.035 2.805h-.002z" fill="#192030"/><path id="Vector_14" d="M26.906 69.9h10.362V54.71H26.906V69.9z" fill="#fff"/><path id="Vector_15" d="M42.401 55.8l-10.58 6.688-10.048-7.353 9.768-1.904 10.86 2.57z" fill="#FFFFFA"/><g id="Clip path group_3"><mask id="mask2_5293_179490" style="mask-type:luminance" maskUnits="userSpaceOnUse" x="23" y="54" width="16" height="18"><g id="clippath-2"><path id="Vector_16" d="M23.913 71.723H38.77V54.084H23.913v17.64z" fill="#fff"/></g></mask><g mask="url(#mask2_5293_179490)"><g id="Group_4"><path id="Vector_17" d="M30.384 58.745c.067.128.344.224.627.224h1.881c.282 0 .563-.096.626-.224l1.076-2.092c.209-.408-.076-.789-.67-.789h-3.947c-.595 0-.88.38-.67.789l1.075 2.092h.002z" fill="#43C567"/><path id="Vector_18" d="M28.951 78.472l2.982 4.998 3.065-4.544-.39-5.383L33.531 58.7h-3.147l-1.115 15.35-.319 4.42z" fill="#13AB67"/></g></g></g><path id="Vector_19" d="M42.647 53.922l.582 2.91-10.723-2.91h10.14z" fill="#D9DADA"/><path id="Vector_20" d="M31.853 53.922L21.62 56.078l.585-2.91 9.647.754z" fill="#D9DADA"/></g></g></g><path id="Vector_21" d="M34.167 67.995l-2.162 3.682-2.23-3.682h4.392z" fill="#13AB67"/><path id="Vector_22" d="M64.316 48.458a.579.579 0 00.7-.422l6.157-24.767a.579.579 0 00-1.122-.277l-6.157 24.764a.579.579 0 00.422.7v.002z" fill="#805751"/><path id="Vector_23" d="M66.176 45.004c.723 0 1.31-1.102 1.31-2.463 0-1.36-.587-2.463-1.31-2.463-.723 0-1.309 1.102-1.309 2.463 0 1.36.586 2.463 1.31 2.463z" fill="#F7E5C5" stroke="#E2AD89" stroke-width=".101" stroke-linecap="round" stroke-linejoin="round"/><g id="Group_5"><path id="Vector_24" d="M56.097 20.96c.302.075 2.645-.401 2.869-.654-2.574-1.464-3.39-4.833-5.17-6.697-7.56-7.926-15.23-13.1-26.377-11.966-4.261.435-8.451 1.793-12.115 4.016-2.665 1.616-5.033 4.086-7.04 6.454-2.106 2.485-2.73 3.637-4.066 6.616-1.69 3.773-3.962 5.376-3.962 5.376s3.27.845 4.463.128c-.651.359-1.312 4.986-1.336 5.735-.06 1.918.073 3.836.326 5.737 1.074 7.99 4.699 9.043 5.077 12.889.916.145 2.483-1.604 2.458-2.773.054 2.503 2.076 4.75 3.436 5.865 4.993 4.097 16.497 5.224 19.56 5.455a3.29 3.29 0 001.475-.226c3.296-1.314 16.959-7.203 19.59-15.438.299-.939.66-2.213.584-2.56.253 1.125.918 2.545 1.439 2.513.31-2.812 1.93-3.687 2.002-8.48.06-4.095-1.371-7.744-3.213-11.99z" fill="#F2B34C"/><path id="Vector_25" d="M50.414 5.504a5.418 5.418 0 00-6.433-4.16c-2.156.461-3.782 2.377-4.212 4.403l6.487 6.19a5.418 5.418 0 004.16-6.433h-.002zm-4.681 3.814l-3.476-3.465a2.925 2.925 0 015.72-.008 2.923 2.923 0 01-2.244 3.473z" fill="#F2B34C"/><path id="Vector_26" d="M13.377 3.05A5.432 5.432 0 007.39 7.86a5.432 5.432 0 004.808 5.987l5.76-7.064a5.435 5.435 0 00-4.58-3.733zm-.879 8.162a3.14 3.14 0 113.33-4.085l-3.33 4.085z" fill="#F2B34C"/><path id="Vector_27" d="M12.51 11.463a3.38 3.38 0 100-6.76 3.38 3.38 0 000 6.76z" fill="#F8E6C6"/><path id="Vector_28" d="M45.288 9.807a3.38 3.38 0 100-6.76 3.38 3.38 0 000 6.76z" fill="#F8E6C6"/><path id="Vector_29" d="M46.964 19.41c-2.925-6.095-10.355-8.448-15.576-9.08 0 0-5.381-.857-4.61 1.641 0 0 1.673 2.84-3.345 1.805-6.386-1.314-11.089 10.42-9.888 17.477 1.167 6.85 8.918 11.926 21.971 10.305 1.329-.164 6.467-1.28 8.7-2.736 9.305-6.064 5.181-14.34 2.748-19.414v.002z" fill="#F8E6C6"/></g><g id="Group_6"><path id="Vector_30" d="M36.182 28.28s1.459 5.757-1.74 6.339c0 0-3.518 1.012-3.956-5.153l3.038-1.947 2.658.76z" fill="#EB8080"/><g id="Group_7"><g id="Group_8"><path id="Vector_31" d="M23.457 25.77a.513.513 0 00-.695.218l-.685 1.314a.52.52 0 00.216.7.495.495 0 00.385.037.52.52 0 00.31-.256l.685-1.314a.52.52 0 00-.216-.7z" fill="#F0C9AE"/><path id="Vector_32" d="M21.154 27.788a.518.518 0 01-.604-.737l.685-1.313a.514.514 0 01.695-.219.519.519 0 01.216.7l-.685 1.314a.512.512 0 01-.31.255h.003z" fill="#F0C9AE"/><path id="Vector_33" d="M41.92 22.341a.511.511 0 00-.695.219l-.685 1.314a.52.52 0 00.216.7.52.52 0 00.698-.219l.684-1.314a.52.52 0 00-.216-.7h-.002z" fill="#F0C9AE"/><path id="Vector_34" d="M43.443 22.59a.513.513 0 00-.695.218l-.685 1.314a.52.52 0 00.216.7.495.495 0 00.386.037.52.52 0 00.31-.256l.684-1.314a.52.52 0 00-.216-.7z" fill="#F0C9AE"/><path id="Vector_35" d="M37.147 35.402a.463.463 0 00-.513.41c-.037.315-.776.663-1.255.781-.975.214-1.78-.069-1.994-.199a.464.464 0 00-.84.273c0 .113.042.28.226.43.403.324 1.572.678 2.814.405.03-.007.094-.022.182-.05.481-.144 1.68-.593 1.788-1.532a.468.468 0 00-.408-.518z" fill="#F0C9AE"/><path id="Vector_36" d="M40.07 25.512c-.693-.634-1.685-.843-2.584-.86a5.378 5.378 0 00-4.013 1.707c-.3.326-.45.727-.46 1.142a2.725 2.725 0 00-.417-.545c-1.218-1.263-3.175-1.626-4.845-1.361-1.265.199-2.726.611-3.635 1.582l-.032.034c-.752.828-.992 2.196-.194 3.08.552.614 1.505.872 2.289 1.021 1.812.344 4.077.35 5.676-.695.518-.338.955-.815 1.203-1.385.108-.245.174-.51.187-.776.285.489.813.705 1.37.818 1.297.265 2.746.26 4.003-.19 1.378-.49 2.9-2.244 1.45-3.572h.002z" fill="#F0C9AE"/><path id="Vector_37" d="M34.34 28.128c.626-.275 1.488-.928 1.358-1.952-.214-1.66-2.535-1.845-3.687-1.584-1.328.3-2.347 1.743-1.974 2.976.317 1.051 1.79 1.056 2.866.958 0 0 .813-.123 1.44-.398h-.003z" fill="#4B1E0E"/></g><g id="Group_9" fill="#4A1D0E"><path id="Vector_38" d="M36.302 17.817c.61-.145 1.028-.586.933-.986-.094-.4-.665-.607-1.275-.463-.61.144-1.028.585-.934.985.095.4.666.608 1.276.463z"/><path id="Vector_39" d="M26.75 19.216c.627-.018 1.125-.365 1.114-.776-.012-.41-.53-.73-1.156-.712-.626.018-1.124.366-1.113.777.012.41.53.729 1.156.711z"/><path id="Vector_40" d="M37.197 23.766a1.744 1.744 0 100-3.488 1.744 1.744 0 000 3.488z"/><path id="Vector_41" d="M27.378 25.196a1.744 1.744 0 100-3.487 1.744 1.744 0 000 3.487z"/></g><g id="Group_10" stroke="#2C3342" stroke-width=".332" stroke-miterlimit="10"><path id="Vector_42" d="M27.51 28.242a3.932 3.932 0 100-7.864 3.932 3.932 0 000 7.864z"/><path id="Vector_43" d="M36.684 26.587a3.932 3.932 0 100-7.864 3.932 3.932 0 000 7.864z"/><path id="Vector_44" d="M31.428 23.951l1.414-.127"/></g></g></g></g><ellipse id="Ellipse 237" cx="31.41" cy="80.716" rx="17.508" ry="1.592" fill="#000" fill-opacity=".1"/></g></svg>