<svg width="300" height="148" viewBox="0 0 300 148" fill="none" xmlns="http://www.w3.org/2000/svg"><g clip-path="url(#clip0_4696_189162)"><path d="M150 148.34c70.14 0 127-8.583 127-19.17 0-10.587-56.86-19.17-127-19.17s-127 8.583-127 19.17c0 10.587 56.86 19.17 127 19.17z" fill="#7DD3A4"/><path d="M139.934 67.698A4.699 4.699 0 00135.236 63H104.7a4.7 4.7 0 000 9.397h30.536a4.699 4.699 0 004.698-4.699z" fill="#FFAD04"/><path d="M139.934 76.785a4.699 4.699 0 00-4.698-4.698H104.7a4.697 4.697 0 100 9.394h30.536a4.698 4.698 0 004.698-4.696z" fill="#FFC53B"/><path d="M139.934 86.18a4.699 4.699 0 00-4.698-4.699H104.7a4.7 4.7 0 000 9.397h30.536a4.699 4.699 0 004.698-4.698z" fill="#FFAD04"/><path d="M139.934 95.267a4.699 4.699 0 00-4.698-4.699H104.7a4.697 4.697 0 100 9.394h30.536a4.697 4.697 0 004.698-4.695z" fill="#FFC53B"/><path d="M139.934 104.353a4.699 4.699 0 00-4.698-4.699H104.7a4.699 4.699 0 100 9.397h30.536a4.699 4.699 0 004.698-4.698z" fill="#FFAD04"/><path d="M143.963 16.528l-26.615 14.863 29.029 51.985 26.616-14.862-29.03-51.986z" fill="#3EB151"/><path d="M142.442 22.583l-19.144 10.69 24.596 44.047 19.145-10.69-24.597-44.047z" fill="#B6DDBE"/><path d="M146.318 72.84a4.28 4.28 0 11-1.648 5.825 4.279 4.279 0 011.651-5.822l-.003-.003zm17.744-9.909a4.28 4.28 0 014.175 7.47 4.277 4.277 0 11-4.172-7.47h-.003zm-41.827-33.204a4.28 4.28 0 11-1.649 5.825 4.28 4.28 0 011.649-5.822v-.003zm17.739-9.908a4.278 4.278 0 114.175 7.467 4.278 4.278 0 01-4.175-7.467zm.257 21.556c4.77-2.663 10.798-.955 13.461 3.816 2.666 4.77.958 10.797-3.812 13.46-4.771 2.664-10.799.959-13.462-3.812-2.663-4.77-.955-10.798 3.815-13.464h-.002z" fill="#3EB151"/><path d="M141.612 56.616a7.083 7.083 0 01-.219-.45 48.706 48.706 0 00-.993-1.965 60.628 60.628 0 00-.638-1.17 83.118 83.118 0 00-.659-1.157 48.83 48.83 0 00-1.161-1.894 10.989 10.989 0 01-.276-.439.452.452 0 01.134-.136c.071-.055.128-.095.174-.12.185-.103.351-.054.502.142.362.505.704.893 1.026 1.164.322.27.63.325.921.162l7.642-4.268c.291-.163.396-.49.313-.981a7.296 7.296 0 00-.501-1.628c-.089-.231-.043-.4.142-.502a.982.982 0 01.214-.077.929.929 0 00.168-.051c.037.065.117.23.248.496.129.268.285.581.468.946.182.365.388.759.616 1.184a65.139 65.139 0 001.334 2.39 56.143 56.143 0 001.212 1.972c.157.248.257.405.294.47-.015.01-.06.046-.131.115a1.033 1.033 0 01-.177.142c-.186.103-.354.055-.505-.142a9.007 9.007 0 00-1.103-1.246c-.348-.314-.665-.39-.958-.228l-7.665 4.28c-.291.162-.402.456-.336.886.068.43.216.918.442 1.469.091.234.042.402-.143.504a1.518 1.518 0 01-.194.086.44.44 0 01-.188.043l-.003.003z" fill="#B6DDBE"/><path d="M180.07 3l-32.772 6.667 13.023 64.01 32.772-6.667L180.07 3z" fill="#45BB58"/><path d="M176.463 8.824l-23.571 4.795 11.034 54.234 23.571-4.796-11.034-54.233z" fill="#B6DDBE"/><path d="M163.764 62.65a4.693 4.693 0 111.872 9.198 4.693 4.693 0 01-1.872-9.198zm21.849-4.445a4.693 4.693 0 11-3.664 5.535 4.692 4.692 0 013.664-5.535zM152.967 9.564a4.693 4.693 0 111.865 9.2 4.693 4.693 0 01-1.862-9.2h-.003zm21.847-4.442a4.692 4.692 0 015.534 3.664 4.693 4.693 0 11-5.534-3.664zm-6.926 22.612c5.874-1.195 11.605 2.598 12.8 8.474 1.195 5.874-2.597 11.605-8.471 12.8-5.874 1.195-11.605-2.598-12.8-8.471-1.195-5.874 2.601-11.605 8.471-12.8v-.003z" fill="#45BB58"/><path d="M164.258 44.127c-.017-.08-.042-.26-.082-.542a57.564 57.564 0 00-.382-2.384c-.089-.479-.18-.955-.277-1.434-.097-.48-.2-.952-.305-1.429a47.8 47.8 0 00-.314-1.323 63.825 63.825 0 00-.271-1.04c-.077-.288-.125-.47-.142-.55a.49.49 0 01.185-.1 1.86 1.86 0 01.222-.066c.226-.046.385.063.48.316.211.648.439 1.167.684 1.56.248.39.55.55.909.48l9.41-1.914c.359-.074.576-.38.653-.921.077-.539.083-1.163.017-1.868-.014-.27.091-.433.316-.479.057-.011.14-.014.249-.008a.956.956 0 00.193 0c.018.08.046.28.094.601a66.092 66.092 0 00.422 2.59c.095.518.192 1.014.288 1.493.097.48.2.961.311 1.449a62.39 62.39 0 00.605 2.466c.082.314.134.51.151.59-.02.006-.077.032-.177.078a1.034 1.034 0 01-.231.088c-.225.046-.385-.06-.479-.316-.234-.67-.482-1.23-.738-1.671-.257-.445-.565-.633-.924-.56l-9.438 1.92c-.359.074-.576.345-.647.815-.072.47-.08 1.032-.026 1.682.017.274-.089.434-.317.48a1.91 1.91 0 01-.231.025.478.478 0 01-.211-.02l.003-.008z" fill="#B6DDBE"/><path d="M186.392 8.745l-28.975 58.47 29.936 14.835 28.974-58.47-29.935-14.835z" fill="#59C36A"/><path d="M188.382 15.294l-24.55 49.541 21.532 10.67 24.55-49.541-21.532-10.67z" fill="#B6DDBE"/><path d="M166.898 60.625a4.692 4.692 0 012.119 6.285 4.69 4.69 0 01-8.403-4.166 4.689 4.689 0 016.284-2.119zm19.955 9.889a4.687 4.687 0 012.118 6.284 4.684 4.684 0 01-6.281 2.119 4.684 4.684 0 01-2.119-6.282 4.69 4.69 0 016.284-2.121h-.002zm4.068-58.382a4.69 4.69 0 11-4.165 8.405 4.69 4.69 0 014.165-8.407v.002zm19.953 9.885a4.688 4.688 0 012.118 6.285 4.686 4.686 0 01-6.281 2.118 4.687 4.687 0 01-2.119-6.284 4.688 4.688 0 016.282-2.122v.003zm-19.319 13.594c5.366 2.658 7.562 9.165 4.902 14.53-2.658 5.367-9.165 7.563-14.531 4.902-5.366-2.657-7.562-9.164-4.901-14.53 2.66-5.366 9.164-7.562 14.53-4.902z" fill="#59C36A"/><path d="M178.642 46.316c.037-.071.126-.23.271-.479a57.517 57.517 0 001.16-2.116 76.007 76.007 0 001.298-2.614c.208-.44.396-.853.564-1.238.169-.382.311-.713.425-.986.117-.274.191-.448.228-.522a.523.523 0 01.209.037c.091.031.165.06.216.085.208.103.268.286.183.545-.231.639-.371 1.189-.414 1.648-.045.462.097.773.425.935l8.594 4.257c.328.163.687.055 1.081-.325.393-.379.778-.867 1.16-1.462.154-.226.334-.288.542-.183.051.026.117.074.202.145.083.072.132.112.149.12-.037.074-.134.248-.297.534-.16.282-.348.618-.564 1.009-.217.39-.445.821-.688 1.289a88.059 88.059 0 00-1.331 2.689c-.214.453-.408.875-.582 1.271-.174.397-.325.744-.453 1.044-.126.3-.208.484-.245.559a1.283 1.283 0 00-.186-.049 1.173 1.173 0 01-.239-.071c-.208-.103-.268-.282-.183-.542.226-.673.374-1.263.442-1.77.071-.508-.06-.844-.388-1.007l-8.622-4.271c-.328-.163-.664-.08-1.009.245-.345.328-.696.764-1.053 1.311-.154.226-.336.288-.541.186a1.5 1.5 0 01-.197-.123.447.447 0 01-.154-.145l-.003-.006z" fill="#A7B57C"/><path d="M199.273 56.38c.276-11.195-8.576-20.494-19.77-20.77-11.195-.275-20.494 8.577-20.769 19.772-.276 11.194 8.576 20.493 19.771 20.768 11.194.276 20.493-8.576 20.768-19.77z" fill="#FFC53B"/><path d="M185.134 67.14l1.402 4.612-3.98 1.344-1.411-4.643c-2.931.557-6.009.298-8.52-.683l.815-5.029c2.722 1.144 6.385 1.37 8.569.633 1.615-.545 2.448-1.492 2.109-2.606-1.091-3.589-11.468 2.31-13.743-5.173-1.017-3.346.67-6.48 4.306-8.405l-1.348-4.434 3.98-1.343 1.339 4.404c2.536-.556 5.124-.5 7.239.05l-.735 5.072c-2.599-.52-5.714-.565-7.447.02-1.315.444-2.037 1.221-1.743 2.186 1.063 3.5 11.497-2.216 13.806 5.382 1.129 3.711-1.024 6.83-4.637 8.615l-.001-.003z" fill="#FFF9F4"/><path d="M180.582 52.976c0 12.127-9.829 21.956-21.956 21.956-12.127 0-21.955-9.832-21.955-21.956 0-12.123 9.828-21.955 21.955-21.955 12.127 0 21.956 9.829 21.956 21.955z" fill="#FFAD04"/><path d="M157.511 64.016l-.906 4.736-4.148-.664.913-4.766c-2.854-.87-5.457-2.533-7.223-4.57l3.062-4.072c1.878 2.28 5.014 4.185 7.29 4.55 1.683.269 2.86-.181 3.079-1.325.706-3.684-11.225-3.295-9.755-10.976.658-3.435 3.61-5.422 7.725-5.434l.871-4.552 4.147.664-.865 4.521c2.504.689 4.768 1.943 6.383 3.415l-3.012 4.146c-2.058-1.67-4.793-3.16-6.599-3.45-1.371-.219-2.371.134-2.561 1.124-.687 3.592 11.207 3.39 9.714 11.19-.729 3.81-4.086 5.568-8.115 5.467v-.004z" fill="#FFF9F4"/><path d="M69.002 77.584c0-2.531 2.104-4.584 4.698-4.584h30.536c2.595 0 4.699 2.053 4.699 4.584 0 2.531-2.104 4.581-4.699 4.581H73.7c-2.594 0-4.698-2.05-4.698-4.58z" fill="#FFAD04"/><path d="M69.002 86.75c0-2.532 2.104-4.585 4.698-4.585h30.536c2.595 0 4.699 2.05 4.699 4.584 0 2.532-2.104 4.585-4.699 4.585H73.7c-2.594 0-4.698-2.053-4.698-4.585z" fill="#FFC53B"/><path d="M69.002 95.917c0-2.531 2.104-4.584 4.698-4.584h30.536c2.595 0 4.699 2.05 4.699 4.584 0 2.532-2.104 4.584-4.699 4.584H73.7c-2.594 0-4.698-2.052-4.698-4.584z" fill="#FFAD04"/><path d="M69.002 105.086c0-2.532 2.104-4.584 4.698-4.584h30.536c2.595 0 4.699 2.052 4.699 4.584 0 2.531-2.104 4.581-4.699 4.581H73.7c-2.594 0-4.698-2.053-4.698-4.581z" fill="#FFC53B"/><path d="M69.002 114.25c0-2.531 2.104-4.584 4.698-4.584h30.536c2.595 0 4.699 2.053 4.699 4.584 0 2.532-2.104 4.584-4.699 4.584H73.7c-2.594 0-4.698-2.052-4.698-4.584z" fill="#FFAD04"/><path d="M69.002 123.419c0-2.532 2.104-4.584 4.698-4.584h30.536c2.595 0 4.699 2.052 4.699 4.584 0 2.531-2.104 4.581-4.699 4.581H73.7c-2.594 0-4.698-2.05-4.698-4.581z" fill="#FFC53B"/><path d="M195.672 75.43l9.298-20.759h-79.578s9.304 20.753 9.298 20.758c-15.508 10.003-26.058 45.645 3.311 45.645h30.509s27.088-45.907 27.162-45.645z" fill="#D0A66C"/><path d="M200.116 76.65c0 1.49-1.454 2.7-3.245 2.7h-63.374c-1.794 0-3.248-1.21-3.248-2.7 0-1.492 1.454-2.7 3.248-2.7h63.371c1.794 0 3.245 1.208 3.245 2.7h.003z" fill="#fff"/><path d="M222.53 127.887s3.006-5.257 9.491-2.632c2.085.845 2.188-1.173 2.435-1.893.25-.723 4.45 4.457-.654 8.602-5.103 4.145-11.617-1.523-11.275-4.077h.003z" fill="#F4B54C"/><path d="M228.321 124.526c-3.94.119-5.792 3.363-5.792 3.363-.227 1.684 2.523 4.715 5.883 5.405 0 0-3.395-2.447-.965-4.865 2.429-2.418.877-3.9.877-3.9l-.003-.003z" fill="#FAE8C8"/><path d="M232.358 91.402s16.632 46.968-40.181 46.864c-5.743-.012-9.783-.486-12.368-.593-2.035-.085-3.263-1.881-3.828-3.852-.999-3.472-2.132-7.71.883-7.704 4.62.009 6.119 5.109 6.119 5.109l7.742-6.015 41.633-33.81z" fill="#FAE8C8"/><path d="M232.85 87.856s9.862-.524 18.961-4.658c1.859-3.078 2.822-4.524 5.74-4.201 2.918.323 2.194 5.668.365 6.51-2.515 1.84-5.08.956-5.08.956s-13.01 19.901-23.796 17.498c-10.79-2.401 3.813-16.102 3.813-16.102l-.003-.003zm-50.134.944s-14.727-12.054-22.265-12.952c-1.11-3.422-1.717-5.055-4.632-5.41-2.916-.356-3.425 5.013-1.832 6.252 2.032 2.37 4.729 2.098 4.729 2.098s8.148 22.362 19.197 22.504c11.049.143 4.806-12.492 4.806-12.492h-.003z" fill="#FAE8C8"/><path d="M176.957 91.314s-6.982 6.326-4.7 24.268c-.58-.587-2.132.459-2.827.459-2.208-.003-3.548.815-3.548.815s.33-4.934-2.76-6.584c-1.372-.732-3.056.21-3.236 1.763-.338 2.904 1.01 7.215 2.044 9.985a3.876 3.876 0 003.18 2.492c4.906.593 10.675-.622 10.675-.622l7.494 8.229 49.242-40.666-55.567-.136.003-.003z" fill="#FAE8C8"/><path d="M197.308 127.122s-10.893-.871-14.029 4.993c-3.019-6.54-6.387-6.042-6.387-6.042s-4.12.065-.018 10.395c3.039 3.069 27.698.977 27.698.977m-32-36.671s-3.604 16.226 3.216 23.113" stroke="#F0C9AE" stroke-width="2.56" stroke-linecap="round" stroke-linejoin="round"/><path d="M194.127 102.674s-6.343-3.265-11.482 1.523c0 0-2.459 2.187-2.715 4.06 0 0 4.229 3.153 8.34.444 0 0 2.538-1.632 4.49-1.751l1.367-4.276zm3.952 2.961s7.981.071 10.613 7.505c0 0 1.314 3.455.604 5.446 0 0-5.825.925-8.507-3.911 0 0-1.679-2.945-3.555-4.083l.848-4.957h-.003z" fill="#3BC663"/><path d="M201.698 107.601c-1.101 3.606-4.897 5.633-8.481 4.525-3.584-1.108-5.598-4.928-4.496-8.534 1.101-3.606 4.897-5.632 8.48-4.524 3.584 1.108 5.598 4.927 4.497 8.533z" fill="#fff"/><path d="M195.677 104.105l-1.962 1.02 1.013 1.975 1.963-1.02-1.014-1.975z" fill="#AC823B"/><path d="M195.679 104.1l1.013 1.976-.147-.047-.913-1.778.047-.151z" fill="#C0984D"/><path d="M195.634 104.251l-1.767.921-.15-.05 1.964-1.022-.047.151z" fill="#D7BE97"/><path d="M194.733 107.098l-1.016-1.976.15.05.913 1.775-.047.151z" fill="#C0984D"/><path d="M194.781 106.947l1.767-.918.147.047-1.961 1.022.047-.151z" fill="#7D4B2D"/><path d="M191.47 104.312c.724-2.284 3.174-3.54 5.474-2.806a4.397 4.397 0 012.394 1.861l.047-.023a4.858 4.858 0 00-2.794-2.327c-2.533-.811-5.236.572-6.034 3.094-.657 2.08.524 4.243 2.615 4.91 1.128.361 2.279.255 3.219-.302l-.015-.03c-.772.326-1.658.356-2.533.077-1.896-.607-2.968-2.569-2.373-4.457v.003z" fill="url(#paint0_linear_4696_189162)"/><path d="M198.945 106.884c-.725 2.285-3.175 3.541-5.475 2.806a4.379 4.379 0 01-2.391-1.861l-.047.024a4.851 4.851 0 002.795 2.326c2.535.812 5.235-.572 6.033-3.093.657-2.081-.524-4.244-2.614-4.913-1.128-.362-2.28-.255-3.219.302l.015.03c.771-.329 1.658-.359 2.529-.077 1.897.607 2.968 2.569 2.371 4.456h.003z" fill="url(#paint1_linear_4696_189162)"/><path d="M194.177 108.709c-1.71-.548-2.715-2.406-2.173-4.124.792-2.507 3.072-3.375 5.239-2.679a4.115 4.115 0 012.061 1.482l.036-.018a4.4 4.4 0 00-2.394-1.861c-2.3-.738-4.75.519-5.475 2.806-.598 1.888.477 3.849 2.374 4.457.871.278 1.761.249 2.532-.077l-.026-.054a3.23 3.23 0 01-2.168.071l-.006-.003z" fill="url(#paint2_linear_4696_189162)"/><path d="M196.946 101.509c-2.312-.741-4.774.515-5.498 2.803-.598 1.89.483 3.855 2.388 4.465.878.282 1.767.252 2.541-.074l-.005-.015c-.76.305-1.629.329-2.486.053-1.893-.607-2.968-2.554-2.376-4.423.715-2.264 3.159-3.503 5.456-2.768a4.396 4.396 0 012.368 1.813l.012-.005a4.424 4.424 0 00-2.397-1.852l-.003.003z" fill="url(#paint3_linear_4696_189162)"/><path d="M196.235 102.487c1.711.548 2.718 2.406 2.173 4.125-.795 2.509-3.071 3.372-5.239 2.678a4.096 4.096 0 01-2.058-1.481l-.035.017a4.386 4.386 0 002.391 1.861c2.3.738 4.75-.518 5.474-2.806.598-1.887-.474-3.849-2.371-4.456-.871-.279-1.76-.249-2.529.077l.026.05a3.22 3.22 0 012.171-.068l-.003.003z" fill="url(#paint4_linear_4696_189162)"/><path d="M193.461 109.687c2.312.741 4.774-.516 5.498-2.803.598-1.891-.48-3.855-2.388-4.466-.875-.281-1.767-.251-2.538.075l.005.014c.76-.308 1.629-.329 2.486-.053 1.893.607 2.968 2.554 2.376 4.424-.715 2.264-3.16 3.502-5.456 2.767a4.397 4.397 0 01-2.368-1.813l-.012.006a4.436 4.436 0 002.397 1.855v-.006z" fill="url(#paint5_linear_4696_189162)"/><path d="M241.726 65.307c.368.192 3.563.299 3.931.038-2.892-2.72-2.912-7.38-4.647-10.374-7.374-12.73-15.746-21.894-30.593-23.885-5.674-.762-11.546-.29-17 1.476-3.964 1.282-7.81 3.777-11.155 6.249-3.51 2.595-4.679 3.905-7.341 7.39-3.369 4.409-6.817 5.798-6.817 5.798s3.987 2.125 5.763 1.559c-.957.267-3.251 6.116-3.513 7.09-.672 2.49-1.096 5.044-1.352 7.61-1.081 10.788 3.307 13.298 2.609 18.451 1.146.474 3.725-1.325 4.055-2.862-.704 3.292 1.228 6.862 2.65 8.747 5.224 6.919 19.833 11.979 23.744 13.236a4.403 4.403 0 001.99.166c4.694-.694 24.289-4.137 30.258-14.093.68-1.135 1.546-2.69 1.552-3.167-.021 1.55.406 3.615 1.092 3.736 1.275-3.585 3.652-4.222 5.23-10.474 1.349-5.337.619-10.56-.459-16.691h.003z" fill="#F4B54C"/><path d="M243.249 44.496c.091-4.024-3.078-7.358-7.077-7.45-2.944-.068-5.654 1.932-6.843 4.448l6.516 10.122c3.999.092 7.312-3.096 7.404-7.12zm-7.268 3.529l-3.445-5.618a3.906 3.906 0 013.622-2.246c2.158.05 3.869 1.849 3.819 4.02-.047 2.173-1.838 3.894-3.996 3.847v-.003zm-44.263-19.476c-3.775-1.354-7.93.625-9.276 4.427-1.346 3.798.621 7.98 4.399 9.333l9.68-7.446c-.218-2.782-2.017-5.316-4.8-6.314h-.003zm-3.675 10.403c-2.182-.782-3.322-3.2-2.544-5.396.78-2.195 3.18-3.342 5.365-2.56a4.227 4.227 0 012.777 3.65l-5.595 4.306h-.003z" fill="#F4B54C"/><path d="M193.381 36.081c.668-2.418-.738-4.924-3.141-5.597-2.404-.673-4.894.742-5.563 3.16-.669 2.419.737 4.925 3.141 5.598 2.403.673 4.894-.742 5.563-3.16zm44.705 12.2c2.29-.996 3.343-3.672 2.353-5.976-.991-2.304-3.65-3.364-5.939-2.367-2.29.996-3.344 3.672-2.353 5.976a4.506 4.506 0 005.939 2.367zm-10.009 7.169c-2.635-8.699-11.976-13.34-18.749-15.239 0 0-6.938-2.23-6.425 1.245 0 0 1.637 4.116-4.788 1.721-8.175-3.046-16.759 11.601-16.597 21.231.159 9.346 9.376 17.672 26.953 18.17 1.788.05 8.805-.389 12.05-1.87 13.526-6.172 9.744-18.016 7.554-25.257h.002z" fill="#FAE8C8"/><path d="M200.784 61.288s-3.935 14.866 2.205 16.49c0 0 6.682 2.75 8.699-13.207l-5.568-5.159-5.336 1.876z" fill="#FA8785"/><path d="M199.14 65.3s1.125 2.943 2.25 2.457c0 0 1.084-.631.654-3.114l-2.904.657zm10.03-.353s-.324 3.135.898 3.215c0 0 1.249-.068 1.988-2.477l-2.886-.738z" fill="#fff"/><path d="M217.254 62.218c-.763-1.19-2.124-1.875-3.422-2.252-2.159-.622-4.588-.287-6.488.925a2.588 2.588 0 00-1.104 1.481 4.17 4.17 0 00-.394-.954c-1.284-2.308-3.988-3.594-6.517-3.858-1.914-.201-4.196-.169-5.89.89-.02.011-.041.026-.059.038-1.41.91-2.285 2.809-1.469 4.4.568 1.105 1.852 1.852 2.933 2.373 2.5 1.203 5.789 2.09 8.516 1.192.884-.29 1.702-.815 2.282-1.547a3.3 3.3 0 00.572-1.055c.226.82.91 1.34 1.675 1.722 1.782.886 3.887 1.443 5.887 1.277 2.191-.181 5.077-2.137 3.478-4.632z" fill="#F0C9AE"/><path d="M202.405 48.915c.04-.613-.679-1.159-1.605-1.22-.927-.062-1.711.384-1.751.997-.04.612.678 1.158 1.605 1.22.927.061 1.71-.385 1.751-.997zm11.466 1.659c-.041.613-.824 1.06-1.752.998-.927-.062-1.646-.607-1.605-1.22.042-.614.825-1.061 1.753-1 .927.063 1.646.608 1.604 1.222zm-7.458 13.156c1.019-.06 2.565-.528 2.909-2.033.557-2.442-2.6-3.906-4.349-4.14-2.017-.273-4.188 1.22-4.303 3.144-.097 1.639 1.965 2.412 3.522 2.836 0 0 1.202.252 2.221.192z" fill="#4C1E0B"/><path d="M219.268 58.115a.77.77 0 00-1.01.412l-.857 2.042a.778.778 0 00.41 1.016c.191.083.4.08.58.009a.782.782 0 00.43-.42l.857-2.042a.779.779 0 00-.41-1.017zm2.301.178a.77.77 0 00-1.01.412l-.857 2.041a.778.778 0 00.409 1.017.776.776 0 001.01-.415l.857-2.042a.778.778 0 00-.409-1.016v.003zm-32.357-3.056a.769.769 0 00-1.01.415l-.854 2.045a.78.78 0 00.412 1.016.757.757 0 00.58.006.762.762 0 00.427-.42l.854-2.045a.777.777 0 00-.409-1.017zm2.301.178a.77.77 0 00-1.01.415l-.854 2.044a.77.77 0 101.419.602l.854-2.045a.776.776 0 00-.412-1.016h.003z" fill="#FA8785"/><path d="M206.751 79.55a.69.69 0 00-.931.304c-.215.424-1.431.525-2.164.436-1.476-.21-2.459-1.028-2.692-1.325a.69.69 0 00-1.316-.053c-.059.16-.088.415.094.72.395.664 1.852 1.769 3.734 2.039.044.006.141.017.28.026.751.05 2.662.048 3.298-1.212a.697.697 0 00-.303-.936z" fill="#F0C9AE"/><path d="M211.037 57.803s.586-1.416 2.424-1.354c0 0 1.652.018 2.176 2.14 0 0-.895-.803-2.114-.863 0 0-1.149-.115-2.486.074v.003zm-14.963-2.333s.586-1.416 2.423-1.353c0 0 1.652.018 2.176 2.14 0 0-.895-.804-2.114-.863 0 0-1.148-.116-2.485.074v.003z" fill="#4C1E0B" stroke="#4C1E0B" stroke-linecap="round" stroke-linejoin="round"/><path d="M200.752 52.779s.978.702.998 2.246m8.982.968s.383-1.144 1.843-1.618" stroke="#4C1E0B" stroke-linecap="round" stroke-linejoin="round"/><path d="M138.934 86.698A4.699 4.699 0 00134.236 82H103.7a4.697 4.697 0 100 9.394h30.536a4.696 4.696 0 004.698-4.696z" fill="#FFAD04"/><path d="M138.934 95.785a4.699 4.699 0 00-4.698-4.698H103.7a4.699 4.699 0 000 9.397h30.536a4.699 4.699 0 004.698-4.699z" fill="#FFC53B"/><path d="M138.934 104.871a4.699 4.699 0 00-4.698-4.699H103.7a4.699 4.699 0 000 9.397h30.536a4.699 4.699 0 004.698-4.698z" fill="#FFAD04"/><path d="M138.934 113.958a4.699 4.699 0 00-4.698-4.699H103.7a4.696 4.696 0 100 9.394h30.536a4.698 4.698 0 004.698-4.695z" fill="#FFC53B"/><path d="M138.934 123.352a4.699 4.699 0 00-4.698-4.698H103.7a4.699 4.699 0 000 9.397h30.536a4.699 4.699 0 004.698-4.699z" fill="#FFAD04"/><path d="M160.164 63.834c3.413 4.781 2.305 11.423-2.477 14.836-4.781 3.414-11.424 2.304-14.836-2.476-3.413-4.78-2.305-11.423 2.476-14.837 4.782-3.413 11.423-2.304 14.837 2.477z" fill="#FFC53B"/><path d="M154.773 74.233l.976 2.122-1.822.906-.982-2.136c-1.37.46-2.865.537-4.134.23l.061-2.466c1.382.37 3.155.239 4.155-.258.739-.368 1.077-.877.841-1.39-.759-1.65-5.353 1.86-6.935-1.581-.708-1.54-.103-3.154 1.515-4.317l-.937-2.04 1.822-.906.931 2.027c1.181-.434 2.427-.577 3.478-.45l-.02 2.482c-1.282-.08-2.78.103-3.573.497-.603.3-.898.72-.694 1.164.74 1.61 5.373-1.818 6.98 1.678.785 1.707-.044 3.345-1.661 4.44l-.001-.002z" fill="#FFF9F4"/><path d="M226.769 81.13l39.68 9.351 4.787-20.315-39.68-9.35-4.787 20.315z" fill="#59C36A"/><path d="M230.471 78.993l33.621 7.922 3.443-14.613-33.62-7.922-3.444 14.613z" fill="#B6DDBE"/><path d="M261.097 85.647a2.931 2.931 0 013.524-2.179 2.927 2.927 0 012.179 3.522 2.93 2.93 0 11-5.703-1.343zm3.191-13.543a2.93 2.93 0 115.702 1.347 2.93 2.93 0 01-5.702-1.349v.002zm-36.099 5.791a2.93 2.93 0 115.705 1.343 2.93 2.93 0 01-5.707-1.342h.002zm3.187-13.541a2.93 2.93 0 115.704 1.344 2.93 2.93 0 01-5.705-1.343h.001zm22.502 13.084a5.559 5.559 0 11-10.604-3.343 5.56 5.56 0 1110.604 3.343z" fill="#59C36A"/><path d="M248.287 78.538l-.402 1.153-1.015-.32.405-1.16c-.682-.324-1.273-.837-1.64-1.412l.918-.907c.386.64 1.101 1.234 1.658 1.41.411.13.723.06.82-.218.313-.897-2.69-1.241-2.037-3.11.291-.837 1.105-1.225 2.136-1.076l.386-1.108 1.015.32-.384 1.1c.601.265 1.122.663 1.472 1.092l-.908.927c-.453-.494-1.083-.969-1.525-1.108-.336-.106-.599-.055-.683.186-.305.875 2.682 1.264 2.019 3.163-.324.927-1.23 1.243-2.235 1.069z" fill="#B6DDBE"/><g filter="url(#filter0_d_4696_189162)"><path fill-rule="evenodd" clip-rule="evenodd" d="M12 8C5.373 8 0 13.373 0 20v13c0 6.627 5.373 12 12 12h90c0 11 11.5 16 20 14-10.17-3.236-10.083-8.61-10.011-12.958.005-.355.011-.703.011-1.042h16c6.627 0 12-5.373 12-12V20c0-6.627-5.373-12-12-12H12z" fill="#A4844E"/></g><path d="M38.399 27.803a44.785 44.785 0 01-.352 4.687c-.189 1.498-.371 2.357-.547 2.578-.176.228-.361.41-.556.547-.19.143-.68.228-1.475.254-.794.033-1.498.056-2.11.069l-.595-1.7 2.656.059c.26 0 .45-.075.566-.225.124-.156.251-.82.381-1.992.13-1.172.196-2.057.196-2.656H23.018V18.818h15.341v1.602h-6.543v1.435h5.762v1.485h-5.762v1.504h5.762v1.513h-5.762v1.446H38.4zm-8.34-5.948V20.42h-5.284v1.435h5.284zm0 2.989V23.34h-5.284v1.504h5.284zm0 2.959v-1.446h-5.284v1.446h5.284zm5.244 5.341l-1.484.538c-.359-1.329-.791-2.455-1.3-3.38l1.622-.42c.54 1.153.928 2.24 1.162 3.262zM25.156 30.42c-.69 2.155-1.517 3.887-2.48 5.195l-1.533-.996c.937-1.172 1.722-2.75 2.353-4.736l1.66.537zm7.002 3.877l-1.562.527a21.735 21.735 0 00-1.28-4.365l1.583-.361a20.673 20.673 0 011.26 4.199zm-3.799.723l-1.66.302c-.02-1.523-.247-3.112-.683-4.765l1.66-.215c.39 1.465.618 3.024.684 4.678zm30.381.498H41.3V33.72h7.178V18.535h1.865v6.006h7.539v1.758h-7.54v7.422h8.4v1.797zm9.004-13.516H61.28V20.4h2.442c-.104-.325-.326-.82-.664-1.484l1.806-.42c.306.586.58 1.22.82 1.904h2.061v1.602zm11.24 10.039c-.117 1.211-.348 2.194-.693 2.95-.338.754-.8 1.132-1.387 1.132-1.087 0-1.849-1.097-2.285-3.291-.436-2.194-.69-5.283-.761-9.268h-5.655v-1.66h5.576l-.02-3.34h1.7c0 1.589.02 2.702.059 3.34H78.7v1.66h-3.144c.143 3.855.361 6.589.654 8.204.3 1.614.52 2.422.664 2.422.052 0 .143-.212.274-.635.13-.43.24-1.182.332-2.256l1.504.742zm-.449-11.396l-1.23.859c-.358-.56-.873-1.201-1.543-1.924l1.22-.82a11 11 0 011.553 1.884zM67.383 25.02h-5.645v-1.582h5.645v1.582zm6.436 7.88c-2.032.938-3.916 1.664-5.655 2.178l-.244-1.7a13.56 13.56 0 001.943-.614v-5.606h-1.767v-1.601h5.068v1.601h-1.582V32.1a34.946 34.946 0 002.1-.938l.136 1.738zm-6.436-5.039h-5.645V26.28h5.645v1.582zm.039 7.862h-1.777v-.948h-1.983v1.328h-1.806V29.22h5.566v6.504zm-1.777-2.52V30.84h-1.983v2.363h1.983zm24.238-12.1h-5.186c-.898 1.03-1.712 1.781-2.441 2.256l-1.074-1.357c1.276-.886 2.409-2.093 3.398-3.623l1.739.4c-.28.443-.453.723-.518.84h4.082v1.485zm8.857 0h-6.22c-.43.58-.87 1.084-1.319 1.514l-1.68-.762c.919-.761 1.784-1.907 2.598-3.437l1.758.342-.459.86h5.322v1.483zm-2.617 1.377l-1.806.342c-.105-.234-.342-.621-.713-1.162l1.836-.303c.332.443.56.817.683 1.123zm-8.223.06l-1.757.321-.781-1.2 1.816-.304c.163.202.404.596.722 1.182zm9.024 7.724H83.223v-7.168h13.701v7.168zm-1.768-5.127v-.713H84.981v.713h10.175zm0 1.924v-.762H84.981v.762h10.175zm0 1.943v-.82H84.981v.82h10.175zm3.662 4.219h-4.58v2.793h-1.796v-2.793h-4.463a3.291 3.291 0 01-1.24 1.738c-.606.443-1.72.85-3.34 1.22l-1.143-1.503c2.116-.365 3.37-.85 3.76-1.455h-4.62v-1.485h4.962v-.976h1.787v.976h4.297v-.976h1.796v.976h4.58v1.485zm12.325-13.34l-.264 10.713h-1.816l-.264-10.713h2.344zM110 32.539c.384 0 .716.133.996.4.28.26.42.58.42.958 0 .37-.137.69-.41.956-.273.26-.609.391-1.006.391a1.44 1.44 0 01-1.016-.38 1.3 1.3 0 01-.4-.967c0-.385.137-.707.41-.967.28-.26.615-.39 1.006-.39z" fill="#fff"/></g><defs><linearGradient id="paint0_linear_4696_189162" x1="190.609" y1="107.175" x2="199.061" y2="102.706" gradientUnits="userSpaceOnUse"><stop stop-color="#AC823B"/><stop offset=".12" stop-color="#AD843E"/><stop offset=".22" stop-color="#B28A48"/><stop offset=".31" stop-color="#BA9559"/><stop offset=".4" stop-color="#C5A570"/><stop offset=".48" stop-color="#D3B88F"/><stop offset=".5" stop-color="#D7BE97"/><stop offset=".52" stop-color="#D3B88F"/><stop offset=".6" stop-color="#C5A570"/><stop offset=".69" stop-color="#BA9559"/><stop offset=".78" stop-color="#B28A48"/><stop offset=".88" stop-color="#AD843E"/><stop offset="1" stop-color="#AC823B"/></linearGradient><linearGradient id="paint1_linear_4696_189162" x1="199.677" y1="104.017" x2="191.375" y2="108.516" gradientUnits="userSpaceOnUse"><stop stop-color="#00553C"/><stop offset=".12" stop-color="#03573E"/><stop offset=".21" stop-color="#0D5D45"/><stop offset=".3" stop-color="#1E6850"/><stop offset=".38" stop-color="#357860"/><stop offset=".46" stop-color="#548C75"/><stop offset=".5" stop-color="#689A83"/><stop offset=".54" stop-color="#548C75"/><stop offset=".62" stop-color="#357860"/><stop offset=".7" stop-color="#1E6850"/><stop offset=".79" stop-color="#0D5D45"/><stop offset=".88" stop-color="#03573E"/><stop offset="1" stop-color="#00553C"/></linearGradient><linearGradient id="paint2_linear_4696_189162" x1="196.511" y1="101.757" x2="193.478" y2="107.097" gradientUnits="userSpaceOnUse"><stop stop-color="#7D4B2D"/><stop offset=".3" stop-color="#AC823B"/><stop offset="1" stop-color="#7D4B2D"/></linearGradient><linearGradient id="paint3_linear_4696_189162" x1="196.407" y1="101.832" x2="193.493" y2="107.209" gradientUnits="userSpaceOnUse"><stop stop-color="#C0984D"/><stop offset=".3" stop-color="#F0E4CC"/><stop offset="1" stop-color="#C0984D"/></linearGradient><linearGradient id="paint4_linear_4696_189162" x1="196.86" y1="104.108" x2="193.792" y2="109.415" gradientUnits="userSpaceOnUse"><stop stop-color="#00462F"/><stop offset=".7" stop-color="#00553C"/><stop offset="1" stop-color="#00462F"/></linearGradient><linearGradient id="paint5_linear_4696_189162" x1="193.887" y1="109.437" x2="196.876" y2="104.104" gradientUnits="userSpaceOnUse"><stop stop-color="#007156"/><stop offset=".3" stop-color="#E7F2F1"/><stop offset="1" stop-color="#007156"/></linearGradient><clipPath id="clip0_4696_189162"><path d="M0 0h288c6.627 0 12 5.373 12 12v124c0 6.627-5.373 12-12 12H0V0z" fill="#fff"/></clipPath><filter id="filter0_d_4696_189162" x="-4" y="6" width="152" height="63.432" filterUnits="userSpaceOnUse" color-interpolation-filters="sRGB"><feFlood flood-opacity="0" result="BackgroundImageFix"/><feColorMatrix in="SourceAlpha" values="0 0 0 0 0 0 0 0 0 0 0 0 0 0 0 0 0 0 127 0" result="hardAlpha"/><feOffset dx="2" dy="4"/><feGaussianBlur stdDeviation="3"/><feComposite in2="hardAlpha" operator="out"/><feColorMatrix values="0 0 0 0 0 0 0 0 0 0 0 0 0 0 0 0 0 0 0.15 0"/><feBlend in2="BackgroundImageFix" result="effect1_dropShadow_4696_189162"/><feBlend in="SourceGraphic" in2="effect1_dropShadow_4696_189162" result="shape"/></filter></defs></svg>