<svg width="300" height="148" viewBox="0 0 300 148" fill="none" xmlns="http://www.w3.org/2000/svg"><g clip-path="url(#clip0_4879_185216)"><path d="M150 147c70.14 0 127-8.583 127-19.17 0-10.587-56.86-19.17-127-19.17s-127 8.583-127 19.17C23 138.417 79.86 147 150 147z" fill="#7DD3A4"/><g filter="url(#filter0_d_4879_185216)"><path fill-rule="evenodd" clip-rule="evenodd" d="M12 8C5.373 8 0 13.373 0 20v13c0 6.627 5.373 12 12 12h90c0 11 11.5 16 20 14-10.17-3.236-10.083-8.61-10.011-12.958.005-.355.011-.703.011-1.042h16c6.627 0 12-5.373 12-12V20c0-6.627-5.373-12-12-12H12z" fill="#A4844E"/></g><path d="M38.398 27.803a44.758 44.758 0 01-.351 4.687c-.189 1.498-.371 2.357-.547 2.578-.176.228-.361.41-.557.547-.188.143-.68.228-1.474.254-.794.033-1.498.056-2.11.069l-.595-1.7 2.656.059c.26 0 .45-.075.566-.225.124-.156.251-.82.381-1.992.13-1.172.196-2.057.196-2.656H23.017V18.818h15.341v1.602h-6.543v1.435h5.762v1.485h-5.762v1.504h5.762v1.513h-5.762v1.446h6.582zm-8.34-5.948V20.42h-5.283v1.435h5.284zm0 2.989V23.34h-5.283v1.504h5.284zm0 2.959v-1.446h-5.283v1.446h5.284zm5.245 5.341l-1.485.538c-.358-1.329-.79-2.455-1.298-3.38l1.62-.42c.541 1.153.928 2.24 1.163 3.262zM25.156 30.42c-.69 2.155-1.517 3.887-2.48 5.195l-1.533-.996c.937-1.172 1.722-2.75 2.353-4.736l1.66.537zm7.002 3.877l-1.562.527a21.741 21.741 0 00-1.28-4.365l1.582-.361a20.673 20.673 0 011.26 4.199zm-3.799.723l-1.66.302c-.02-1.523-.247-3.112-.683-4.765l1.66-.215c.39 1.465.618 3.024.683 4.678zm30.381.498H41.3V33.72h7.178V18.535h1.865v6.006h7.539v1.758h-7.54v7.422h8.4v1.797zm9.004-13.516H61.28V20.4h2.442c-.104-.325-.326-.82-.664-1.484l1.806-.42c.306.586.58 1.22.82 1.904h2.061v1.602zm11.24 10.039c-.117 1.211-.348 2.194-.693 2.95-.338.754-.8 1.132-1.387 1.132-1.087 0-1.849-1.097-2.285-3.291-.436-2.194-.69-5.283-.762-9.268h-5.654v-1.66h5.576l-.02-3.34h1.7c0 1.589.02 2.702.059 3.34H78.7v1.66h-3.144c.143 3.855.361 6.589.654 8.204.3 1.614.52 2.422.664 2.422.052 0 .143-.212.273-.635.13-.43.241-1.182.333-2.256l1.503.742zm-.449-11.396l-1.23.859c-.358-.56-.873-1.201-1.543-1.924l1.22-.82a11 11 0 011.553 1.884zM67.383 25.02h-5.645v-1.582h5.645v1.582zm6.435 7.88c-2.03.938-3.916 1.664-5.654 2.178l-.244-1.7a13.56 13.56 0 001.943-.614v-5.606h-1.767v-1.601h5.068v1.601h-1.582V32.1a34.946 34.946 0 002.1-.938l.136 1.738zm-6.435-5.039h-5.645V26.28h5.645v1.582zm.039 7.862h-1.778v-.948h-1.982v1.328h-1.806V29.22h5.566v6.504zm-1.778-2.52V30.84h-1.982v2.363h1.982zm24.239-12.1h-5.186c-.898 1.03-1.712 1.781-2.441 2.256l-1.074-1.357c1.276-.886 2.409-2.093 3.398-3.623l1.738.4c-.28.443-.452.723-.517.84h4.082v1.485zm8.857 0h-6.22c-.43.58-.87 1.084-1.319 1.514l-1.68-.762c.918-.761 1.784-1.907 2.598-3.437l1.758.342-.459.86h5.322v1.483zm-2.617 1.377l-1.807.342c-.104-.234-.341-.621-.713-1.162l1.837-.303c.332.443.56.817.683 1.123zm-8.223.06l-1.757.321-.782-1.2 1.817-.304c.163.202.403.596.722 1.182zm9.024 7.724H83.223v-7.168h13.7v7.168zm-1.768-5.127v-.713H84.981v.713h10.175zm0 1.924v-.762H84.981v.762h10.175zm0 1.943v-.82H84.981v.82h10.175zm3.662 4.219h-4.58v2.793h-1.797v-2.793h-4.463a3.291 3.291 0 01-1.24 1.738c-.605.443-1.719.85-3.34 1.22l-1.142-1.503c2.116-.365 3.369-.85 3.76-1.455h-4.62v-1.485h4.961v-.976h1.787v.976h4.297v-.976h1.797v.976h4.58v1.485zm12.325-13.34l-.264 10.713h-1.817l-.263-10.713h2.344zM110 32.539c.384 0 .716.133.996.4.28.26.42.58.42.958 0 .37-.137.69-.41.956-.274.26-.609.391-1.006.391a1.44 1.44 0 01-1.016-.38 1.298 1.298 0 01-.4-.967c0-.385.137-.707.41-.967.28-.26.615-.39 1.006-.39z" fill="#fff"/><path d="M251.66 81.218h-48.01a.328.328 0 00-.326.33v20.134c0 .183.146.331.326.331h48.01c.18 0 .326-.148.326-.331V81.548a.328.328 0 00-.326-.33z" fill="#F6FCF3"/><path d="M211.349 84.246h41.395v-3.028H174.41c-5.749 0-10.41 4.655-10.41 10.398 0 5.742 4.661 10.397 10.41 10.397h78.334v-2.969h-41.395c-4.092 0-7.408-3.313-7.408-7.4 0-4.086 3.316-7.398 7.408-7.398z" fill="#7DD3A4"/><path d="M246.391 91.316h-5.295v9.32l2.691-4.16 2.604 4.16v-9.32z" fill="#FFA031"/><path d="M166.042 102.013h53.054c.199 0 .36.164.36.365v22.249a.363.363 0 01-.36.366h-53.054a.363.363 0 01-.36-.366v-22.249c0-.201.161-.365.36-.365z" fill="#F6FCF3"/><path d="M251.407 102.013h-86.563v3.346h45.744c4.521 0 8.185 3.661 8.185 8.177s-3.664 8.177-8.185 8.177h-45.744v3.28h86.563c6.353 0 11.503-5.144 11.503-11.489 0-6.346-5.15-11.491-11.503-11.491z" fill="#238C6C"/><path d="M208.266 113.132h6.142v10.802l-3.123-4.822-3.019 4.822v-10.802z" fill="#B7C516"/><path d="M186.82 66h35.134a.24.24 0 01.238.242v14.734a.24.24 0 01-.238.242H186.82a.24.24 0 01-.238-.242V66.242a.24.24 0 01.238-.242z" fill="#F6FCF3"/><path d="M243.352 66h-57.325v2.216h30.293a5.418 5.418 0 015.421 5.415 5.418 5.418 0 01-5.421 5.415h-30.293v2.172h57.325c4.207 0 7.617-3.406 7.617-7.609 0-4.202-3.41-7.609-7.617-7.609z" fill="#F58220"/><path d="M162.918 49.458s5.842-.532 10.293.835c4.636 1.423 9.321 4.491 9.321 4.491l2.247-8.6s-3.86-4.105-8.754-5.516c-4.54-1.31-10.347.009-10.347.009l-2.76 8.782v-.001z" fill="#222"/><path d="M155.359 39.389l8.441 7.2 1.876-5.913s5.807-1.319 10.347-.01c4.895 1.412 8.755 5.516 8.755 5.516l-1.561 6.004 10.978-1.603-16.994-14.002-21.842 2.808z" fill="#6E6E6E"/><path d="M178.341 35.45l16.304 13.577-.449 1.557-16.344-13.469a1.943 1.943 0 00-1.483-.428l-21.008 2.702.449-1.557 21.031-2.815a1.945 1.945 0 011.5.432v.001z" fill="#222"/><path d="M195.454 122.871c-.316-.719-1.765-.721-1.765-.721-1.648-1.555-4.344-12.693-5.682-18.601-.378-1.675-1.442-3.075-2.865-3.957a23.66 23.66 0 00-.162-.873l-.566.484a6.715 6.715 0 00-3.95-.515c-2.106.36-4.182 1.659-5.36 4.921l-11.594-2.966c-3.409-4.279-8.408-6.984-13.983-6.984l-.06.002a9.478 9.478 0 00-.623-.148c-7.938-1.595-22.917-4.791-25.125-6.634 0 0-.133-1.589-1.113-1.952 0 0-1.266-1.632-2.638.114 0 0-2.335.656-1.98 3.075 0 0 1.609 10.273 15.123 16.372-1.168 2.678-2.072 12.155-1.871 13.36-1.216.772-2.277.829-2.427.834-.058-.062-.401-.35-1.896-1.507-.948-.733-1.847-.172-2.356.751-.629 1.138-.563 2.347-.193 3.562.489 1.608.913 3.844 2.841 4.283 2.574.588 5.516.404 7.162.221a19.748 19.748 0 004.474 4.896l.116.184c-.048-.003-.095-.019-.141-.01-2.171.39-1.528 4.708-1.528 5.847 0 2.275 1.275 2.595 2.871 2.801 2.029.261 5.276.629 9.798.988 12.956 1.028 21.344-2.06 26.725-6.964.828 1.512 2.68 3.192 4.897 3.825 0 0-3.128-2.624-.577-4.779 2.553-2.156 1.149-3.706 1.149-3.706a6.791 6.791 0 00-1.591.109c1.257-1.901 2.235-3.93 2.987-6.003 4.704 2.905 9.236 2.887 9.236 2.887 2.201.118 2.523-1.194 2.523-1.194 1.613-1.148.142-2.004.142-2.004l.002.002z" fill="#F9E7C7"/><path d="M176.296 131.837s3.311-4.938 9.406-1.857c1.958.989 2.21-.985 2.507-1.677.296-.691 3.982 4.727-1.28 8.41-5.263 3.684-11.159-2.391-10.635-4.877l.002.001z" fill="#F3B44C"/><path d="M154.549 130.347s-6.47-1.31-11.029 3.157c.111-.219-1.807-1.303-1.98-1.409-.789-.477-1.665-1.302-2.666-.955-.523.18-.934.603-1.189 1.085-.886 1.685-.335 3.612-.009 5.364.332 1.783 4.046 2.09 5.457 2.298 2.765.408 5.57.561 8.362.652 2.661.086 5.328.108 7.989.044m-26.244-36.545s-5.106 14.267.667 21.179" stroke="#F0C9AE" stroke-width="2.06" stroke-linecap="round" stroke-linejoin="round"/><path d="M135.832 91.386s.72 13.197 18.246 21.773l4.137.708s12.6 3.257 24.926-10.156l-47.309-12.325z" fill="#13AB67"/><path d="M149.19 109.607s-5.846-2.989-10.58 1.395c0 0-2.266 2.005-2.501 3.716 0 0 3.897 2.888 7.684.408 0 0 2.339-1.496 4.139-1.605l1.258-3.914zm3.642 2.71s7.353.066 9.777 6.873c0 0 1.21 3.165.557 4.987 0 0-5.367.845-7.84-3.581 0 0-1.546-2.698-3.275-3.739l.781-4.54z" fill="#3BC663"/><path d="M156.164 114.121a6.255 6.255 0 11-11.959-3.668 6.255 6.255 0 0111.959 3.666v.002z" fill="#fff"/><path d="M151.554 112.722l-1.809.935-.934-1.807 1.808-.936.935 1.808z" fill="#AC823B"/><path d="M150.62 110.914l.934 1.808-.136-.043-.842-1.629.044-.136z" fill="#C0984D"/><path d="M150.576 111.05l-1.628.844-.137-.044 1.808-.936-.043.136z" fill="#D7BE97"/><path d="M149.745 113.657l-.934-1.806.137.043.842 1.626-.045.137z" fill="#C0984D"/><path d="M149.791 113.52l1.627-.841.136.044-1.808.934.045-.137z" fill="#7D4B2D"/><path d="M146.74 111.109c.665-2.093 2.925-3.243 5.043-2.569a4.053 4.053 0 012.207 1.704l.041-.022a4.44 4.44 0 00-2.575-2.129c-2.335-.743-4.826.524-5.56 2.832-.606 1.904.485 3.884 2.41 4.497 1.039.331 2.1.232 2.966-.276l-.014-.027c-.71.299-1.528.326-2.333.07-1.747-.556-2.736-2.353-2.185-4.08z" fill="url(#paint0_linear_4879_185216)"/><path d="M153.626 113.463c-.665 2.093-2.924 3.243-5.043 2.568a4.03 4.03 0 01-2.204-1.703l-.043.022a4.447 4.447 0 002.576 2.129c2.335.743 4.823-.525 5.558-2.832.606-1.904-.482-3.884-2.408-4.498-1.04-.33-2.1-.231-2.966.279l.015.027c.709-.301 1.527-.328 2.331-.072 1.748.556 2.735 2.353 2.186 4.079l-.002.001z" fill="url(#paint1_linear_4879_185216)"/><path d="M149.235 115.133c-1.576-.501-2.502-2.203-2.001-3.776.731-2.296 2.828-3.089 4.825-2.453a3.766 3.766 0 011.898 1.356l.033-.016a4.043 4.043 0 00-2.206-1.704c-2.12-.674-4.378.476-5.044 2.568-.55 1.728.44 3.524 2.186 4.081.804.256 1.621.229 2.333-.07l-.026-.048a3 3 0 01-1.998.064v-.002z" fill="url(#paint2_linear_4879_185216)"/><path d="M151.789 108.542c-2.13-.678-4.398.471-5.065 2.566-.55 1.731.444 3.532 2.2 4.09.808.257 1.629.232 2.341-.069l-.006-.012c-.7.28-1.5.301-2.29.049-1.744-.554-2.734-2.337-2.19-4.05.66-2.073 2.911-3.207 5.028-2.532.938.297 1.69.9 2.182 1.66l.01-.006a4.066 4.066 0 00-2.209-1.696h-.001z" fill="url(#paint3_linear_4879_185216)"/><path d="M151.132 109.438c1.577.501 2.504 2.203 2.003 3.777-.731 2.297-2.83 3.088-4.827 2.453a3.79 3.79 0 01-1.898-1.357l-.031.016a4.022 4.022 0 002.205 1.704c2.119.675 4.376-.476 5.043-2.568.549-1.728-.436-3.524-2.185-4.079-.805-.256-1.623-.229-2.332.072l.024.046a2.988 2.988 0 012-.064h-.002z" fill="url(#paint4_linear_4879_185216)"/><path d="M148.578 116.03c2.13.677 4.397-.471 5.065-2.567.55-1.73-.443-3.53-2.201-4.089-.807-.258-1.627-.232-2.339.067l.006.013c.698-.281 1.499-.302 2.288-.05 1.744.555 2.735 2.338 2.19 4.05-.659 2.073-2.911 3.207-5.027 2.532a4.05 4.05 0 01-2.182-1.66l-.011.006a4.085 4.085 0 002.209 1.698h.002z" fill="url(#paint5_linear_4879_185216)"/><path d="M157.905 42.665a6.188 6.188 0 00-7.649 9.728l9.827-3.356a6.19 6.19 0 00-2.178-6.372z" fill="#F4B54C"/><path d="M157.156 49.27a3.733 3.733 0 10-6.184-4.184 3.733 3.733 0 006.184 4.184z" fill="#FAE8C8"/><path d="M195.458 83.088c.304.223 3.152.772 3.518.59-2.207-2.83-1.569-6.983-2.703-9.895-4.816-12.378-11.026-21.723-24.048-25.599-4.978-1.48-10.303-1.893-15.44-1.093-3.733.582-7.528 2.257-10.872 3.984-3.511 1.815-4.743 2.817-7.617 5.54-3.637 3.45-6.924 4.198-6.924 4.198s3.275 2.456 4.945 2.205c-.894.1-3.772 4.983-4.146 5.815-.953 2.123-1.69 4.335-2.282 6.584-2.488 9.452.628 9.95-.724 14.439.959.583 3.853-.568 4.035-1.973-.83 6.395 12.774 12.569 14.826 19.022.531 1.67.827 1.005 3.554 1.503 9.105 1.659 26.689 3.475 33.439-4.544.769-.913 1.764-2.177 1.837-2.601-.236 1.377-.145 3.275.455 3.48 1.645-3.011 4.236-2.143 6.529-7.486 1.958-4.562 1.723-8.56 1.618-14.17z" fill="#F4B54C"/><path d="M196.255 61.316a6.89 6.89 0 00-5.551-8.007c-2.758-.5-5.6.965-7.087 3.138l4.63 10.42a6.887 6.887 0 008.006-5.551h.002z" fill="#F4B54C"/><path d="M190.848 64.086a4.298 4.298 0 10-2.138-8.327 4.298 4.298 0 002.138 8.327zm-6.898 7.681c-1.404-8.077-9.296-13.273-15.18-15.732 0 0-5.997-2.774-5.922.394 0 0 1.016 3.865-4.501 1.004-7.019-3.64-16.375 8.502-17.3 17.132-.896 8.38 6.473 16.858 22.241 19.272 1.605.245 7.968.638 11.054-.323 12.86-4.007 10.776-15.025 9.607-21.749l.001.002z" fill="#FAE8C8"/><path d="M158.18 73.892s-5.111 12.137.025 14.736c0 0 5.806 3.68 10.616-9.999l-4.36-5.59-6.282.853h.001z" fill="#FA8785"/><path d="M155.254 76.725s.685 2.758 1.751 2.45c0 0 1.046-.444.937-2.713l-2.688.265v-.002zm7.829 1.611s-.64 2.77.45 2.978c0 0 1.133.078 2.066-1.993l-2.516-.985z" fill="#fff"/><path d="M151.803 71.191c1.028-.758 2.399-.9 3.623-.799 2.03.17 3.985 1.231 5.207 2.863a2.33 2.33 0 01.465 1.605c.181-.253.402-.478.64-.679 1.825-1.533 4.529-1.748 6.759-1.16 1.689.447 3.614 1.205 4.712 2.64.013.017.025.035.039.052.906 1.22 1.042 3.1-.159 4.18-.834.751-2.161.967-3.244 1.058-2.505.21-5.578-.097-7.604-1.73-.657-.529-1.184-1.233-1.442-2.035a2.992 2.992 0 01-.148-1.074c-.454.62-1.2.838-1.972.913-1.795.174-3.759-.033-5.403-.814-1.8-.856-3.624-3.433-1.473-5.021v.001z" fill="#F0C9AE"/><path d="M161.572 63.047c.105-.543-.482-1.113-1.309-1.272-.827-.158-1.583.153-1.687.697-.105.543.482 1.113 1.309 1.272.828.159 1.583-.153 1.687-.697zm10.133 2.766c-.104.543-.86.856-1.687.697-.827-.158-1.413-.728-1.309-1.273.105-.543.86-.855 1.688-.697.827.159 1.413.729 1.308 1.273zm-11.273 10.181c-.843-.381-2.003-1.277-1.807-2.655.318-2.235 3.465-2.441 5.022-2.07 1.795.426 3.151 2.39 2.628 4.044-.447 1.411-2.441 1.39-3.9 1.242 0 0-1.098-.18-1.943-.561z" fill="#4C1E0B"/><path d="M175.723 73.165a.698.698 0 00-.954.256l-1 1.732a.7.7 0 001.21.699l1-1.732a.7.7 0 00-.256-.955zm2.051.416a.697.697 0 00-.954.258l-.998 1.732a.699.699 0 001.21.698l.998-1.732a.699.699 0 00-.256-.954v-.002zm-28.785-6.353a.697.697 0 00-.954.257l-.998 1.732a.698.698 0 101.211.699l.998-1.732a.698.698 0 00-.257-.955v-.001zm2.053.414a.7.7 0 00-.954.257l-.996 1.732a.698.698 0 101.211.696l.996-1.732a.698.698 0 00-.257-.955v.002z" fill="#FA8785"/><path d="M162.074 90.936a.628.628 0 00-.872.168c-.239.354-1.344.308-1.995.148-1.304-.353-2.099-1.195-2.275-1.486a.628.628 0 00-1.18-.195c-.07.136-.126.36.004.655.282.638 1.469 1.79 3.134 2.24.039.01.127.032.25.054.67.129 2.391.34 3.103-.713a.627.627 0 00-.167-.872l-.002.001z" fill="#F0C9AE"/><path d="M168.35 71.964s.685-1.2 2.331-.939c0 0 1.486.2 1.721 2.158 0 0-.717-.82-1.806-1.006 0 0-1.02-.232-2.245-.211l-.001-.002zm-13.209-3.76s.685-1.201 2.332-.94c0 0 1.485.2 1.72 2.159 0 0-.717-.82-1.806-1.007 0 0-1.02-.232-2.245-.21l-.001-.002z" fill="#4C1E0B" stroke="#4C1E0B" stroke-linecap="round" stroke-linejoin="round"/><path d="M159.652 66.316s.801.737.65 2.12m7.975 1.874s.472-.981 1.839-1.24" stroke="#4C1E0B" stroke-linecap="round" stroke-linejoin="round"/><path d="M186.95 57.922s.183 1.592-.373 2.629c-.555 1.037-1.401 1.862-1.401 1.862l-.267-.078.621-1.146-1.011 1.461-.384-.28 1.185-2.203-1.235 1.761s-.366-.362-.32-.52c.046-.157 1.154-1.762 1.154-1.762l-1.402 1.862s-.356.068.269-2.102c.626-2.17 2.668-2.137 2.668-2.137l.495.655.001-.002z" fill="#2E9E40"/><path d="M184.664 40.715l1.171.977c.248.04.549.108.876.202 1.481.427 3.537 1.463 4.12 3.957.041.176.073.358.1.548.074.54.09 1.053.06 1.545-.15 2.422-1.449 4.299-2.812 6.265-.742 1.072-1.509 2.178-2.081 3.386a.482.482 0 00.306.675.485.485 0 00.572-.257c.54-1.137 1.282-2.21 2.001-3.25 1.27-1.831 2.572-3.712 2.913-6.08.087-.6.113-1.233.058-1.9a8.326 8.326 0 00-.054-.514c-.714-5.262-6.663-5.636-6.726-5.64a1.523 1.523 0 00-.504.086z" fill="#2E9E40"/><path d="M186.129 56.64a1.013 1.013 0 10.905 1.813 1.013 1.013 0 00-.905-1.813z" fill="#A4844E"/><path d="M126.471 88.325l-3.687-16.4a1.09 1.09 0 00-1.255-.878l-16.268 2.315a3.88 3.88 0 00-3.258 3.92c.007.166.025.331.054.495l3.01 17.073 21.404-6.525z" fill="#FDCE5E"/><path d="M102.003 77.278c.007.167.025.334.054.499l3.012 17.07 4.177-1.273-2.421-13.728-.575-3.24-.585-3.315-.406.07a3.881 3.881 0 00-3.256 3.917z" fill="#FFC53B"/><path d="M108.271 90.432l16.946-2.985a1.083 1.083 0 11.373 2.135l-17.07 3.006a1.63 1.63 0 00-1.229 2.2 1.663 1.663 0 001.858.99l17.005-2.995a1.083 1.083 0 11.379 2.135l-17.075 3.006a3.796 3.796 0 01-4.448-3.57 3.887 3.887 0 013.261-3.922z" fill="#FFA031"/><path d="M107.291 94.788a1.664 1.664 0 001.858.991l17.005-2.996-.563-3.201-17.07 3.006a1.632 1.632 0 00-1.23 2.2zm6.006-17.989a.456.456 0 00-.712.413l.255 2.912a.454.454 0 01-.182.402l-2.365 1.769a.446.446 0 00.167.796l2.867.625a.443.443 0 01.326.29l.934 2.764c.122.362.617.41.815.079l1.517-2.526a.459.459 0 01.383-.222l2.943-.061c.385-.009.589-.462.337-.748l-1.93-2.186a.445.445 0 01-.09-.428l.885-2.801a.446.446 0 00-.607-.541l-2.709 1.175a.453.453 0 01-.439-.043l-2.395-1.67z" fill="#FFF9F4"/><path d="M91.573 112H62.779a.197.197 0 00-.195.198v12.075c0 .109.087.198.195.198h28.794a.197.197 0 00.195-.198v-12.075a.197.197 0 00-.195-.198z" fill="#F6FCF3"/><path d="M67.397 113.815h24.825V112H45.243A6.24 6.24 0 0039 118.236a6.24 6.24 0 006.243 6.235h46.98v-1.78H67.396a4.44 4.44 0 01-4.443-4.438 4.44 4.44 0 014.443-4.438z" fill="#238C6C"/><path d="M51.562 90.234h24.886a.17.17 0 01.17.172v10.436a.17.17 0 01-.17.171H51.563a.17.17 0 01-.168-.171V90.406a.17.17 0 01.168-.172z" fill="#F6FCF3"/><path d="M72.457 91.803H51v-1.569h40.604A5.393 5.393 0 0197 95.624a5.393 5.393 0 01-5.396 5.389H51v-1.538h21.457c2.12 0 3.84-1.718 3.84-3.836a3.838 3.838 0 00-3.84-3.836z" fill="#A4844E"/><path d="M93.93 101h-26.8c-.1 0-.18.082-.18.184v11.239c0 .102.08.184.18.184h26.8c.1 0 .181-.082.181-.184v-11.239a.183.183 0 00-.181-.184z" fill="#F6FCF3"/><path d="M71.43 102.69h23.105V101H50.811A5.808 5.808 0 0045 106.804a5.807 5.807 0 005.81 5.803h43.725v-1.657H71.43a4.133 4.133 0 01-4.135-4.13 4.133 4.133 0 014.135-4.13z" fill="#F58220"/></g><defs><linearGradient id="paint0_linear_4879_185216" x1="145.959" y1="113.722" x2="153.726" y2="109.589" gradientUnits="userSpaceOnUse"><stop stop-color="#AC823B"/><stop offset=".12" stop-color="#AD843E"/><stop offset=".22" stop-color="#B28A48"/><stop offset=".31" stop-color="#BA9559"/><stop offset=".4" stop-color="#C5A570"/><stop offset=".48" stop-color="#D3B88F"/><stop offset=".5" stop-color="#D7BE97"/><stop offset=".52" stop-color="#D3B88F"/><stop offset=".6" stop-color="#C5A570"/><stop offset=".69" stop-color="#BA9559"/><stop offset=".78" stop-color="#B28A48"/><stop offset=".88" stop-color="#AD843E"/><stop offset="1" stop-color="#AC823B"/></linearGradient><linearGradient id="paint1_linear_4879_185216" x1="154.313" y1="110.832" x2="146.688" y2="114.99" gradientUnits="userSpaceOnUse"><stop stop-color="#00553C"/><stop offset=".12" stop-color="#03573E"/><stop offset=".21" stop-color="#0D5D45"/><stop offset=".3" stop-color="#1E6850"/><stop offset=".38" stop-color="#357860"/><stop offset=".46" stop-color="#548C75"/><stop offset=".5" stop-color="#689A83"/><stop offset=".54" stop-color="#548C75"/><stop offset=".62" stop-color="#357860"/><stop offset=".7" stop-color="#1E6850"/><stop offset=".79" stop-color="#0D5D45"/><stop offset=".88" stop-color="#03573E"/><stop offset="1" stop-color="#00553C"/></linearGradient><linearGradient id="paint2_linear_4879_185216" x1="151.398" y1="108.761" x2="148.63" y2="113.664" gradientUnits="userSpaceOnUse"><stop stop-color="#7D4B2D"/><stop offset=".3" stop-color="#AC823B"/><stop offset="1" stop-color="#7D4B2D"/></linearGradient><linearGradient id="paint3_linear_4879_185216" x1="151.303" y1="108.83" x2="148.644" y2="113.768" gradientUnits="userSpaceOnUse"><stop stop-color="#C0984D"/><stop offset=".3" stop-color="#F0E4CC"/><stop offset="1" stop-color="#C0984D"/></linearGradient><linearGradient id="paint4_linear_4879_185216" x1="151.72" y1="110.913" x2="148.92" y2="115.786" gradientUnits="userSpaceOnUse"><stop stop-color="#00462F"/><stop offset=".7" stop-color="#00553C"/><stop offset="1" stop-color="#00462F"/></linearGradient><linearGradient id="paint5_linear_4879_185216" x1="148.985" y1="115.793" x2="151.71" y2="110.896" gradientUnits="userSpaceOnUse"><stop stop-color="#007156"/><stop offset=".3" stop-color="#E7F2F1"/><stop offset="1" stop-color="#007156"/></linearGradient><clipPath id="clip0_4879_185216"><path fill="#fff" d="M0 0h300v148H0z"/></clipPath><filter id="filter0_d_4879_185216" x="-4" y="6" width="152" height="63.432" filterUnits="userSpaceOnUse" color-interpolation-filters="sRGB"><feFlood flood-opacity="0" result="BackgroundImageFix"/><feColorMatrix in="SourceAlpha" values="0 0 0 0 0 0 0 0 0 0 0 0 0 0 0 0 0 0 127 0" result="hardAlpha"/><feOffset dx="2" dy="4"/><feGaussianBlur stdDeviation="3"/><feComposite in2="hardAlpha" operator="out"/><feColorMatrix values="0 0 0 0 0 0 0 0 0 0 0 0 0 0 0 0 0 0 0.15 0"/><feBlend in2="BackgroundImageFix" result="effect1_dropShadow_4879_185216"/><feBlend in="SourceGraphic" in2="effect1_dropShadow_4879_185216" result="shape"/></filter></defs></svg>