<svg width="300" height="148" viewBox="0 0 300 148" fill="none" xmlns="http://www.w3.org/2000/svg"><g clip-path="url(#clip0_4880_191336)"><path d="M150 147.34c70.14 0 127-8.583 127-19.17 0-10.587-56.86-19.17-127-19.17s-127 8.583-127 19.17c0 10.587 56.86 19.17 127 19.17z" fill="#7DD3A4"/><g filter="url(#filter0_d_4880_191336)"><path fill-rule="evenodd" clip-rule="evenodd" d="M12 8C5.373 8 0 13.373 0 20v13c0 6.627 5.373 12 12 12h90c0 11 11.5 16 20 14-10.17-3.236-10.083-8.61-10.011-12.958.005-.355.011-.703.011-1.042h16c6.627 0 12-5.373 12-12V20c0-6.627-5.373-12-12-12H12z" fill="#A4844E"/></g><path d="M38.398 27.803a44.758 44.758 0 01-.351 4.687c-.189 1.498-.371 2.357-.547 2.578-.176.228-.361.41-.557.547-.188.143-.68.228-1.474.254-.794.033-1.498.056-2.11.069l-.595-1.7 2.656.059c.26 0 .45-.075.566-.225.124-.156.251-.82.381-1.992.13-1.172.196-2.057.196-2.656H23.017V18.818h15.341v1.602h-6.543v1.435h5.762v1.485h-5.762v1.504h5.762v1.513h-5.762v1.446h6.582zm-8.34-5.948V20.42h-5.283v1.435h5.284zm0 2.989V23.34h-5.283v1.504h5.284zm0 2.959v-1.446h-5.283v1.446h5.284zm5.245 5.341l-1.485.538c-.358-1.329-.79-2.455-1.298-3.38l1.62-.42c.541 1.153.928 2.24 1.163 3.262zM25.156 30.42c-.69 2.155-1.517 3.887-2.48 5.195l-1.533-.996c.937-1.172 1.722-2.75 2.353-4.736l1.66.537zm7.002 3.877l-1.562.527a21.741 21.741 0 00-1.28-4.365l1.582-.361a20.673 20.673 0 011.26 4.199zm-3.799.723l-1.66.302c-.02-1.523-.247-3.112-.683-4.765l1.66-.215c.39 1.465.618 3.024.683 4.678zm30.381.498H41.3V33.72h7.178V18.535h1.865v6.006h7.539v1.758h-7.54v7.422h8.4v1.797zm9.004-13.516H61.28V20.4h2.442c-.104-.325-.326-.82-.664-1.484l1.806-.42c.306.586.58 1.22.82 1.904h2.061v1.602zm11.24 10.039c-.117 1.211-.348 2.194-.693 2.95-.338.754-.8 1.132-1.387 1.132-1.087 0-1.849-1.097-2.285-3.291-.436-2.194-.69-5.283-.762-9.268h-5.654v-1.66h5.576l-.02-3.34h1.7c0 1.589.02 2.702.059 3.34H78.7v1.66h-3.144c.143 3.855.361 6.589.654 8.204.3 1.614.52 2.422.664 2.422.052 0 .143-.212.273-.635.13-.43.241-1.182.333-2.256l1.503.742zm-.449-11.396l-1.23.859c-.358-.56-.873-1.201-1.543-1.924l1.22-.82a11 11 0 011.553 1.884zM67.383 25.02h-5.645v-1.582h5.645v1.582zm6.435 7.88c-2.03.938-3.916 1.664-5.654 2.178l-.244-1.7a13.56 13.56 0 001.943-.614v-5.606h-1.767v-1.601h5.068v1.601h-1.582V32.1a34.946 34.946 0 002.1-.938l.136 1.738zm-6.435-5.039h-5.645V26.28h5.645v1.582zm.039 7.862h-1.778v-.948h-1.982v1.328h-1.806V29.22h5.566v6.504zm-1.778-2.52V30.84h-1.982v2.363h1.982zm24.239-12.1h-5.186c-.898 1.03-1.712 1.781-2.441 2.256l-1.074-1.357c1.276-.886 2.409-2.093 3.398-3.623l1.738.4c-.28.443-.452.723-.517.84h4.082v1.485zm8.857 0h-6.22c-.43.58-.87 1.084-1.319 1.514l-1.68-.762c.918-.761 1.784-1.907 2.598-3.437l1.758.342-.459.86h5.322v1.483zm-2.617 1.377l-1.807.342c-.104-.234-.341-.621-.713-1.162l1.837-.303c.332.443.56.817.683 1.123zm-8.223.06l-1.757.321-.782-1.2 1.817-.304c.163.202.403.596.722 1.182zm9.024 7.724H83.223v-7.168h13.7v7.168zm-1.768-5.127v-.713H84.981v.713h10.175zm0 1.924v-.762H84.981v.762h10.175zm0 1.943v-.82H84.981v.82h10.175zm3.662 4.219h-4.58v2.793h-1.797v-2.793h-4.463a3.291 3.291 0 01-1.24 1.738c-.605.443-1.719.85-3.34 1.22l-1.142-1.503c2.116-.365 3.369-.85 3.76-1.455h-4.62v-1.485h4.961v-.976h1.787v.976h4.297v-.976h1.797v.976h4.58v1.485zm12.325-13.34l-.264 10.713h-1.817l-.263-10.713h2.344zM110 32.539c.384 0 .716.133.996.4.28.26.42.58.42.958 0 .37-.137.69-.41.956-.274.26-.609.391-1.006.391a1.44 1.44 0 01-1.016-.38 1.298 1.298 0 01-.4-.967c0-.385.137-.707.41-.967.28-.26.615-.39 1.006-.39z" fill="#fff"/><path d="M172 63.699c0-2.595-2.74-4.699-6.118-4.699h-39.764C122.74 59 120 61.101 120 63.699c0 2.594 2.74 4.698 6.118 4.698h39.764c3.378 0 6.118-2.104 6.118-4.699z" fill="#FFAD04"/><path d="M172 72.785c0-2.594-2.74-4.698-6.118-4.698h-39.764c-3.378 0-6.118 2.104-6.118 4.698 0 2.595 2.74 4.696 6.118 4.696h39.764c3.378 0 6.118-2.104 6.118-4.696z" fill="#FFC53B"/><path d="M172 82.18c0-2.595-2.74-4.699-6.118-4.699h-39.764c-3.378 0-6.118 2.104-6.118 4.699 0 2.594 2.74 4.698 6.118 4.698h39.764c3.378 0 6.118-2.103 6.118-4.698z" fill="#FFAD04"/><path d="M172 91.267c0-2.595-2.74-4.699-6.118-4.699h-39.764c-3.378 0-6.118 2.104-6.118 4.699 0 2.594 2.74 4.695 6.118 4.695h39.764c3.378 0 6.118-2.1 6.118-4.695z" fill="#FFC53B"/><path d="M172 100.353c0-2.595-2.74-4.699-6.118-4.699h-39.764c-3.378 0-6.118 2.104-6.118 4.699 0 2.594 2.74 4.698 6.118 4.698h39.764c3.378 0 6.118-2.104 6.118-4.698zM90 73.584C90 71.053 92.104 69 94.7 69h30.536c2.595 0 4.699 2.053 4.699 4.584 0 2.531-2.104 4.581-4.699 4.581H94.699c-2.595 0-4.699-2.05-4.699-4.58z" fill="#FFAD04"/><path d="M90 82.75c0-2.532 2.104-4.585 4.699-4.585h30.536c2.595 0 4.699 2.05 4.699 4.584 0 2.532-2.104 4.585-4.699 4.585H94.699c-2.595 0-4.699-2.053-4.699-4.585z" fill="#FFC53B"/><path d="M90 91.917c0-2.531 2.104-4.584 4.699-4.584h30.536c2.595 0 4.699 2.05 4.699 4.584 0 2.532-2.104 4.584-4.699 4.584H94.699c-2.595 0-4.699-2.052-4.699-4.584z" fill="#FFAD04"/><path d="M90 101.086c0-2.532 2.104-4.584 4.699-4.584h30.536c2.595 0 4.699 2.052 4.699 4.584 0 2.531-2.104 4.581-4.699 4.581H94.699c-2.595 0-4.699-2.053-4.699-4.581z" fill="#FFC53B"/><path d="M90 110.25c0-2.531 2.104-4.584 4.699-4.584h30.536c2.595 0 4.699 2.053 4.699 4.584 0 2.532-2.104 4.584-4.699 4.584H94.699c-2.595 0-4.699-2.052-4.699-4.584z" fill="#FFAD04"/><path d="M90 119.419c0-2.532 2.104-4.584 4.699-4.584h30.536c2.595 0 4.699 2.052 4.699 4.584 0 2.531-2.104 4.581-4.699 4.581H94.699c-2.595 0-4.699-2.05-4.699-4.581z" fill="#FFC53B"/><path d="M163.933 82.698A4.699 4.699 0 00159.235 78h-30.536a4.697 4.697 0 100 9.394h30.536a4.696 4.696 0 004.698-4.696z" fill="#FFAD04"/><path d="M163.933 91.785a4.699 4.699 0 00-4.698-4.698h-30.536a4.7 4.7 0 000 9.397h30.536a4.699 4.699 0 004.698-4.699z" fill="#FFC53B"/><path d="M163.933 100.871a4.699 4.699 0 00-4.698-4.699h-30.536a4.697 4.697 0 100 9.397h30.536a4.699 4.699 0 004.698-4.698z" fill="#FFAD04"/><path d="M163.933 109.958a4.699 4.699 0 00-4.698-4.699h-30.536a4.696 4.696 0 100 9.394h30.536a4.698 4.698 0 004.698-4.695z" fill="#FFC53B"/><path d="M163.933 119.352a4.699 4.699 0 00-4.698-4.698h-30.536a4.699 4.699 0 000 9.397h30.536a4.699 4.699 0 004.698-4.699z" fill="#FFAD04"/><path d="M106.119 119.144c2.003-10.463-4.913-20.315-15.45-22.001-10.536-1.687-20.699 5.428-22.702 15.894-2.003 10.465 5.572 16.869 16.109 18.556 10.536 1.686 20.04-1.986 22.043-12.449z" fill="#D0A66C"/><path d="M95.597 95.129l-8.769-1.404-.623 3.253 8.769 1.403.623-3.252z" fill="#FFC53B"/><path d="M97.216 87.296c-.448-.072-.949.142-1.39.54-.317.282-.648.203-.785-.166-.172-.47-.495-.799-.93-.868-.434-.07-.86.122-1.238.485-.127.123-.265.175-.39.163-.122-.03-.232-.121-.306-.274-.22-.456-.564-.774-.985-.842-.42-.067-.86.14-1.196.529-.266.306-.607.278-.8-.088-.268-.509-.66-.868-1.108-.94-2.519-.006-2.785 2.909-2.386 5.326.277 1.672 1 3.13 1 3.13l8.681 1.39s1.22-1.145 2.103-2.634c1.273-2.15 2.104-4.971-.267-5.75h-.002z" fill="#D0A66C"/><path d="M87.86 121.659l-.617 3.227-2.827-.453.622-3.248c-1.945-.593-3.719-1.726-4.921-3.114l2.086-2.774c1.28 1.553 3.416 2.851 4.967 3.1 1.147.183 1.95-.123 2.099-.903.48-2.51-7.65-2.245-6.648-7.479.449-2.341 2.46-3.695 5.264-3.703l.593-3.102 2.827.452-.59 3.081c1.706.469 3.25 1.324 4.35 2.327l-2.052 2.826c-1.403-1.138-3.267-2.154-4.498-2.351-.934-.15-1.615.091-1.745.766-.468 2.447 7.637 2.31 6.62 7.625-.497 2.596-2.785 3.794-5.53 3.725v-.002z" fill="#FFF9F4"/><path d="M142.006 126.56c2.192-11.452-5.377-22.234-16.91-24.08-11.532-1.846-22.656 5.941-24.849 17.396-2.192 11.455 6.099 18.464 17.632 20.31 11.532 1.846 21.935-2.173 24.127-13.626z" fill="#FDCE5E"/><path d="M130.488 100.275l-9.597-1.536-.682 3.56 9.597 1.537.682-3.561z" fill="#FFA031"/><path d="M132.262 91.702c-.491-.078-1.039.156-1.523.591-.346.309-.709.222-.859-.181-.188-.515-.541-.875-1.017-.951-.475-.076-.942.134-1.356.531-.139.135-.289.192-.426.178-.134-.032-.254-.132-.335-.3-.242-.499-.618-.847-1.078-.92-.46-.074-.941.152-1.31.578-.291.335-.664.304-.875-.096-.294-.557-.722-.95-1.212-1.029-2.758-.007-3.05 3.184-2.613 5.829.303 1.83 1.094 3.426 1.094 3.426l9.503 1.521s1.336-1.252 2.301-2.883c1.394-2.352 2.304-5.44-.292-6.293h-.002z" fill="#FDCE5E"/><path d="M122.021 129.313l-.676 3.532-3.094-.495.681-3.555c-2.129-.649-4.071-1.889-5.387-3.409l2.283-3.036c1.401 1.7 3.74 3.121 5.437 3.393 1.256.201 2.134-.135 2.297-.988.526-2.748-8.372-2.458-7.275-8.186.49-2.563 2.692-4.045 5.761-4.053l.649-3.395 3.094.495-.646 3.372c1.868.513 3.557 1.449 4.762 2.547l-2.247 3.092c-1.535-1.245-3.575-2.357-4.922-2.572-1.023-.164-1.769.099-1.91.837-.513 2.679 8.358 2.529 7.245 8.347-.544 2.841-3.048 4.152-6.053 4.077l.001-.003z" fill="#FFF9F4"/><path d="M198.927 117.593h-12.786l6.204-55.088c.523-3.446 3.667-8.86 11.525-8.86h49.495l-8.179 63.948h-46.259z" fill="#FDCE5E"/><path d="M196.082 112.473h-21.109l-1.396-17.335-.296-3.722-.138-1.72c-.04-.458-.109-.903-.207-1.339l-.074-.296a.812.812 0 00-.065-.214c-.601-1.821-1.726-3.425-3.216-4.653-1.781-1.47-4.07-2.4-6.591-2.53h19.856c.217-.01.434-.015.651-.015 2.758 0 5.274.965 7.193 2.55 1.49 1.228 2.615 2.832 3.216 4.653.03.07.05.14.065.213.138.529.236 1.071.281 1.636l.138 1.71 1.697 21.062h-.005zm43.4 5.12h12.787l6.086-55.58c.524-6.4-2.095-8.368-4.715-8.368h-2.722c-2.319 0-4.426 2.04-4.712 4.551l-6.724 59.397z" fill="#FFC53B"/><path d="M264.08 90.886c0 5.062-3.907 9.275-9.043 10.095l-1.983 24.635c-.172 2.095-1.785 3.699-3.724 3.699h-21.109c1.938 0 3.552-1.604 3.724-3.699l1.061-13.149.922-11.486c3.414-.547 6.29-2.59 7.824-5.39.104-.176.198-.366.282-.556a9.59 9.59 0 00.942-4.153c0-.719-.079-1.418-.227-2.09a10.261 10.261 0 00-.212-.812 10.196 10.196 0 00-1.811-3.332h-.005a10.74 10.74 0 00-3.769-2.925 11.351 11.351 0 00-4.874-1.084h21.11c1.119 0 2.2.162 3.221.459.572.166 1.125.375 1.653.625a10.74 10.74 0 013.768 2.92h.005c1.411 1.734 2.255 3.894 2.255 6.243h-.01z" fill="#FFC53B"/><path d="M242.976 90.891c0 5.062-3.907 9.275-9.047 10.095l-1.983 24.635c-.173 2.095-1.786 3.703-3.73 3.703h-62.178c-1.938 0-3.552-1.603-3.729-3.703l-1.988-24.676c-5.032-.9-8.841-5.062-8.841-10.058 0-2.211.745-4.25 2.008-5.919a10.773 10.773 0 014.026-3.24 11.351 11.351 0 014.874-1.084c2.752 0 5.273.968 7.192 2.549 1.49 1.228 2.615 2.832 3.217 4.649.024.074.054.139.064.218.138.523.232 1.07.281 1.636l.138 1.71 1.692 21.061h44.315l1.835-22.771c.267-3.217 2.102-5.896 4.657-7.166a11.186 11.186 0 015.644-1.863 11.298 11.298 0 015.387 1.001.849.849 0 01.133.06 10.763 10.763 0 013.774 2.92h.005c1.406 1.734 2.254 3.894 2.254 6.243z" fill="#FDCE5E"/><path d="M245.956 137h.715c.366 0 .706-.292.765-.686l1.061-6.994h-4.366l1.06 6.994c.06.394.4.686.765.686zm-77.256 0h.716c.365 0 .705-.292.764-.686l1.061-6.994h-4.366l1.061 6.994c.059.394.399.686.764.686zm22.334 0h.716c.365 0 .705-.292.764-.686l1.061-6.994h-4.366l1.061 6.994c.059.394.399.686.764.686zm33.127 0h.716c.365 0 .705-.292.764-.686l1.061-6.994h-4.366l1.061 6.994c.059.394.399.686.764.686z" fill="#FFA031"/><path d="M174.35 112.712h42.605c1.637 0 2.965-.729 2.965-1.629v-5.601c0-.9 1.617-1.63-.02-1.63h-45.55c-1.637 0-2.964.73-2.964 1.63v5.601c0 .9 1.327 1.629 2.964 1.629z" fill="#FFC53B"/><path d="M241.137 88.757c-.539-.71-2.135-.328-2.135-.328-2.23-1.283-8.165-12.882-11.212-19.058-.863-1.752-2.408-3.018-4.21-3.615-.255-.597-.41-.922-.41-.922l-.495.685a7.584 7.584 0 00-4.489.478c-2.224.957-4.165 2.944-4.593 6.863l-13.562-.204c-4.894-3.826-11.121-5.49-17.262-4.011l-.066.017a10.656 10.656 0 00-.726.002c-9.168.343-26.52.783-29.443-.669 0 0-.57-1.72-1.745-1.862 0 0-1.829-1.469-2.876.825 0 0-2.398 1.345-1.362 3.926 0 0 4.507 10.93 21.018 14.088-.574 3.27.954 13.989 1.496 15.267-1.134 1.177-2.287 1.521-2.451 1.566-.081-.052-.535-.28-2.49-1.163-1.24-.559-2.08.3-2.396 1.455-.39 1.426.005 2.745.736 3.99.968 1.648 2.03 4.007 4.27 3.982 2.992-.034 6.183-1.018 7.948-1.656a22.433 22.433 0 006.233 4.226l.176.173c-.054.009-.11.003-.158.025-2.287 1.007-.43 5.612-.126 6.871.605 2.515 2.095 2.53 3.908 2.334 2.304-.249 5.98-.702 11.057-1.507 32.521-5.154 32.06-25.787 32.336-28.28 5.955 1.964 10.943.742 10.943.742 2.455-.453 2.461-1.99 2.461-1.99 1.471-1.696-.377-2.253-.377-2.253l.002.003z" fill="#F9E7C7"/><path d="M197.994 107.784s-7.487.242-11.3 6.482c.062-.276-2.345-.988-2.565-1.061-.999-.327-2.188-1.023-3.198-.367-.527.341-.866.927-1.016 1.538-.52 2.132.61 4.155 1.445 6.041.849 1.919 5.026 1.279 6.637 1.139 3.158-.275 6.292-.848 9.394-1.486a155.569 155.569 0 008.818-2.072m-38.652-33.514s-1.675 17.097 6.356 23.251" stroke="#F0C9AE" stroke-width="2.06" stroke-linecap="round" stroke-linejoin="round"/><path d="M167.229 69.748s4.292 14.344 25.844 19.147l4.739-.316s14.723.25 24.724-17.789l-55.307-1.042z" fill="#13AB67"/><path d="M186.694 86.387s-7.243-1.748-11.299 4.352c0 0-1.967 2.816-1.771 4.769 0 0 5.067 2.155 8.585-1.59 0 0 2.183-2.274 4.139-2.873l.346-4.658zm4.736 2.025s8.129-1.881 12.615 4.994c0 0 2.176 3.175 1.94 5.36 0 0-5.696 2.36-9.601-1.872 0 0-2.424-2.57-4.608-3.26l-.346-5.222z" fill="#3BC663"/><path d="M195.59 89.519a7.095 7.095 0 01-7.519 6.653 7.109 7.109 0 01-6.65-7.532 7.096 7.096 0 017.52-6.653 7.106 7.106 0 016.649 7.53v.002z" fill="#fff"/><path d="M190.133 89.2l-1.747 1.511-1.512-1.748 1.746-1.514 1.513 1.75z" fill="#AC823B"/><path d="M188.62 87.449l1.513 1.75-.162-.013-1.363-1.575.012-.162z" fill="#C0984D"/><path d="M188.608 87.61l-1.571 1.365-.163-.011 1.746-1.515-.012.162z" fill="#D7BE97"/><path d="M188.387 90.71l-1.512-1.747.163.012 1.362 1.572-.013.164z" fill="#C0984D"/><path d="M188.398 90.547l1.572-1.36.162.013-1.747 1.51.013-.163z" fill="#7D4B2D"/><path d="M184.392 88.695c.178-2.488 2.365-4.36 4.881-4.177a4.598 4.598 0 012.887 1.296l.04-.036a5.04 5.04 0 00-3.407-1.667c-2.774-.2-5.184 1.86-5.38 4.605-.162 2.264 1.568 4.162 3.854 4.328 1.235.09 2.379-.302 3.199-1.093l-.022-.027c-.704.52-1.6.767-2.556.698-2.075-.15-3.643-1.872-3.496-3.927z" fill="url(#paint0_linear_4880_191336)"/><path d="M192.614 89.466c-.178 2.489-2.363 4.36-4.881 4.177a4.574 4.574 0 01-2.883-1.296l-.042.036a5.046 5.046 0 003.407 1.667c2.774.2 5.182-1.862 5.379-4.604.161-2.265-1.565-4.163-3.853-4.329-1.235-.089-2.379.302-3.199 1.095l.024.026c.702-.52 1.598-.767 2.553-.699 2.076.15 3.643 1.873 3.496 3.925l-.001.002z" fill="url(#paint1_linear_4880_191336)"/><path d="M188.216 92.478c-1.873-.134-3.347-1.768-3.213-3.64.196-2.73 2.299-4.163 4.671-3.991.94.067 1.785.431 2.455.994l.032-.027a4.593 4.593 0 00-2.887-1.296c-2.518-.182-4.704 1.689-4.881 4.177-.148 2.055 1.422 3.776 3.496 3.927.956.069 1.85-.178 2.555-.698l-.04-.046c-.618.43-1.38.66-2.188.602v-.002z" fill="url(#paint2_linear_4880_191336)"/><path d="M189.281 84.519c-2.53-.183-4.726 1.688-4.904 4.18-.147 2.058 1.429 3.783 3.515 3.933.959.07 1.858-.177 2.564-.698l-.01-.012c-.698.495-1.575.731-2.513.663-2.072-.15-3.638-1.856-3.493-3.892.176-2.465 2.358-4.316 4.872-4.133a4.593 4.593 0 012.849 1.254l.01-.01a4.62 4.62 0 00-2.888-1.286h-.002z" fill="url(#paint3_linear_4880_191336)"/><path d="M188.795 85.682c1.872.135 3.348 1.769 3.214 3.64-.196 2.732-2.3 4.164-4.672 3.992a4.292 4.292 0 01-2.455-.994l-.03.026a4.566 4.566 0 002.885 1.296c2.518.182 4.702-1.688 4.881-4.177.146-2.054-1.419-3.776-3.496-3.925-.956-.068-1.851.179-2.553.7l.038.044a3.39 3.39 0 012.19-.602h-.002z" fill="url(#paint4_linear_4880_191336)"/><path d="M187.731 93.643c2.53.182 4.726-1.69 4.904-4.181.147-2.058-1.427-3.782-3.515-3.933-.959-.07-1.857.177-2.563.696l.011.013c.695-.496 1.573-.732 2.511-.664 2.071.15 3.638 1.856 3.493 3.893-.176 2.465-2.358 4.315-4.872 4.133a4.6 4.6 0 01-2.849-1.255l-.01.01a4.628 4.628 0 002.888 1.288h.002z" fill="url(#paint5_linear_4880_191336)"/><path d="M230.567 41.058c.391.187 3.723.2 4.097-.081-3.098-2.73-3.264-7.56-5.165-10.61-8.081-12.967-17.088-22.207-32.617-23.81-5.937-.615-12.037.054-17.665 2.054-4.089 1.454-8.018 4.156-11.424 6.823-3.575 2.798-4.753 4.193-7.416 7.886-3.371 4.675-6.92 6.22-6.92 6.22s4.221 2.08 6.053 1.44c-.988.304-3.194 6.438-3.438 7.456-.621 2.602-.981 5.26-1.17 7.93-.788 11.215 3.863 13.681 3.295 19.043 1.208.456 3.84-1.488 4.135-3.092-.63 3.433 1.492 7.075 3.033 8.985 5.658 7.011 21.037 11.805 25.149 12.987a4.582 4.582 0 002.077.11c4.869-.863 25.173-5.038 31.08-15.542.673-1.195 1.526-2.835 1.518-3.332.028 1.609.536 3.734 1.256 3.839 1.215-3.756 3.673-4.49 5.122-11.02 1.236-5.573.315-10.965-1.002-17.286h.002z" fill="#F3B44C"/><path d="M215.07 32.304c-3.231-9.132-13.281-13.597-20.489-15.277 0 0-7.399-2.023-6.673 1.655 0 0 1.938 4.3-4.931 2.077-8.741-2.826-16.964 13.215-16.275 23.461.667 9.948 10.784 18.343 29.255 17.978 1.881-.037 9.218-.863 12.543-2.606 13.859-7.266 9.261-19.689 6.572-27.29l-.002.002z" fill="#F5E2C3"/><path d="M223.738 13.903c.024-4.084-3.263-7.418-7.343-7.444-3.005-.02-5.735 2.054-6.904 4.626l6.818 10.164c4.079.026 7.405-3.262 7.431-7.346h-.002zm-7.354 3.7l-3.608-5.645a3.987 3.987 0 013.656-2.34 3.995 3.995 0 013.965 4.018 3.988 3.988 0 01-4.011 3.967h-.002zM173.99 4.948a7.399 7.399 0 00-9.386 4.643c-1.309 3.878.769 8.087 4.643 9.4l9.746-7.716a7.421 7.421 0 00-5.002-6.329l-.001.002zm-3.572 10.618a4.291 4.291 0 01-2.685-5.435 4.279 4.279 0 015.427-2.684 4.292 4.292 0 012.893 3.66l-5.635 4.46v-.001z" fill="#F3B44C"/><path d="M175.872 12.326a4.605 4.605 0 01-5.438 3.595 4.617 4.617 0 01-3.594-5.447 4.605 4.605 0 015.439-3.595 4.616 4.616 0 013.593 5.447zm41.869 5.78a4.613 4.613 0 003.376-5.583 4.613 4.613 0 00-5.578-3.382 4.612 4.612 0 00-3.375 5.582 4.612 4.612 0 005.577 3.383z" fill="#F5E2C3"/><path d="M194.387 42.28s.317 9.105-2.267 9.416c0 0-2.896.914-2.357-8.63l2.655-2.437 1.969 1.651z" fill="#EC8180"/><path d="M206.752 37.236a.782.782 0 00-1.157.004l-1.462 1.618c-.283.311-.317.803-.025 1.107a.781.781 0 001.147-.014l1.467-1.62c.279-.309.314-.791.031-1.095h-.001zm2.148.942a.782.782 0 00-1.156.004l-1.464 1.62c-.281.311-.315.803-.024 1.105a.782.782 0 001.147-.013l1.465-1.622c.279-.309.313-.79.032-1.095v.001zm-32.494-3.131a.78.78 0 00-1.156.004l-1.463 1.618c-.283.313-.316.805-.024 1.11a.781.781 0 001.147-.015l1.467-1.62c.278-.309.314-.791.031-1.096h-.002zm2.147.943a.782.782 0 00-1.156.004l-1.466 1.62c-.281.31-.313.8-.023 1.105a.781.781 0 001.147-.014l1.465-1.622c.278-.308.312-.79.031-1.095l.002.002zm25.439 6.006c-.779-1.191-2.156-1.87-3.472-2.237-2.182-.61-4.632-.258-6.539.974a2.597 2.597 0 00-1.095 1.463c-.002.01-.016.01-.019 0a4.195 4.195 0 00-.397-.924c-1.312-2.308-4.05-3.58-6.605-3.829-1.934-.188-4.236-.14-5.936.933-.019.014-.039.026-.06.04-1.417.923-2.285 2.834-1.449 4.428.581 1.107 1.881 1.847 2.978 2.361 2.533 1.19 5.858 2.058 8.601 1.138.89-.298 1.71-.83 2.292-1.567.243-.309.438-.66.559-1.033.003-.01.016-.01.02 0 .242.805.928 1.313 1.694 1.685 1.805.878 3.935 1.42 5.95 1.243 2.21-.197 5.107-2.18 3.476-4.674h.002z" fill="#F0C9AE"/><path d="M193.516 43.532c1.024-.164 2.538-.793 2.731-2.341.312-2.51-3.027-3.659-4.818-3.717-2.064-.067-4.107 1.657-4.024 3.602.068 1.656 2.23 2.221 3.848 2.489.005-.001 1.241.13 2.263-.035v.002zm6.583-13.37c.149-.602-.472-1.275-1.387-1.504-.915-.228-1.778.075-1.928.677-.149.602.472 1.275 1.387 1.503.915.229 1.778-.074 1.928-.676zm-11.506-1.742c.015-.62-.738-1.14-1.681-1.164-.942-.022-1.719.462-1.733 1.082-.015.62.738 1.142 1.68 1.164.943.023 1.719-.461 1.734-1.081z" fill="#4A1D0E"/><path d="M194.875 53.03c-.34-.026-.619.228-.735.55-.163.45-1.316.794-2.048.862-1.507.106-2.656-.493-2.95-.736v-.003a.706.706 0 00-.524-.369.701.701 0 00-.795.598c-.024.17-.001.426.245.692.533.573 2.212 1.357 4.138 1.22a5.55 5.55 0 00.285-.034c.756-.11 2.653-.52 3.019-1.896a.704.704 0 00-.633-.884h-.002z" fill="#F0C9AE"/><path d="M202.045 35.963l-4.553-1.524a.3.3 0 00-.38.19l-.611 1.834a.3.3 0 00.189.38l4.554 1.524a.3.3 0 00.38-.19l.611-1.833a.3.3 0 00-.19-.381zm-15.328-2.589l-4.787.361a.3.3 0 00-.276.323l.146 1.928a.3.3 0 00.322.277l4.787-.361a.301.301 0 00.277-.323l-.147-1.928a.3.3 0 00-.322-.277z" fill="#4B1E0E"/><path d="M191.245 41.705s-3.677-2.145-10.3.3c-3.101 1.144-5.114.88-6.276.442-.37-.14-.702.28-.483.61 1.37 2.052 4.602 5.596 10.291 4.915 5.69-.681 7.557-2.694 7.557-2.694s4.215 3.005 9.529 2.6c3.36-.257 6.868-2.347 8.21-3.462.216-.18.048-.529-.226-.473-.792.157-2.062.36-3.261.35-3.499-.031-6.695-6.778-15.041-2.588z" fill="#fff"/><mask id="mask0_4880_191336" style="mask-type:alpha" maskUnits="userSpaceOnUse" x="151" y="80" width="92" height="50"><path d="M242.978 91.017c0 5.061-3.907 9.274-9.047 10.095l-1.983 24.634c-.173 2.095-1.786 3.704-3.73 3.704H166.04c-1.938 0-3.551-1.604-3.729-3.704l-1.988-24.676s-8.893-4.829-8.84-10.058c.024-2.44.745-4.25 2.007-5.919a10.774 10.774 0 014.026-3.24 11.355 11.355 0 014.874-1.084c2.753 0 5.273.969 7.193 2.55 1.489 1.227 2.614 2.831 3.216 4.648.025.074.054.14.064.218a9.71 9.71 0 01.281 1.636l.138 1.71s-.673 18.035 3.351 25.238c8.441 15.109 42.656-4.176 42.656-4.176l1.835-22.772c.267-3.217 2.102-5.896 4.657-7.165a11.189 11.189 0 015.644-1.864 11.298 11.298 0 015.387 1.001.84.84 0 01.133.06 10.754 10.754 0 013.774 2.92h.005c1.406 1.734 2.254 3.894 2.254 6.244z" fill="#FDCE5E"/></mask><g mask="url(#mask0_4880_191336)"><path fill="#FDCE5E" d="M202.277 59.07h52.768v93.207h-52.768z"/></g><path d="M137.749 107.213a.65.65 0 00.181.077c.425.131.858-.085.968-.489l16.26-60.37.011-.051c.427-2.262-.261-4.622-1.791-6.16-.962-.965-2.692-2.042-5.464-1.684-.019 0-.036.008-.055.008-1.8.357-3.221 1.635-3.709 3.334l-.878 3.069c-.114.402.139.838.561.974.427.139.865-.075.977-.472l.878-3.068c.336-1.18 1.319-2.072 2.57-2.326 1.643-.206 3.022.203 4.004 1.186 1.14 1.144 1.665 2.999 1.344 4.744l-16.254 60.338c-.092.34.078.705.392.887l.005.003z" fill="#A4844E" stroke="#A4844E" stroke-width="2"/></g><defs><linearGradient id="paint0_linear_4880_191336" x1="184.229" y1="91.789" x2="191.706" y2="85.171" gradientUnits="userSpaceOnUse"><stop stop-color="#AC823B"/><stop offset=".12" stop-color="#AD843E"/><stop offset=".22" stop-color="#B28A48"/><stop offset=".31" stop-color="#BA9559"/><stop offset=".4" stop-color="#C5A570"/><stop offset=".48" stop-color="#D3B88F"/><stop offset=".5" stop-color="#D7BE97"/><stop offset=".52" stop-color="#D3B88F"/><stop offset=".6" stop-color="#C5A570"/><stop offset=".69" stop-color="#BA9559"/><stop offset=".78" stop-color="#B28A48"/><stop offset=".88" stop-color="#AD843E"/><stop offset="1" stop-color="#AC823B"/></linearGradient><linearGradient id="paint1_linear_4880_191336" x1="192.676" y1="86.376" x2="185.363" y2="92.989" gradientUnits="userSpaceOnUse"><stop stop-color="#00553C"/><stop offset=".12" stop-color="#03573E"/><stop offset=".21" stop-color="#0D5D45"/><stop offset=".3" stop-color="#1E6850"/><stop offset=".38" stop-color="#357860"/><stop offset=".46" stop-color="#548C75"/><stop offset=".5" stop-color="#689A83"/><stop offset=".54" stop-color="#548C75"/><stop offset=".62" stop-color="#357860"/><stop offset=".7" stop-color="#1E6850"/><stop offset=".79" stop-color="#0D5D45"/><stop offset=".88" stop-color="#03573E"/><stop offset="1" stop-color="#00553C"/></linearGradient><linearGradient id="paint2_linear_4880_191336" x1="188.911" y1="84.865" x2="187.152" y2="91.015" gradientUnits="userSpaceOnUse"><stop stop-color="#7D4B2D"/><stop offset=".3" stop-color="#AC823B"/><stop offset="1" stop-color="#7D4B2D"/></linearGradient><linearGradient id="paint3_linear_4880_191336" x1="188.826" y1="84.965" x2="187.198" y2="91.126" gradientUnits="userSpaceOnUse"><stop stop-color="#C0984D"/><stop offset=".3" stop-color="#F0E4CC"/><stop offset="1" stop-color="#C0984D"/></linearGradient><linearGradient id="paint4_linear_4880_191336" x1="189.84" y1="87.156" x2="188.04" y2="93.282" gradientUnits="userSpaceOnUse"><stop stop-color="#00462F"/><stop offset=".7" stop-color="#00553C"/><stop offset="1" stop-color="#00462F"/></linearGradient><linearGradient id="paint5_linear_4880_191336" x1="188.119" y1="93.274" x2="189.832" y2="87.143" gradientUnits="userSpaceOnUse"><stop stop-color="#007156"/><stop offset=".3" stop-color="#E7F2F1"/><stop offset="1" stop-color="#007156"/></linearGradient><clipPath id="clip0_4880_191336"><path fill="#fff" d="M0 0h300v148H0z"/></clipPath><filter id="filter0_d_4880_191336" x="-4" y="6" width="152" height="63.432" filterUnits="userSpaceOnUse" color-interpolation-filters="sRGB"><feFlood flood-opacity="0" result="BackgroundImageFix"/><feColorMatrix in="SourceAlpha" values="0 0 0 0 0 0 0 0 0 0 0 0 0 0 0 0 0 0 127 0" result="hardAlpha"/><feOffset dx="2" dy="4"/><feGaussianBlur stdDeviation="3"/><feComposite in2="hardAlpha" operator="out"/><feColorMatrix values="0 0 0 0 0 0 0 0 0 0 0 0 0 0 0 0 0 0 0.15 0"/><feBlend in2="BackgroundImageFix" result="effect1_dropShadow_4880_191336"/><feBlend in="SourceGraphic" in2="effect1_dropShadow_4880_191336" result="shape"/></filter></defs></svg>