<svg width="200" height="150" viewBox="0 0 200 150" fill="none" xmlns="http://www.w3.org/2000/svg"><ellipse cx="133.5" cy="119" rx="56.5" ry="13" fill="#F6F6F6"/><ellipse cx="65" cy="134" rx="48" ry="12" fill="#7DD3A4"/><path d="M167.764 118.505h-6.711V43.23a3.358 3.358 0 013.352-3.368 3.358 3.358 0 013.352 3.368v75.275h.007z" fill="#C9C7C7"/><path d="M164.405 39.855a3.358 3.358 0 00-3.352 3.368v75.275h3.352V39.855z" fill="#B5B4B4"/><path d="M114.587 118.505h-6.711V43.23a3.358 3.358 0 013.352-3.368 3.358 3.358 0 013.352 3.368v75.275h.007z" fill="#C9C7C7"/><path d="M111.235 39.855a3.358 3.358 0 00-3.352 3.368v75.275h3.352V39.855z" fill="#B5B4B4"/><path d="M181.32 49.298h-87v15.276h87V49.299z" fill="#FFC60B"/><path d="M99.85 49.298l-5.53 5.556v9.72h2.171l15.204-15.276H99.85zm15.713 15.277l15.204-15.277h-11.845l-15.204 15.276h11.845zm19.072 0l15.203-15.277h-11.844L122.79 64.574h11.845zm19.064 0l15.211-15.277h-11.845l-15.21 15.276h11.844zm19.072 0l8.549-8.591v-6.686h-5.183l-15.211 15.276h11.845z" fill="#444"/><path d="M181.32 72.532h-87V87.81h87V72.532z" fill="#FFC60B"/><path d="M99.85 72.532l-5.53 5.557v9.72h2.171l15.204-15.277H99.85zm15.713 15.277l15.204-15.277h-11.845L103.718 87.81h11.845zm19.072 0l15.203-15.277h-11.844L122.79 87.81h11.845zm19.064 0l15.211-15.277h-11.845l-15.21 15.277h11.844zm19.072 0l8.549-8.59v-6.687h-5.183L160.926 87.81h11.845z" fill="#444"/><path d="M103.224 45.362h-4.49v3.93h4.49v-3.93z" fill="#C9C7C7"/><path d="M100.982 45.362h-2.249v3.93h2.249v-3.93z" fill="#B5B4B4"/><path d="M106.967 41.61c.551-3.322-1.682-6.462-4.988-7.016-3.305-.553-6.431 1.69-6.982 5.012-.55 3.32 1.683 6.462 4.988 7.015 3.305.553 6.431-1.69 6.982-5.011z" fill="#444"/><path d="M96.188 40.602c0-2.658 2.142-4.818 4.794-4.818 2.652 0 4.795 2.153 4.795 4.818 0 2.664-2.143 4.817-4.795 4.817s-4.794-2.153-4.794-4.817z" fill="#FF8B00"/><path opacity=".3" d="M100.975 35.784c-2.645 0-4.794 2.153-4.794 4.818 0 1.42.615 2.693 1.584 3.574l6.767-6.793a4.75 4.75 0 00-3.557-1.592v-.007z" fill="#fff"/><path d="M177.502 45.362h-4.49v3.93h4.49v-3.93z" fill="#C9C7C7"/><path d="M175.26 45.362h-2.248v3.93h2.248v-3.93z" fill="#B5B4B4"/><path d="M179.852 44.57a6.118 6.118 0 00-.648-8.597 6.047 6.047 0 00-8.556.651 6.116 6.116 0 00.648 8.597 6.047 6.047 0 008.556-.65z" fill="#444"/><path d="M170.466 40.602c0-2.658 2.143-4.818 4.795-4.818 2.651 0 4.794 2.153 4.794 4.818 0 2.664-2.143 4.817-4.794 4.817-2.652 0-4.795-2.153-4.795-4.817z" fill="#FF8B00"/><path opacity=".3" d="M175.253 35.784c-2.644 0-4.794 2.153-4.794 4.818 0 1.42.615 2.693 1.584 3.574l6.76-6.793a4.748 4.748 0 00-3.557-1.592l.007-.007z" fill="#fff"/><path d="M38.947 90.022s-3.824 14.179 1.405 33.927c0 0 2.483 8.317 6.553 14.275 0 0 1.291 1.523 3.872.298 0 0 1.06-.629-.894-1.887l3.972-9.63s4.666-3.575 21.347-.397c0 0 3.54 8.572 4.932 10.359 0 0 .86 2.077 3.287 2.032 0 0 3.02.107 2.77-1.45-.25-1.556-2.507-.572-2.307-.995 1.278-2.689 3.46-7.903 4.325-13.687 0 0 1.655-5.229 1.126-31.243l-50.388-1.602z" fill="#FBE9C9"/><path d="M85.166 28.485a7.956 7.956 0 00-10.068-5.024c-3.07 1.026-5.133 4.088-5.43 7.114l10.476 7.978a7.956 7.956 0 005.024-10.068h-.002zm-6.212 6.33l-5.638-4.493a4.296 4.296 0 115.636 4.494l.002-.002z" fill="#F5B64C"/><path d="M77.835 35.631a4.964 4.964 0 100-9.928 4.964 4.964 0 000 9.928zm8.879 52.295s11.944 14.063.497 22.818l-.497-22.818z" fill="#FBE9C9"/><path d="M32.262 90.574s5.144 14.453 27.722 18.279l4.899-.561s15.276-.488 24.775-19.44l-57.394 1.722h-.002z" fill="#13AE67"/><path d="M63.225 102.603s-6.287.419-8.026 6.363c0 0-.88 2.766-.23 4.293 0 0 4.633.459 6.53-3.451 0 0 1.189-2.385 2.618-3.361l-.892-3.844zm5.265-1.022s5.988-1.964 9.823 2.898c0 0 1.85 2.237 1.818 3.896 0 0-4.126 2.158-7.347-.759 0 0-1.996-1.766-3.685-2.137l-.61-3.9.001.002z" fill="#43C867"/><path d="M94.715 49.812c.45.054 3.785-1.005 4.071-1.396-3.956-1.6-5.64-6.142-8.5-8.434-12.16-9.736-24.071-15.63-40.102-12.164-6.129 1.327-12.016 3.925-17.014 7.637-3.632 2.698-6.71 6.534-9.275 10.165-2.695 3.814-3.433 5.519-4.933 9.888C17.063 61.043 14 63.655 14 63.655s4.875.62 6.504-.578c-.891.608-1.168 7.154-1.092 8.2.197 2.675.672 5.322 1.325 7.92 2.739 10.924 8.164 11.775 9.284 17.058 1.35.046 3.371-2.65 3.16-4.27.45 3.469 3.718 6.25 5.86 7.573 7.863 4.851 24.745 4.464 29.228 4.268a5.067 5.067 0 002.112-.564c4.595-2.388 23.58-12.89 26.183-24.782.297-1.355.635-3.19.47-3.658.533 1.522 1.71 3.38 2.462 3.247.034-3.963 2.26-5.453 1.653-12.13-.517-5.7-3.137-10.534-6.44-16.125l.006-.002z" fill="#F5B64C"/><path d="M72.763 105.528a6.27 6.27 0 01-6.262 6.277 6.267 6.267 0 01-6.275-6.261 6.267 6.267 0 016.261-6.275 6.267 6.267 0 016.276 6.261v-.002z" fill="#fff"/><path d="M64.138 108.809c.475.214.978.312 1.491.314.344 0 .69-.062 1.026-.142a3.292 3.292 0 001.673-.95c.04-.042.058-.104.096-.176-.066 0-.082-.006-.09 0-.659.537-1.413.743-2.252.643a3.048 3.048 0 01-1.918-.986c-.625-.671-.87-1.471-.802-2.371.058-.779.301-1.495.792-2.116.42-.531.956-.9 1.583-1.136a4.26 4.26 0 012.3-.191c.508.092.971.305 1.405.589.034.021.083.017.125.027-.006-.031 0-.075-.02-.093-.53-.489-1.133-.857-1.834-1.04-.333-.088-.68-.126-1.02-.186h-.525c-.018.008-.034.02-.052.02a4.374 4.374 0 00-2.061.665 4.537 4.537 0 00-1.617 1.692c-.47.865-.647 1.797-.471 2.779.074.407.217.786.429 1.141.28.473.718.95 1.094 1.174.375.224.487.271.646.341" fill="#B18749"/><path d="M71.084 105.482c-.02-1.086-.461-1.98-1.295-2.663-.907-.742-1.952-.994-3.11-.808-.794.128-1.48.455-2.034 1.044-.038.038-.064.087-.096.131l.036.04c.04-.018.086-.03.122-.056.643-.469 1.35-.682 2.152-.596.976.103 1.722.578 2.271 1.367.539.774.607 1.643.417 2.541-.257 1.221-.95 2.103-2.096 2.608-.712.316-1.459.42-2.24.316a3.73 3.73 0 01-1.48-.523c-.044-.028-.198-.17-.252-.152-.03.01-.056.038-.09.064.028.036.044.064.068.084.757.655 1.617 1.064 2.625 1.168 1.008.103 1.958-.078 2.806-.613 1.44-.908 2.228-2.212 2.196-3.95" fill="#005B42"/><path d="M68.007 105.473c-.491.483-.954.946-1.425 1.399-.03.028-.144.018-.178-.018-.34-.329-.67-.671-1.004-1.006-.114-.116-.234-.226-.37-.355.053-.054.1-.106.15-.156.41-.411.823-.816 1.224-1.238.082-.083.116-.079.186-.007.339.343.68.686 1.023 1.023.118.118.248.224.394.356" fill="#AA803A"/><path d="M30.702 30.939a7.977 7.977 0 00.04 15.951l7.256-11.247a7.978 7.978 0 00-7.296-4.703v-.002zm.046 12.055a4.612 4.612 0 114.196-6.505l-4.196 6.505z" fill="#F5B64C"/><path d="M30.26 43.389a4.964 4.964 0 100-9.928 4.964 4.964 0 000 9.928zm51.294-1.511c-6.197-7.758-17.606-8.678-25.287-7.86 0 0-7.984.549-6.058 3.87 0 0 3.332 3.51-4.193 3.689-9.575.225-12.435 18.57-8.387 28.275 3.93 9.418 16.696 14.127 34.848 7.504 1.846-.674 8.832-3.964 11.548-6.784 11.321-11.748 2.689-22.235-2.47-28.694z" fill="#FBE9C9"/><path d="M70.917 70.254a.695.695 0 00-.848.497c-.12.457-1.292.819-2.03.89-1.493.114-2.633-.472-2.922-.71a.695.695 0 00-1.305.231c-.023.168 0 .422.247.683.529.563 2.194 1.328 4.098 1.182a4.24 4.24 0 00.281-.036c.746-.112 2.62-.529 2.976-1.89a.695.695 0 00-.497-.849v.002z" fill="#F0C9AE"/><path d="M69.591 50.769a2.076 2.076 0 100-4.152 2.076 2.076 0 000 4.152zm-12.248 4.217a2.076 2.076 0 100-4.152 2.076 2.076 0 000 4.152zM67.545 44.02c.858-.638 1.215-1.612.796-2.176-.419-.563-1.454-.503-2.313.135-.858.638-1.214 1.612-.795 2.175.419.564 1.454.504 2.312-.134zm-10.193 5.464c1.07 0 1.936-.569 1.936-1.271s-.867-1.272-1.936-1.272c-1.07 0-1.936.57-1.936 1.272 0 .702.867 1.271 1.936 1.271z" fill="#4B1E0E"/><path d="M77.987 43.794a.91.91 0 00-1.076.71l-.523 2.556a.912.912 0 001.786.367l.523-2.555a.912.912 0 00-.708-1.076l-.002-.002zm2.712-.329a.912.912 0 00-1.076.71l-.523 2.553a.912.912 0 001.787.365l.522-2.553a.912.912 0 00-.71-1.075zM45.696 54.779a.91.91 0 00-1.075.71l-.523 2.555a.912.912 0 001.786.367l.523-2.555a.912.912 0 00-.709-1.075l-.002-.002zm2.713-.33a.912.912 0 00-1.076.71l-.523 2.553a.912.912 0 001.786.366l.523-2.553a.912.912 0 00-.71-1.076zm29.672-2.309c-1.369-.85-3.108-.889-4.634-.637-2.535.419-4.885 1.952-6.256 4.13a2.946 2.946 0 00-.421 2.065c-.253-.3-.555-.56-.874-.788-2.45-1.74-5.872-1.739-8.615-.77-2.076.732-4.419 1.882-5.654 3.798-.014.022-.028.046-.044.068-1.016 1.626-.996 4.004.625 5.24 1.125.857 2.816.995 4.187 1 3.172.01 7.002-.691 9.383-2.949.772-.732 1.361-1.67 1.607-2.706a3.81 3.81 0 00.078-1.366c.632.735 1.594.93 2.57.946 2.274.038 4.723-.423 6.709-1.572 2.177-1.26 4.207-4.685 1.341-6.461l-.002.002z" fill="#F0C9AE"/><path d="M68.05 58.729c.975-.659 2.23-2.028 1.69-3.71-.877-2.727-4.859-2.308-6.727-1.51-2.154.92-3.43 3.667-2.417 5.625.862 1.667 3.353 1.214 5.143.715 0 0 1.336-.461 2.31-1.118l.002-.002z" fill="#4B1E0E"/><path d="M61.1 48.377a1.685 1.685 0 00-.11-.645 1.054 1.054 0 00-.23-.367c.026.194.124.565.11 1.004-.01.44-.13.807-.164.998a1.05 1.05 0 00.248-.353 1.68 1.68 0 00.143-.637h.002z" fill="#642711"/><path d="M113.637 30.275C99.313 26.712 89.959 38.698 91.7 47.392c.76 3.794 2.138 6.743 3.917 8.98-.868 2.121-2.005 5.05-1.97 5.756.036.718 3.283-.507 6.14-2.114 8.037 4.75 19.389 1.415 24.05-3.954 4.532-5.221 8.087-21.237-10.2-25.785z" fill="#FDE9C8"/><path d="M104.633 40.875c-1.162-.607-1.503-2.134-.673-3.153.981-1.202 2.715-2.433 5.664-2.343 3.765.115 7.056 2.677 6.946 6.218-.075 2.46-1.954 3.911-4.394 4.865-.866.35-.911 1.053-.938 1.88a1.407 1.407 0 01-1.449 1.364l-1.33-.04a1.406 1.406 0 01-1.363-1.45l.039-1.329c.034-1.103.112-2.007 1.263-2.701 1.56-.932 2.995-.965 3.049-2.747.037-1.205-.842-2.086-1.97-2.12-1.025-.032-1.766.43-2.27 1.031a2.1 2.1 0 01-2.576.524h.002zm7.239 13.193a2.866 2.866 0 01-2.975 2.773 2.862 2.862 0 01-2.775-2.95 2.866 2.866 0 012.95-2.8 2.875 2.875 0 012.8 2.974v.003z" fill="#FFA031"/><g clip-path="url(#clip0_5088_205833)" fill="#9C9C9C"><path d="M83.28 76.733a1.68 1.68 0 01-.502.482 1.61 1.61 0 01-1.752-.012 1.608 1.608 0 01-.69-1.032 1.587 1.587 0 010-.578c.037-.225.11-.448.247-.648l1.496-2.255c.524-.79-.144-1.834-1.067-1.646l-.022.004c-2.53.53-4.192 2.932-3.87 5.46l.025.262c.004.045.01.088.02.133a4.6 4.6 0 00.338.998c.16.344.137.748-.075 1.067l-7.163 10.8a1.094 1.094 0 01-.957.482 4.623 4.623 0 00-1.05.077c-.044.009-.088.02-.13.033l-.252.078c-2.452.688-4.022 3.154-3.522 5.69l.004.024c.186.923 1.409 1.13 1.932.34l1.496-2.254a1.6 1.6 0 01.503-.478 1.616 1.616 0 011.75.008c.373.247.608.624.69 1.032a1.62 1.62 0 010 .577c-.038.226-.11.447-.246.65l-1.496 2.255c-.523.788.145 1.834 1.067 1.646l.022-.005c2.53-.527 4.191-2.93 3.872-5.459l-.026-.262a1.018 1.018 0 00-.02-.132 4.71 4.71 0 00-.337-1 1.089 1.089 0 01.076-1.067l7.165-10.8a1.09 1.09 0 01.952-.483 4.67 4.67 0 001.05-.078c.045-.01.09-.021.134-.034l.25-.08c2.456-.685 4.021-3.151 3.523-5.687l-.004-.023c-.186-.923-1.409-1.13-1.931-.343l-1.496 2.255-.005.003z"/><path opacity=".7" d="M80.338 75.591c.036-.225.11-.448.246-.648l1.496-2.255c.524-.79-.144-1.834-1.067-1.646l-.022.005c-2.53.53-4.192 2.931-3.87 5.46l.025.262c.004.044.01.088.02.132.075.353.191.685.338.998.16.345.137.749-.074 1.068l-3.761 5.669 3.372 2.237 3.761-5.67c.212-.32.574-.497.953-.484a4.67 4.67 0 001.05-.078c.045-.009.09-.02.134-.033l.249-.08c2.456-.686 4.022-3.152 3.524-5.688a2.414 2.414 0 00-.005-.023c-.185-.923-1.408-1.13-1.93-.342L83.28 76.73c-.133.2-.309.359-.501.48a1.61 1.61 0 01-1.752-.01 1.609 1.609 0 01-.69-1.033 1.587 1.587 0 010-.578l.001.002z"/></g><path d="M83.539 98.626c-1.579-5.763-9.301-9.216-9.301-9.216-.777-3.682-4.577-.636-4.41.601.166 1.238 1.326 1.523 1.326 1.523.609 4.788-.481 8.519 2.142 15.671 1.802 4.918 7.143 8.484 16.74-.158l-4.108-10.57-2.39 2.149z" fill="#FBE9C9"/><path d="M46.3 117.522c20.356 5.92 26.972-2.694 26.972-2.694 1.296-1.437.236-2.398.236-2.398-.212-1.75-1.806-1.231-1.806-1.231-.847-.192-1.627.796-1.627.796-3.22.336-21.892-5.744-21.892-5.744m25.113.954c1.802 4.918 6.632 7.637 14.834 2.463" stroke="#F0C9AE" stroke-width="2" stroke-linecap="round" stroke-linejoin="round"/><path d="M49.535 11.868c-9.856 2.09-16.148 11.776-14.058 21.63l35.691-7.572c-2.09-9.857-11.776-16.15-21.63-14.059h-.002z" fill="#FFC60B"/><path d="M52.224 24.536a4.038 4.038 0 01-4.788-3.112L45.96 14.47a4.038 4.038 0 017.9-1.675l1.476 6.953a4.038 4.038 0 01-3.112 4.788zm20.878.979L33.54 33.907a2.343 2.343 0 10.973 4.585l39.56-8.393a2.343 2.343 0 00-.972-4.584z" fill="#E1B034"/><path d="M68.38 18.914l-33.384 7.082c-1.068.227-1.71 1.462-1.436 2.76.276 1.297 1.365 2.165 2.433 1.938l33.383-7.082c1.068-.226 1.711-1.462 1.436-2.76-.275-1.297-1.364-2.165-2.433-1.938z" fill="#6E6E6E"/><path d="M56.894 27.282a5.654 5.654 0 10-9.482-6.162 5.654 5.654 0 009.482 6.162z" fill="#9C9C9C"/><path d="M52.973 28.071a3.956 3.956 0 10-1.642-7.739 3.956 3.956 0 001.642 7.74z" fill="#86BDDD"/><path opacity=".3" d="M51.33 20.329a3.955 3.955 0 00-1.045 7.355l4.296-6.61a3.954 3.954 0 00-3.248-.75l-.003.005z" fill="#fff"/><defs><clipPath id="clip0_5088_205833"><path fill="#fff" transform="rotate(-56.441 120.584 -10.89)" d="M0 0h30.738v9.689H0z"/></clipPath></defs></svg>