<svg width="263" height="260" viewBox="0 0 263 260" fill="none" xmlns="http://www.w3.org/2000/svg"><g clip-path="url(#clip0_5998_212769)"><g filter="url(#filter0_d_5998_212769)"><path fill-rule="evenodd" clip-rule="evenodd" d="M240.5 0c6.627 0 12 5.373 12 12v13c0 6.627-5.373 12-12 12h-108c0 11-11.5 16-20 14 10.17-3.236 10.083-8.61 10.011-12.958-.005-.355-.011-.703-.011-1.042h-18c-6.627 0-12-5.373-12-12V12c0-6.627 5.373-12 12-12h136z" fill="#A4844E"/></g><path d="M119.697 19.344c-.514.273-1.08.553-1.699.84v6.015c0 1.166-.658 1.748-1.973 1.748l-1.445-.049-.478-1.777c.28.02.55.03.81.03.658 0 1.045-.036 1.162-.108.124-.078.186-.225.186-.44v-4.619c-.697.3-1.397.563-2.1.791l-.42-1.699c1.205-.423 2.045-.748 2.52-.976v-3.682h-2.364V13.66h2.364v-3.164h1.738v3.164h1.602v1.758h-1.602v2.88a29.28 29.28 0 001.504-.741l.195 1.787zm11.826 7.08l-.722 1.592a25.76 25.76 0 01-5.381-1.592c-1.706.748-3.678 1.286-5.918 1.611l-.742-1.719a18.759 18.759 0 004.804-.976 9.578 9.578 0 01-2.783-3.096h-1.084v-1.621h4.961V10.516h1.68v10.107h3.838v1.621c-.775 1.25-1.725 2.282-2.852 3.096 1.244.462 2.643.823 4.199 1.084zm-3.447-4.18h-5.234c.657.912 1.523 1.664 2.597 2.256.984-.527 1.862-1.28 2.637-2.256zm-3.877-10.02c-.644.34-1.377.626-2.197.86v1.396h1.797v1.563h-1.797v1.719h1.797v1.64h-3.477v-7.597c1.205-.248 2.25-.622 3.135-1.123l.742 1.543zm6.524 7.178h-3.565v-1.64h1.885v-1.719h-1.885V14.48h1.885v-1.562h-1.885v-1.64h3.565v8.124zm20.195-5.166h-1.856v2.12h-13.32v-1.358h11.533v-.762h-12.939v-1.338h12.939v-.78h-11.533v-1.339h13.32v2.12h1.856v1.337zm-7.881 2.9h7.52V21.2h-7.52v-4.062zm5.781 1.427h-4.062v1.26h4.062v-1.26zm-6.582 2.48c-3.06.306-5.67.498-7.832.576l-.322-1.455a65.389 65.389 0 003.418-.166v-1.436h-2.959v-1.425h7.383v1.425h-2.666v1.26a40.556 40.556 0 002.978-.263v1.484zm5.86 1.357h3.164v1.504h-3.164v2.139c0 .807-.199 1.357-.596 1.65-.391.293-1.139.44-2.246.44-.417 0-.996-.017-1.738-.049l-.772-1.748a23.52 23.52 0 002.012.098c.716 0 1.146-.036 1.289-.108.143-.071.215-.234.215-.488v-1.934h-12.364V22.4h12.364v-.722h1.836v.722zm-6.133 3.643l-1.182 1.28c-1.126-.847-2.285-1.475-3.476-1.886l1.172-1.357c1.354.554 2.516 1.208 3.486 1.963zm20.342-12.705H157.1c-.534.697-1.247 1.396-2.139 2.1l-1.338-1.133a12.645 12.645 0 003.457-4.004l1.66.556a7.319 7.319 0 01-.517.88h4.082v1.6zm8.935 0h-6.015a11.51 11.51 0 01-2.08 2.119l-1.426-1.016c1.224-.905 2.324-2.259 3.301-4.062l1.738.44c-.072.195-.238.5-.498.917h4.98v1.602zm-10.342 1.582l-1.699.42c-.156-.313-.462-.746-.918-1.299l1.699-.4c.411.481.717.908.918 1.279zm8.018.117l-1.738.342a7.416 7.416 0 00-.86-1.338l1.778-.361c.338.449.612.901.82 1.357zm2.002 6.162a31.06 31.06 0 01-.313 3.096c-.162 1.159-.38 1.862-.654 2.11a2.06 2.06 0 01-.879.497c-.312.085-.96.127-1.943.127-.43 0-.827-.01-1.191-.029l-.577-1.719a18.24 18.24 0 001.66.069c.782 0 1.257-.046 1.426-.137.17-.098.29-.313.362-.645.071-.332.149-.934.234-1.806h-5.566v5.254h-1.797v-4.512c-1.732 1.797-4.118 3.203-7.159 4.219l-.859-1.582c2.695-.775 4.854-1.901 6.475-3.38h-5.694l1.016-4.296h6.221v-1.201h-7.325V15.7h15.723v4.317h-6.601v1.181h7.441zm-2.617-2.734v-1.201h-4.824v1.2h4.824zm-6.621 2.734v-1.181h-4.717l-.264 1.181h4.981zm29.58-1.474h-17.403v-1.768h17.403v1.768zm10.478-5.264l-1.093 1.318a8.477 8.477 0 00-.381-.478v1.523h-1.768v1.494h2.744v1.621h-2.744v5.284c1.185-.228 2.106-.45 2.764-.664l.058 1.68c-2.76.69-5.159 1.19-7.197 1.503l-.381-1.64a33.313 33.313 0 003.076-.518v-5.645h-2.656v-1.62h2.656v-1.495h-1.552v-.947a4.77 4.77 0 01-.684.586l-.918-1.504c1.244-1.01 2.448-2.523 3.613-4.541l1.709.518c-.039.156-.12.312-.244.468 1.263 1.114 2.263 2.133 2.998 3.057zm-1.601.723c-.782-.944-1.54-1.732-2.276-2.364-.761 1.055-1.383 1.843-1.865 2.364h4.141zm10.058 4.14h-6.338v6.436a16.63 16.63 0 002.461-.957l.303 1.66c-1.087.514-2.5 1.048-4.238 1.601l-.625-1.484c.241-.124.361-.296.361-.517v-15h8.076v8.261zm-1.777-4.96v-1.641h-4.561v1.64h4.561zm0 3.32v-1.749h-4.561v1.749h4.561zm3.047 9.16l-1.182 1.299c-2.337-1.79-3.997-4.398-4.98-7.823l1.621-.595c.26.905.511 1.65.752 2.236.612-.456 1.279-1.156 2.002-2.1l1.445.899c-.644.911-1.546 1.82-2.705 2.724.736 1.205 1.751 2.325 3.047 3.36zm-15.186-2.149l-1.504.489c-.032-1.068-.244-2.461-.634-4.18l1.523-.361c.3 1.419.505 2.77.615 4.052zm4.922-3.613c-.234 1.387-.514 2.513-.84 3.379l-1.377-.479c.371-1.191.635-2.285.791-3.28l1.426.38zm18.701-9.902a17.793 17.793 0 01-5.341 4.755l-.86-1.718c1.589-.827 3.076-2.106 4.463-3.838l1.738.8zm10.86 1.699h-10.059V11.14h10.059v1.738zm-10.44 2.002a30.337 30.337 0 01-1.982 2.959v10.176h-1.856v-8.037c-.716.71-1.383 1.262-2.002 1.66l-.781-1.778c1.693-1.106 3.327-3.001 4.903-5.683l1.718.703zm10.938 3.056h-2.696v8.106c0 1.328-.722 1.992-2.168 1.992-.924 0-1.829-.02-2.714-.058l-.664-1.817c.559.013 1.595.02 3.105.02a.55.55 0 00.371-.157.518.518 0 00.186-.4v-7.686h-6.524V16.18h11.104v1.758z" fill="#fff"/></g><g clip-path="url(#clip1_5998_212769)"><ellipse cx="37.767" cy="2.833" rx="37.767" ry="2.833" transform="matrix(-1 0 0 1 116.295 253.391)" fill="#F0D1B2"/><path d="M42.137 224.617s-5.397-6.887-14.173-1.805c-2.823 1.636-3.38-1.223-3.889-2.205-.509-.981-5.482 7.281 2.695 12.151 8.183 4.869 16.384-4.561 15.367-8.141z" fill="#F2B34C"/><path d="M33.124 221.013c5.681-.642 9.012 3.61 9.012 3.61.673 2.356-2.659 7.25-7.347 8.928 0 0 4.38-4.191.394-7.147-3.985-2.956-2.06-5.391-2.06-5.391z" fill="#F8E6C6"/><path d="M127.619 175.57s20.575-6.753 29.036-14.797c.376-.836.673-1.72.903-2.604.188-.715.339-1.46.363-2.199.031-.787-.236-1.629-.048-2.411.266-1.084 1.32-1.15 2.011-.321.509.612.89 1.381 1.03 2.169.054.327.169 2.156-.225 2.283 0 0 2.381-.599 2.92 1.708 0 0 1.853 1.345.042 3.089 0 0 1.357 1.018-.012 2.417 0 0 .915 2.114-4.143 3.404 0 0-1.393 2.429-4.488 6.584 0 0-8.086 11.859-23.131 18.995l-4.265-18.323.007.006z" fill="#F8E5C3"/><path d="M120.537 170.319s6.179 24.76-2.265 59.242c0 0-4.009 14.525-10.581 24.931 0 0-2.084 2.659-6.251.521 0 0-1.708-1.097 1.442-3.295l-6.415-16.82s-7.535-6.245-34.47-.697c0 0-5.718 14.967-7.965 18.092 0 0 2.992.376 1.55 2.368 0 0-3.203 2.169-6.038.261 0 0-6.517-12.568-8.552-27.25 0 0-2.671-9.134-1.817-54.561l81.356-2.799.006.007z" fill="#404040"/><mask id="mask0_5998_212769" style="mask-type:luminance" maskUnits="userSpaceOnUse" x="26" y="174" width="101" height="74"><path d="M26.146 174.648h100.133v72.974H26.146v-72.974z" fill="#fff"/></mask><g mask="url(#mask0_5998_212769)"><path d="M99.896 247.935l-3.155-7.904s-7.686-6.081-35.16-.679c0 0-5.834 14.579-8.123 17.62 0 0 3.053.363 1.58 2.308 0 0-3.27 2.114-6.16.254 0 0-6.65-12.247-8.721-26.547 0 0-2.726-8.898-1.854-53.15l82.987-2.726s6.299 24.119-2.314 57.717c0 0-1.696 5.875-4.7 12.768" fill="#2C3342"/></g><mask id="mask1_5998_212769" style="mask-type:luminance" maskUnits="userSpaceOnUse" x="-10" y="47" width="178" height="179"><path d="M-9.86 47.494h177.552v177.553H-9.861V47.494z" fill="#fff"/></mask><g mask="url(#mask1_5998_212769)"><path d="M121.6 173.607s6.42 23.81-2.356 56.966c0 0-4.167 13.967-11.006 23.967 0 0-2.168 2.556-6.499.503 0 0-1.78-1.054 1.502-3.168l-6.668-16.172s-7.838-6.002-35.845-.666c0 0-5.948 14.391-8.28 17.395 0 0 3.113.364 1.611 2.278 0 0-3.331 2.083-6.281.248 0 0-6.778-12.09-8.892-26.202 0 0-2.78-8.783-1.89-52.459l84.604-2.69z" fill="#F8E6C6"/><path d="M112.011 176.72s16.293-4.192 36.342-11.642c6.596 5.585 10.739 8.377 10.739 8.377s-10.339 25.312-38.026 29.4c-3.682-9.903-9.055-26.129-9.055-26.129v-.006z" fill="#2C3342"/><path d="M113.356 182.594l-17.584.817-17.104 27.414v19.352h43.216s8.813-29.794 4.597-54.525c-9.897 5.561-13.119 6.942-13.119 6.942h-.006z" fill="#192030"/><path d="M47.971 182.577l11.496-.581 19.8 29.745v18.444H37.324s-5.857-30.957-1.762-54.525c9.606 5.3 12.416 6.917 12.416 6.917h-.006z" fill="#192030"/><path d="M66.354 192.287h25.554v37.462H66.354v-37.462z" fill="#fff"/><path d="M104.567 194.976l-26.093 16.493-24.779-18.134 24.089-4.694 26.783 6.335z" fill="#FFFFFA"/><mask id="mask2_5998_212769" style="mask-type:luminance" maskUnits="userSpaceOnUse" x="58" y="190" width="38" height="45"><path d="M58.983 190.746H95.62v43.501H58.983v-43.501z" fill="#fff"/></mask><g mask="url(#mask2_5998_212769)"><path d="M74.935 202.238c.163.315.848.551 1.544.551h4.64c.697 0 1.387-.236 1.545-.551l2.653-5.161c.514-1.005-.188-1.944-1.654-1.944H73.93c-1.466 0-2.169.939-1.654 1.944l2.653 5.161h.006z" fill="#43C567"/><path d="M71.398 250.885l7.36 12.326 7.553-11.205-.964-13.277-2.652-36.602h-7.76l-2.743 37.856-.794 10.902z" fill="#13AB67"/></g><path d="M105.172 190.344l1.441 7.177-26.45-7.177h25.009zm-26.613 0l-25.234 5.318 1.436-7.178 23.798 1.86z" fill="#D9DADA"/></g><path d="M84.264 225.049l-5.33 9.079-5.506-9.079h10.836z" fill="#13AB67"/><path d="M158.618 176.868a1.428 1.428 0 001.726-1.042l15.185-61.072a1.427 1.427 0 00-2.768-.684l-15.185 61.072a1.428 1.428 0 001.042 1.726z" fill="#805751"/><path d="M166.432 162.274c0 3.356-1.448 6.075-3.229 6.075-1.78 0-3.228-2.719-3.228-6.075 0-3.355 1.448-6.075 3.228-6.075 1.787 0 3.229 2.72 3.229 6.075z" fill="#F7E5C5" stroke="#E2AD89" stroke-width=".38" stroke-linecap="round" stroke-linejoin="round"/><path d="M138.352 109.049c.745.188 6.523-.987 7.075-1.611-6.348-3.61-8.359-11.92-12.75-16.517-18.643-19.546-37.56-32.308-65.052-29.51-10.508 1.072-20.842 4.422-29.879 9.903-6.571 3.986-12.41 10.08-17.359 15.918-5.197 6.13-6.735 8.97-10.03 16.318-4.167 9.303-9.77 13.258-9.77 13.258s8.062 2.084 11.006.315c-1.606.884-3.235 12.296-3.295 14.143-.146 4.731.181 9.461.805 14.149 2.647 19.703 11.587 22.302 12.52 31.787 2.26.357 6.123-3.955 6.063-6.838.133 6.172 5.118 11.714 8.474 14.464 12.313 10.103 40.684 12.883 48.237 13.452a8.13 8.13 0 003.64-.557c8.129-3.241 41.823-17.765 48.31-38.074.739-2.314 1.63-5.457 1.442-6.311.624 2.774 2.265 6.275 3.549 6.196.763-6.935 4.761-9.092 4.937-20.915.151-10.097-3.38-19.097-7.923-29.57z" fill="#F2B34C"/><path d="M114.076 86.797L98.079 71.534c1.06-4.997 5.076-9.721 10.388-10.86 7.214-1.55 14.319 3.047 15.863 10.26 1.551 7.214-3.047 14.319-10.26 15.863h.006zm4.252-15.027a7.21 7.21 0 00-8.565-5.536 7.206 7.206 0 00-5.542 5.554l8.571 8.547a7.211 7.211 0 005.536-8.565zm-74.041 2.32L30.084 91.51c-7.354-.799-12.66-7.413-11.86-14.766.806-7.353 7.414-12.66 14.767-11.86a13.398 13.398 0 0111.296 9.207zm-5.257.849a7.744 7.744 0 00-15.07 1.532 7.744 7.744 0 006.857 8.54L39.03 74.94z" fill="#F2B34C"/><path d="M30.852 85.63a8.334 8.334 0 110-16.67 8.334 8.334 0 010 16.67zm80.837-4.084a8.334 8.334 0 01-8.334-8.335 8.334 8.334 0 1116.668 0 8.334 8.334 0 01-8.334 8.335zm4.131 23.683c-7.214-15.033-25.536-20.836-38.413-22.392 0 0-13.271-2.114-11.37 4.045 0 0 4.125 7.002-8.249 4.452-15.748-3.24-27.347 25.7-24.385 43.102 2.877 16.892 21.993 29.412 54.185 25.414 3.277-.405 15.948-3.155 21.454-6.747 22.95-14.955 12.78-35.366 6.778-47.88v.006z" fill="#F8E6C6"/><path d="M89.236 127.1s3.597 14.198-4.289 15.633c0 0-8.68 2.496-9.757-12.707l7.492-4.803 6.554 1.877z" fill="#EB8080"/><path d="M57.848 120.907a1.266 1.266 0 00-1.714.54l-1.69 3.24a1.284 1.284 0 00.533 1.726c.303.164.649.188.951.091.315-.097.6-.315.764-.63l1.69-3.24a1.285 1.285 0 00-.534-1.727zm-5.675 4.982a1.294 1.294 0 01-.956-.091 1.279 1.279 0 01-.533-1.726l1.69-3.241a1.267 1.267 0 011.713-.539c.624.327.86 1.103.533 1.726l-1.69 3.241a1.263 1.263 0 01-.763.63h.006zm51.206-13.435a1.26 1.26 0 00-1.715.539l-1.69 3.24a1.284 1.284 0 00.534 1.726c.302.164.648.188.957.091.314-.097.599-.315.763-.63l1.69-3.24a1.285 1.285 0 00-.533-1.726h-.006zm3.76.61a1.266 1.266 0 00-1.714.539l-1.69 3.24a1.285 1.285 0 00.533 1.726c.303.164.649.188.951.091.315-.097.6-.315.764-.63l1.689-3.24a1.283 1.283 0 00-.533-1.726zm-14.523 32.872c-.266 2.314-3.222 3.422-4.41 3.78-.217.066-.375.103-.447.121-3.065.672-5.948-.2-6.942-1-.46-.369-.557-.781-.557-1.06 0-.636.503-1.15 1.139-1.15.381 0 .72.187.933.478.527.321 2.52 1.024 4.918.491 1.187-.291 3.01-1.145 3.095-1.926a1.148 1.148 0 011.266-1.012c.63.073 1.078.642 1.005 1.278zm6.208-25.665c-1.708-1.563-4.155-2.078-6.372-2.12-3.682-.073-7.395 1.484-9.897 4.209a4.266 4.266 0 00-1.132 2.817 6.712 6.712 0 00-1.03-1.345c-3.004-3.113-7.832-4.009-11.95-3.355-3.12.49-6.724 1.508-8.965 3.9-.024.031-.054.055-.078.085-1.854 2.041-2.447 5.415-.479 7.596 1.363 1.514 3.713 2.15 5.645 2.519 4.47.848 10.055.86 13.998-1.714 1.278-.836 2.356-2.011 2.968-3.416.266-.606.43-1.26.46-1.914.703 1.205 2.005 1.738 3.38 2.017 3.198.654 6.771.642 9.873-.466 3.397-1.212 7.153-5.536 3.573-8.813h.006z" fill="#F0C9AE"/><path d="M84.688 126.724c1.545-.679 3.67-2.29 3.35-4.816-.527-4.094-6.25-4.548-9.092-3.906-3.276.739-5.79 4.3-4.87 7.341.782 2.592 4.416 2.604 7.069 2.362 0 0 2.005-.303 3.55-.981h-.007z" fill="#4B1E0E"/><path d="M86.367 100.159c-.233-.987.797-2.075 2.301-2.43s2.912.157 3.145 1.143c.233.987-.797 2.074-2.301 2.429-1.504.356-2.912-.156-3.145-1.142zm-23.247 2.838c-.03-1.014 1.2-1.871 2.744-1.915 1.545-.044 2.82.742 2.85 1.755.028 1.014-1.2 1.871-2.745 1.914-1.545.044-2.821-.741-2.85-1.754zm28.61 12.969a4.3 4.3 0 110-8.6 4.3 4.3 0 010 8.6zm-24.214 3.524a4.3 4.3 0 11.001-8.602 4.3 4.3 0 01-.001 8.602z" fill="#4A1D0E"/><path d="M67.843 127.008c-5.356 0-9.697-4.342-9.697-9.698 0-5.355 4.341-9.697 9.697-9.697 5.355 0 9.697 4.342 9.697 9.697 0 5.356-4.342 9.698-9.697 9.698zm22.627-4.08c-5.355 0-9.696-4.342-9.696-9.698 0-5.355 4.341-9.697 9.697-9.697 5.355 0 9.697 4.342 9.697 9.697 0 5.356-4.342 9.698-9.697 9.698zm-12.967-6.5l3.49-.315" stroke="#2C3342" stroke-width="1.25" stroke-miterlimit="10"/><path d="M62.561 178.762l-1.684 8.352-2.24 11.127a2.909 2.909 0 001.968 3.343l1.968.63a2.907 2.907 0 003.544-1.587l5.3-11.871 2.798-6.269-11.648-3.725h-.006z" fill="#484C65"/><path d="M61.986 181.627l11.03 3.531 1.193-2.671-11.648-3.725-.575 2.865z" fill="#292B38"/><path d="M84.119 161.233l-2.21 6.923c-1.527 4.779-6.645 7.414-11.418 5.888-4.779-1.527-7.414-6.645-5.887-11.417l2.21-6.924c1.527-4.778 6.645-7.413 11.418-5.887 4.773 1.526 7.413 6.645 5.887 11.417z" fill="#8DA2AD"/><path d="M78.036 152.802a.73.73 0 00-.472-.915 6.95 6.95 0 00-7.517 2.29.735.735 0 00.115 1.023.733.733 0 001.024-.121 5.47 5.47 0 015.93-1.805.73.73 0 00.914-.472h.006zm3.62 15.239l-16.732-5.347a2.422 2.422 0 111.475-4.615l16.732 5.346a2.423 2.423 0 11-1.475 4.616z" fill="#DFE3EA"/><path d="M63.398 167.588l16.617 5.309a2.18 2.18 0 011.413 2.741l-1.99 6.231a2.18 2.18 0 01-2.742 1.413l-16.616-5.309a2.181 2.181 0 01-1.413-2.741l1.99-6.231a2.18 2.18 0 012.741-1.413z" fill="#484C65"/><path d="M70.042 177.975a2.544 2.544 0 110-5.088 2.544 2.544 0 010 5.088z" fill="#EB8080"/><path d="M46.62 198.162c7.317-7.372 15.045-10.291 15.045-10.291 4.325-4.906 7.469 2.95 6.16 4.682-1.308 1.732-3.307 1.169-3.307 1.169-5.015 6.723-5.778 11.102-17.286 17.765-7.88 4.561-17.42 10.842-24.555-10.436l15.257-12.483 8.692 9.594h-.006z" fill="#FBE9C9"/><path d="M34.505 183.625s4.24 9.691 16.353 9.691c2.902 7.674 7.874 10.903 7.874 10.903s-22.41 26.65-35.13 4.239c-6.662-12.719 10.903-24.833 10.903-24.833z" fill="#2C3342"/></g><defs><clipPath id="clip0_5998_212769"><path fill="#fff" transform="translate(92.5)" d="M0 0h170v60H0z"/></clipPath><clipPath id="clip1_5998_212769"><path fill="#fff" transform="matrix(-1 0 0 1 180.5 60)" d="M0 0h180v200H0z"/></clipPath><filter id="filter0_d_5998_212769" x="88.5" y="-2" width="172" height="63.432" filterUnits="userSpaceOnUse" color-interpolation-filters="sRGB"><feFlood flood-opacity="0" result="BackgroundImageFix"/><feColorMatrix in="SourceAlpha" values="0 0 0 0 0 0 0 0 0 0 0 0 0 0 0 0 0 0 127 0" result="hardAlpha"/><feOffset dx="2" dy="4"/><feGaussianBlur stdDeviation="3"/><feComposite in2="hardAlpha" operator="out"/><feColorMatrix values="0 0 0 0 0 0 0 0 0 0 0 0 0 0 0 0 0 0 0.15 0"/><feBlend in2="BackgroundImageFix" result="effect1_dropShadow_5998_212769"/><feBlend in="SourceGraphic" in2="effect1_dropShadow_5998_212769" result="shape"/></filter></defs></svg>