<svg width="224" height="128" viewBox="0 0 224 128" fill="none" xmlns="http://www.w3.org/2000/svg"><path d="M198.198 120.797c22.372-10.009 28.196-28.326 14.351-59.107-5.741-18.317-11.144-34.405-34.392-30.472-7.72 3.203-14.417 3.205-21.968 0-8.722-3.703-17.782-7.171-27.148-3.933-9.318 3.221-15.602 11.947-18.589 21.731-2.69 8.81-11.846 16.542-14.56 25.355-10.884 35.354 28.016 43.275 44.477 41.451 16.461-1.824 35.457 14.983 57.829 4.975z" fill="#E5F3BE"/><ellipse cx="22.186" cy="2.219" rx="22.186" ry="2.219" transform="matrix(-1 0 0 1 202.803 121.562)" fill="#E2E2E2"/><path d="M152.934 84.311s-8.917-7.418-13.482-7.97c-.672-2.107-1.039-3.112-2.804-3.33-1.766-.22-2.074 3.085-1.109 3.847 1.23 1.459 2.863 1.291 2.863 1.291s4.934 13.763 11.624 13.85c6.69.088 2.91-7.688 2.91-7.688h-.002z" fill="#FBE9C9"/><path d="M198.148 108.06s2.683-3.424 7.046-.898c1.403.813 1.681-.608 1.933-1.096.253-.488 2.726 3.62-1.34 6.041-4.068 2.421-8.145-2.268-7.639-4.047z" fill="#F2B34C"/><path d="M202.629 106.268c-2.825-.32-4.481 1.794-4.481 1.794-.334 1.172 1.322 3.605 3.653 4.439 0 0-2.177-2.084-.196-3.553 1.982-1.47 1.024-2.68 1.024-2.68z" fill="#F8E6C6"/><path d="M159.168 81.063s-3.072 12.31 1.126 29.454c0 0 1.994 7.221 5.261 12.395 0 0 1.036 1.322 3.108.259 0 0 .849-.545-.717-1.639l3.189-8.362s3.746-3.105 17.138-.346c0 0 2.842 7.441 3.96 8.995 0 0-1.488.186-.771 1.177 0 0 1.593 1.078 3.002.129 0 0 3.24-6.248 4.252-13.548 0 0 1.328-4.541.903-27.126l-40.448-1.39-.003.002z" fill="#404040"/><mask id="mask0_7335_17227" style="mask-type:luminance" maskUnits="userSpaceOnUse" x="156" y="83" width="51" height="37"><path d="M206.097 119.5h-49.784V83.219h49.784V119.5z" fill="#fff"/></mask><g mask="url(#mask0_7335_17227)"><path d="M169.435 119.653l1.569-3.93s3.821-3.023 17.48-.337c0 0 2.9 7.248 4.039 8.76 0 0-1.518.181-.786 1.147 0 0 1.626 1.051 3.062.127 0 0 3.307-6.089 4.337-13.199 0 0 1.355-4.424.921-26.425l-41.258-1.355s-3.132 11.992 1.15 28.695c0 0 .843 2.921 2.337 6.348" fill="#2C3342"/></g><mask id="mask1_7335_17227" style="mask-type:luminance" maskUnits="userSpaceOnUse" x="135" y="20" width="89" height="89"><path d="M224 108.274h-88.274V20H224v88.274z" fill="#fff"/></mask><g mask="url(#mask1_7335_17227)"><path d="M158.64 82.7s-3.192 11.837 1.172 28.321c0 0 2.071 6.944 5.471 11.916 0 0 1.078 1.271 3.231.25 0 0 .886-.524-.746-1.575l3.315-8.041s3.897-2.984 17.821-.331c0 0 2.957 7.155 4.117 8.649 0 0-1.548.18-.801 1.132 0 0 1.656 1.036 3.122.124 0 0 3.37-6.011 4.421-13.028 0 0 1.382-4.366.94-26.08l-42.063-1.338z" fill="#F8E6C6"/><path d="M163.407 84.246s-8.1-2.084-18.068-5.787C142.06 81.234 140 82.623 140 82.623s5.14 12.585 18.905 14.617c1.831-4.923 4.502-12.99 4.502-12.99v-.004z" fill="#2C3342"/><path d="M205.205 86.449c10.166 8.492 7.236 19.161 7.236 19.161-.436 2.087-1.807 1.999-1.807 1.999-1.532 1.166-2.002-.46-2.002-.46-.626-.509-.265-1.858-.265-1.858-1.527-2.738-11.603-8.625-11.603-8.625" fill="#F8E6C6"/><path d="M190.549 92.606s11.521 6.577 15.942 10.985c4.077-.078 6.248-1.298 6.248-1.298s.557-14.951-13.918-20.362c-5.149 8.175-8.269 10.672-8.269 10.672l-.003.003z" fill="#2C3342"/><path d="M162.738 87.168l8.742.407 8.504 13.629v9.621h-21.486s-4.381-14.812-2.285-27.108c4.92 2.765 6.522 3.451 6.522 3.451h.003z" fill="#192030"/><path d="M195.251 87.158l-5.716-.289-9.844 14.789v9.169h20.854s2.912-15.39.876-27.108c-4.776 2.635-6.173 3.44-6.173 3.44h.003z" fill="#192030"/><path d="M186.106 110.611h-12.705V91.986h12.705v18.625z" fill="#fff"/><path d="M167.109 93.323l12.973 8.2 12.319-9.016-11.976-2.334-13.316 3.15z" fill="#FFFFFA"/><mask id="mask2_7335_17227" style="mask-type:luminance" maskUnits="userSpaceOnUse" x="171" y="91" width="19" height="22"><path d="M189.78 112.847h-18.216V91.219h18.216v21.628z" fill="#fff"/></mask><g mask="url(#mask2_7335_17227)"><path d="M181.844 96.933c-.082.157-.422.274-.768.274h-2.307c-.346 0-.69-.117-.768-.274l-1.319-2.566c-.256-.5.094-.966.822-.966h4.839c.729 0 1.079.467.823.967l-1.319 2.565h-.003z" fill="#43C567"/><path d="M183.602 121.121l-3.656 6.128-3.758-5.571.478-6.601 1.319-18.198h3.858l1.367 18.821.392 5.421z" fill="#13AB67"/></g><path d="M166.806 91.02l-.713 3.568 13.147-3.569h-12.434zm13.236-.002l12.545 2.644-.717-3.568-11.828.924z" fill="#D9DADA"/></g><path d="M177.206 108.274l2.65 4.514 2.734-4.514h-5.384z" fill="#13AB67"/><path d="M150.315 50.604c-.371.093-3.244-.49-3.518-.8 3.156-1.796 4.156-5.927 6.339-8.213 9.269-9.717 18.674-16.062 32.342-14.671 5.225.533 10.362 2.198 14.855 4.923 3.267 1.982 6.17 5.011 8.631 7.914 2.583 3.048 3.348 4.46 4.986 8.113 2.072 4.625 4.858 6.592 4.858 6.592s-4.008 1.036-5.472.156c.798.44 1.608 6.113 1.638 7.032.072 2.352-.09 4.703-.4 7.034-1.316 9.796-5.761 11.088-6.225 15.804-1.123.177-3.044-1.967-3.014-3.4-.066 3.069-2.545 5.824-4.213 7.191-6.122 5.023-20.227 6.405-23.982 6.688a4.04 4.04 0 01-1.81-.277c-4.041-1.61-20.793-8.832-24.019-18.93-.367-1.15-.81-2.712-.716-3.137-.31 1.38-1.127 3.12-1.765 3.08-.379-3.447-2.367-4.52-2.454-10.398-.075-5.02 1.68-9.494 3.939-14.7z" fill="#F2B34C"/><path d="M157.282 31.654a6.644 6.644 0 017.887-5.102c2.644.567 4.637 2.915 5.164 5.4l-7.953 7.588a6.644 6.644 0 01-5.101-7.886h.003zm5.739 4.676l4.262-4.249a3.585 3.585 0 10-4.262 4.249zm39.672-7.684a6.66 6.66 0 017.342 5.896 6.66 6.66 0 01-5.897 7.342l-7.061-8.66a6.665 6.665 0 015.616-4.578zm1.078 10.007a3.85 3.85 0 10-4.083-5.008l4.083 5.008z" fill="#F2B34C"/><path d="M203.757 38.96a4.144 4.144 0 110-8.288 4.144 4.144 0 010 8.287zm-40.191-2.03a4.143 4.143 0 110-8.287 4.143 4.143 0 010 8.287zm36.539 13.869c-2.829-7.793-11.608-11.565-17.902-12.97 0 0-6.462-1.698-5.824 1.443 0 0 1.696 3.667-4.3 1.796-7.632-2.378-14.795 11.369-14.186 20.123.592 8.5 9.433 15.634 25.556 15.241 1.641-.04 8.045-.776 10.946-2.282 12.09-6.269 8.063-16.868 5.71-23.354v.003z" fill="#F8E6C6"/><path d="M174.733 59.577s-1.789 7.058 2.132 7.772c0 0 4.315 1.24 4.851-6.318l-3.725-2.388-3.258.934z" fill="#EB8080"/><path d="M190.334 56.5a.63.63 0 01.852.268l.84 1.611a.638.638 0 01-.265.858.608.608 0 01-.473.046.638.638 0 01-.379-.314l-.84-1.61a.638.638 0 01.265-.859zm2.826 2.476a.643.643 0 00.476-.045.636.636 0 00.265-.858l-.841-1.611a.63.63 0 00-.852-.269.637.637 0 00-.265.859l.84 1.61a.63.63 0 00.38.314h-.003zm-25.461-6.679a.626.626 0 01.852.268l.84 1.61a.638.638 0 01-.265.859.637.637 0 01-.855-.268l-.84-1.611a.638.638 0 01.265-.858h.003zm-1.871.304a.629.629 0 01.852.268l.84 1.611a.638.638 0 01-.265.859.607.607 0 01-.473.045.638.638 0 01-.379-.313l-.84-1.611a.638.638 0 01.265-.859zm7.722 15.71a.568.568 0 01.629.503c.046.386.952.813 1.539.958 1.196.262 2.183-.084 2.445-.244a.569.569 0 011.03.334c0 .139-.051.344-.277.527-.494.398-1.927.831-3.451.497-.036-.009-.114-.027-.223-.06-.59-.178-2.059-.729-2.192-1.88a.574.574 0 01.5-.635zm-3.584-12.127c.849-.777 2.066-1.033 3.168-1.054 1.831-.037 3.677.737 4.92 2.092.368.401.552.892.564 1.4.138-.243.316-.466.511-.668 1.494-1.548 3.894-1.993 5.942-1.668 1.551.244 3.342.75 4.457 1.94.012.014.027.026.039.041.921 1.015 1.216 2.693.238 3.777-.678.753-1.846 1.069-2.807 1.252-2.222.422-4.999.428-6.959-.852-.635-.415-1.171-1-1.476-1.698a2.696 2.696 0 01-.228-.952c-.35.6-.997.864-1.681 1.003-1.59.325-3.367.32-4.908-.232-1.69-.602-3.557-2.752-1.777-4.381h-.003z" fill="#F0C9AE"/><path d="M176.992 59.392c-.768-.338-1.825-1.139-1.665-2.394.262-2.036 3.107-2.262 4.52-1.943 1.629.368 2.878 2.138 2.421 3.65-.389 1.289-2.195 1.295-3.514 1.175 0 0-.997-.151-1.765-.488h.003z" fill="#4B1E0E"/><path d="M174.588 46.748c-.748-.176-1.26-.717-1.144-1.208.115-.49.816-.745 1.563-.568.748.177 1.26.718 1.145 1.208-.116.49-.816.745-1.564.568zm11.71 1.715c-.768-.022-1.379-.448-1.365-.951.014-.504.649-.895 1.417-.873.768.022 1.379.448 1.364.952-.014.503-.648.894-1.416.872z" fill="#4A1D0E"/><path d="M185.367 59.532a4.822 4.822 0 11.001-9.643 4.822 4.822 0 01-.001 9.643zm-11.248-2.029a4.821 4.821 0 110-9.643 4.821 4.821 0 010 9.643zm6.446-3.233l-1.734-.156" stroke="#2C3342" stroke-width=".825" stroke-miterlimit="10"/><path d="M188.455 54.996c-.281-1.836-2.223-1.979-2.237-1.98-2.096-.167-2.993.99-3.03 1.039a.167.167 0 00.001.215.272.272 0 00.164.09.38.38 0 00.089.006c1.379-.068 2.545.08 2.571.084 1.152.105 1.929.728 1.937.733a.352.352 0 00.334.042c.116-.044.185-.135.171-.229zm-2.883-3.235c.156-.028.26-.145.231-.26-.03-.115-.18-.185-.336-.157-1.723.309-2.34 1.247-2.366 1.287-.069.11-.011.233.132.28.015.005.028.01.042.012.132.025.278-.026.342-.124.02-.031.526-.782 1.952-1.036l.003-.002zm-13.891.366a2.18 2.18 0 012.367-1.397c1.765.317 2.192 1.637 2.209 1.692a.19.19 0 01-.058.208.227.227 0 01-.159.049.267.267 0 01-.074-.015c-1.114-.38-2.112-.503-2.134-.506-.973-.161-1.778.26-1.786.264a.263.263 0 01-.285-.036c-.084-.068-.116-.172-.08-.259zm3.234-2.459c-.121-.063-.175-.2-.12-.303.055-.105.197-.138.318-.075 1.331.69 1.586 1.735 1.597 1.78.027.12-.053.227-.183.24-.014 0-.026.002-.037.001a.272.272 0 01-.248-.197c-.008-.035-.223-.874-1.325-1.444l-.002-.002z" fill="#4C1E0B" stroke="#4C1E0B" stroke-width=".5"/><g filter="url(#filter0_d_7335_17227)"><path fill-rule="evenodd" clip-rule="evenodd" d="M16 8C9.373 8 4 13.373 4 20v13c0 6.627 5.373 12 12 12h90c0 11 11.5 16 20 14-10.17-3.236-10.083-8.61-10.011-12.958.005-.355.011-.703.011-1.042h16c6.627 0 12-5.373 12-12V20c0-6.627-5.373-12-12-12H16z" fill="#A4844E"/></g><path d="M34.78 22.139h-9.718c-.26.527-.608 1.1-1.044 1.718h9.384V34.58c0 .443-.12.785-.361 1.026-.234.24-.592.367-1.074.38-.482.013-.957.02-1.426.02a47.3 47.3 0 01-1.846-.03l-.771-1.777c.846.04 1.93.059 3.252.059.28 0 .42-.153.42-.46v-1.835H22.68c-.339 1.413-1.032 2.757-2.08 4.033l-1.7-.957c1.44-1.575 2.159-3.05 2.159-4.424v-3.213c-.886.925-1.758 1.664-2.618 2.217l-1.279-1.357a19.032 19.032 0 005.781-6.123h-5.566V20.4h6.504c.423-.748.729-1.41.918-1.982l1.846.303c-.17.508-.404 1.067-.704 1.68h8.838v1.738zm-3.184 5v-1.582h-8.711v1.582h8.71zm0 3.183V28.76h-8.711v1.562h8.71zm16.045-3.164l-1.26.322c-.046-.462-.108-.817-.186-1.064-1.1.189-2.112.329-3.037.42l-.42-1.416c.41-.43.957-1.143 1.64-2.139-.605.052-1.09.078-1.454.078l-.322-1.279c.722-.99 1.27-2.178 1.64-3.564l1.533.488c-.585 1.36-1.064 2.292-1.435 2.793.28.02.599-.007.957-.078.13-.215.351-.655.664-1.319l1.357.723c-.833 1.589-1.787 2.982-2.861 4.18.43-.02.898-.075 1.406-.166a3.036 3.036 0 00-.263-.84l1.2-.42c.457 1.36.736 2.454.84 3.281zm7.324 5.567c-.358 2.324-1.087 3.486-2.188 3.486-.768 0-1.647-.697-2.636-2.09-1.628 1.022-2.943 1.71-3.946 2.06l-.976-1.503c1.816-.684 3.177-1.37 4.082-2.06-.378-.815-.69-1.82-.938-3.018h-2.861l-.02.478c1.244.853 2.084 1.494 2.52 1.924l-1.084 1.396c-.352-.403-.898-.888-1.64-1.455-.424 1.758-1.176 3.197-2.256 4.317l-1.446-.977c1.42-1.354 2.155-3.248 2.207-5.683h-1.699v-1.641h5.976c-.28-2.298-.465-5.446-.556-9.443h1.66c.04 3.62.225 6.767.557 9.443h1.181c-.039-.189-.146-.394-.322-.615l1.855-.381c.144.228.326.56.547.996h1.739v1.64h-4.658c.09.6.276 1.234.556 1.905a9.2 9.2 0 001.397-1.68l1.523.772c-.657.983-1.364 1.803-2.12 2.46.6.828.997 1.24 1.192 1.24.365 0 .616-.832.752-2.5l1.602.929zm-12.149-5.801l-1.035.976c-.312-.703-.566-1.21-.761-1.523v9.707h-1.68v-8.828c-.384 1.523-.863 2.8-1.436 3.828l-.781-2.1c.807-1.55 1.439-3.343 1.895-5.38h-1.7v-1.68h2.022v-3.408h1.68v3.408h1.318v1.68h-1.319v.312c.84 1.172 1.44 2.174 1.797 3.008zm11.944.137l-1.22.4-.196-1.123c-1.166.163-2.207.296-3.125.4l-.46-1.396c.404-.365.951-1.039 1.641-2.022a31.8 31.8 0 01-1.503.196l-.254-1.436c.716-.983 1.328-2.165 1.835-3.545l1.485.547c-.345.846-.898 1.826-1.66 2.94.39-.027.735-.072 1.035-.137.325-.547.58-1.003.762-1.367l1.416.546c-.677 1.329-1.628 2.715-2.852 4.16.28-.012.713-.061 1.299-.146a3.495 3.495 0 00-.244-.723l1.22-.39c.398 1.035.671 2.067.82 3.096zm20.322-5.02l-.703 1.582a35.071 35.071 0 01-4.961-1.64v.742h-6.533v-.782a33.455 33.455 0 01-4.903 1.72l-.879-1.446c3.94-1.016 6.846-2.315 8.721-3.897l1.953.479c-.136.17-.257.296-.361.38 1.856 1.173 4.41 2.126 7.666 2.862zm-7.06-.703a85.559 85.559 0 01-1.963-1.113 10.8 10.8 0 01-1.875 1.113h3.838zm5.234 7.363H58.978v-5.166h14.278v5.166zm-1.758-1.396V24.96h-4.521v2.344h4.521zm-.762-1.407c-.442.372-1.002.759-1.68 1.163l-1.24-.84a34.538 34.538 0 001.641-1.084l1.28.761zm-5.517 1.407V24.96h-4.502v2.344h4.502zm-.88-.987l-1.259.801a13.99 13.99 0 00-1.66-1.181l1.24-.84c.41.228.97.634 1.68 1.22zm8.058 9.659h-1.758v-.713h-8.955v.713h-1.827V29.58h12.54v6.397zm-1.758-4.22v-.82h-8.955v.82h8.955zm0 2.12v-.879h-8.955v.879h8.955zm11.543-12.959l-1.28 1.22c-1.028-1.067-2.076-1.926-3.144-2.578l1.22-1.26a18.418 18.418 0 013.204 2.618zm12.636 11.24H89.76v1.602h-1.797v-1.602h-5.147v-1.514h5.147V29.64h-4.346v-1.416h4.346v-1.045h-4.746v-1.475h2.646c-.175-.462-.416-.97-.722-1.523h-2.217v-1.504h5.02v-1.28h-4.561v-1.474h4.56v-1.358h1.758v1.358h4.414v1.474h-4.414v1.28h5.078v1.504h-2.158c-.228.573-.462 1.08-.703 1.523h2.48v1.475H89.76v1.045h4.258v1.416H89.76v1.006h5.058v1.513zm-4.062-7.978h-3.78c.248.475.476.983.684 1.523h2.442c.266-.54.485-1.048.654-1.523zm4.121 9.902l-.596 1.64c-2.298.04-4.671.06-7.119.06-3.027 0-5.234-.675-6.621-2.022a19.61 19.61 0 01-1.943 2.46l-1.416-1.142c1.712-1.764 2.832-3.678 3.359-5.742h-2.92v-1.68c.846-.905 1.706-2.057 2.578-3.457h-2.9v-1.582h5V24.2a33.045 33.045 0 01-2.48 3.526h2.578v1.61a27.159 27.159 0 01-1.094 2.97 4.789 4.789 0 001.748 1.22 7.823 7.823 0 002.187.547c.769.078 2.142.117 4.121.117 1.817 0 3.656-.035 5.518-.107zm20-1.904c-.326 2.643-1.097 3.965-2.315 3.965-1.236 0-2.317-1.221-3.242-3.663a27.796 27.796 0 01-4.463 3.78l-1.24-1.319c2.162-1.386 3.854-2.812 5.078-4.277-.605-2.292-.989-4.713-1.152-7.266h-6.807v2.178h5.284c-.066 1.64-.144 2.927-.235 3.858a52.538 52.538 0 01-.224 2.109 2.678 2.678 0 01-.508 1.26c-.267.358-.596.582-.987.674-.39.084-.895.127-1.513.127-.313 0-.638-.014-.977-.04l-.498-1.66c.404.02.749.03 1.035.03.944 0 1.475-.105 1.592-.313.124-.215.234-.814.332-1.797s.153-1.816.166-2.5h-3.525c-.098 3.822-.81 6.787-2.139 8.897l-1.377-1.3c1.198-1.998 1.797-4.986 1.797-8.964v-4.258h8.457a51.336 51.336 0 01-.039-3.183h1.807c-.02.332-.03.68-.03 1.045 0 .631.03 1.344.088 2.138h5.235v1.7h-5.137c.078 1.829.325 3.655.742 5.478.781-1.185 1.488-2.67 2.119-4.453l1.602.576c-.886 2.383-1.934 4.355-3.145 5.918.228.788.511 1.494.85 2.12.345.618.563.96.654 1.025a.532.532 0 00.293.087.354.354 0 00.274-.107c.071-.078.169-.407.292-.986.124-.58.202-1.146.235-1.7l1.621.82zm-.957-11.983l-.996 1.29c-.729-.534-1.683-1.03-2.862-1.485l.997-1.338a11.66 11.66 0 012.861 1.533zm13.223-.312l-.264 10.713h-1.817l-.263-10.713h2.344zM126 32.539c.384 0 .716.133.996.4.28.26.42.58.42.958 0 .37-.137.69-.41.956-.274.26-.609.391-1.006.391a1.44 1.44 0 01-1.016-.38 1.298 1.298 0 01-.4-.967c0-.385.137-.707.41-.967.28-.26.615-.39 1.006-.39z" fill="#fff"/><rect x="133.143" y="60.435" width="2.206" height="18.202" rx="1.103" transform="rotate(-15.203 133.143 60.435)" fill="#4A1D0E"/><circle cx="133.484" cy="57.484" r="8.377" transform="rotate(-15 133.484 57.484)" fill="#fff" stroke="#86BDDD" stroke-width="2"/><g clip-path="url(#clip0_7335_17227)" fill="#60A6E2"><path d="M130.959 56.554l-.905.243a.312.312 0 00-.221.382l1.011 3.773a.313.313 0 00.383.221l.905-.242a.312.312 0 00.221-.383l-1.011-3.773a.313.313 0 00-.383-.221zm3.882-1.04a.318.318 0 01-.393-.38l.273-1.178a.549.549 0 00-1.01-.399l-1.285 2.225a1.248 1.248 0 00-.125.949l.715 2.67a1.25 1.25 0 001.531.883l2.5-.67a.937.937 0 00.695-.912l-.019-2.883a.832.832 0 00-1.046-.797l-1.836.492z"/></g><defs><clipPath id="clip0_7335_17227"><path fill="#fff" transform="rotate(-15 269.852 -462.891)" d="M0 0h8v8H0z"/></clipPath><filter id="filter0_d_7335_17227" x="0" y="6" width="152" height="63.432" filterUnits="userSpaceOnUse" color-interpolation-filters="sRGB"><feFlood flood-opacity="0" result="BackgroundImageFix"/><feColorMatrix in="SourceAlpha" values="0 0 0 0 0 0 0 0 0 0 0 0 0 0 0 0 0 0 127 0" result="hardAlpha"/><feOffset dx="2" dy="4"/><feGaussianBlur stdDeviation="3"/><feComposite in2="hardAlpha" operator="out"/><feColorMatrix values="0 0 0 0 0 0 0 0 0 0 0 0 0 0 0 0 0 0 0.15 0"/><feBlend in2="BackgroundImageFix" result="effect1_dropShadow_7335_17227"/><feBlend in="SourceGraphic" in2="effect1_dropShadow_7335_17227" result="shape"/></filter></defs></svg>