<svg width="24" height="24" viewBox="0 0 24 24" fill="none" xmlns="http://www.w3.org/2000/svg"><g clip-path="url(#clip0_2603_52631)"><path d="M3.844 15.43l-2.27 4.54a.704.704 0 00.629 1.017h3.414l2.049 2.732a.702.702 0 001.191-.108l2.139-4.278a10.385 10.385 0 01-7.152-3.902zm18.57 4.54l-2.27-4.54a10.385 10.385 0 01-7.152 3.903l2.14 4.278a.703.703 0 001.19.108l2.049-2.732h3.414a.703.703 0 00.629-1.017zM20.981 8.988C20.981 4.032 16.949 0 11.993 0 7.038 0 3.006 4.032 3.006 8.988c0 4.955 4.032 8.987 8.987 8.987 4.956 0 8.988-4.032 8.988-8.987z" fill="#F1AE00"/><path d="M12.956 13h-1.812V7.54l.024-.624.024-.576c-.04.048-.128.136-.264.264-.128.12-.248.228-.36.324l-.984.792-.876-1.092 2.76-2.196h1.488V13z" fill="#fff"/></g><defs><clipPath id="clip0_2603_52631"><path fill="#fff" d="M0 0h24v24H0z"/></clipPath></defs></svg>