<svg width="24" height="24" viewBox="0 0 24 24" fill="none" xmlns="http://www.w3.org/2000/svg"><g clip-path="url(#clip0_2603_52641)"><path d="M3.844 15.43l-2.27 4.54a.704.704 0 00.629 1.017h3.414l2.049 2.732a.702.702 0 001.191-.108l2.139-4.278a10.385 10.385 0 01-7.152-3.902zm18.57 4.54l-2.27-4.54a10.385 10.385 0 01-7.152 3.903l2.14 4.278a.703.703 0 001.19.108l2.049-2.732h3.414a.703.703 0 00.629-1.017zM20.981 8.988C20.981 4.032 16.949 0 11.993 0 7.038 0 3.006 4.032 3.006 8.988c0 4.955 4.032 8.987 8.987 8.987 4.956 0 8.988-4.032 8.988-8.987z" fill="#A3A3A3"/><path d="M14.468 13H8.48v-1.26l2.148-2.172c.432-.448.78-.82 1.044-1.116.264-.304.456-.576.576-.816.12-.248.18-.512.18-.792 0-.344-.096-.6-.288-.768-.184-.168-.436-.252-.756-.252-.328 0-.648.076-.96.228-.312.152-.64.368-.984.648l-.984-1.164c.248-.216.508-.416.78-.6.28-.184.6-.332.96-.444.368-.12.808-.18 1.32-.18.56 0 1.04.104 1.44.312.408.2.72.476.936.828.224.344.336.736.336 1.176 0 .36-.056.692-.168.996-.104.304-.26.6-.468.888-.2.28-.448.572-.744.876-.296.296-.632.62-1.008.972l-1.104 1.032v.084h3.732V13z" fill="#fff"/></g><defs><clipPath id="clip0_2603_52641"><path fill="#fff" d="M0 0h24v24H0z"/></clipPath></defs></svg>