<svg width="24" height="24" viewBox="0 0 24 24" fill="none" xmlns="http://www.w3.org/2000/svg"><g clip-path="url(#clip0_2603_52651)"><path d="M3.844 15.43l-2.27 4.54a.704.704 0 00.629 1.017h3.414l2.049 2.732a.702.702 0 001.191-.108l2.139-4.278a10.385 10.385 0 01-7.152-3.902zm18.57 4.54l-2.27-4.54a10.385 10.385 0 01-7.152 3.903l2.14 4.278a.703.703 0 001.19.108l2.049-2.732h3.414a.703.703 0 00.629-1.017zM20.981 8.988C20.981 4.032 16.949 0 11.993 0 7.038 0 3.006 4.032 3.006 8.988c0 4.955 4.032 8.987 8.987 8.987 4.956 0 8.988-4.032 8.988-8.987z" fill="#CA9947"/><path d="M14.132 6.352c0 .392-.084.732-.252 1.02-.16.288-.38.524-.66.708-.272.184-.584.32-.936.408v.036c.688.08 1.208.288 1.56.624.36.336.54.788.54 1.356 0 .496-.124.944-.372 1.344-.24.392-.616.704-1.128.936-.504.224-1.156.336-1.956.336a6.86 6.86 0 01-1.32-.12 5.844 5.844 0 01-1.152-.348v-1.536a5.37 5.37 0 002.28.564c.648 0 1.1-.112 1.356-.336.264-.224.396-.54.396-.948 0-.24-.06-.44-.18-.6-.12-.168-.332-.292-.636-.372-.296-.088-.712-.132-1.248-.132h-.648V7.9h.66c.528 0 .928-.048 1.2-.144.28-.104.468-.24.564-.408.104-.176.156-.376.156-.6 0-.304-.096-.54-.288-.708-.184-.176-.496-.264-.936-.264-.272 0-.52.036-.744.108a3.25 3.25 0 00-.612.24 7.31 7.31 0 00-.468.276l-.84-1.248c.224-.16.472-.304.744-.432.28-.128.588-.228.924-.3a5.4 5.4 0 011.128-.108c.88 0 1.576.18 2.088.54.52.352.78.852.78 1.5z" fill="#fff"/></g><defs><clipPath id="clip0_2603_52651"><path fill="#fff" d="M0 0h24v24H0z"/></clipPath></defs></svg>